G75*
G70*
%OFA0B0*%
%FSLAX24Y24*%
%IPPOS*%
%LPD*%
%AMOC8*
5,1,8,0,0,1.08239X$1,22.5*
%
%ADD10C,0.0080*%
%ADD11C,0.0060*%
%ADD12C,0.0050*%
D10*
X029392Y001309D02*
X029546Y001156D01*
X030006Y001156D01*
X029546Y001462D02*
X029392Y001616D01*
X029546Y001769D01*
X030006Y001769D01*
X030006Y002076D02*
X029546Y002076D01*
X029392Y002230D01*
X029546Y002383D01*
X029392Y002537D01*
X029546Y002690D01*
X030006Y002690D01*
X030006Y002997D02*
X029546Y002997D01*
X029392Y003151D01*
X029546Y003304D01*
X029392Y003457D01*
X029546Y003611D01*
X030006Y003611D01*
X029546Y003918D02*
X029546Y004071D01*
X029392Y004071D01*
X029392Y003918D01*
X029546Y003918D01*
X029546Y004378D02*
X029853Y004378D01*
X030006Y004532D01*
X030006Y004839D01*
X029853Y004992D01*
X029699Y004992D01*
X029699Y004378D01*
X029546Y004378D02*
X029392Y004532D01*
X029392Y004839D01*
X029392Y005299D02*
X029392Y005606D01*
X029392Y005452D02*
X030313Y005452D01*
X030313Y005299D01*
X029853Y005913D02*
X029546Y005913D01*
X029392Y006066D01*
X029392Y006373D01*
X029699Y006527D02*
X029699Y005913D01*
X029853Y005913D02*
X030006Y006066D01*
X030006Y006373D01*
X029853Y006527D01*
X029699Y006527D01*
X029546Y006834D02*
X029392Y006987D01*
X029392Y007447D01*
X029853Y007754D02*
X029853Y008368D01*
X030006Y008675D02*
X029392Y008675D01*
X029699Y008675D02*
X030006Y008982D01*
X030006Y009135D01*
X029853Y009442D02*
X030006Y009596D01*
X030006Y009903D01*
X029853Y010056D01*
X029699Y010056D01*
X029699Y009442D01*
X029546Y009442D02*
X029853Y009442D01*
X029546Y009442D02*
X029392Y009596D01*
X029392Y009903D01*
X029546Y010363D02*
X029699Y010516D01*
X029699Y010977D01*
X029853Y010977D02*
X029392Y010977D01*
X029392Y010516D01*
X029546Y010363D01*
X030006Y010516D02*
X030006Y010823D01*
X029853Y010977D01*
X029392Y011284D02*
X029392Y011591D01*
X029392Y011437D02*
X030313Y011437D01*
X030313Y011284D01*
X029546Y011898D02*
X029546Y012051D01*
X029392Y012051D01*
X029392Y011898D01*
X029546Y011898D01*
X029546Y012358D02*
X029392Y012511D01*
X029392Y012972D01*
X029546Y013279D02*
X029392Y013432D01*
X029392Y013739D01*
X029546Y013893D01*
X029853Y013893D01*
X030006Y013739D01*
X030006Y013432D01*
X029853Y013279D01*
X029546Y013279D01*
X030006Y012972D02*
X030006Y012511D01*
X029853Y012358D01*
X029546Y012358D01*
X029392Y014199D02*
X030006Y014199D01*
X030006Y014353D01*
X029853Y014506D01*
X029392Y014506D01*
X029853Y014506D02*
X030006Y014660D01*
X029853Y014813D01*
X029392Y014813D01*
X030006Y007447D02*
X030006Y006987D01*
X029853Y006834D01*
X029546Y006834D01*
X029546Y001462D02*
X029392Y001309D01*
D11*
X028989Y001156D02*
X028669Y001156D01*
X028562Y001262D01*
X028669Y001369D01*
X028562Y001476D01*
X028669Y001583D01*
X028989Y001583D01*
X028989Y001800D02*
X028669Y001800D01*
X028562Y001907D01*
X028669Y002014D01*
X028562Y002120D01*
X028669Y002227D01*
X028989Y002227D01*
X028989Y002445D02*
X028669Y002445D01*
X028562Y002551D01*
X028669Y002658D01*
X028562Y002765D01*
X028669Y002872D01*
X028989Y002872D01*
X028669Y003089D02*
X028669Y003196D01*
X028562Y003196D01*
X028562Y003089D01*
X028669Y003089D01*
X028669Y003518D02*
X028562Y003625D01*
X028669Y003518D02*
X029096Y003518D01*
X028989Y003411D02*
X028989Y003625D01*
X028989Y003948D02*
X028989Y004161D01*
X028882Y004268D01*
X028562Y004268D01*
X028562Y003948D01*
X028669Y003841D01*
X028776Y003948D01*
X028776Y004268D01*
X028989Y004486D02*
X028349Y004486D01*
X028562Y004486D02*
X028562Y004806D01*
X028669Y004913D01*
X028882Y004913D01*
X028989Y004806D01*
X028989Y004486D01*
X028989Y005130D02*
X028562Y005130D01*
X028776Y005130D02*
X028989Y005344D01*
X028989Y005450D01*
X028669Y005667D02*
X028669Y005774D01*
X028562Y005774D01*
X028562Y005667D01*
X028669Y005667D01*
X028669Y005989D02*
X028562Y006096D01*
X028562Y006310D01*
X028669Y006416D01*
X028882Y006416D01*
X028989Y006310D01*
X028989Y006096D01*
X028882Y005989D01*
X028669Y005989D01*
X028776Y006634D02*
X028989Y006848D01*
X028989Y006954D01*
X028882Y007171D02*
X028669Y007171D01*
X028562Y007278D01*
X028562Y007598D01*
X028455Y007598D02*
X028989Y007598D01*
X028989Y007278D01*
X028882Y007171D01*
X028349Y007385D02*
X028349Y007491D01*
X028455Y007598D01*
X028562Y007816D02*
X029203Y008243D01*
X029096Y008460D02*
X028669Y008460D01*
X028562Y008567D01*
X028562Y008780D01*
X028669Y008887D01*
X029096Y008887D01*
X029203Y008780D01*
X029203Y008567D01*
X029096Y008460D01*
X029203Y009105D02*
X028562Y009105D01*
X028882Y009105D02*
X028882Y009532D01*
X028562Y009532D02*
X029203Y009532D01*
X029203Y009749D02*
X028562Y009749D01*
X028562Y010176D01*
X028562Y006634D02*
X028989Y006634D01*
D12*
X003732Y005626D02*
X003734Y005639D01*
X003739Y005652D01*
X003748Y005663D01*
X003759Y005670D01*
X003772Y005675D01*
X003785Y005676D01*
X003799Y005673D01*
X003811Y005667D01*
X003821Y005658D01*
X003828Y005646D01*
X003832Y005633D01*
X003832Y005619D01*
X003828Y005606D01*
X003821Y005594D01*
X003811Y005585D01*
X003799Y005579D01*
X003785Y005576D01*
X003772Y005577D01*
X003759Y005582D01*
X003748Y005589D01*
X003739Y005600D01*
X003734Y005613D01*
X003732Y005626D01*
X003741Y013594D02*
X000974Y013594D01*
X000974Y016157D01*
X003741Y016157D01*
X003741Y013594D01*
X001656Y014876D02*
X001658Y014929D01*
X001664Y014981D01*
X001674Y015033D01*
X001687Y015084D01*
X001705Y015134D01*
X001726Y015183D01*
X001751Y015230D01*
X001779Y015274D01*
X001810Y015317D01*
X001845Y015357D01*
X001882Y015394D01*
X001922Y015429D01*
X001965Y015460D01*
X002010Y015488D01*
X002056Y015513D01*
X002105Y015534D01*
X002155Y015552D01*
X002206Y015565D01*
X002258Y015575D01*
X002310Y015581D01*
X002363Y015583D01*
X002416Y015581D01*
X002468Y015575D01*
X002520Y015565D01*
X002571Y015552D01*
X002621Y015534D01*
X002670Y015513D01*
X002717Y015488D01*
X002761Y015460D01*
X002804Y015429D01*
X002844Y015394D01*
X002881Y015357D01*
X002916Y015317D01*
X002947Y015274D01*
X002975Y015229D01*
X003000Y015183D01*
X003021Y015134D01*
X003039Y015084D01*
X003052Y015033D01*
X003062Y014981D01*
X003068Y014929D01*
X003070Y014876D01*
X003068Y014823D01*
X003062Y014771D01*
X003052Y014719D01*
X003039Y014668D01*
X003021Y014618D01*
X003000Y014569D01*
X002975Y014522D01*
X002947Y014478D01*
X002916Y014435D01*
X002881Y014395D01*
X002844Y014358D01*
X002804Y014323D01*
X002761Y014292D01*
X002716Y014264D01*
X002670Y014239D01*
X002621Y014218D01*
X002571Y014200D01*
X002520Y014187D01*
X002468Y014177D01*
X002416Y014171D01*
X002363Y014169D01*
X002310Y014171D01*
X002258Y014177D01*
X002206Y014187D01*
X002155Y014200D01*
X002105Y014218D01*
X002056Y014239D01*
X002009Y014264D01*
X001965Y014292D01*
X001922Y014323D01*
X001882Y014358D01*
X001845Y014395D01*
X001810Y014435D01*
X001779Y014478D01*
X001751Y014523D01*
X001726Y014569D01*
X001705Y014618D01*
X001687Y014668D01*
X001674Y014719D01*
X001664Y014771D01*
X001658Y014823D01*
X001656Y014876D01*
X001028Y017121D02*
X003796Y017121D01*
X003796Y019684D01*
X001028Y019684D01*
X001028Y017121D01*
X001711Y018403D02*
X001713Y018456D01*
X001719Y018508D01*
X001729Y018560D01*
X001742Y018611D01*
X001760Y018661D01*
X001781Y018710D01*
X001806Y018757D01*
X001834Y018801D01*
X001865Y018844D01*
X001900Y018884D01*
X001937Y018921D01*
X001977Y018956D01*
X002020Y018987D01*
X002065Y019015D01*
X002111Y019040D01*
X002160Y019061D01*
X002210Y019079D01*
X002261Y019092D01*
X002313Y019102D01*
X002365Y019108D01*
X002418Y019110D01*
X002471Y019108D01*
X002523Y019102D01*
X002575Y019092D01*
X002626Y019079D01*
X002676Y019061D01*
X002725Y019040D01*
X002772Y019015D01*
X002816Y018987D01*
X002859Y018956D01*
X002899Y018921D01*
X002936Y018884D01*
X002971Y018844D01*
X003002Y018801D01*
X003030Y018756D01*
X003055Y018710D01*
X003076Y018661D01*
X003094Y018611D01*
X003107Y018560D01*
X003117Y018508D01*
X003123Y018456D01*
X003125Y018403D01*
X003123Y018350D01*
X003117Y018298D01*
X003107Y018246D01*
X003094Y018195D01*
X003076Y018145D01*
X003055Y018096D01*
X003030Y018049D01*
X003002Y018005D01*
X002971Y017962D01*
X002936Y017922D01*
X002899Y017885D01*
X002859Y017850D01*
X002816Y017819D01*
X002771Y017791D01*
X002725Y017766D01*
X002676Y017745D01*
X002626Y017727D01*
X002575Y017714D01*
X002523Y017704D01*
X002471Y017698D01*
X002418Y017696D01*
X002365Y017698D01*
X002313Y017704D01*
X002261Y017714D01*
X002210Y017727D01*
X002160Y017745D01*
X002111Y017766D01*
X002064Y017791D01*
X002020Y017819D01*
X001977Y017850D01*
X001937Y017885D01*
X001900Y017922D01*
X001865Y017962D01*
X001834Y018005D01*
X001806Y018050D01*
X001781Y018096D01*
X001760Y018145D01*
X001742Y018195D01*
X001729Y018246D01*
X001719Y018298D01*
X001713Y018350D01*
X001711Y018403D01*
X005380Y018144D02*
X005380Y015581D01*
X008148Y015581D01*
X008148Y018144D01*
X005380Y018144D01*
X006063Y016863D02*
X006065Y016916D01*
X006071Y016968D01*
X006081Y017020D01*
X006094Y017071D01*
X006112Y017121D01*
X006133Y017170D01*
X006158Y017217D01*
X006186Y017261D01*
X006217Y017304D01*
X006252Y017344D01*
X006289Y017381D01*
X006329Y017416D01*
X006372Y017447D01*
X006417Y017475D01*
X006463Y017500D01*
X006512Y017521D01*
X006562Y017539D01*
X006613Y017552D01*
X006665Y017562D01*
X006717Y017568D01*
X006770Y017570D01*
X006823Y017568D01*
X006875Y017562D01*
X006927Y017552D01*
X006978Y017539D01*
X007028Y017521D01*
X007077Y017500D01*
X007124Y017475D01*
X007168Y017447D01*
X007211Y017416D01*
X007251Y017381D01*
X007288Y017344D01*
X007323Y017304D01*
X007354Y017261D01*
X007382Y017216D01*
X007407Y017170D01*
X007428Y017121D01*
X007446Y017071D01*
X007459Y017020D01*
X007469Y016968D01*
X007475Y016916D01*
X007477Y016863D01*
X007475Y016810D01*
X007469Y016758D01*
X007459Y016706D01*
X007446Y016655D01*
X007428Y016605D01*
X007407Y016556D01*
X007382Y016509D01*
X007354Y016465D01*
X007323Y016422D01*
X007288Y016382D01*
X007251Y016345D01*
X007211Y016310D01*
X007168Y016279D01*
X007123Y016251D01*
X007077Y016226D01*
X007028Y016205D01*
X006978Y016187D01*
X006927Y016174D01*
X006875Y016164D01*
X006823Y016158D01*
X006770Y016156D01*
X006717Y016158D01*
X006665Y016164D01*
X006613Y016174D01*
X006562Y016187D01*
X006512Y016205D01*
X006463Y016226D01*
X006416Y016251D01*
X006372Y016279D01*
X006329Y016310D01*
X006289Y016345D01*
X006252Y016382D01*
X006217Y016422D01*
X006186Y016465D01*
X006158Y016510D01*
X006133Y016556D01*
X006112Y016605D01*
X006094Y016655D01*
X006081Y016706D01*
X006071Y016758D01*
X006065Y016810D01*
X006063Y016863D01*
M02*
