G75*
G70*
%OFA0B0*%
%FSLAX24Y24*%
%IPPOS*%
%LPD*%
%AMOC8*
5,1,8,0,0,1.08239X$1,22.5*
%
%ADD10C,0.0600*%
%ADD11R,0.1100X0.0250*%
%ADD12R,0.0600X0.0600*%
%ADD13C,0.0280*%
%ADD14C,0.0100*%
%ADD15C,0.0080*%
D10*
X023712Y002216D03*
X024712Y002316D03*
X025712Y002216D03*
X026712Y002316D03*
X027712Y002216D03*
X027702Y003326D03*
X026702Y003226D03*
X025702Y003326D03*
X024702Y003226D03*
X023702Y003326D03*
X030732Y003216D03*
X031732Y003216D03*
X031832Y004216D03*
X030832Y004216D03*
X030732Y005216D03*
X031732Y005216D03*
X031832Y006216D03*
X030832Y006216D03*
X030732Y007216D03*
X031732Y007216D03*
X031832Y008216D03*
X030832Y008216D03*
X030732Y009216D03*
X031732Y009216D03*
X031832Y010216D03*
X030832Y010216D03*
X030732Y011216D03*
X031732Y011216D03*
X031832Y012216D03*
X030832Y012216D03*
X030732Y013216D03*
X031732Y013216D03*
X031832Y014216D03*
X030832Y014216D03*
X030732Y015216D03*
X031732Y015216D03*
X031832Y016216D03*
X030832Y016216D03*
X030732Y017216D03*
X031732Y017216D03*
X031832Y018216D03*
X030832Y018216D03*
X030732Y019216D03*
X031732Y019216D03*
X031832Y020216D03*
X019472Y019556D03*
X018472Y019456D03*
X017472Y019556D03*
X014362Y019116D03*
X013362Y019216D03*
X012362Y019116D03*
X011362Y019216D03*
X010362Y019116D03*
X009362Y019216D03*
X030832Y002216D03*
X031832Y002216D03*
X031732Y001216D03*
X030732Y001216D03*
D11*
X033282Y001216D03*
X033282Y002216D03*
X033282Y003216D03*
X033282Y004216D03*
X033282Y005216D03*
X033282Y006216D03*
X033282Y007216D03*
X033282Y008216D03*
X033282Y009216D03*
X033282Y010216D03*
X033282Y011216D03*
X033282Y012216D03*
X033282Y013216D03*
X033282Y014216D03*
X033282Y015216D03*
X033282Y016216D03*
X033282Y017216D03*
X033282Y018216D03*
X033282Y019216D03*
X033282Y020216D03*
D12*
X030832Y020216D03*
X020472Y019456D03*
D13*
X022122Y019456D03*
X024062Y019766D03*
X022132Y017786D03*
X023522Y016456D03*
X024302Y016266D03*
X024882Y016326D03*
X025342Y015636D03*
X026002Y015776D03*
X026092Y014926D03*
X025482Y013756D03*
X025052Y013866D03*
X025452Y012596D03*
X025652Y012126D03*
X026142Y012286D03*
X027172Y012566D03*
X025142Y011756D03*
X024472Y011526D03*
X023582Y011806D03*
X022932Y011806D03*
X022522Y011976D03*
X021482Y012316D03*
X022132Y013156D03*
X021532Y013286D03*
X021212Y014036D03*
X021932Y014816D03*
X022762Y015466D03*
X022522Y016016D03*
X021202Y015706D03*
X020132Y015726D03*
X019892Y015406D03*
X018032Y015496D03*
X016692Y016276D03*
X017042Y016576D03*
X017452Y016856D03*
X016512Y015796D03*
X015532Y015966D03*
X015252Y015626D03*
X014932Y015426D03*
X014572Y014976D03*
X014492Y014456D03*
X015022Y014046D03*
X016692Y012386D03*
X015822Y011396D03*
X014502Y011816D03*
X017202Y010476D03*
X017372Y010966D03*
X018662Y010126D03*
X018972Y010966D03*
X020142Y011006D03*
X020932Y010126D03*
X021542Y010296D03*
X022132Y009776D03*
X020142Y009246D03*
X022132Y008146D03*
X018762Y007486D03*
X016292Y008606D03*
X014237Y008386D03*
X014237Y007886D03*
X014237Y007386D03*
X013887Y007036D03*
X013397Y006546D03*
X012797Y005926D03*
X012247Y005396D03*
X012032Y006306D03*
X010752Y005426D03*
X010432Y005756D03*
X010462Y004946D03*
X011812Y003836D03*
X013322Y003576D03*
X014402Y003936D03*
X015182Y002966D03*
X016372Y003276D03*
X017342Y003956D03*
X016272Y005076D03*
X016772Y005316D03*
X016792Y005886D03*
X013902Y005046D03*
X012032Y007666D03*
X011912Y008656D03*
X011292Y010166D03*
X011402Y011666D03*
X011912Y012656D03*
X010492Y015396D03*
X010482Y016156D03*
X010472Y016666D03*
X011942Y016956D03*
X012442Y016426D03*
X013102Y016966D03*
X014952Y017336D03*
X016352Y019116D03*
X019532Y017416D03*
X024352Y015106D03*
X026522Y016906D03*
X025022Y017486D03*
X024082Y012416D03*
X025672Y010336D03*
X026292Y010216D03*
X027922Y009896D03*
X020112Y004826D03*
X017652Y002376D03*
X008942Y006146D03*
X007332Y006146D03*
X006372Y005646D03*
X005922Y004986D03*
X005822Y003866D03*
X007312Y002736D03*
X007412Y001936D03*
X003852Y004226D03*
X003232Y005076D03*
X002462Y005686D03*
X002902Y006316D03*
X003502Y006306D03*
X004262Y006306D03*
X004192Y005776D03*
X002572Y004226D03*
X001892Y003206D03*
X001352Y001926D03*
X001332Y005886D03*
X001472Y007776D03*
X004492Y008866D03*
X004572Y010246D03*
X007532Y009746D03*
X007502Y009306D03*
X007812Y008746D03*
X007352Y007906D03*
X009122Y008796D03*
X005422Y007596D03*
X008512Y005066D03*
X014237Y008886D03*
X018272Y012476D03*
X008412Y018496D03*
X006782Y016826D03*
X005242Y015416D03*
X005842Y014986D03*
X004812Y014766D03*
X002372Y014796D03*
X000882Y013386D03*
X000832Y016526D03*
X002422Y018356D03*
X000832Y019936D03*
X003982Y019966D03*
X005122Y018496D03*
X006152Y012846D03*
X032232Y001526D03*
D14*
X000762Y001176D02*
X000762Y009676D01*
X006762Y009676D01*
X006762Y001176D01*
X000762Y001176D01*
X000762Y001208D02*
X006762Y001208D01*
X006762Y001307D02*
X000762Y001307D01*
X000762Y001405D02*
X006762Y001405D01*
X006762Y001504D02*
X000762Y001504D01*
X000762Y001602D02*
X006762Y001602D01*
X006762Y001701D02*
X000762Y001701D01*
X000762Y001800D02*
X006762Y001800D01*
X006762Y001898D02*
X000762Y001898D01*
X000762Y001997D02*
X006762Y001997D01*
X006762Y002095D02*
X000762Y002095D01*
X000762Y002194D02*
X006762Y002194D01*
X006762Y002292D02*
X000762Y002292D01*
X000762Y002391D02*
X006762Y002391D01*
X006762Y002489D02*
X000762Y002489D01*
X000762Y002588D02*
X006762Y002588D01*
X006762Y002686D02*
X000762Y002686D01*
X000762Y002785D02*
X006762Y002785D01*
X006762Y002884D02*
X000762Y002884D01*
X000762Y002982D02*
X001706Y002982D01*
X001728Y002960D02*
X001646Y003041D01*
X001602Y003148D01*
X001602Y003263D01*
X001646Y003370D01*
X001728Y003451D01*
X001834Y003496D01*
X001950Y003496D01*
X002056Y003451D01*
X002138Y003370D01*
X002182Y003263D01*
X002182Y003148D01*
X002138Y003041D01*
X002056Y002960D01*
X001950Y002916D01*
X001834Y002916D01*
X001728Y002960D01*
X001630Y003081D02*
X000762Y003081D01*
X000762Y003179D02*
X001602Y003179D01*
X001608Y003278D02*
X000762Y003278D01*
X000762Y003376D02*
X001653Y003376D01*
X001784Y003475D02*
X000762Y003475D01*
X000762Y003573D02*
X006762Y003573D01*
X006762Y003475D02*
X002000Y003475D01*
X002132Y003376D02*
X006762Y003376D01*
X006762Y003278D02*
X002176Y003278D01*
X002182Y003179D02*
X006762Y003179D01*
X006762Y003081D02*
X002154Y003081D01*
X002079Y002982D02*
X006762Y002982D01*
X006972Y002982D02*
X007134Y002982D01*
X007142Y002990D02*
X007058Y002906D01*
X007012Y002795D01*
X007012Y002676D01*
X007058Y002566D01*
X007142Y002481D01*
X007252Y002436D01*
X007372Y002436D01*
X007482Y002481D01*
X007566Y002566D01*
X007612Y002676D01*
X007612Y002795D01*
X007566Y002906D01*
X007482Y002990D01*
X007372Y003036D01*
X007252Y003036D01*
X007142Y002990D01*
X007049Y002884D02*
X006972Y002884D01*
X006972Y002785D02*
X007012Y002785D01*
X007012Y002686D02*
X006972Y002686D01*
X006972Y002588D02*
X007049Y002588D01*
X006972Y002489D02*
X007134Y002489D01*
X006972Y002391D02*
X009442Y002391D01*
X009389Y002338D02*
X009281Y002077D01*
X009281Y001794D01*
X009389Y001533D01*
X009589Y001333D01*
X009851Y001224D01*
X010134Y001224D01*
X010395Y001333D01*
X010595Y001533D01*
X010703Y001794D01*
X010703Y002077D01*
X010595Y002338D01*
X010395Y002538D01*
X010134Y002647D01*
X009851Y002647D01*
X009589Y002538D01*
X009389Y002338D01*
X009370Y002292D02*
X006972Y002292D01*
X006972Y002194D02*
X009329Y002194D01*
X009289Y002095D02*
X006972Y002095D01*
X006972Y001997D02*
X009281Y001997D01*
X009281Y001898D02*
X006972Y001898D01*
X006972Y001800D02*
X009281Y001800D01*
X009320Y001701D02*
X006972Y001701D01*
X006972Y001602D02*
X009360Y001602D01*
X009418Y001504D02*
X006972Y001504D01*
X006972Y001405D02*
X009517Y001405D01*
X009652Y001307D02*
X006972Y001307D01*
X006972Y001263D02*
X006972Y009763D01*
X006849Y009886D01*
X006675Y009886D01*
X000762Y009886D01*
X000762Y013111D01*
X000822Y013086D01*
X000942Y013086D01*
X001052Y013131D01*
X001136Y013216D01*
X001182Y013326D01*
X001182Y013445D01*
X001136Y013556D01*
X001052Y013640D01*
X000942Y013686D01*
X000822Y013686D01*
X000762Y013661D01*
X000762Y016230D01*
X000772Y016226D01*
X000892Y016226D01*
X001002Y016271D01*
X001086Y016356D01*
X001132Y016466D01*
X001132Y016585D01*
X001086Y016696D01*
X001002Y016780D01*
X000892Y016826D01*
X000772Y016826D01*
X000762Y016821D01*
X000762Y019640D01*
X000772Y019636D01*
X000762Y019636D01*
X000772Y019636D02*
X000892Y019636D01*
X001002Y019681D01*
X001086Y019766D01*
X001132Y019876D01*
X001132Y019995D01*
X001086Y020106D01*
X001002Y020190D01*
X000892Y020236D01*
X000772Y020236D01*
X000762Y020231D01*
X000762Y020436D01*
X030372Y020436D01*
X030372Y019849D01*
X030466Y019756D01*
X031198Y019756D01*
X031292Y019849D01*
X031292Y020436D01*
X031439Y020436D01*
X031415Y020388D01*
X031393Y020321D01*
X031384Y020266D01*
X031782Y020266D01*
X031782Y020166D01*
X031384Y020166D01*
X031393Y020110D01*
X031415Y020043D01*
X031447Y019980D01*
X031489Y019922D01*
X031539Y019872D01*
X031596Y019831D01*
X031659Y019799D01*
X031727Y019777D01*
X031782Y019768D01*
X031782Y020165D01*
X031882Y020165D01*
X031882Y019768D01*
X031938Y019777D01*
X032005Y019799D01*
X032068Y019831D01*
X032125Y019872D01*
X032175Y019922D01*
X032217Y019980D01*
X032249Y020043D01*
X032271Y020110D01*
X032280Y020166D01*
X031882Y020166D01*
X031882Y020266D01*
X032280Y020266D01*
X032271Y020321D01*
X032249Y020388D01*
X032225Y020436D01*
X032615Y020436D01*
X032612Y020433D01*
X032592Y020398D01*
X032582Y020360D01*
X032582Y020228D01*
X033269Y020228D01*
X033269Y020203D01*
X032582Y020203D01*
X032582Y020071D01*
X032592Y020033D01*
X032612Y019998D01*
X032640Y019971D01*
X032674Y019951D01*
X032712Y019941D01*
X033270Y019941D01*
X033270Y020203D01*
X033295Y020203D01*
X033295Y019941D01*
X033832Y019941D01*
X033832Y019501D01*
X032666Y019501D01*
X032581Y019416D01*
X032147Y019416D01*
X032122Y019476D01*
X031993Y019606D01*
X031824Y019676D01*
X031641Y019676D01*
X031472Y019606D01*
X031342Y019476D01*
X031272Y019307D01*
X031272Y019124D01*
X031342Y018955D01*
X031472Y018826D01*
X031641Y018756D01*
X031824Y018756D01*
X031993Y018826D01*
X032122Y018955D01*
X032147Y019016D01*
X032581Y019016D01*
X032666Y018931D01*
X033832Y018931D01*
X033832Y018501D01*
X032666Y018501D01*
X032581Y018416D01*
X032247Y018416D01*
X032222Y018476D01*
X032093Y018606D01*
X031924Y018676D01*
X031741Y018676D01*
X031572Y018606D01*
X031442Y018476D01*
X031372Y018307D01*
X031372Y018124D01*
X031442Y017955D01*
X031572Y017826D01*
X031741Y017756D01*
X031924Y017756D01*
X032093Y017826D01*
X032222Y017955D01*
X032247Y018016D01*
X032581Y018016D01*
X032666Y017931D01*
X033832Y017931D01*
X033832Y017501D01*
X032666Y017501D01*
X032581Y017416D01*
X032147Y017416D01*
X032122Y017476D01*
X031993Y017606D01*
X031824Y017676D01*
X031641Y017676D01*
X031472Y017606D01*
X031342Y017476D01*
X031272Y017307D01*
X031272Y017124D01*
X031342Y016955D01*
X031472Y016826D01*
X031641Y016756D01*
X031824Y016756D01*
X031993Y016826D01*
X032122Y016955D01*
X032147Y017016D01*
X032581Y017016D01*
X032666Y016931D01*
X033832Y016931D01*
X033832Y016501D01*
X032666Y016501D01*
X032581Y016416D01*
X032247Y016416D01*
X032222Y016476D01*
X032093Y016606D01*
X031924Y016676D01*
X031741Y016676D01*
X031572Y016606D01*
X031442Y016476D01*
X031372Y016307D01*
X031372Y016124D01*
X031442Y015955D01*
X031572Y015826D01*
X031741Y015756D01*
X031924Y015756D01*
X032093Y015826D01*
X032222Y015955D01*
X032247Y016016D01*
X032581Y016016D01*
X032666Y015931D01*
X033832Y015931D01*
X033832Y015501D01*
X032666Y015501D01*
X032581Y015416D01*
X032147Y015416D01*
X032122Y015476D01*
X031993Y015606D01*
X031824Y015676D01*
X031641Y015676D01*
X031472Y015606D01*
X031342Y015476D01*
X031272Y015307D01*
X031272Y015124D01*
X031342Y014955D01*
X031472Y014826D01*
X031641Y014756D01*
X031824Y014756D01*
X031993Y014826D01*
X032122Y014955D01*
X032147Y015016D01*
X032581Y015016D01*
X032666Y014931D01*
X033832Y014931D01*
X033832Y014501D01*
X032666Y014501D01*
X032581Y014416D01*
X032247Y014416D01*
X032222Y014476D01*
X032093Y014606D01*
X031924Y014676D01*
X031741Y014676D01*
X031572Y014606D01*
X031442Y014476D01*
X031372Y014307D01*
X031372Y014124D01*
X031442Y013955D01*
X031572Y013826D01*
X031741Y013756D01*
X031924Y013756D01*
X032093Y013826D01*
X032222Y013955D01*
X032247Y014016D01*
X032581Y014016D01*
X032666Y013931D01*
X033832Y013931D01*
X033832Y013501D01*
X032666Y013501D01*
X032581Y013416D01*
X032147Y013416D01*
X032122Y013476D01*
X031993Y013606D01*
X031824Y013676D01*
X031641Y013676D01*
X031472Y013606D01*
X031342Y013476D01*
X031272Y013307D01*
X031272Y013124D01*
X031342Y012955D01*
X031472Y012826D01*
X031641Y012756D01*
X031824Y012756D01*
X031993Y012826D01*
X032122Y012955D01*
X032147Y013016D01*
X032581Y013016D01*
X032666Y012931D01*
X033832Y012931D01*
X033832Y012501D01*
X032666Y012501D01*
X032581Y012416D01*
X032247Y012416D01*
X032222Y012476D01*
X032093Y012606D01*
X031924Y012676D01*
X031741Y012676D01*
X031572Y012606D01*
X031442Y012476D01*
X031372Y012307D01*
X031372Y012124D01*
X031442Y011955D01*
X031572Y011826D01*
X031741Y011756D01*
X031924Y011756D01*
X032093Y011826D01*
X032222Y011955D01*
X032247Y012016D01*
X032581Y012016D01*
X032666Y011931D01*
X033832Y011931D01*
X033832Y011501D01*
X032666Y011501D01*
X032581Y011416D01*
X032147Y011416D01*
X032122Y011476D01*
X031993Y011606D01*
X031824Y011676D01*
X031641Y011676D01*
X031472Y011606D01*
X031342Y011476D01*
X031272Y011307D01*
X031272Y011124D01*
X031342Y010955D01*
X031472Y010826D01*
X031641Y010756D01*
X031824Y010756D01*
X031993Y010826D01*
X032122Y010955D01*
X032147Y011016D01*
X032581Y011016D01*
X032666Y010931D01*
X033832Y010931D01*
X033832Y010501D01*
X032666Y010501D01*
X032581Y010416D01*
X032247Y010416D01*
X032222Y010476D01*
X032093Y010606D01*
X031924Y010676D01*
X031741Y010676D01*
X031572Y010606D01*
X031442Y010476D01*
X031372Y010307D01*
X031372Y010124D01*
X031442Y009955D01*
X031572Y009826D01*
X031741Y009756D01*
X031924Y009756D01*
X032093Y009826D01*
X032222Y009955D01*
X032247Y010016D01*
X032581Y010016D01*
X032666Y009931D01*
X033832Y009931D01*
X033832Y009501D01*
X032666Y009501D01*
X032581Y009416D01*
X032147Y009416D01*
X032122Y009476D01*
X031993Y009606D01*
X031824Y009676D01*
X031641Y009676D01*
X031472Y009606D01*
X031342Y009476D01*
X031272Y009307D01*
X031272Y009124D01*
X031342Y008955D01*
X031472Y008826D01*
X031641Y008756D01*
X031824Y008756D01*
X031993Y008826D01*
X032122Y008955D01*
X032147Y009016D01*
X032581Y009016D01*
X032666Y008931D01*
X033832Y008931D01*
X033832Y008501D01*
X032666Y008501D01*
X032581Y008416D01*
X032247Y008416D01*
X032222Y008476D01*
X032093Y008606D01*
X031924Y008676D01*
X031741Y008676D01*
X031572Y008606D01*
X031442Y008476D01*
X031372Y008307D01*
X031372Y008124D01*
X031442Y007955D01*
X031572Y007826D01*
X031741Y007756D01*
X031924Y007756D01*
X032093Y007826D01*
X032222Y007955D01*
X032247Y008016D01*
X032581Y008016D01*
X032666Y007931D01*
X033832Y007931D01*
X033832Y007501D01*
X032666Y007501D01*
X032581Y007416D01*
X032147Y007416D01*
X032122Y007476D01*
X031993Y007606D01*
X031824Y007676D01*
X031641Y007676D01*
X031472Y007606D01*
X031342Y007476D01*
X031272Y007307D01*
X031272Y007124D01*
X031342Y006955D01*
X031472Y006826D01*
X031641Y006756D01*
X031824Y006756D01*
X031993Y006826D01*
X032122Y006955D01*
X032147Y007016D01*
X032581Y007016D01*
X032666Y006931D01*
X033832Y006931D01*
X033832Y006501D01*
X032666Y006501D01*
X032581Y006416D01*
X032247Y006416D01*
X032222Y006476D01*
X032093Y006606D01*
X031924Y006676D01*
X031741Y006676D01*
X031572Y006606D01*
X031442Y006476D01*
X031372Y006307D01*
X031372Y006124D01*
X031442Y005955D01*
X031572Y005826D01*
X031741Y005756D01*
X031924Y005756D01*
X032093Y005826D01*
X032222Y005955D01*
X032247Y006016D01*
X032581Y006016D01*
X032666Y005931D01*
X033832Y005931D01*
X033832Y005501D01*
X032666Y005501D01*
X032581Y005416D01*
X032147Y005416D01*
X032122Y005476D01*
X031993Y005606D01*
X031824Y005676D01*
X031641Y005676D01*
X031472Y005606D01*
X031342Y005476D01*
X031272Y005307D01*
X031272Y005124D01*
X031342Y004955D01*
X031472Y004826D01*
X031641Y004756D01*
X031824Y004756D01*
X033832Y004756D01*
X033832Y004854D02*
X032022Y004854D01*
X031993Y004826D02*
X032122Y004955D01*
X032147Y005016D01*
X032581Y005016D01*
X032666Y004931D01*
X033832Y004931D01*
X033832Y004501D01*
X032666Y004501D01*
X032581Y004416D01*
X032247Y004416D01*
X032222Y004476D01*
X032093Y004606D01*
X031924Y004676D01*
X031741Y004676D01*
X031572Y004606D01*
X031442Y004476D01*
X031372Y004307D01*
X031372Y004124D01*
X031442Y003955D01*
X031572Y003826D01*
X031741Y003756D01*
X031924Y003756D01*
X032093Y003826D01*
X032222Y003955D01*
X032247Y004016D01*
X032581Y004016D01*
X032666Y003931D01*
X033832Y003931D01*
X033832Y003501D01*
X032666Y003501D01*
X032581Y003416D01*
X032147Y003416D01*
X032122Y003476D01*
X031993Y003606D01*
X031824Y003676D01*
X031641Y003676D01*
X031472Y003606D01*
X031342Y003476D01*
X031272Y003307D01*
X031272Y003124D01*
X031342Y002955D01*
X031472Y002826D01*
X031641Y002756D01*
X031824Y002756D01*
X031993Y002826D01*
X032122Y002955D01*
X032147Y003016D01*
X032581Y003016D01*
X032666Y002931D01*
X033832Y002931D01*
X033832Y002501D01*
X032666Y002501D01*
X032581Y002416D01*
X032247Y002416D01*
X032222Y002476D01*
X032093Y002606D01*
X031924Y002676D01*
X031741Y002676D01*
X031572Y002606D01*
X031442Y002476D01*
X031372Y002307D01*
X031372Y002124D01*
X031442Y001955D01*
X031572Y001826D01*
X031469Y001826D01*
X031352Y001708D01*
X031121Y001477D01*
X030993Y001606D01*
X030824Y001676D01*
X030641Y001676D01*
X030472Y001606D01*
X030342Y001476D01*
X030272Y001307D01*
X030272Y001176D01*
X006972Y001176D01*
X006972Y001263D01*
X006972Y001208D02*
X030272Y001208D01*
X030272Y001307D02*
X010333Y001307D01*
X010468Y001405D02*
X030313Y001405D01*
X030370Y001504D02*
X010566Y001504D01*
X010624Y001602D02*
X030469Y001602D01*
X030572Y001826D02*
X030741Y001756D01*
X030924Y001756D01*
X031093Y001826D01*
X031222Y001955D01*
X031292Y002124D01*
X031292Y002307D01*
X031222Y002476D01*
X031093Y002606D01*
X030924Y002676D01*
X030741Y002676D01*
X030572Y002606D01*
X030442Y002476D01*
X030372Y002307D01*
X030372Y002124D01*
X030442Y001955D01*
X030572Y001826D01*
X030634Y001800D02*
X027910Y001800D01*
X027973Y001826D02*
X028102Y001955D01*
X028172Y002124D01*
X028172Y002307D01*
X028102Y002476D01*
X027973Y002606D01*
X027804Y002676D01*
X027621Y002676D01*
X027452Y002606D01*
X027322Y002476D01*
X027252Y002307D01*
X027252Y002124D01*
X027322Y001955D01*
X027452Y001826D01*
X027621Y001756D01*
X027804Y001756D01*
X027973Y001826D01*
X028045Y001898D02*
X030499Y001898D01*
X030425Y001997D02*
X028119Y001997D01*
X028160Y002095D02*
X030384Y002095D01*
X030372Y002194D02*
X028172Y002194D01*
X028172Y002292D02*
X030372Y002292D01*
X030407Y002391D02*
X028137Y002391D01*
X028089Y002489D02*
X030455Y002489D01*
X030554Y002588D02*
X027990Y002588D01*
X027837Y002884D02*
X030414Y002884D01*
X030472Y002826D02*
X030641Y002756D01*
X030824Y002756D01*
X030993Y002826D01*
X031122Y002955D01*
X031192Y003124D01*
X031192Y003307D01*
X031122Y003476D01*
X030993Y003606D01*
X030824Y003676D01*
X030641Y003676D01*
X030472Y003606D01*
X030342Y003476D01*
X030272Y003307D01*
X030272Y003124D01*
X030342Y002955D01*
X030472Y002826D01*
X030570Y002785D02*
X026841Y002785D01*
X026811Y002773D02*
X026963Y002836D01*
X027092Y002965D01*
X027162Y003134D01*
X027162Y003317D01*
X027092Y003486D01*
X026963Y003616D01*
X026794Y003686D01*
X026611Y003686D01*
X026442Y003616D01*
X026312Y003486D01*
X026242Y003317D01*
X026242Y003134D01*
X026312Y002965D01*
X026442Y002836D01*
X026604Y002769D01*
X026452Y002706D01*
X026322Y002576D01*
X026252Y002407D01*
X026252Y002224D01*
X026322Y002055D01*
X026452Y001926D01*
X026621Y001856D01*
X026804Y001856D01*
X026973Y001926D01*
X027102Y002055D01*
X027172Y002224D01*
X027172Y002407D01*
X027102Y002576D01*
X026973Y002706D01*
X026811Y002773D01*
X026992Y002686D02*
X033832Y002686D01*
X033832Y002588D02*
X032110Y002588D01*
X032209Y002489D02*
X032655Y002489D01*
X032051Y002884D02*
X033832Y002884D01*
X033832Y002785D02*
X031895Y002785D01*
X032133Y002982D02*
X032614Y002982D01*
X032640Y003475D02*
X032123Y003475D01*
X032025Y003573D02*
X033832Y003573D01*
X033832Y003672D02*
X031833Y003672D01*
X031959Y003770D02*
X033832Y003770D01*
X033832Y003869D02*
X032136Y003869D01*
X032227Y003968D02*
X032629Y003968D01*
X031705Y003770D02*
X030959Y003770D01*
X030924Y003756D02*
X031093Y003826D01*
X031222Y003955D01*
X031292Y004124D01*
X031292Y004307D01*
X031222Y004476D01*
X031093Y004606D01*
X030924Y004676D01*
X030741Y004676D01*
X030572Y004606D01*
X030442Y004476D01*
X030372Y004307D01*
X030372Y004124D01*
X030442Y003955D01*
X030572Y003826D01*
X030741Y003756D01*
X030924Y003756D01*
X030833Y003672D02*
X031632Y003672D01*
X031439Y003573D02*
X031025Y003573D01*
X031123Y003475D02*
X031342Y003475D01*
X031301Y003376D02*
X031164Y003376D01*
X031192Y003278D02*
X031272Y003278D01*
X031272Y003179D02*
X031192Y003179D01*
X031174Y003081D02*
X031290Y003081D01*
X031331Y002982D02*
X031133Y002982D01*
X031051Y002884D02*
X031414Y002884D01*
X031570Y002785D02*
X030895Y002785D01*
X031110Y002588D02*
X031554Y002588D01*
X031455Y002489D02*
X031209Y002489D01*
X031257Y002391D02*
X031407Y002391D01*
X031372Y002292D02*
X031292Y002292D01*
X031292Y002194D02*
X031372Y002194D01*
X031384Y002095D02*
X031280Y002095D01*
X031239Y001997D02*
X031425Y001997D01*
X031499Y001898D02*
X031165Y001898D01*
X031030Y001800D02*
X031443Y001800D01*
X031572Y001826D02*
X031572Y001826D01*
X031345Y001701D02*
X010665Y001701D01*
X010703Y001800D02*
X023537Y001800D01*
X023539Y001799D02*
X023607Y001777D01*
X023662Y001768D01*
X023662Y002165D01*
X023762Y002165D01*
X023762Y001768D01*
X023818Y001777D01*
X023885Y001799D01*
X023948Y001831D01*
X024005Y001872D01*
X024055Y001922D01*
X024097Y001980D01*
X024129Y002043D01*
X024151Y002110D01*
X024160Y002166D01*
X023762Y002166D01*
X023762Y002266D01*
X023662Y002266D01*
X023662Y002663D01*
X023607Y002654D01*
X023539Y002633D01*
X023476Y002600D01*
X023419Y002559D01*
X023369Y002509D01*
X023327Y002451D01*
X023295Y002388D01*
X023273Y002321D01*
X023264Y002266D01*
X023662Y002266D01*
X023662Y002166D01*
X023264Y002166D01*
X023273Y002110D01*
X023295Y002043D01*
X023327Y001980D01*
X023369Y001922D01*
X023419Y001872D01*
X023476Y001831D01*
X023539Y001799D01*
X023662Y001800D02*
X023762Y001800D01*
X023762Y001898D02*
X023662Y001898D01*
X023662Y001997D02*
X023762Y001997D01*
X023762Y002095D02*
X023662Y002095D01*
X023662Y002194D02*
X017895Y002194D01*
X017906Y002206D02*
X017822Y002121D01*
X017712Y002076D01*
X017592Y002076D01*
X017482Y002121D01*
X017398Y002206D01*
X017352Y002316D01*
X017352Y002435D01*
X017398Y002546D01*
X017482Y002630D01*
X017592Y002676D01*
X017712Y002676D01*
X017822Y002630D01*
X017906Y002546D01*
X017952Y002435D01*
X017952Y002316D01*
X017906Y002206D01*
X017942Y002292D02*
X023269Y002292D01*
X023296Y002391D02*
X017952Y002391D01*
X017930Y002489D02*
X023355Y002489D01*
X023459Y002588D02*
X017864Y002588D01*
X017440Y002588D02*
X010276Y002588D01*
X010444Y002489D02*
X017375Y002489D01*
X017352Y002391D02*
X010543Y002391D01*
X010614Y002292D02*
X017362Y002292D01*
X017410Y002194D02*
X010655Y002194D01*
X010696Y002095D02*
X017545Y002095D01*
X017759Y002095D02*
X023278Y002095D01*
X023319Y001997D02*
X010703Y001997D01*
X010703Y001898D02*
X023393Y001898D01*
X023662Y002292D02*
X023762Y002292D01*
X023762Y002266D02*
X023762Y002663D01*
X023818Y002654D01*
X023885Y002633D01*
X023948Y002600D01*
X024005Y002559D01*
X024055Y002509D01*
X024097Y002451D01*
X024129Y002388D01*
X024151Y002321D01*
X024160Y002266D01*
X023762Y002266D01*
X023762Y002194D02*
X024265Y002194D01*
X024252Y002224D02*
X024322Y002055D01*
X024452Y001926D01*
X024621Y001856D01*
X024804Y001856D01*
X024973Y001926D01*
X025102Y002055D01*
X025172Y002224D01*
X025172Y002407D01*
X025102Y002576D01*
X024973Y002706D01*
X024811Y002773D01*
X024963Y002836D01*
X025092Y002965D01*
X025162Y003134D01*
X025162Y003317D01*
X025092Y003486D01*
X024963Y003616D01*
X024794Y003686D01*
X024611Y003686D01*
X024442Y003616D01*
X024312Y003486D01*
X024242Y003317D01*
X024242Y003134D01*
X024312Y002965D01*
X024442Y002836D01*
X024604Y002769D01*
X024452Y002706D01*
X024322Y002576D01*
X024252Y002407D01*
X024252Y002224D01*
X024252Y002292D02*
X024156Y002292D01*
X024128Y002391D02*
X024252Y002391D01*
X024286Y002489D02*
X024069Y002489D01*
X023965Y002588D02*
X024334Y002588D01*
X024433Y002686D02*
X007612Y002686D01*
X007612Y002785D02*
X024564Y002785D01*
X024394Y002884D02*
X023837Y002884D01*
X023794Y002866D02*
X023963Y002936D01*
X024092Y003065D01*
X024162Y003234D01*
X024162Y003417D01*
X024092Y003586D01*
X023963Y003716D01*
X023794Y003786D01*
X023611Y003786D01*
X023442Y003716D01*
X023312Y003586D01*
X023242Y003417D01*
X023242Y003234D01*
X023312Y003065D01*
X023442Y002936D01*
X023611Y002866D01*
X023794Y002866D01*
X023567Y002884D02*
X007576Y002884D01*
X007490Y002982D02*
X016297Y002982D01*
X016312Y002976D02*
X016432Y002976D01*
X016542Y003021D01*
X016626Y003106D01*
X016672Y003216D01*
X016672Y003335D01*
X016626Y003446D01*
X016542Y003530D01*
X016432Y003576D01*
X016312Y003576D01*
X016202Y003530D01*
X016118Y003446D01*
X016072Y003335D01*
X016072Y003216D01*
X016118Y003106D01*
X016202Y003021D01*
X016312Y002976D01*
X016448Y002982D02*
X023395Y002982D01*
X023306Y003081D02*
X016601Y003081D01*
X016657Y003179D02*
X023265Y003179D01*
X023242Y003278D02*
X016672Y003278D01*
X016655Y003376D02*
X023242Y003376D01*
X023266Y003475D02*
X016597Y003475D01*
X016437Y003573D02*
X023307Y003573D01*
X023398Y003672D02*
X017441Y003672D01*
X017402Y003656D02*
X017512Y003701D01*
X017596Y003786D01*
X017642Y003896D01*
X017642Y004015D01*
X017596Y004126D01*
X017512Y004210D01*
X017402Y004256D01*
X017282Y004256D01*
X017172Y004210D01*
X017088Y004126D01*
X017042Y004015D01*
X017042Y003896D01*
X017088Y003786D01*
X017172Y003701D01*
X017282Y003656D01*
X017402Y003656D01*
X017243Y003672D02*
X014549Y003672D01*
X014572Y003681D02*
X014656Y003766D01*
X014702Y003876D01*
X014702Y003995D01*
X014656Y004106D01*
X014572Y004190D01*
X014462Y004236D01*
X014342Y004236D01*
X014232Y004190D01*
X014148Y004106D01*
X014102Y003995D01*
X014102Y003876D01*
X014148Y003766D01*
X014232Y003681D01*
X014342Y003636D01*
X014462Y003636D01*
X014572Y003681D01*
X014658Y003770D02*
X017103Y003770D01*
X017053Y003869D02*
X014699Y003869D01*
X014702Y003968D02*
X017042Y003968D01*
X017063Y004066D02*
X014673Y004066D01*
X014597Y004165D02*
X017127Y004165D01*
X017557Y004165D02*
X030372Y004165D01*
X030372Y004263D02*
X006972Y004263D01*
X006972Y004165D02*
X014207Y004165D01*
X014132Y004066D02*
X012006Y004066D01*
X011982Y004090D02*
X011872Y004136D01*
X011752Y004136D01*
X011642Y004090D01*
X011558Y004006D01*
X011512Y003895D01*
X011512Y003776D01*
X011558Y003666D01*
X011642Y003581D01*
X011752Y003536D01*
X011872Y003536D01*
X011982Y003581D01*
X012066Y003666D01*
X012112Y003776D01*
X012112Y003895D01*
X012066Y004006D01*
X011982Y004090D01*
X012082Y003968D02*
X014102Y003968D01*
X014105Y003869D02*
X013398Y003869D01*
X013382Y003876D02*
X013262Y003876D01*
X013152Y003830D01*
X013068Y003746D01*
X013022Y003635D01*
X013022Y003516D01*
X013068Y003406D01*
X013152Y003321D01*
X013262Y003276D01*
X013382Y003276D01*
X013492Y003321D01*
X013576Y003406D01*
X013622Y003516D01*
X013622Y003635D01*
X013576Y003746D01*
X013492Y003830D01*
X013382Y003876D01*
X013247Y003869D02*
X012112Y003869D01*
X012110Y003770D02*
X013093Y003770D01*
X013037Y003672D02*
X012069Y003672D01*
X011963Y003573D02*
X013022Y003573D01*
X013039Y003475D02*
X006972Y003475D01*
X006972Y003573D02*
X011661Y003573D01*
X011555Y003672D02*
X006972Y003672D01*
X006972Y003770D02*
X011514Y003770D01*
X011512Y003869D02*
X006972Y003869D01*
X006972Y003968D02*
X011542Y003968D01*
X011618Y004066D02*
X006972Y004066D01*
X006762Y004066D02*
X006032Y004066D01*
X006068Y004030D02*
X005986Y004111D01*
X005880Y004156D01*
X005764Y004156D01*
X005658Y004111D01*
X005576Y004030D01*
X005532Y003923D01*
X005532Y003808D01*
X005576Y003701D01*
X005658Y003620D01*
X005764Y003576D01*
X005880Y003576D01*
X005986Y003620D01*
X006068Y003701D01*
X006112Y003808D01*
X006112Y003923D01*
X006068Y004030D01*
X006094Y003968D02*
X006762Y003968D01*
X006762Y003869D02*
X006112Y003869D01*
X006097Y003770D02*
X006762Y003770D01*
X006762Y003672D02*
X006039Y003672D01*
X005606Y003672D02*
X000762Y003672D01*
X000762Y003770D02*
X005548Y003770D01*
X005532Y003869D02*
X000762Y003869D01*
X000762Y003968D02*
X002437Y003968D01*
X002408Y003980D02*
X002514Y003936D01*
X002630Y003936D01*
X002736Y003980D01*
X002818Y004061D01*
X002862Y004168D01*
X002862Y004283D01*
X002818Y004390D01*
X002736Y004471D01*
X002630Y004516D01*
X002514Y004516D01*
X002408Y004471D01*
X002326Y004390D01*
X002282Y004283D01*
X002282Y004168D01*
X002326Y004061D01*
X002408Y003980D01*
X002324Y004066D02*
X000762Y004066D01*
X000762Y004165D02*
X002284Y004165D01*
X002282Y004263D02*
X000762Y004263D01*
X000762Y004362D02*
X002315Y004362D01*
X002397Y004460D02*
X000762Y004460D01*
X000762Y004559D02*
X006762Y004559D01*
X006762Y004657D02*
X000762Y004657D01*
X000762Y004756D02*
X006762Y004756D01*
X006762Y004854D02*
X000762Y004854D01*
X000762Y004953D02*
X006762Y004953D01*
X006762Y005051D02*
X000762Y005051D01*
X000762Y005150D02*
X006762Y005150D01*
X006762Y005249D02*
X000762Y005249D01*
X000762Y005347D02*
X006762Y005347D01*
X006762Y005446D02*
X006582Y005446D01*
X006618Y005481D02*
X006662Y005588D01*
X006662Y005703D01*
X006618Y005810D01*
X006536Y005891D01*
X006430Y005936D01*
X006314Y005936D01*
X006208Y005891D01*
X006126Y005810D01*
X006082Y005703D01*
X006082Y005588D01*
X006126Y005481D01*
X006208Y005400D01*
X006314Y005356D01*
X006430Y005356D01*
X006536Y005400D01*
X006618Y005481D01*
X006644Y005544D02*
X006762Y005544D01*
X006762Y005643D02*
X006662Y005643D01*
X006646Y005741D02*
X006762Y005741D01*
X006762Y005840D02*
X006588Y005840D01*
X006762Y005938D02*
X004439Y005938D01*
X004438Y005940D02*
X004356Y006021D01*
X004345Y006026D01*
X004426Y006060D01*
X004508Y006141D01*
X004552Y006248D01*
X004552Y006363D01*
X004508Y006470D01*
X004426Y006551D01*
X004320Y006596D01*
X004204Y006596D01*
X004098Y006551D01*
X004016Y006470D01*
X003972Y006363D01*
X003972Y006248D01*
X004016Y006141D01*
X004098Y006060D01*
X004109Y006055D01*
X004028Y006021D01*
X003946Y005940D01*
X003902Y005833D01*
X003902Y005718D01*
X003946Y005611D01*
X004028Y005530D01*
X004134Y005486D01*
X004250Y005486D01*
X004356Y005530D01*
X004438Y005611D01*
X004482Y005718D01*
X004482Y005833D01*
X004438Y005940D01*
X004479Y005840D02*
X006156Y005840D01*
X006098Y005741D02*
X004482Y005741D01*
X004451Y005643D02*
X006082Y005643D01*
X006100Y005544D02*
X004371Y005544D01*
X004013Y005544D02*
X002718Y005544D01*
X002708Y005521D02*
X002752Y005628D01*
X002752Y005743D01*
X002708Y005850D01*
X002626Y005931D01*
X002520Y005976D01*
X002404Y005976D01*
X002298Y005931D01*
X002216Y005850D01*
X002172Y005743D01*
X002172Y005628D01*
X002216Y005521D01*
X002298Y005440D01*
X002404Y005396D01*
X002520Y005396D01*
X002626Y005440D01*
X002708Y005521D01*
X002632Y005446D02*
X006162Y005446D01*
X006972Y005446D02*
X010452Y005446D01*
X010452Y005456D02*
X010452Y005366D01*
X010498Y005256D01*
X010508Y005246D01*
X010402Y005246D01*
X010292Y005200D01*
X010208Y005116D01*
X010162Y005005D01*
X010162Y004886D01*
X010208Y004776D01*
X010292Y004691D01*
X010402Y004646D01*
X010522Y004646D01*
X010632Y004691D01*
X010716Y004776D01*
X010762Y004886D01*
X010762Y005005D01*
X010716Y005116D01*
X010706Y005126D01*
X010812Y005126D01*
X010922Y005171D01*
X011006Y005256D01*
X011052Y005366D01*
X011052Y005485D01*
X011006Y005596D01*
X010922Y005680D01*
X010812Y005726D01*
X010732Y005726D01*
X010732Y005815D01*
X010686Y005926D01*
X010602Y006010D01*
X010492Y006056D01*
X010372Y006056D01*
X010262Y006010D01*
X010178Y005926D01*
X010132Y005815D01*
X010132Y005696D01*
X010178Y005586D01*
X010262Y005501D01*
X010372Y005456D01*
X010452Y005456D01*
X010460Y005347D02*
X006972Y005347D01*
X006972Y005249D02*
X010505Y005249D01*
X010242Y005150D02*
X006972Y005150D01*
X006972Y005051D02*
X010181Y005051D01*
X010162Y004953D02*
X006972Y004953D01*
X006972Y004854D02*
X010175Y004854D01*
X010228Y004756D02*
X006972Y004756D01*
X006972Y004657D02*
X010374Y004657D01*
X010550Y004657D02*
X027033Y004657D01*
X027059Y004593D02*
X027259Y004393D01*
X027521Y004284D01*
X027804Y004284D01*
X028065Y004393D01*
X028265Y004593D01*
X028373Y004854D01*
X028373Y005137D01*
X028265Y005398D01*
X028065Y005598D01*
X027804Y005707D01*
X027521Y005707D01*
X027259Y005598D01*
X027059Y005398D01*
X026951Y005137D01*
X026951Y004854D01*
X027059Y004593D01*
X027093Y004559D02*
X006972Y004559D01*
X006972Y004460D02*
X027192Y004460D01*
X027334Y004362D02*
X006972Y004362D01*
X006762Y004362D02*
X004110Y004362D01*
X004098Y004390D02*
X004016Y004471D01*
X003910Y004516D01*
X003794Y004516D01*
X003688Y004471D01*
X003606Y004390D01*
X003562Y004283D01*
X003562Y004168D01*
X003606Y004061D01*
X003688Y003980D01*
X003794Y003936D01*
X003910Y003936D01*
X004016Y003980D01*
X004098Y004061D01*
X004142Y004168D01*
X004142Y004283D01*
X004098Y004390D01*
X004028Y004460D02*
X006762Y004460D01*
X006762Y004263D02*
X004142Y004263D01*
X004141Y004165D02*
X006762Y004165D01*
X006972Y003376D02*
X013097Y003376D01*
X013257Y003278D02*
X006972Y003278D01*
X006972Y003179D02*
X016087Y003179D01*
X016072Y003278D02*
X013387Y003278D01*
X013547Y003376D02*
X016089Y003376D01*
X016147Y003475D02*
X013605Y003475D01*
X013622Y003573D02*
X016307Y003573D01*
X016143Y003081D02*
X006972Y003081D01*
X007576Y002588D02*
X009709Y002588D01*
X009540Y002489D02*
X007490Y002489D01*
X005551Y003968D02*
X003987Y003968D01*
X004100Y004066D02*
X005613Y004066D01*
X003717Y003968D02*
X002707Y003968D01*
X002820Y004066D02*
X003604Y004066D01*
X003564Y004165D02*
X002861Y004165D01*
X002862Y004263D02*
X003562Y004263D01*
X003595Y004362D02*
X002830Y004362D01*
X002748Y004460D02*
X003677Y004460D01*
X002292Y005446D02*
X000762Y005446D01*
X000762Y005544D02*
X002207Y005544D01*
X002172Y005643D02*
X001499Y005643D01*
X001496Y005640D02*
X001578Y005721D01*
X001622Y005828D01*
X001622Y005943D01*
X001578Y006050D01*
X001496Y006131D01*
X001390Y006176D01*
X001274Y006176D01*
X001168Y006131D01*
X001086Y006050D01*
X001042Y005943D01*
X001042Y005828D01*
X001086Y005721D01*
X001168Y005640D01*
X001274Y005596D01*
X001390Y005596D01*
X001496Y005640D01*
X001586Y005741D02*
X002172Y005741D01*
X002212Y005840D02*
X001622Y005840D01*
X001622Y005938D02*
X002315Y005938D01*
X002610Y005938D02*
X003946Y005938D01*
X003905Y005840D02*
X002712Y005840D01*
X002752Y005741D02*
X003902Y005741D01*
X003933Y005643D02*
X002752Y005643D01*
X002844Y006026D02*
X002738Y006070D01*
X002656Y006151D01*
X002612Y006258D01*
X002612Y006373D01*
X002656Y006480D01*
X002738Y006561D01*
X002844Y006606D01*
X002960Y006606D01*
X003066Y006561D01*
X003148Y006480D01*
X003192Y006373D01*
X003192Y006258D01*
X003148Y006151D01*
X003066Y006070D01*
X002960Y006026D01*
X002844Y006026D01*
X002817Y006037D02*
X001583Y006037D01*
X001487Y006135D02*
X002672Y006135D01*
X002622Y006234D02*
X000762Y006234D01*
X000762Y006135D02*
X001178Y006135D01*
X001081Y006037D02*
X000762Y006037D01*
X000762Y005938D02*
X001042Y005938D01*
X001042Y005840D02*
X000762Y005840D01*
X000762Y005741D02*
X001078Y005741D01*
X001165Y005643D02*
X000762Y005643D01*
X000762Y006333D02*
X002612Y006333D01*
X002636Y006431D02*
X000762Y006431D01*
X000762Y006530D02*
X002706Y006530D01*
X003098Y006530D02*
X003316Y006530D01*
X003338Y006551D02*
X003256Y006470D01*
X003212Y006363D01*
X003212Y006248D01*
X003256Y006141D01*
X003338Y006060D01*
X003444Y006016D01*
X003560Y006016D01*
X003666Y006060D01*
X003748Y006141D01*
X003792Y006248D01*
X003792Y006363D01*
X003748Y006470D01*
X003666Y006551D01*
X003560Y006596D01*
X003444Y006596D01*
X003338Y006551D01*
X003240Y006431D02*
X003168Y006431D01*
X003192Y006333D02*
X003212Y006333D01*
X003218Y006234D02*
X003182Y006234D01*
X003132Y006135D02*
X003262Y006135D01*
X003393Y006037D02*
X002987Y006037D01*
X003611Y006037D02*
X004065Y006037D01*
X004022Y006135D02*
X003742Y006135D01*
X003786Y006234D02*
X003978Y006234D01*
X003972Y006333D02*
X003792Y006333D01*
X003764Y006431D02*
X004000Y006431D01*
X004076Y006530D02*
X003688Y006530D01*
X004448Y006530D02*
X006762Y006530D01*
X006762Y006628D02*
X000762Y006628D01*
X000762Y006727D02*
X006762Y006727D01*
X006762Y006825D02*
X000762Y006825D01*
X000762Y006924D02*
X006762Y006924D01*
X006762Y007022D02*
X000762Y007022D01*
X000762Y007121D02*
X006762Y007121D01*
X006762Y007219D02*
X000762Y007219D01*
X000762Y007318D02*
X005335Y007318D01*
X005364Y007306D02*
X005480Y007306D01*
X005586Y007350D01*
X005668Y007431D01*
X005712Y007538D01*
X005712Y007653D01*
X005668Y007760D01*
X005586Y007841D01*
X005480Y007886D01*
X005364Y007886D01*
X005258Y007841D01*
X005176Y007760D01*
X005132Y007653D01*
X005132Y007538D01*
X005176Y007431D01*
X005258Y007350D01*
X005364Y007306D01*
X005510Y007318D02*
X006762Y007318D01*
X006762Y007417D02*
X005653Y007417D01*
X005703Y007515D02*
X006762Y007515D01*
X006762Y007614D02*
X005712Y007614D01*
X005688Y007712D02*
X006762Y007712D01*
X006762Y007811D02*
X005617Y007811D01*
X005227Y007811D02*
X001762Y007811D01*
X001762Y007833D02*
X001718Y007940D01*
X001636Y008021D01*
X001530Y008066D01*
X001414Y008066D01*
X001308Y008021D01*
X001226Y007940D01*
X001182Y007833D01*
X001182Y007718D01*
X001226Y007611D01*
X001308Y007530D01*
X001414Y007486D01*
X001530Y007486D01*
X001636Y007530D01*
X001718Y007611D01*
X001762Y007718D01*
X001762Y007833D01*
X001731Y007909D02*
X006762Y007909D01*
X006762Y008008D02*
X001650Y008008D01*
X001294Y008008D02*
X000762Y008008D01*
X000762Y008106D02*
X006762Y008106D01*
X006762Y008205D02*
X000762Y008205D01*
X000762Y008303D02*
X006762Y008303D01*
X006762Y008402D02*
X000762Y008402D01*
X000762Y008501D02*
X006762Y008501D01*
X006762Y008599D02*
X000762Y008599D01*
X000762Y008698D02*
X006762Y008698D01*
X006762Y008796D02*
X000762Y008796D01*
X000762Y008895D02*
X006762Y008895D01*
X006762Y008993D02*
X000762Y008993D01*
X000762Y009092D02*
X006762Y009092D01*
X006762Y009190D02*
X000762Y009190D01*
X000762Y009289D02*
X006762Y009289D01*
X006762Y009387D02*
X000762Y009387D01*
X000762Y009486D02*
X006762Y009486D01*
X006762Y009584D02*
X000762Y009584D01*
X000762Y009979D02*
X011055Y009979D01*
X011038Y009996D02*
X011122Y009911D01*
X011232Y009866D01*
X011352Y009866D01*
X011462Y009911D01*
X011546Y009996D01*
X011592Y010106D01*
X011592Y010225D01*
X011546Y010336D01*
X011462Y010420D01*
X011352Y010466D01*
X011232Y010466D01*
X011122Y010420D01*
X011038Y010336D01*
X010992Y010225D01*
X010992Y010106D01*
X011038Y009996D01*
X011004Y010077D02*
X000762Y010077D01*
X000762Y010176D02*
X010992Y010176D01*
X011013Y010274D02*
X000762Y010274D01*
X000762Y010373D02*
X011075Y010373D01*
X011509Y010373D02*
X016920Y010373D01*
X016902Y010416D02*
X016948Y010306D01*
X017032Y010221D01*
X017142Y010176D01*
X011592Y010176D01*
X011580Y010077D02*
X018362Y010077D01*
X018362Y010066D02*
X018408Y009956D01*
X018492Y009871D01*
X018602Y009826D01*
X018722Y009826D01*
X018832Y009871D01*
X018876Y009916D01*
X020718Y009916D01*
X020762Y009871D01*
X020872Y009826D01*
X020992Y009826D01*
X021102Y009871D01*
X021186Y009956D01*
X021232Y010066D01*
X021232Y010185D01*
X021186Y010296D01*
X021102Y010380D01*
X020992Y010426D01*
X020872Y010426D01*
X020762Y010380D01*
X020718Y010336D01*
X018876Y010336D01*
X018832Y010380D01*
X018722Y010426D01*
X018602Y010426D01*
X018492Y010380D01*
X018408Y010296D01*
X018362Y010185D01*
X018362Y010066D01*
X018398Y009979D02*
X011530Y009979D01*
X011387Y009880D02*
X018483Y009880D01*
X018841Y009880D02*
X020753Y009880D01*
X021111Y009880D02*
X021851Y009880D01*
X021832Y009835D02*
X021832Y009716D01*
X021878Y009606D01*
X021962Y009521D01*
X022072Y009476D01*
X022192Y009476D01*
X022302Y009521D01*
X022386Y009606D01*
X022432Y009716D01*
X022432Y009835D01*
X022386Y009946D01*
X022302Y010030D01*
X022192Y010076D01*
X022072Y010076D01*
X021962Y010030D01*
X021878Y009946D01*
X021832Y009835D01*
X021832Y009782D02*
X006953Y009782D01*
X006972Y009683D02*
X021846Y009683D01*
X021899Y009584D02*
X007613Y009584D01*
X007562Y009606D02*
X007672Y009560D01*
X007756Y009476D01*
X007802Y009365D01*
X007802Y009246D01*
X007756Y009136D01*
X007672Y009051D01*
X007562Y009006D01*
X007442Y009006D01*
X007332Y009051D01*
X007248Y009136D01*
X007202Y009246D01*
X007202Y009365D01*
X007248Y009476D01*
X007332Y009560D01*
X007442Y009606D01*
X007562Y009606D01*
X007392Y009584D02*
X006972Y009584D01*
X006972Y009486D02*
X007258Y009486D01*
X007211Y009387D02*
X006972Y009387D01*
X006972Y009289D02*
X007202Y009289D01*
X007225Y009190D02*
X006972Y009190D01*
X006972Y009092D02*
X007292Y009092D01*
X006972Y008993D02*
X013957Y008993D01*
X013937Y008945D02*
X013937Y008826D01*
X013983Y008716D01*
X014063Y008636D01*
X013983Y008556D01*
X013937Y008445D01*
X013937Y008326D01*
X013983Y008216D01*
X014063Y008136D01*
X013983Y008056D01*
X013937Y007945D01*
X013937Y007826D01*
X013983Y007716D01*
X014063Y007636D01*
X013983Y007556D01*
X013937Y007445D01*
X013937Y007336D01*
X013827Y007336D01*
X013717Y007290D01*
X013633Y007206D01*
X013587Y007095D01*
X013587Y006976D01*
X013633Y006866D01*
X013717Y006781D01*
X013827Y006736D01*
X013947Y006736D01*
X014057Y006781D01*
X014141Y006866D01*
X014187Y006976D01*
X014187Y007086D01*
X014297Y007086D01*
X014407Y007131D01*
X014491Y007216D01*
X014537Y007326D01*
X014537Y007445D01*
X014491Y007556D01*
X014411Y007636D01*
X014491Y007716D01*
X014537Y007826D01*
X014537Y007945D01*
X014491Y008056D01*
X014411Y008136D01*
X014491Y008216D01*
X014537Y008326D01*
X014537Y008445D01*
X014491Y008556D01*
X014411Y008636D01*
X014491Y008716D01*
X014537Y008826D01*
X014537Y008945D01*
X014491Y009056D01*
X014407Y009140D01*
X014297Y009186D01*
X014177Y009186D01*
X014067Y009140D01*
X013983Y009056D01*
X013937Y008945D01*
X013937Y008895D02*
X012097Y008895D01*
X012082Y008910D02*
X011972Y008956D01*
X011852Y008956D01*
X011742Y008910D01*
X011658Y008826D01*
X011612Y008715D01*
X011612Y008596D01*
X011658Y008486D01*
X011742Y008401D01*
X011852Y008356D01*
X011972Y008356D01*
X012082Y008401D01*
X012166Y008486D01*
X012212Y008596D01*
X012212Y008715D01*
X012166Y008826D01*
X012082Y008910D01*
X012179Y008796D02*
X013949Y008796D01*
X014001Y008698D02*
X012212Y008698D01*
X012212Y008599D02*
X014026Y008599D01*
X013960Y008501D02*
X012173Y008501D01*
X012083Y008402D02*
X013937Y008402D01*
X013946Y008303D02*
X006972Y008303D01*
X006972Y008205D02*
X013994Y008205D01*
X014034Y008106D02*
X006972Y008106D01*
X006972Y008008D02*
X013963Y008008D01*
X013937Y007909D02*
X006972Y007909D01*
X006972Y007811D02*
X013943Y007811D01*
X013986Y007712D02*
X006972Y007712D01*
X006972Y007614D02*
X014041Y007614D01*
X013966Y007515D02*
X006972Y007515D01*
X006972Y007417D02*
X013937Y007417D01*
X013785Y007318D02*
X006972Y007318D01*
X006972Y007219D02*
X013647Y007219D01*
X013598Y007121D02*
X006972Y007121D01*
X006972Y007022D02*
X013587Y007022D01*
X013609Y006924D02*
X006972Y006924D01*
X006972Y006825D02*
X013289Y006825D01*
X013337Y006846D02*
X013227Y006800D01*
X013143Y006716D01*
X013097Y006605D01*
X013097Y006486D01*
X013143Y006376D01*
X013227Y006291D01*
X013337Y006246D01*
X013457Y006246D01*
X013567Y006291D01*
X013651Y006376D01*
X013697Y006486D01*
X013697Y006605D01*
X013651Y006716D01*
X013567Y006800D01*
X013457Y006846D01*
X013337Y006846D01*
X013506Y006825D02*
X013673Y006825D01*
X013640Y006727D02*
X033832Y006727D01*
X033832Y006825D02*
X031992Y006825D01*
X032091Y006924D02*
X033832Y006924D01*
X033832Y006628D02*
X032038Y006628D01*
X032169Y006530D02*
X033832Y006530D01*
X033832Y005840D02*
X032107Y005840D01*
X032206Y005938D02*
X032658Y005938D01*
X032596Y006431D02*
X032241Y006431D01*
X031626Y006628D02*
X031038Y006628D01*
X031093Y006606D02*
X030924Y006676D01*
X030741Y006676D01*
X030572Y006606D01*
X030442Y006476D01*
X030372Y006307D01*
X030372Y006124D01*
X030442Y005955D01*
X030572Y005826D01*
X030741Y005756D01*
X030924Y005756D01*
X031093Y005826D01*
X031222Y005955D01*
X031292Y006124D01*
X031292Y006307D01*
X031222Y006476D01*
X031093Y006606D01*
X031169Y006530D02*
X031496Y006530D01*
X031424Y006431D02*
X031241Y006431D01*
X031282Y006333D02*
X031383Y006333D01*
X031372Y006234D02*
X031292Y006234D01*
X031292Y006135D02*
X031372Y006135D01*
X031408Y006037D02*
X031256Y006037D01*
X031206Y005938D02*
X031459Y005938D01*
X031557Y005840D02*
X031107Y005840D01*
X030993Y005606D02*
X030824Y005676D01*
X030641Y005676D01*
X030472Y005606D01*
X030342Y005476D01*
X030272Y005307D01*
X030272Y005124D01*
X030342Y004955D01*
X030472Y004826D01*
X030641Y004756D01*
X030824Y004756D01*
X031640Y004756D01*
X031697Y004657D02*
X030968Y004657D01*
X030993Y004826D02*
X030824Y004756D01*
X030697Y004657D02*
X028292Y004657D01*
X028333Y004756D02*
X030640Y004756D01*
X030443Y004854D02*
X028373Y004854D01*
X028373Y004953D02*
X030344Y004953D01*
X030302Y005051D02*
X028373Y005051D01*
X028368Y005150D02*
X030272Y005150D01*
X030272Y005249D02*
X028327Y005249D01*
X028286Y005347D02*
X030289Y005347D01*
X030330Y005446D02*
X028218Y005446D01*
X028119Y005544D02*
X030410Y005544D01*
X030562Y005643D02*
X027958Y005643D01*
X027366Y005643D02*
X016974Y005643D01*
X016962Y005631D02*
X017046Y005716D01*
X017092Y005826D01*
X017092Y005945D01*
X017046Y006056D01*
X016962Y006140D01*
X016852Y006186D01*
X016732Y006186D01*
X016622Y006140D01*
X016538Y006056D01*
X016492Y005945D01*
X016492Y005826D01*
X016538Y005716D01*
X016622Y005631D01*
X016732Y005586D01*
X016852Y005586D01*
X016962Y005631D01*
X017057Y005741D02*
X033832Y005741D01*
X033832Y005643D02*
X031903Y005643D01*
X032054Y005544D02*
X033832Y005544D01*
X033832Y004657D02*
X031968Y004657D01*
X031993Y004826D02*
X031824Y004756D01*
X032120Y004953D02*
X032644Y004953D01*
X032626Y004460D02*
X032229Y004460D01*
X032139Y004559D02*
X033832Y004559D01*
X032611Y005446D02*
X032135Y005446D01*
X031562Y005643D02*
X030903Y005643D01*
X030993Y005606D02*
X031122Y005476D01*
X031192Y005307D01*
X031192Y005124D01*
X031122Y004955D01*
X030993Y004826D01*
X031022Y004854D02*
X031443Y004854D01*
X031344Y004953D02*
X031120Y004953D01*
X031162Y005051D02*
X031302Y005051D01*
X031272Y005150D02*
X031192Y005150D01*
X031192Y005249D02*
X031272Y005249D01*
X031289Y005347D02*
X031176Y005347D01*
X031135Y005446D02*
X031330Y005446D01*
X031410Y005544D02*
X031054Y005544D01*
X030557Y005840D02*
X017092Y005840D01*
X017092Y005938D02*
X030459Y005938D01*
X030408Y006037D02*
X017054Y006037D01*
X016967Y006135D02*
X030372Y006135D01*
X030372Y006234D02*
X009230Y006234D01*
X009242Y006205D02*
X009196Y006316D01*
X009112Y006400D01*
X009002Y006446D01*
X008882Y006446D01*
X008772Y006400D01*
X008688Y006316D01*
X008642Y006205D01*
X008642Y006086D01*
X008688Y005976D01*
X008772Y005891D01*
X008882Y005846D01*
X009002Y005846D01*
X009112Y005891D01*
X009196Y005976D01*
X009242Y006086D01*
X009242Y006205D01*
X009242Y006135D02*
X012583Y006135D01*
X012543Y006096D02*
X012627Y006180D01*
X012737Y006226D01*
X012857Y006226D01*
X012967Y006180D01*
X013051Y006096D01*
X013097Y005985D01*
X013097Y005866D01*
X013051Y005756D01*
X012967Y005671D01*
X012857Y005626D01*
X012737Y005626D01*
X012627Y005671D01*
X012543Y005756D01*
X012497Y005866D01*
X012497Y005985D01*
X012543Y006096D01*
X012519Y006037D02*
X010537Y006037D01*
X010674Y005938D02*
X012497Y005938D01*
X012508Y005840D02*
X010722Y005840D01*
X010732Y005741D02*
X012557Y005741D01*
X012424Y005643D02*
X012696Y005643D01*
X012898Y005643D02*
X016611Y005643D01*
X016527Y005741D02*
X013037Y005741D01*
X013086Y005840D02*
X016492Y005840D01*
X016492Y005938D02*
X013097Y005938D01*
X013076Y006037D02*
X016530Y006037D01*
X016618Y006135D02*
X013012Y006135D01*
X013186Y006333D02*
X009179Y006333D01*
X009037Y006431D02*
X013120Y006431D01*
X013097Y006530D02*
X006972Y006530D01*
X006972Y006628D02*
X013107Y006628D01*
X013154Y006727D02*
X006972Y006727D01*
X006972Y006431D02*
X008848Y006431D01*
X008705Y006333D02*
X006972Y006333D01*
X006972Y006234D02*
X008654Y006234D01*
X008642Y006135D02*
X006972Y006135D01*
X006972Y006037D02*
X008662Y006037D01*
X008725Y005938D02*
X006972Y005938D01*
X006972Y005840D02*
X010142Y005840D01*
X010132Y005741D02*
X006972Y005741D01*
X006972Y005643D02*
X010154Y005643D01*
X010219Y005544D02*
X006972Y005544D01*
X006762Y006037D02*
X004371Y006037D01*
X004502Y006135D02*
X006762Y006135D01*
X006762Y006234D02*
X004546Y006234D01*
X004552Y006333D02*
X006762Y006333D01*
X006762Y006431D02*
X004524Y006431D01*
X005191Y007417D02*
X000762Y007417D01*
X000762Y007515D02*
X001343Y007515D01*
X001225Y007614D02*
X000762Y007614D01*
X000762Y007712D02*
X001185Y007712D01*
X001182Y007811D02*
X000762Y007811D01*
X000762Y007909D02*
X001214Y007909D01*
X001719Y007614D02*
X005132Y007614D01*
X005142Y007515D02*
X001601Y007515D01*
X001760Y007712D02*
X005157Y007712D01*
X006972Y008402D02*
X011742Y008402D01*
X011652Y008501D02*
X006972Y008501D01*
X006972Y008599D02*
X011612Y008599D01*
X011612Y008698D02*
X006972Y008698D01*
X006972Y008796D02*
X011646Y008796D01*
X011727Y008895D02*
X006972Y008895D01*
X007713Y009092D02*
X014019Y009092D01*
X014455Y009092D02*
X030286Y009092D01*
X030272Y009124D02*
X030342Y008955D01*
X030472Y008826D01*
X030641Y008756D01*
X030824Y008756D01*
X030993Y008826D01*
X031122Y008955D01*
X031192Y009124D01*
X031192Y009307D01*
X031122Y009476D01*
X030993Y009606D01*
X030824Y009676D01*
X030641Y009676D01*
X030472Y009606D01*
X030342Y009476D01*
X030272Y009307D01*
X030272Y009124D01*
X030272Y009190D02*
X007779Y009190D01*
X007802Y009289D02*
X030272Y009289D01*
X030306Y009387D02*
X007793Y009387D01*
X007746Y009486D02*
X022047Y009486D01*
X022217Y009486D02*
X030352Y009486D01*
X030451Y009584D02*
X022365Y009584D01*
X022419Y009683D02*
X033832Y009683D01*
X033832Y009584D02*
X032014Y009584D01*
X032112Y009486D02*
X032651Y009486D01*
X032147Y009880D02*
X033832Y009880D01*
X033832Y009782D02*
X031986Y009782D01*
X031678Y009782D02*
X030986Y009782D01*
X030924Y009756D02*
X031093Y009826D01*
X031222Y009955D01*
X031292Y010124D01*
X031292Y010307D01*
X031222Y010476D01*
X031093Y010606D01*
X030924Y010676D01*
X030741Y010676D01*
X030572Y010606D01*
X030442Y010476D01*
X030372Y010307D01*
X030372Y010124D01*
X030442Y009955D01*
X030572Y009826D01*
X030741Y009756D01*
X030924Y009756D01*
X031014Y009584D02*
X031451Y009584D01*
X031352Y009486D02*
X031112Y009486D01*
X031159Y009387D02*
X031306Y009387D01*
X031272Y009289D02*
X031192Y009289D01*
X031192Y009190D02*
X031272Y009190D01*
X031286Y009092D02*
X031179Y009092D01*
X031138Y008993D02*
X031326Y008993D01*
X031403Y008895D02*
X031062Y008895D01*
X030922Y008796D02*
X031543Y008796D01*
X031565Y008599D02*
X031099Y008599D01*
X031093Y008606D02*
X030924Y008676D01*
X030741Y008676D01*
X030572Y008606D01*
X030442Y008476D01*
X030372Y008307D01*
X030372Y008124D01*
X030442Y007955D01*
X030572Y007826D01*
X030741Y007756D01*
X030924Y007756D01*
X031093Y007826D01*
X031222Y007955D01*
X031292Y008124D01*
X031292Y008307D01*
X031222Y008476D01*
X031093Y008606D01*
X031198Y008501D02*
X031467Y008501D01*
X031412Y008402D02*
X031253Y008402D01*
X031292Y008303D02*
X031372Y008303D01*
X031372Y008205D02*
X031292Y008205D01*
X031285Y008106D02*
X031380Y008106D01*
X031420Y008008D02*
X031244Y008008D01*
X031176Y007909D02*
X031488Y007909D01*
X031608Y007811D02*
X031057Y007811D01*
X030973Y007614D02*
X031491Y007614D01*
X031381Y007515D02*
X031083Y007515D01*
X031122Y007476D02*
X030993Y007606D01*
X030824Y007676D01*
X030641Y007676D01*
X030472Y007606D01*
X030342Y007476D01*
X030272Y007307D01*
X030272Y007124D01*
X030342Y006955D01*
X030472Y006826D01*
X030641Y006756D01*
X030824Y006756D01*
X030993Y006826D01*
X031122Y006955D01*
X031192Y007124D01*
X031192Y007307D01*
X031122Y007476D01*
X031147Y007417D02*
X031318Y007417D01*
X031277Y007318D02*
X031188Y007318D01*
X031192Y007219D02*
X031272Y007219D01*
X031274Y007121D02*
X031191Y007121D01*
X031150Y007022D02*
X031314Y007022D01*
X031373Y006924D02*
X031091Y006924D01*
X030992Y006825D02*
X031472Y006825D01*
X030626Y006628D02*
X013688Y006628D01*
X013697Y006530D02*
X030496Y006530D01*
X030424Y006431D02*
X013674Y006431D01*
X013608Y006333D02*
X030383Y006333D01*
X030472Y006825D02*
X014101Y006825D01*
X014166Y006924D02*
X030373Y006924D01*
X030314Y007022D02*
X014187Y007022D01*
X014382Y007121D02*
X030274Y007121D01*
X030272Y007219D02*
X018904Y007219D01*
X018932Y007231D02*
X018822Y007186D01*
X018702Y007186D01*
X018592Y007231D01*
X018508Y007316D01*
X018462Y007426D01*
X018462Y007545D01*
X018508Y007656D01*
X018592Y007740D01*
X018702Y007786D01*
X018822Y007786D01*
X018932Y007740D01*
X019016Y007656D01*
X019062Y007545D01*
X019062Y007426D01*
X019016Y007316D01*
X018932Y007231D01*
X019017Y007318D02*
X030277Y007318D01*
X030318Y007417D02*
X019058Y007417D01*
X019062Y007515D02*
X030381Y007515D01*
X030491Y007614D02*
X019034Y007614D01*
X018960Y007712D02*
X033832Y007712D01*
X033832Y007614D02*
X031973Y007614D01*
X032083Y007515D02*
X033832Y007515D01*
X033832Y007811D02*
X032057Y007811D01*
X032176Y007909D02*
X033832Y007909D01*
X033832Y008599D02*
X032099Y008599D01*
X032198Y008501D02*
X032666Y008501D01*
X032603Y008993D02*
X032138Y008993D01*
X032062Y008895D02*
X033832Y008895D01*
X033832Y008796D02*
X031922Y008796D01*
X032244Y008008D02*
X032589Y008008D01*
X032582Y007417D02*
X032147Y007417D01*
X030608Y007811D02*
X014531Y007811D01*
X014537Y007909D02*
X030488Y007909D01*
X030420Y008008D02*
X014511Y008008D01*
X014441Y008106D02*
X030380Y008106D01*
X030372Y008205D02*
X014481Y008205D01*
X014528Y008303D02*
X030372Y008303D01*
X030412Y008402D02*
X016513Y008402D01*
X016546Y008436D02*
X016462Y008351D01*
X016352Y008306D01*
X016232Y008306D01*
X016122Y008351D01*
X016038Y008436D01*
X015992Y008546D01*
X015992Y008665D01*
X016038Y008776D01*
X016122Y008860D01*
X016232Y008906D01*
X016352Y008906D01*
X016462Y008860D01*
X016546Y008776D01*
X016592Y008665D01*
X016592Y008546D01*
X016546Y008436D01*
X016573Y008501D02*
X030467Y008501D01*
X030565Y008599D02*
X016592Y008599D01*
X016579Y008698D02*
X033832Y008698D01*
X032618Y009979D02*
X032232Y009979D01*
X032224Y010471D02*
X032637Y010471D01*
X032128Y010570D02*
X033832Y010570D01*
X033832Y010668D02*
X031941Y010668D01*
X031851Y010767D02*
X033832Y010767D01*
X033832Y010866D02*
X032033Y010866D01*
X032126Y010964D02*
X032632Y010964D01*
X032622Y011457D02*
X032130Y011457D01*
X032043Y011555D02*
X033832Y011555D01*
X033832Y011654D02*
X031876Y011654D01*
X031588Y011654D02*
X030876Y011654D01*
X030824Y011676D02*
X030641Y011676D01*
X030472Y011606D01*
X030342Y011476D01*
X030272Y011307D01*
X030272Y011124D01*
X030342Y010955D01*
X030472Y010826D01*
X030641Y010756D01*
X030824Y010756D01*
X030993Y010826D01*
X031122Y010955D01*
X031192Y011124D01*
X031192Y011307D01*
X031122Y011476D01*
X030993Y011606D01*
X030824Y011676D01*
X030741Y011756D02*
X030924Y011756D01*
X031093Y011826D01*
X031222Y011955D01*
X031292Y012124D01*
X031292Y012307D01*
X031222Y012476D01*
X031093Y012606D01*
X030924Y012676D01*
X030741Y012676D01*
X030572Y012606D01*
X030442Y012476D01*
X030372Y012307D01*
X030372Y012124D01*
X030442Y011955D01*
X030572Y011826D01*
X030741Y011756D01*
X030588Y011654D02*
X025425Y011654D01*
X025442Y011696D02*
X025396Y011586D01*
X025312Y011501D01*
X025202Y011456D01*
X025082Y011456D01*
X024972Y011501D01*
X024888Y011586D01*
X024842Y011696D01*
X024842Y011815D01*
X024888Y011926D01*
X024972Y012010D01*
X025082Y012056D01*
X025202Y012056D01*
X025312Y012010D01*
X025396Y011926D01*
X025442Y011815D01*
X025442Y011696D01*
X025442Y011752D02*
X033832Y011752D01*
X033832Y011851D02*
X032118Y011851D01*
X032217Y011950D02*
X032647Y011950D01*
X032608Y012442D02*
X032236Y012442D01*
X032157Y012541D02*
X033832Y012541D01*
X033832Y012639D02*
X032011Y012639D01*
X032004Y012836D02*
X033832Y012836D01*
X033832Y012738D02*
X025718Y012738D01*
X025706Y012766D02*
X025622Y012850D01*
X025512Y012896D01*
X025392Y012896D01*
X025282Y012850D01*
X025198Y012766D01*
X025152Y012655D01*
X025152Y012536D01*
X025198Y012426D01*
X025282Y012341D01*
X025392Y012296D01*
X025398Y012296D01*
X025398Y012296D01*
X025352Y012185D01*
X025352Y012066D01*
X025398Y011956D01*
X025482Y011871D01*
X025592Y011826D01*
X025712Y011826D01*
X025822Y011871D01*
X025906Y011956D01*
X025948Y012056D01*
X025972Y012031D01*
X026082Y011986D01*
X026202Y011986D01*
X026312Y012031D01*
X026396Y012116D01*
X026442Y012226D01*
X026442Y012345D01*
X026396Y012456D01*
X026312Y012540D01*
X026202Y012586D01*
X026082Y012586D01*
X025972Y012540D01*
X025888Y012456D01*
X025846Y012356D01*
X025822Y012380D01*
X025712Y012426D01*
X025706Y012426D01*
X025706Y012426D01*
X025752Y012536D01*
X025752Y012655D01*
X025706Y012766D01*
X025636Y012836D02*
X030461Y012836D01*
X030472Y012826D02*
X030641Y012756D01*
X030824Y012756D01*
X030993Y012826D01*
X031122Y012955D01*
X031192Y013124D01*
X031192Y013307D01*
X031122Y013476D01*
X030993Y013606D01*
X030824Y013676D01*
X030641Y013676D01*
X030472Y013606D01*
X030342Y013476D01*
X030272Y013307D01*
X030272Y013124D01*
X030342Y012955D01*
X030472Y012826D01*
X030362Y012935D02*
X022336Y012935D01*
X022302Y012901D02*
X022386Y012986D01*
X022432Y013096D01*
X022432Y013215D01*
X022386Y013326D01*
X022302Y013410D01*
X022192Y013456D01*
X022072Y013456D01*
X021962Y013410D01*
X021878Y013326D01*
X021832Y013215D01*
X021832Y013096D01*
X021878Y012986D01*
X021962Y012901D01*
X022072Y012856D01*
X022192Y012856D01*
X022302Y012901D01*
X022406Y013034D02*
X030310Y013034D01*
X030272Y013132D02*
X022432Y013132D01*
X022426Y013231D02*
X030272Y013231D01*
X030281Y013329D02*
X022383Y013329D01*
X022259Y013428D02*
X030322Y013428D01*
X030392Y013526D02*
X021716Y013526D01*
X021702Y013540D02*
X021592Y013586D01*
X021472Y013586D01*
X021362Y013540D01*
X021278Y013456D01*
X021232Y013345D01*
X021232Y013226D01*
X021278Y013116D01*
X021362Y013031D01*
X021472Y012986D01*
X021592Y012986D01*
X021702Y013031D01*
X021786Y013116D01*
X021832Y013226D01*
X021832Y013345D01*
X021786Y013456D01*
X021702Y013540D01*
X021798Y013428D02*
X022005Y013428D01*
X021881Y013329D02*
X021832Y013329D01*
X021832Y013231D02*
X021839Y013231D01*
X021832Y013132D02*
X021793Y013132D01*
X021858Y013034D02*
X021704Y013034D01*
X021929Y012935D02*
X012022Y012935D01*
X011972Y012956D02*
X011852Y012956D01*
X011742Y012910D01*
X011658Y012826D01*
X011612Y012715D01*
X011612Y012596D01*
X011658Y012486D01*
X011742Y012401D01*
X011852Y012356D01*
X011972Y012356D01*
X012082Y012401D01*
X012166Y012486D01*
X012212Y012596D01*
X012212Y012715D01*
X012166Y012826D01*
X012082Y012910D01*
X011972Y012956D01*
X011803Y012935D02*
X000762Y012935D01*
X000762Y013034D02*
X021360Y013034D01*
X021271Y013132D02*
X001053Y013132D01*
X001143Y013231D02*
X021232Y013231D01*
X021232Y013329D02*
X001182Y013329D01*
X001182Y013428D02*
X021266Y013428D01*
X021349Y013526D02*
X001149Y013526D01*
X001067Y013625D02*
X024869Y013625D01*
X024882Y013611D02*
X024992Y013566D01*
X025112Y013566D01*
X025222Y013611D01*
X025306Y013696D01*
X025352Y013806D01*
X025352Y013925D01*
X025306Y014036D01*
X025222Y014120D01*
X025112Y014166D01*
X024992Y014166D01*
X024882Y014120D01*
X024798Y014036D01*
X024752Y013925D01*
X024752Y013806D01*
X024798Y013696D01*
X024882Y013611D01*
X024786Y013723D02*
X000762Y013723D01*
X000762Y013822D02*
X014822Y013822D01*
X014852Y013791D02*
X014962Y013746D01*
X015082Y013746D01*
X015192Y013791D01*
X015276Y013876D01*
X015322Y013986D01*
X015322Y014105D01*
X015276Y014216D01*
X030372Y014216D01*
X030372Y014307D02*
X030372Y014124D01*
X030442Y013955D01*
X030572Y013826D01*
X030741Y013756D01*
X030924Y013756D01*
X031093Y013826D01*
X031222Y013955D01*
X031292Y014124D01*
X031292Y014307D01*
X031222Y014476D01*
X031093Y014606D01*
X030924Y014676D01*
X030741Y014676D01*
X030572Y014606D01*
X030442Y014476D01*
X030372Y014307D01*
X030375Y014315D02*
X015157Y014315D01*
X015192Y014300D02*
X015082Y014346D01*
X014962Y014346D01*
X014852Y014300D01*
X014768Y014216D01*
X014677Y014216D01*
X014662Y014201D02*
X014746Y014286D01*
X014792Y014396D01*
X014792Y014515D01*
X014746Y014626D01*
X014677Y014694D01*
X014742Y014721D01*
X014826Y014806D01*
X014872Y014916D01*
X014872Y015035D01*
X014827Y015144D01*
X014872Y015126D01*
X014992Y015126D01*
X015102Y015171D01*
X015186Y015256D01*
X015215Y015326D01*
X015312Y015326D01*
X015422Y015371D01*
X015506Y015456D01*
X015552Y015566D01*
X015552Y015666D01*
X015592Y015666D01*
X015702Y015711D01*
X015786Y015796D01*
X015832Y015906D01*
X015832Y016025D01*
X015786Y016136D01*
X015702Y016220D01*
X015592Y016266D01*
X015472Y016266D01*
X015362Y016220D01*
X015278Y016136D01*
X015232Y016025D01*
X015232Y015926D01*
X015192Y015926D01*
X015082Y015880D01*
X014998Y015796D01*
X014969Y015726D01*
X014872Y015726D01*
X014762Y015680D01*
X014678Y015596D01*
X010716Y015596D01*
X010746Y015566D02*
X010662Y015650D01*
X010552Y015696D01*
X010432Y015696D01*
X010322Y015650D01*
X010238Y015566D01*
X010192Y015455D01*
X010192Y015336D01*
X010238Y015226D01*
X010322Y015141D01*
X010432Y015096D01*
X010552Y015096D01*
X010662Y015141D01*
X010746Y015226D01*
X010792Y015336D01*
X010792Y015455D01*
X010746Y015566D01*
X010775Y015497D02*
X014637Y015497D01*
X014632Y015485D02*
X014632Y015366D01*
X014677Y015257D01*
X014632Y015276D01*
X014512Y015276D01*
X014402Y015230D01*
X014318Y015146D01*
X014272Y015035D01*
X014272Y014916D01*
X014318Y014806D01*
X014387Y014737D01*
X014322Y014710D01*
X014238Y014626D01*
X014192Y014515D01*
X014192Y014396D01*
X014238Y014286D01*
X014322Y014201D01*
X014432Y014156D01*
X014552Y014156D01*
X014662Y014201D01*
X014727Y014117D02*
X000762Y014117D01*
X000762Y014019D02*
X014722Y014019D01*
X014722Y013986D02*
X014768Y013876D01*
X014852Y013791D01*
X014749Y013920D02*
X000762Y013920D01*
X000762Y014216D02*
X014307Y014216D01*
X014226Y014315D02*
X000762Y014315D01*
X000762Y014413D02*
X014192Y014413D01*
X014192Y014512D02*
X004983Y014512D01*
X004982Y014511D02*
X005066Y014596D01*
X005112Y014706D01*
X005112Y014825D01*
X005066Y014936D01*
X004982Y015020D01*
X004872Y015066D01*
X004752Y015066D01*
X004642Y015020D01*
X004558Y014936D01*
X004512Y014825D01*
X004512Y014706D01*
X004558Y014596D01*
X004642Y014511D01*
X004752Y014466D01*
X004872Y014466D01*
X004982Y014511D01*
X005073Y014610D02*
X014232Y014610D01*
X014321Y014709D02*
X005958Y014709D01*
X006012Y014731D02*
X005902Y014686D01*
X005782Y014686D01*
X005672Y014731D01*
X005588Y014816D01*
X005542Y014926D01*
X005542Y015045D01*
X005588Y015156D01*
X005672Y015240D01*
X005782Y015286D01*
X005902Y015286D01*
X006012Y015240D01*
X006096Y015156D01*
X006142Y015045D01*
X006142Y014926D01*
X006096Y014816D01*
X006012Y014731D01*
X006088Y014807D02*
X014317Y014807D01*
X014276Y014906D02*
X006134Y014906D01*
X006142Y015004D02*
X014272Y015004D01*
X014300Y015103D02*
X010570Y015103D01*
X010415Y015103D02*
X006118Y015103D01*
X006051Y015201D02*
X010262Y015201D01*
X010207Y015300D02*
X005519Y015300D01*
X005496Y015246D02*
X005542Y015356D01*
X005542Y015475D01*
X005496Y015586D01*
X005412Y015670D01*
X005302Y015716D01*
X005182Y015716D01*
X005072Y015670D01*
X004988Y015586D01*
X004942Y015475D01*
X004942Y015356D01*
X004988Y015246D01*
X005072Y015161D01*
X005182Y015116D01*
X005302Y015116D01*
X005412Y015161D01*
X005496Y015246D01*
X005452Y015201D02*
X005634Y015201D01*
X005566Y015103D02*
X000762Y015103D01*
X000762Y015201D02*
X005032Y015201D01*
X004965Y015300D02*
X000762Y015300D01*
X000762Y015399D02*
X004942Y015399D01*
X004951Y015497D02*
X000762Y015497D01*
X000762Y015596D02*
X004998Y015596D01*
X005131Y015694D02*
X000762Y015694D01*
X000762Y015793D02*
X014997Y015793D01*
X015110Y015891D02*
X010628Y015891D01*
X010652Y015901D02*
X010736Y015986D01*
X010782Y016096D01*
X010782Y016215D01*
X010736Y016326D01*
X010652Y016410D01*
X010644Y016413D01*
X010726Y016496D01*
X010772Y016606D01*
X010772Y016725D01*
X010726Y016836D01*
X010642Y016920D01*
X010532Y016966D01*
X010412Y016966D01*
X010302Y016920D01*
X010218Y016836D01*
X010172Y016725D01*
X010172Y016606D01*
X010218Y016496D01*
X010302Y016411D01*
X010310Y016408D01*
X010228Y016326D01*
X010182Y016215D01*
X010182Y016096D01*
X010228Y015986D01*
X010312Y015901D01*
X010422Y015856D01*
X010542Y015856D01*
X010652Y015901D01*
X010738Y015990D02*
X015232Y015990D01*
X015258Y016088D02*
X010779Y016088D01*
X010782Y016187D02*
X015329Y016187D01*
X015735Y016187D02*
X016404Y016187D01*
X016392Y016216D02*
X016438Y016106D01*
X016522Y016021D01*
X016632Y015976D01*
X016752Y015976D01*
X016862Y016021D01*
X016946Y016106D01*
X016992Y016216D01*
X016992Y016276D01*
X017102Y016276D01*
X017212Y016321D01*
X017296Y016406D01*
X017342Y016516D01*
X017342Y016576D01*
X017392Y016556D01*
X017512Y016556D01*
X017622Y016601D01*
X017706Y016686D01*
X017752Y016796D01*
X017752Y016915D01*
X017706Y017026D01*
X017622Y017110D01*
X017512Y017156D01*
X017392Y017156D01*
X017282Y017110D01*
X017198Y017026D01*
X017152Y016915D01*
X017152Y016855D01*
X017102Y016876D01*
X016982Y016876D01*
X016872Y016830D01*
X016788Y016746D01*
X016742Y016635D01*
X016742Y016576D01*
X016632Y016576D01*
X016522Y016530D01*
X016438Y016446D01*
X016392Y016335D01*
X016392Y016216D01*
X016392Y016285D02*
X010753Y016285D01*
X010678Y016384D02*
X016412Y016384D01*
X016475Y016483D02*
X010713Y016483D01*
X010762Y016581D02*
X016742Y016581D01*
X016761Y016680D02*
X010772Y016680D01*
X010750Y016778D02*
X016821Y016778D01*
X017152Y016877D02*
X010685Y016877D01*
X010259Y016877D02*
X000762Y016877D01*
X000762Y016975D02*
X017177Y016975D01*
X017246Y017074D02*
X015104Y017074D01*
X015122Y017081D02*
X015206Y017166D01*
X015252Y017276D01*
X015252Y017395D01*
X015206Y017506D01*
X015122Y017590D01*
X015012Y017636D01*
X014892Y017636D01*
X014782Y017590D01*
X014698Y017506D01*
X014652Y017395D01*
X014652Y017276D01*
X014698Y017166D01*
X014782Y017081D01*
X014892Y017036D01*
X015012Y017036D01*
X015122Y017081D01*
X015209Y017172D02*
X019351Y017172D01*
X019362Y017161D02*
X019472Y017116D01*
X019592Y017116D01*
X019702Y017161D01*
X019786Y017246D01*
X019832Y017356D01*
X019832Y017475D01*
X019786Y017586D01*
X019702Y017670D01*
X019592Y017716D01*
X019472Y017716D01*
X019362Y017670D01*
X019278Y017586D01*
X019232Y017475D01*
X019232Y017356D01*
X019278Y017246D01*
X019362Y017161D01*
X019267Y017271D02*
X015250Y017271D01*
X015252Y017369D02*
X019232Y017369D01*
X019232Y017468D02*
X015222Y017468D01*
X015146Y017566D02*
X019270Y017566D01*
X019357Y017665D02*
X000762Y017665D01*
X000762Y017566D02*
X014759Y017566D01*
X014682Y017468D02*
X000762Y017468D01*
X000762Y017369D02*
X014652Y017369D01*
X014654Y017271D02*
X000762Y017271D01*
X000762Y017172D02*
X014695Y017172D01*
X014800Y017074D02*
X000762Y017074D01*
X001004Y016778D02*
X010194Y016778D01*
X010172Y016680D02*
X001093Y016680D01*
X001132Y016581D02*
X010182Y016581D01*
X010231Y016483D02*
X001132Y016483D01*
X001098Y016384D02*
X010286Y016384D01*
X010211Y016285D02*
X001016Y016285D01*
X000762Y016187D02*
X010182Y016187D01*
X010185Y016088D02*
X000762Y016088D01*
X000762Y015990D02*
X010226Y015990D01*
X010336Y015891D02*
X000762Y015891D01*
X000762Y015004D02*
X004627Y015004D01*
X004546Y014906D02*
X000762Y014906D01*
X000762Y014807D02*
X004512Y014807D01*
X004512Y014709D02*
X000762Y014709D01*
X000762Y014610D02*
X004552Y014610D01*
X004642Y014512D02*
X000762Y014512D01*
X000762Y012836D02*
X011669Y012836D01*
X011622Y012738D02*
X000762Y012738D01*
X000762Y012639D02*
X011612Y012639D01*
X011635Y012541D02*
X000762Y012541D01*
X000762Y012442D02*
X011701Y012442D01*
X012123Y012442D02*
X017972Y012442D01*
X017972Y012416D02*
X018018Y012306D01*
X018102Y012221D01*
X018212Y012176D01*
X018332Y012176D01*
X018442Y012221D01*
X018526Y012306D01*
X018572Y012416D01*
X018572Y012535D01*
X018526Y012646D01*
X018442Y012730D01*
X018332Y012776D01*
X018212Y012776D01*
X018102Y012730D01*
X018018Y012646D01*
X017972Y012535D01*
X017972Y012416D01*
X018002Y012344D02*
X000762Y012344D01*
X000762Y012245D02*
X018078Y012245D01*
X017974Y012541D02*
X012189Y012541D01*
X012212Y012639D02*
X018015Y012639D01*
X018122Y012738D02*
X012203Y012738D01*
X012156Y012836D02*
X025269Y012836D01*
X025186Y012738D02*
X018423Y012738D01*
X018529Y012639D02*
X023882Y012639D01*
X023912Y012670D02*
X023828Y012586D01*
X023782Y012475D01*
X023782Y012356D01*
X023828Y012246D01*
X023912Y012161D01*
X024022Y012116D01*
X024142Y012116D01*
X024252Y012161D01*
X024336Y012246D01*
X024382Y012356D01*
X024382Y012475D01*
X024336Y012586D01*
X024252Y012670D01*
X024142Y012716D01*
X024022Y012716D01*
X023912Y012670D01*
X023809Y012541D02*
X021681Y012541D01*
X021652Y012570D02*
X021542Y012616D01*
X021422Y012616D01*
X021312Y012570D01*
X021228Y012486D01*
X021182Y012375D01*
X021182Y012256D01*
X021228Y012146D01*
X021312Y012061D01*
X021422Y012016D01*
X021542Y012016D01*
X021652Y012061D01*
X021736Y012146D01*
X021782Y012256D01*
X021782Y012375D01*
X021736Y012486D01*
X021652Y012570D01*
X021754Y012442D02*
X023782Y012442D01*
X023787Y012344D02*
X021782Y012344D01*
X021778Y012245D02*
X022389Y012245D01*
X022352Y012230D02*
X022462Y012276D01*
X022582Y012276D01*
X022692Y012230D01*
X022776Y012146D01*
X022822Y012035D01*
X022822Y011916D01*
X022776Y011806D01*
X022692Y011721D01*
X022582Y011676D01*
X022462Y011676D01*
X022352Y011721D01*
X022268Y011806D01*
X022222Y011916D01*
X022222Y012035D01*
X022268Y012146D01*
X022352Y012230D01*
X022269Y012147D02*
X021737Y012147D01*
X021620Y012048D02*
X022228Y012048D01*
X022222Y011950D02*
X014771Y011950D01*
X014756Y011986D02*
X014672Y012070D01*
X014562Y012116D01*
X014442Y012116D01*
X014332Y012070D01*
X014248Y011986D01*
X014202Y011875D01*
X014202Y011756D01*
X014248Y011646D01*
X014332Y011561D01*
X014442Y011516D01*
X014562Y011516D01*
X014672Y011561D01*
X014756Y011646D01*
X014802Y011756D01*
X014802Y011875D01*
X014756Y011986D01*
X014694Y012048D02*
X021344Y012048D01*
X021227Y012147D02*
X000762Y012147D01*
X000762Y012048D02*
X014310Y012048D01*
X014233Y011950D02*
X000762Y011950D01*
X000762Y011851D02*
X014202Y011851D01*
X014204Y011752D02*
X000762Y011752D01*
X000762Y011654D02*
X014244Y011654D01*
X014346Y011555D02*
X000762Y011555D01*
X000762Y011457D02*
X025080Y011457D01*
X025205Y011457D02*
X030334Y011457D01*
X030293Y011358D02*
X000762Y011358D01*
X000762Y011260D02*
X017298Y011260D01*
X017312Y011266D02*
X017202Y011220D01*
X017118Y011136D01*
X017072Y011025D01*
X017072Y010906D01*
X017118Y010796D01*
X017139Y010774D01*
X017032Y010730D01*
X016948Y010646D01*
X016902Y010535D01*
X016902Y010416D01*
X016902Y010471D02*
X000762Y010471D01*
X000762Y010570D02*
X016917Y010570D01*
X016971Y010668D02*
X000762Y010668D01*
X000762Y010767D02*
X017122Y010767D01*
X017089Y010866D02*
X000762Y010866D01*
X000762Y010964D02*
X017072Y010964D01*
X017088Y011063D02*
X000762Y011063D01*
X000762Y011161D02*
X017144Y011161D01*
X017312Y011266D02*
X017432Y011266D01*
X017542Y011220D01*
X017626Y011136D01*
X017672Y011025D01*
X017672Y010906D01*
X017626Y010796D01*
X017542Y010711D01*
X017435Y010667D01*
X017456Y010646D01*
X017502Y010535D01*
X017502Y010416D01*
X017456Y010306D01*
X017372Y010221D01*
X017262Y010176D01*
X018362Y010176D01*
X018399Y010274D02*
X017425Y010274D01*
X017484Y010373D02*
X018485Y010373D01*
X018662Y010126D02*
X020932Y010126D01*
X021195Y010274D02*
X025373Y010274D01*
X025372Y010276D02*
X025418Y010166D01*
X025502Y010081D01*
X025612Y010036D01*
X025732Y010036D01*
X025842Y010081D01*
X025926Y010166D01*
X025972Y010276D01*
X025972Y010395D01*
X025926Y010506D01*
X025842Y010590D01*
X025732Y010636D01*
X025612Y010636D01*
X025502Y010590D01*
X025418Y010506D01*
X025372Y010395D01*
X025372Y010276D01*
X025372Y010373D02*
X021109Y010373D01*
X021232Y010176D02*
X025414Y010176D01*
X025512Y010077D02*
X021232Y010077D01*
X021196Y009979D02*
X021911Y009979D01*
X022353Y009979D02*
X026105Y009979D01*
X026122Y009961D02*
X026232Y009916D01*
X026352Y009916D01*
X026462Y009961D01*
X026546Y010046D01*
X026592Y010156D01*
X026592Y010275D01*
X026546Y010386D01*
X026462Y010470D01*
X026352Y010516D01*
X026232Y010516D01*
X026122Y010470D01*
X026038Y010386D01*
X025992Y010275D01*
X025992Y010156D01*
X026038Y010046D01*
X026122Y009961D01*
X026025Y010077D02*
X025832Y010077D01*
X025931Y010176D02*
X025992Y010176D01*
X025992Y010274D02*
X025971Y010274D01*
X025972Y010373D02*
X026033Y010373D01*
X025941Y010471D02*
X026126Y010471D01*
X025862Y010570D02*
X030536Y010570D01*
X030440Y010471D02*
X026459Y010471D01*
X026552Y010373D02*
X030399Y010373D01*
X030372Y010274D02*
X026592Y010274D01*
X026592Y010176D02*
X030372Y010176D01*
X030392Y010077D02*
X026560Y010077D01*
X026480Y009979D02*
X030432Y009979D01*
X030517Y009880D02*
X022414Y009880D01*
X022432Y009782D02*
X030678Y009782D01*
X031147Y009880D02*
X031517Y009880D01*
X031432Y009979D02*
X031232Y009979D01*
X031273Y010077D02*
X031392Y010077D01*
X031372Y010176D02*
X031292Y010176D01*
X031292Y010274D02*
X031372Y010274D01*
X031399Y010373D02*
X031265Y010373D01*
X031224Y010471D02*
X031440Y010471D01*
X031536Y010570D02*
X031128Y010570D01*
X030941Y010668D02*
X031724Y010668D01*
X031613Y010767D02*
X030851Y010767D01*
X030724Y010668D02*
X017439Y010668D01*
X017488Y010570D02*
X025482Y010570D01*
X025404Y010471D02*
X017502Y010471D01*
X017262Y010176D02*
X017142Y010176D01*
X016979Y010274D02*
X011572Y010274D01*
X011197Y009880D02*
X006855Y009880D01*
X009222Y006037D02*
X010328Y006037D01*
X010191Y005938D02*
X009159Y005938D01*
X010743Y005051D02*
X015972Y005051D01*
X015972Y005016D02*
X015972Y005135D01*
X016018Y005246D01*
X016102Y005330D01*
X016212Y005376D01*
X016332Y005376D01*
X016442Y005330D01*
X016526Y005246D01*
X016572Y005135D01*
X016572Y005016D01*
X016526Y004906D01*
X016442Y004821D01*
X016332Y004776D01*
X016212Y004776D01*
X016102Y004821D01*
X016018Y004906D01*
X015972Y005016D01*
X015998Y004953D02*
X010762Y004953D01*
X010749Y004854D02*
X016069Y004854D01*
X015978Y005150D02*
X012426Y005150D01*
X012417Y005141D02*
X012501Y005226D01*
X012547Y005336D01*
X012547Y005455D01*
X012501Y005566D01*
X012417Y005650D01*
X012307Y005696D01*
X012187Y005696D01*
X012077Y005650D01*
X011993Y005566D01*
X011947Y005455D01*
X011947Y005336D01*
X011993Y005226D01*
X012077Y005141D01*
X012187Y005096D01*
X012307Y005096D01*
X012417Y005141D01*
X012511Y005249D02*
X016021Y005249D01*
X016144Y005347D02*
X012547Y005347D01*
X012547Y005446D02*
X027107Y005446D01*
X027038Y005347D02*
X016401Y005347D01*
X016523Y005249D02*
X026997Y005249D01*
X026956Y005150D02*
X016566Y005150D01*
X016572Y005051D02*
X026951Y005051D01*
X026951Y004953D02*
X016546Y004953D01*
X016475Y004854D02*
X026951Y004854D01*
X026992Y004756D02*
X010697Y004756D01*
X010871Y005150D02*
X012068Y005150D01*
X011983Y005249D02*
X010999Y005249D01*
X011044Y005347D02*
X011947Y005347D01*
X011947Y005446D02*
X011052Y005446D01*
X011028Y005544D02*
X011984Y005544D01*
X012070Y005643D02*
X010959Y005643D01*
X012510Y005544D02*
X027205Y005544D01*
X028231Y004559D02*
X030525Y004559D01*
X030436Y004460D02*
X028133Y004460D01*
X027990Y004362D02*
X030395Y004362D01*
X030396Y004066D02*
X017621Y004066D01*
X017642Y003968D02*
X030437Y003968D01*
X030528Y003869D02*
X017631Y003869D01*
X017581Y003770D02*
X023574Y003770D01*
X023830Y003770D02*
X025574Y003770D01*
X025611Y003786D02*
X025442Y003716D01*
X025312Y003586D01*
X025242Y003417D01*
X025242Y003234D01*
X025312Y003065D01*
X025442Y002936D01*
X025611Y002866D01*
X025794Y002866D01*
X025963Y002936D01*
X026092Y003065D01*
X026162Y003234D01*
X026162Y003417D01*
X026092Y003586D01*
X025963Y003716D01*
X025794Y003786D01*
X025611Y003786D01*
X025830Y003770D02*
X027574Y003770D01*
X027611Y003786D02*
X027442Y003716D01*
X027312Y003586D01*
X027242Y003417D01*
X027242Y003234D01*
X027312Y003065D01*
X027442Y002936D01*
X027611Y002866D01*
X027794Y002866D01*
X027963Y002936D01*
X028092Y003065D01*
X028162Y003234D01*
X028162Y003417D01*
X028092Y003586D01*
X027963Y003716D01*
X027794Y003786D01*
X027611Y003786D01*
X027830Y003770D02*
X030705Y003770D01*
X030632Y003672D02*
X028006Y003672D01*
X028097Y003573D02*
X030439Y003573D01*
X030342Y003475D02*
X028138Y003475D01*
X028162Y003376D02*
X030301Y003376D01*
X030272Y003278D02*
X028162Y003278D01*
X028139Y003179D02*
X030272Y003179D01*
X030290Y003081D02*
X028099Y003081D01*
X028009Y002982D02*
X030331Y002982D01*
X031136Y003869D02*
X031528Y003869D01*
X031437Y003968D02*
X031227Y003968D01*
X031268Y004066D02*
X031396Y004066D01*
X031372Y004165D02*
X031292Y004165D01*
X031292Y004263D02*
X031372Y004263D01*
X031395Y004362D02*
X031270Y004362D01*
X031229Y004460D02*
X031436Y004460D01*
X031525Y004559D02*
X031139Y004559D01*
X027567Y002884D02*
X027011Y002884D01*
X027099Y002982D02*
X027395Y002982D01*
X027306Y003081D02*
X027140Y003081D01*
X027162Y003179D02*
X027265Y003179D01*
X027242Y003278D02*
X027162Y003278D01*
X027138Y003376D02*
X027242Y003376D01*
X027266Y003475D02*
X027097Y003475D01*
X027005Y003573D02*
X027307Y003573D01*
X027398Y003672D02*
X026827Y003672D01*
X026578Y003672D02*
X026006Y003672D01*
X026097Y003573D02*
X026399Y003573D01*
X026308Y003475D02*
X026138Y003475D01*
X026162Y003376D02*
X026267Y003376D01*
X026242Y003278D02*
X026162Y003278D01*
X026139Y003179D02*
X026242Y003179D01*
X026264Y003081D02*
X026099Y003081D01*
X026009Y002982D02*
X026305Y002982D01*
X026394Y002884D02*
X025837Y002884D01*
X025804Y002676D02*
X025621Y002676D01*
X025452Y002606D01*
X025322Y002476D01*
X025252Y002307D01*
X025252Y002124D01*
X025322Y001955D01*
X025452Y001826D01*
X025621Y001756D01*
X025804Y001756D01*
X025973Y001826D01*
X026102Y001955D01*
X026172Y002124D01*
X026172Y002307D01*
X026102Y002476D01*
X025973Y002606D01*
X025804Y002676D01*
X025990Y002588D02*
X026334Y002588D01*
X026286Y002489D02*
X026089Y002489D01*
X026137Y002391D02*
X026252Y002391D01*
X026252Y002292D02*
X026172Y002292D01*
X026172Y002194D02*
X026265Y002194D01*
X026306Y002095D02*
X026160Y002095D01*
X026119Y001997D02*
X026381Y001997D01*
X026518Y001898D02*
X026045Y001898D01*
X025910Y001800D02*
X027514Y001800D01*
X027379Y001898D02*
X026906Y001898D01*
X027044Y001997D02*
X027305Y001997D01*
X027264Y002095D02*
X027119Y002095D01*
X027160Y002194D02*
X027252Y002194D01*
X027252Y002292D02*
X027172Y002292D01*
X027172Y002391D02*
X027287Y002391D01*
X027335Y002489D02*
X027138Y002489D01*
X027090Y002588D02*
X027434Y002588D01*
X026564Y002785D02*
X024841Y002785D01*
X024992Y002686D02*
X026433Y002686D01*
X025567Y002884D02*
X025011Y002884D01*
X025099Y002982D02*
X025395Y002982D01*
X025306Y003081D02*
X025140Y003081D01*
X025162Y003179D02*
X025265Y003179D01*
X025242Y003278D02*
X025162Y003278D01*
X025138Y003376D02*
X025242Y003376D01*
X025266Y003475D02*
X025097Y003475D01*
X025005Y003573D02*
X025307Y003573D01*
X025398Y003672D02*
X024827Y003672D01*
X024578Y003672D02*
X024006Y003672D01*
X024097Y003573D02*
X024399Y003573D01*
X024308Y003475D02*
X024138Y003475D01*
X024162Y003376D02*
X024267Y003376D01*
X024242Y003278D02*
X024162Y003278D01*
X024139Y003179D02*
X024242Y003179D01*
X024264Y003081D02*
X024099Y003081D01*
X024009Y002982D02*
X024305Y002982D01*
X023762Y002588D02*
X023662Y002588D01*
X023662Y002489D02*
X023762Y002489D01*
X023762Y002391D02*
X023662Y002391D01*
X024146Y002095D02*
X024306Y002095D01*
X024381Y001997D02*
X024106Y001997D01*
X024031Y001898D02*
X024518Y001898D01*
X024906Y001898D02*
X025379Y001898D01*
X025305Y001997D02*
X025044Y001997D01*
X025119Y002095D02*
X025264Y002095D01*
X025252Y002194D02*
X025160Y002194D01*
X025172Y002292D02*
X025252Y002292D01*
X025287Y002391D02*
X025172Y002391D01*
X025138Y002489D02*
X025335Y002489D01*
X025434Y002588D02*
X025090Y002588D01*
X025514Y001800D02*
X023887Y001800D01*
X030996Y001602D02*
X031246Y001602D01*
X031148Y001504D02*
X031094Y001504D01*
X030543Y008796D02*
X016526Y008796D01*
X016378Y008895D02*
X030403Y008895D01*
X030326Y008993D02*
X014517Y008993D01*
X014537Y008895D02*
X016206Y008895D01*
X016059Y008796D02*
X014525Y008796D01*
X014473Y008698D02*
X016006Y008698D01*
X015992Y008599D02*
X014448Y008599D01*
X014514Y008501D02*
X016011Y008501D01*
X016072Y008402D02*
X014537Y008402D01*
X014488Y007712D02*
X018565Y007712D01*
X018491Y007614D02*
X014433Y007614D01*
X014508Y007515D02*
X018462Y007515D01*
X018466Y007417D02*
X014537Y007417D01*
X014534Y007318D02*
X018507Y007318D01*
X018621Y007219D02*
X014493Y007219D01*
X018839Y010373D02*
X020755Y010373D01*
X020328Y010767D02*
X030613Y010767D01*
X030432Y010866D02*
X020409Y010866D01*
X020396Y010836D02*
X020442Y010946D01*
X020442Y011065D01*
X020396Y011176D01*
X020312Y011260D01*
X020202Y011306D01*
X020082Y011306D01*
X019972Y011260D01*
X019888Y011176D01*
X019842Y011065D01*
X019842Y010946D01*
X019888Y010836D01*
X019972Y010751D01*
X020082Y010706D01*
X020202Y010706D01*
X020312Y010751D01*
X020396Y010836D01*
X020442Y010964D02*
X030338Y010964D01*
X030298Y011063D02*
X020442Y011063D01*
X020402Y011161D02*
X030272Y011161D01*
X030272Y011260D02*
X020312Y011260D01*
X019972Y011260D02*
X017446Y011260D01*
X017601Y011161D02*
X019882Y011161D01*
X019842Y011063D02*
X017657Y011063D01*
X017672Y010964D02*
X019842Y010964D01*
X019875Y010866D02*
X017655Y010866D01*
X017598Y010767D02*
X019956Y010767D01*
X021187Y012245D02*
X018466Y012245D01*
X018542Y012344D02*
X021182Y012344D01*
X021210Y012442D02*
X018572Y012442D01*
X018570Y012541D02*
X021283Y012541D01*
X022249Y011851D02*
X014802Y011851D01*
X014801Y011752D02*
X022321Y011752D01*
X022723Y011752D02*
X024842Y011752D01*
X024860Y011654D02*
X014760Y011654D01*
X014658Y011555D02*
X024918Y011555D01*
X025366Y011555D02*
X030421Y011555D01*
X030546Y011851D02*
X025773Y011851D01*
X025900Y011950D02*
X030448Y011950D01*
X030404Y012048D02*
X026329Y012048D01*
X026409Y012147D02*
X030372Y012147D01*
X030372Y012245D02*
X026442Y012245D01*
X026442Y012344D02*
X030387Y012344D01*
X030428Y012442D02*
X026402Y012442D01*
X026310Y012541D02*
X030507Y012541D01*
X030653Y012639D02*
X025752Y012639D01*
X025752Y012541D02*
X025974Y012541D01*
X025882Y012442D02*
X025713Y012442D01*
X025377Y012245D02*
X024336Y012245D01*
X024377Y012344D02*
X025280Y012344D01*
X025191Y012442D02*
X024382Y012442D01*
X024355Y012541D02*
X025152Y012541D01*
X025152Y012639D02*
X024283Y012639D01*
X023828Y012245D02*
X022655Y012245D01*
X022775Y012147D02*
X023948Y012147D01*
X024217Y012147D02*
X025352Y012147D01*
X025360Y012048D02*
X025220Y012048D01*
X025064Y012048D02*
X022817Y012048D01*
X022822Y011950D02*
X024912Y011950D01*
X024857Y011851D02*
X022795Y011851D01*
X025372Y011950D02*
X025404Y011950D01*
X025427Y011851D02*
X025531Y011851D01*
X025945Y012048D02*
X025955Y012048D01*
X025236Y013625D02*
X030518Y013625D01*
X030581Y013822D02*
X025352Y013822D01*
X025352Y013920D02*
X030477Y013920D01*
X030416Y014019D02*
X025313Y014019D01*
X025225Y014117D02*
X030375Y014117D01*
X030416Y014413D02*
X014792Y014413D01*
X014792Y014512D02*
X030478Y014512D01*
X030583Y014610D02*
X022151Y014610D01*
X022186Y014646D02*
X022232Y014756D01*
X022232Y014875D01*
X022186Y014986D01*
X022102Y015070D01*
X021992Y015116D01*
X021872Y015116D01*
X021762Y015070D01*
X021678Y014986D01*
X021632Y014875D01*
X021632Y014756D01*
X021678Y014646D01*
X021762Y014561D01*
X021872Y014516D01*
X021992Y014516D01*
X022102Y014561D01*
X022186Y014646D01*
X022213Y014709D02*
X033832Y014709D01*
X033832Y014807D02*
X031948Y014807D01*
X032073Y014906D02*
X033832Y014906D01*
X033832Y014610D02*
X032081Y014610D01*
X032187Y014512D02*
X033832Y014512D01*
X033832Y013920D02*
X032188Y013920D01*
X032084Y013822D02*
X033832Y013822D01*
X033832Y013723D02*
X025318Y013723D01*
X024791Y014019D02*
X015322Y014019D01*
X015317Y014117D02*
X024880Y014117D01*
X024752Y013920D02*
X015295Y013920D01*
X015223Y013822D02*
X024752Y013822D01*
X024412Y014806D02*
X024522Y014851D01*
X024606Y014936D01*
X024652Y015046D01*
X024652Y015165D01*
X024606Y015276D01*
X024522Y015360D01*
X024412Y015406D01*
X024292Y015406D01*
X024182Y015360D01*
X024098Y015276D01*
X024052Y015165D01*
X024052Y015046D01*
X024098Y014936D01*
X024182Y014851D01*
X024292Y014806D01*
X024412Y014806D01*
X024416Y014807D02*
X030516Y014807D01*
X030472Y014826D02*
X030641Y014756D01*
X030824Y014756D01*
X030993Y014826D01*
X031122Y014955D01*
X031192Y015124D01*
X031192Y015307D01*
X031122Y015476D01*
X030993Y015606D01*
X030824Y015676D01*
X030641Y015676D01*
X030472Y015606D01*
X030342Y015476D01*
X030272Y015307D01*
X030272Y015124D01*
X030342Y014955D01*
X030472Y014826D01*
X030391Y014906D02*
X024577Y014906D01*
X024635Y015004D02*
X030322Y015004D01*
X030281Y015103D02*
X024652Y015103D01*
X024637Y015201D02*
X030272Y015201D01*
X030272Y015300D02*
X024582Y015300D01*
X024429Y015399D02*
X025155Y015399D01*
X025172Y015381D02*
X025282Y015336D01*
X025402Y015336D01*
X025512Y015381D01*
X025596Y015466D01*
X025642Y015576D01*
X025642Y015695D01*
X025596Y015806D01*
X025512Y015890D01*
X025402Y015936D01*
X025282Y015936D01*
X025172Y015890D01*
X025088Y015806D01*
X025042Y015695D01*
X025042Y015576D01*
X025088Y015466D01*
X025172Y015381D01*
X025075Y015497D02*
X023062Y015497D01*
X023062Y015525D02*
X023016Y015636D01*
X022932Y015720D01*
X022822Y015766D01*
X022702Y015766D01*
X022592Y015720D01*
X022508Y015636D01*
X022462Y015525D01*
X022462Y015406D01*
X022508Y015296D01*
X022592Y015211D01*
X022702Y015166D01*
X022822Y015166D01*
X022932Y015211D01*
X023016Y015296D01*
X023062Y015406D01*
X023062Y015525D01*
X023033Y015596D02*
X025042Y015596D01*
X025042Y015694D02*
X022958Y015694D01*
X023059Y015399D02*
X024276Y015399D01*
X024122Y015300D02*
X023018Y015300D01*
X022908Y015201D02*
X024067Y015201D01*
X024052Y015103D02*
X022022Y015103D01*
X022168Y015004D02*
X024069Y015004D01*
X024128Y014906D02*
X022220Y014906D01*
X022232Y014807D02*
X024288Y014807D01*
X025529Y015399D02*
X030310Y015399D01*
X030363Y015497D02*
X026114Y015497D01*
X026062Y015476D02*
X026172Y015521D01*
X026256Y015606D01*
X026302Y015716D01*
X026302Y015835D01*
X026256Y015946D01*
X026172Y016030D01*
X026062Y016076D01*
X025942Y016076D01*
X025832Y016030D01*
X025748Y015946D01*
X025702Y015835D01*
X025702Y015716D01*
X025748Y015606D01*
X025832Y015521D01*
X025942Y015476D01*
X026062Y015476D01*
X025891Y015497D02*
X025610Y015497D01*
X025642Y015596D02*
X025758Y015596D01*
X025711Y015694D02*
X025642Y015694D01*
X025602Y015793D02*
X025702Y015793D01*
X025725Y015891D02*
X025509Y015891D01*
X025792Y015990D02*
X024420Y015990D01*
X024472Y016011D02*
X024362Y015966D01*
X024242Y015966D01*
X024132Y016011D01*
X024048Y016096D01*
X024002Y016206D01*
X024002Y016325D01*
X024048Y016436D01*
X024132Y016520D01*
X024242Y016566D01*
X024362Y016566D01*
X024472Y016520D01*
X024556Y016436D01*
X024602Y016325D01*
X024602Y016206D01*
X024556Y016096D01*
X024472Y016011D01*
X024549Y016088D02*
X030387Y016088D01*
X030372Y016124D02*
X030442Y015955D01*
X030572Y015826D01*
X030741Y015756D01*
X030924Y015756D01*
X031093Y015826D01*
X031222Y015955D01*
X031292Y016124D01*
X031292Y016307D01*
X031222Y016476D01*
X031093Y016606D01*
X030924Y016676D01*
X030741Y016676D01*
X030572Y016606D01*
X030442Y016476D01*
X030372Y016307D01*
X030372Y016124D01*
X030372Y016187D02*
X024594Y016187D01*
X024602Y016285D02*
X030372Y016285D01*
X030404Y016384D02*
X024578Y016384D01*
X024509Y016483D02*
X030449Y016483D01*
X030547Y016581D02*
X017573Y016581D01*
X017700Y016680D02*
X026324Y016680D01*
X026352Y016651D02*
X026462Y016606D01*
X026582Y016606D01*
X026692Y016651D01*
X026776Y016736D01*
X026822Y016846D01*
X026822Y016965D01*
X026776Y017076D01*
X026692Y017160D01*
X026582Y017206D01*
X026462Y017206D01*
X026352Y017160D01*
X026268Y017076D01*
X026222Y016965D01*
X026222Y016846D01*
X026268Y016736D01*
X026352Y016651D01*
X026250Y016778D02*
X017745Y016778D01*
X017752Y016877D02*
X026222Y016877D01*
X026226Y016975D02*
X017727Y016975D01*
X017658Y017074D02*
X026267Y017074D01*
X026382Y017172D02*
X019713Y017172D01*
X019797Y017271D02*
X024813Y017271D01*
X024852Y017231D02*
X024962Y017186D01*
X025082Y017186D01*
X025192Y017231D01*
X025276Y017316D01*
X025322Y017426D01*
X025322Y017545D01*
X025276Y017656D01*
X025192Y017740D01*
X025082Y017786D01*
X024962Y017786D01*
X024852Y017740D01*
X024768Y017656D01*
X024722Y017545D01*
X024722Y017426D01*
X024768Y017316D01*
X024852Y017231D01*
X024746Y017369D02*
X019832Y017369D01*
X019832Y017468D02*
X024722Y017468D01*
X024731Y017566D02*
X022337Y017566D01*
X022302Y017531D02*
X022386Y017616D01*
X022432Y017726D01*
X022432Y017845D01*
X022386Y017956D01*
X022302Y018040D01*
X022192Y018086D01*
X022072Y018086D01*
X021962Y018040D01*
X021878Y017956D01*
X021832Y017845D01*
X021832Y017726D01*
X021878Y017616D01*
X021962Y017531D01*
X022072Y017486D01*
X022192Y017486D01*
X022302Y017531D01*
X022407Y017665D02*
X024777Y017665D01*
X024909Y017764D02*
X022432Y017764D01*
X022425Y017862D02*
X030535Y017862D01*
X030572Y017826D02*
X030741Y017756D01*
X030924Y017756D01*
X031093Y017826D01*
X031222Y017955D01*
X031292Y018124D01*
X031292Y018307D01*
X031222Y018476D01*
X031093Y018606D01*
X030924Y018676D01*
X030741Y018676D01*
X030572Y018606D01*
X030442Y018476D01*
X030372Y018307D01*
X030372Y018124D01*
X030442Y017955D01*
X030572Y017826D01*
X030721Y017764D02*
X025135Y017764D01*
X025267Y017665D02*
X030615Y017665D01*
X030641Y017676D02*
X030472Y017606D01*
X030342Y017476D01*
X030272Y017307D01*
X030272Y017124D01*
X030342Y016955D01*
X030472Y016826D01*
X030641Y016756D01*
X030824Y016756D01*
X030993Y016826D01*
X031122Y016955D01*
X031192Y017124D01*
X031192Y017307D01*
X031122Y017476D01*
X030993Y017606D01*
X030824Y017676D01*
X030641Y017676D01*
X030849Y017665D02*
X031615Y017665D01*
X031721Y017764D02*
X030943Y017764D01*
X031129Y017862D02*
X031535Y017862D01*
X031440Y017961D02*
X031224Y017961D01*
X031265Y018059D02*
X031399Y018059D01*
X031372Y018158D02*
X031292Y018158D01*
X031292Y018256D02*
X031372Y018256D01*
X031392Y018355D02*
X031272Y018355D01*
X031232Y018453D02*
X031433Y018453D01*
X031518Y018552D02*
X031146Y018552D01*
X030984Y018650D02*
X031680Y018650D01*
X031450Y018848D02*
X031015Y018848D01*
X030993Y018826D02*
X031122Y018955D01*
X031192Y019124D01*
X031192Y019307D01*
X031122Y019476D01*
X030993Y019606D01*
X030824Y019676D01*
X030641Y019676D01*
X030472Y019606D01*
X030342Y019476D01*
X030272Y019307D01*
X030272Y019124D01*
X030342Y018955D01*
X030472Y018826D01*
X030641Y018756D01*
X030824Y018756D01*
X030993Y018826D01*
X031113Y018946D02*
X031351Y018946D01*
X031305Y019045D02*
X031159Y019045D01*
X031192Y019143D02*
X031272Y019143D01*
X031272Y019242D02*
X031192Y019242D01*
X031178Y019340D02*
X031286Y019340D01*
X031327Y019439D02*
X031138Y019439D01*
X031061Y019537D02*
X031403Y019537D01*
X031545Y019636D02*
X030919Y019636D01*
X030545Y019636D02*
X020932Y019636D01*
X020932Y019734D02*
X033832Y019734D01*
X033832Y019636D02*
X031919Y019636D01*
X032061Y019537D02*
X033832Y019537D01*
X033832Y019833D02*
X032071Y019833D01*
X032182Y019932D02*
X033832Y019932D01*
X033295Y020030D02*
X033270Y020030D01*
X033270Y020129D02*
X033295Y020129D01*
X033269Y020227D02*
X031882Y020227D01*
X031882Y020129D02*
X031782Y020129D01*
X031782Y020227D02*
X031292Y020227D01*
X031292Y020129D02*
X031390Y020129D01*
X031422Y020030D02*
X031292Y020030D01*
X031292Y019932D02*
X031482Y019932D01*
X031593Y019833D02*
X031276Y019833D01*
X031292Y020326D02*
X031395Y020326D01*
X031434Y020424D02*
X031292Y020424D01*
X031782Y020030D02*
X031882Y020030D01*
X031882Y019932D02*
X031782Y019932D01*
X031782Y019833D02*
X031882Y019833D01*
X032243Y020030D02*
X032594Y020030D01*
X032582Y020129D02*
X032274Y020129D01*
X032270Y020326D02*
X032582Y020326D01*
X032607Y020424D02*
X032231Y020424D01*
X032138Y019439D02*
X032604Y019439D01*
X032650Y018946D02*
X032113Y018946D01*
X032015Y018848D02*
X033832Y018848D01*
X033832Y018749D02*
X014646Y018749D01*
X014623Y018726D02*
X014752Y018855D01*
X014822Y019024D01*
X014822Y019207D01*
X014752Y019376D01*
X014623Y019506D01*
X014454Y019576D01*
X014271Y019576D01*
X014102Y019506D01*
X013972Y019376D01*
X013902Y019207D01*
X013902Y019024D01*
X013972Y018855D01*
X014102Y018726D01*
X014271Y018656D01*
X014454Y018656D01*
X014623Y018726D01*
X014745Y018848D02*
X016215Y018848D01*
X016182Y018861D02*
X016292Y018816D01*
X016412Y018816D01*
X016522Y018861D01*
X016606Y018946D01*
X016652Y019056D01*
X016652Y019175D01*
X016606Y019286D01*
X016522Y019370D01*
X016412Y019416D01*
X016292Y019416D01*
X016182Y019370D01*
X016098Y019286D01*
X016052Y019175D01*
X016052Y019056D01*
X016098Y018946D01*
X014790Y018946D01*
X014822Y019045D02*
X016057Y019045D01*
X016052Y019143D02*
X014822Y019143D01*
X014808Y019242D02*
X016080Y019242D01*
X016153Y019340D02*
X014767Y019340D01*
X014689Y019439D02*
X017023Y019439D01*
X017012Y019464D02*
X017082Y019295D01*
X017212Y019166D01*
X017381Y019096D01*
X017564Y019096D01*
X017733Y019166D01*
X017862Y019295D01*
X017932Y019464D01*
X017932Y019647D01*
X017862Y019816D01*
X017733Y019946D01*
X017564Y020016D01*
X017381Y020016D01*
X017212Y019946D01*
X017082Y019816D01*
X017012Y019647D01*
X017012Y019464D01*
X017012Y019537D02*
X014546Y019537D01*
X014179Y019537D02*
X013691Y019537D01*
X013752Y019476D02*
X013623Y019606D01*
X013454Y019676D01*
X013271Y019676D01*
X013102Y019606D01*
X012972Y019476D01*
X012902Y019307D01*
X012902Y019124D01*
X012972Y018955D01*
X013102Y018826D01*
X013271Y018756D01*
X013454Y018756D01*
X013623Y018826D01*
X013752Y018955D01*
X013822Y019124D01*
X013822Y019307D01*
X013752Y019476D01*
X013768Y019439D02*
X014035Y019439D01*
X013957Y019340D02*
X013808Y019340D01*
X013822Y019242D02*
X013917Y019242D01*
X013902Y019143D02*
X013822Y019143D01*
X013789Y019045D02*
X013902Y019045D01*
X013934Y018946D02*
X013743Y018946D01*
X013645Y018848D02*
X013980Y018848D01*
X014078Y018749D02*
X012646Y018749D01*
X012623Y018726D02*
X012752Y018855D01*
X012822Y019024D01*
X012822Y019207D01*
X012752Y019376D01*
X012623Y019506D01*
X012454Y019576D01*
X012271Y019576D01*
X012102Y019506D01*
X011972Y019376D01*
X011902Y019207D01*
X011902Y019024D01*
X011972Y018855D01*
X012102Y018726D01*
X012271Y018656D01*
X012454Y018656D01*
X012623Y018726D01*
X012745Y018848D02*
X013080Y018848D01*
X012981Y018946D02*
X012790Y018946D01*
X012822Y019045D02*
X012935Y019045D01*
X012902Y019143D02*
X012822Y019143D01*
X012808Y019242D02*
X012902Y019242D01*
X012916Y019340D02*
X012767Y019340D01*
X012689Y019439D02*
X012957Y019439D01*
X013033Y019537D02*
X012546Y019537D01*
X012179Y019537D02*
X011691Y019537D01*
X011752Y019476D02*
X011623Y019606D01*
X011454Y019676D01*
X011271Y019676D01*
X011102Y019606D01*
X010972Y019476D01*
X010902Y019307D01*
X010902Y019124D01*
X010972Y018955D01*
X011102Y018826D01*
X011271Y018756D01*
X011454Y018756D01*
X011623Y018826D01*
X011752Y018955D01*
X011822Y019124D01*
X011822Y019307D01*
X011752Y019476D01*
X011768Y019439D02*
X012035Y019439D01*
X011957Y019340D02*
X011808Y019340D01*
X011822Y019242D02*
X011917Y019242D01*
X011902Y019143D02*
X011822Y019143D01*
X011789Y019045D02*
X011902Y019045D01*
X011934Y018946D02*
X011743Y018946D01*
X011645Y018848D02*
X011980Y018848D01*
X012078Y018749D02*
X010623Y018749D01*
X010598Y018731D02*
X010655Y018772D01*
X010705Y018822D01*
X010747Y018880D01*
X010779Y018943D01*
X010801Y019010D01*
X010810Y019066D01*
X010412Y019066D01*
X010412Y019166D01*
X010312Y019166D01*
X010312Y019563D01*
X010257Y019554D01*
X010189Y019533D01*
X010126Y019500D01*
X010069Y019459D01*
X010019Y019409D01*
X009977Y019351D01*
X009945Y019288D01*
X009923Y019221D01*
X009914Y019166D01*
X010312Y019166D01*
X010312Y019066D01*
X009914Y019066D01*
X009923Y019010D01*
X009945Y018943D01*
X009977Y018880D01*
X010019Y018822D01*
X010069Y018772D01*
X010126Y018731D01*
X010189Y018699D01*
X010257Y018677D01*
X010312Y018668D01*
X010312Y019065D01*
X010412Y019065D01*
X010412Y018668D01*
X010468Y018677D01*
X010535Y018699D01*
X010598Y018731D01*
X010724Y018848D02*
X011080Y018848D01*
X010981Y018946D02*
X010780Y018946D01*
X010807Y019045D02*
X010935Y019045D01*
X010902Y019143D02*
X010412Y019143D01*
X010412Y019166D02*
X010810Y019166D01*
X010801Y019221D01*
X010779Y019288D01*
X010747Y019351D01*
X010705Y019409D01*
X010655Y019459D01*
X010598Y019500D01*
X010535Y019533D01*
X010468Y019554D01*
X010412Y019563D01*
X010412Y019166D01*
X010412Y019242D02*
X010312Y019242D01*
X010312Y019340D02*
X010412Y019340D01*
X010412Y019439D02*
X010312Y019439D01*
X010312Y019537D02*
X010412Y019537D01*
X010520Y019537D02*
X011033Y019537D01*
X010957Y019439D02*
X010675Y019439D01*
X010753Y019340D02*
X010916Y019340D01*
X010902Y019242D02*
X010794Y019242D01*
X010412Y019045D02*
X010312Y019045D01*
X010312Y019143D02*
X009822Y019143D01*
X009822Y019124D02*
X009822Y019307D01*
X009752Y019476D01*
X009623Y019606D01*
X009454Y019676D01*
X009271Y019676D01*
X009102Y019606D01*
X008972Y019476D01*
X008902Y019307D01*
X008902Y019124D01*
X008972Y018955D01*
X009102Y018826D01*
X009271Y018756D01*
X009454Y018756D01*
X009623Y018826D01*
X009752Y018955D01*
X009822Y019124D01*
X009789Y019045D02*
X009918Y019045D01*
X009944Y018946D02*
X009743Y018946D01*
X009645Y018848D02*
X010001Y018848D01*
X010101Y018749D02*
X005293Y018749D01*
X005292Y018750D02*
X005182Y018796D01*
X005062Y018796D01*
X004952Y018750D01*
X004868Y018666D01*
X004822Y018555D01*
X004822Y018436D01*
X004868Y018326D01*
X004952Y018241D01*
X005062Y018196D01*
X005182Y018196D01*
X005292Y018241D01*
X005376Y018326D01*
X005422Y018436D01*
X005422Y018555D01*
X005376Y018666D01*
X005292Y018750D01*
X005383Y018650D02*
X030680Y018650D01*
X030518Y018552D02*
X005422Y018552D01*
X005422Y018453D02*
X030433Y018453D01*
X030392Y018355D02*
X005389Y018355D01*
X005307Y018256D02*
X030372Y018256D01*
X030372Y018158D02*
X000762Y018158D01*
X000762Y018256D02*
X004937Y018256D01*
X004856Y018355D02*
X000762Y018355D01*
X000762Y018453D02*
X004822Y018453D01*
X004822Y018552D02*
X000762Y018552D01*
X000762Y018650D02*
X004862Y018650D01*
X004951Y018749D02*
X000762Y018749D01*
X000762Y018848D02*
X009080Y018848D01*
X008981Y018946D02*
X000762Y018946D01*
X000762Y019045D02*
X006393Y019045D01*
X006349Y019063D02*
X006611Y018954D01*
X006894Y018954D01*
X007155Y019063D01*
X007355Y019263D01*
X007463Y019524D01*
X007463Y019807D01*
X007355Y020068D01*
X007155Y020268D01*
X006894Y020377D01*
X006611Y020377D01*
X006349Y020268D01*
X006149Y020068D01*
X006041Y019807D01*
X006041Y019524D01*
X006149Y019263D01*
X006349Y019063D01*
X006269Y019143D02*
X000762Y019143D01*
X000762Y019242D02*
X006170Y019242D01*
X006117Y019340D02*
X000762Y019340D01*
X000762Y019439D02*
X006076Y019439D01*
X006041Y019537D02*
X000762Y019537D01*
X000893Y019636D02*
X006041Y019636D01*
X006041Y019734D02*
X001055Y019734D01*
X001114Y019833D02*
X006052Y019833D01*
X006093Y019932D02*
X001132Y019932D01*
X001118Y020030D02*
X006133Y020030D01*
X006209Y020129D02*
X001063Y020129D01*
X000912Y020227D02*
X006308Y020227D01*
X006488Y020326D02*
X000762Y020326D01*
X000762Y020424D02*
X030372Y020424D01*
X030372Y020326D02*
X007017Y020326D01*
X007196Y020227D02*
X030372Y020227D01*
X030372Y020129D02*
X007295Y020129D01*
X007371Y020030D02*
X030372Y020030D01*
X030372Y019932D02*
X019747Y019932D01*
X019733Y019946D02*
X019564Y020016D01*
X019381Y020016D01*
X019212Y019946D01*
X019082Y019816D01*
X019012Y019647D01*
X019012Y019464D01*
X019082Y019295D01*
X019212Y019166D01*
X019381Y019096D01*
X019564Y019096D01*
X019733Y019166D01*
X019862Y019295D01*
X019932Y019464D01*
X019932Y019647D01*
X019862Y019816D01*
X019733Y019946D01*
X019845Y019833D02*
X020023Y019833D01*
X020012Y019822D02*
X020012Y019089D01*
X020106Y018996D01*
X020838Y018996D01*
X020932Y019089D01*
X020932Y019822D01*
X020838Y019916D01*
X020106Y019916D01*
X020012Y019822D01*
X020012Y019734D02*
X019896Y019734D01*
X019932Y019636D02*
X020012Y019636D01*
X020012Y019537D02*
X019932Y019537D01*
X019922Y019439D02*
X020012Y019439D01*
X020012Y019340D02*
X019881Y019340D01*
X019809Y019242D02*
X020012Y019242D01*
X020012Y019143D02*
X019679Y019143D01*
X020057Y019045D02*
X018682Y019045D01*
X018733Y019066D02*
X018862Y019195D01*
X018932Y019364D01*
X018932Y019547D01*
X018862Y019716D01*
X018733Y019846D01*
X018564Y019916D01*
X018381Y019916D01*
X018212Y019846D01*
X018082Y019716D01*
X018012Y019547D01*
X018012Y019364D01*
X018082Y019195D01*
X018212Y019066D01*
X018381Y018996D01*
X018564Y018996D01*
X018733Y019066D01*
X018810Y019143D02*
X019266Y019143D01*
X019136Y019242D02*
X018881Y019242D01*
X018922Y019340D02*
X019063Y019340D01*
X019023Y019439D02*
X018932Y019439D01*
X018932Y019537D02*
X019012Y019537D01*
X019012Y019636D02*
X018895Y019636D01*
X018844Y019734D02*
X019048Y019734D01*
X019099Y019833D02*
X018745Y019833D01*
X019198Y019932D02*
X017747Y019932D01*
X017845Y019833D02*
X018199Y019833D01*
X018101Y019734D02*
X017896Y019734D01*
X017932Y019636D02*
X018049Y019636D01*
X018012Y019537D02*
X017932Y019537D01*
X017922Y019439D02*
X018012Y019439D01*
X018022Y019340D02*
X017881Y019340D01*
X017809Y019242D02*
X018063Y019242D01*
X018134Y019143D02*
X017679Y019143D01*
X017266Y019143D02*
X016652Y019143D01*
X016647Y019045D02*
X018262Y019045D01*
X017136Y019242D02*
X016625Y019242D01*
X016552Y019340D02*
X017063Y019340D01*
X016607Y018946D02*
X030351Y018946D01*
X030305Y019045D02*
X020888Y019045D01*
X020932Y019143D02*
X030272Y019143D01*
X030272Y019242D02*
X020932Y019242D01*
X020932Y019340D02*
X030286Y019340D01*
X030327Y019439D02*
X020932Y019439D01*
X020932Y019537D02*
X030403Y019537D01*
X030389Y019833D02*
X020921Y019833D01*
X022009Y018059D02*
X000762Y018059D01*
X000762Y017961D02*
X021883Y017961D01*
X021839Y017862D02*
X000762Y017862D01*
X000762Y017764D02*
X021832Y017764D01*
X021857Y017665D02*
X019707Y017665D01*
X019794Y017566D02*
X021927Y017566D01*
X022255Y018059D02*
X030399Y018059D01*
X030440Y017961D02*
X022381Y017961D01*
X024095Y016483D02*
X017328Y016483D01*
X017275Y016384D02*
X024027Y016384D01*
X024002Y016285D02*
X017126Y016285D01*
X016980Y016187D02*
X024010Y016187D01*
X024055Y016088D02*
X016929Y016088D01*
X016786Y015990D02*
X019986Y015990D01*
X019962Y015980D02*
X019878Y015896D01*
X019832Y015785D01*
X019832Y015705D01*
X019722Y015660D01*
X019638Y015576D01*
X019592Y015465D01*
X019592Y015346D01*
X019638Y015236D01*
X019722Y015151D01*
X019832Y015106D01*
X019952Y015106D01*
X020062Y015151D01*
X020146Y015236D01*
X020192Y015346D01*
X020192Y015426D01*
X020302Y015471D01*
X020386Y015556D01*
X020432Y015666D01*
X020432Y015785D01*
X020386Y015896D01*
X020302Y015980D01*
X020192Y016026D01*
X020072Y016026D01*
X019962Y015980D01*
X019876Y015891D02*
X015826Y015891D01*
X015832Y015990D02*
X016598Y015990D01*
X016455Y016088D02*
X015806Y016088D01*
X015784Y015793D02*
X019835Y015793D01*
X019805Y015694D02*
X015661Y015694D01*
X015552Y015596D02*
X019658Y015596D01*
X019605Y015497D02*
X015524Y015497D01*
X015449Y015399D02*
X019592Y015399D01*
X019611Y015300D02*
X015205Y015300D01*
X015132Y015201D02*
X019672Y015201D01*
X020112Y015201D02*
X022616Y015201D01*
X022506Y015300D02*
X020173Y015300D01*
X020192Y015399D02*
X022465Y015399D01*
X022462Y015497D02*
X020328Y015497D01*
X020403Y015596D02*
X022491Y015596D01*
X022567Y015694D02*
X020432Y015694D01*
X020429Y015793D02*
X025083Y015793D01*
X025176Y015891D02*
X020388Y015891D01*
X020278Y015990D02*
X024184Y015990D01*
X025232Y017271D02*
X030272Y017271D01*
X030272Y017172D02*
X026662Y017172D01*
X026777Y017074D02*
X030293Y017074D01*
X030334Y016975D02*
X026818Y016975D01*
X026822Y016877D02*
X030421Y016877D01*
X030586Y016778D02*
X026794Y016778D01*
X026720Y016680D02*
X033832Y016680D01*
X033832Y016778D02*
X031878Y016778D01*
X032044Y016877D02*
X033832Y016877D01*
X033832Y016581D02*
X032117Y016581D01*
X032216Y016483D02*
X032648Y016483D01*
X032621Y016975D02*
X032130Y016975D01*
X031586Y016778D02*
X030878Y016778D01*
X031044Y016877D02*
X031421Y016877D01*
X031334Y016975D02*
X031130Y016975D01*
X031171Y017074D02*
X031293Y017074D01*
X031272Y017172D02*
X031192Y017172D01*
X031192Y017271D02*
X031272Y017271D01*
X031298Y017369D02*
X031166Y017369D01*
X031126Y017468D02*
X031339Y017468D01*
X031433Y017566D02*
X031032Y017566D01*
X030433Y017566D02*
X025313Y017566D01*
X025322Y017468D02*
X030339Y017468D01*
X030298Y017369D02*
X025299Y017369D01*
X026212Y015990D02*
X030428Y015990D01*
X030506Y015891D02*
X026279Y015891D01*
X026302Y015793D02*
X030651Y015793D01*
X030462Y015596D02*
X026246Y015596D01*
X026293Y015694D02*
X033832Y015694D01*
X033832Y015596D02*
X032003Y015596D01*
X032101Y015497D02*
X032662Y015497D01*
X032592Y015004D02*
X032143Y015004D01*
X031516Y014807D02*
X030948Y014807D01*
X031073Y014906D02*
X031391Y014906D01*
X031322Y015004D02*
X031143Y015004D01*
X031183Y015103D02*
X031281Y015103D01*
X031272Y015201D02*
X031192Y015201D01*
X031192Y015300D02*
X031272Y015300D01*
X031310Y015399D02*
X031154Y015399D01*
X031101Y015497D02*
X031363Y015497D01*
X031462Y015596D02*
X031003Y015596D01*
X031013Y015793D02*
X031651Y015793D01*
X031506Y015891D02*
X031158Y015891D01*
X031237Y015990D02*
X031428Y015990D01*
X031387Y016088D02*
X031277Y016088D01*
X031292Y016187D02*
X031372Y016187D01*
X031372Y016285D02*
X031292Y016285D01*
X031260Y016384D02*
X031404Y016384D01*
X031449Y016483D02*
X031216Y016483D01*
X031117Y016581D02*
X031547Y016581D01*
X032236Y015990D02*
X032607Y015990D01*
X032158Y015891D02*
X033832Y015891D01*
X033832Y015793D02*
X032013Y015793D01*
X031583Y014610D02*
X031081Y014610D01*
X031187Y014512D02*
X031478Y014512D01*
X031416Y014413D02*
X031248Y014413D01*
X031289Y014315D02*
X031375Y014315D01*
X031372Y014216D02*
X031292Y014216D01*
X031289Y014117D02*
X031375Y014117D01*
X031416Y014019D02*
X031249Y014019D01*
X031188Y013920D02*
X031477Y013920D01*
X031581Y013822D02*
X031084Y013822D01*
X030946Y013625D02*
X031518Y013625D01*
X031392Y013526D02*
X031072Y013526D01*
X031142Y013428D02*
X031322Y013428D01*
X031281Y013329D02*
X031183Y013329D01*
X031192Y013231D02*
X031272Y013231D01*
X031272Y013132D02*
X031192Y013132D01*
X031155Y013034D02*
X031310Y013034D01*
X031362Y012935D02*
X031102Y012935D01*
X031004Y012836D02*
X031461Y012836D01*
X031653Y012639D02*
X031011Y012639D01*
X031157Y012541D02*
X031507Y012541D01*
X031428Y012442D02*
X031236Y012442D01*
X031277Y012344D02*
X031387Y012344D01*
X031372Y012245D02*
X031292Y012245D01*
X031292Y012147D02*
X031372Y012147D01*
X031404Y012048D02*
X031261Y012048D01*
X031217Y011950D02*
X031448Y011950D01*
X031546Y011851D02*
X031118Y011851D01*
X031043Y011555D02*
X031421Y011555D01*
X031334Y011457D02*
X031130Y011457D01*
X031171Y011358D02*
X031293Y011358D01*
X031272Y011260D02*
X031192Y011260D01*
X031192Y011161D02*
X031272Y011161D01*
X031298Y011063D02*
X031167Y011063D01*
X031126Y010964D02*
X031338Y010964D01*
X031432Y010866D02*
X031033Y010866D01*
X032102Y012935D02*
X032662Y012935D01*
X032593Y013428D02*
X032142Y013428D01*
X032072Y013526D02*
X033832Y013526D01*
X033832Y013625D02*
X031946Y013625D01*
X032126Y017468D02*
X032633Y017468D01*
X032032Y017566D02*
X033832Y017566D01*
X033832Y017665D02*
X031849Y017665D01*
X031943Y017764D02*
X033832Y017764D01*
X033832Y017862D02*
X032129Y017862D01*
X032224Y017961D02*
X032636Y017961D01*
X032619Y018453D02*
X032232Y018453D01*
X032146Y018552D02*
X033832Y018552D01*
X033832Y018650D02*
X031984Y018650D01*
X030450Y018848D02*
X016489Y018848D01*
X016182Y018861D02*
X016098Y018946D01*
X017012Y019636D02*
X013549Y019636D01*
X013175Y019636D02*
X011549Y019636D01*
X011175Y019636D02*
X009549Y019636D01*
X009691Y019537D02*
X010204Y019537D01*
X010049Y019439D02*
X009768Y019439D01*
X009808Y019340D02*
X009972Y019340D01*
X009930Y019242D02*
X009822Y019242D01*
X010312Y018946D02*
X010412Y018946D01*
X010412Y018848D02*
X010312Y018848D01*
X010312Y018749D02*
X010412Y018749D01*
X009175Y019636D02*
X007463Y019636D01*
X007463Y019734D02*
X017048Y019734D01*
X017099Y019833D02*
X007453Y019833D01*
X007412Y019932D02*
X017198Y019932D01*
X014797Y015694D02*
X010555Y015694D01*
X010429Y015694D02*
X005354Y015694D01*
X005486Y015596D02*
X010268Y015596D01*
X010210Y015497D02*
X005533Y015497D01*
X005542Y015399D02*
X010192Y015399D01*
X010722Y015201D02*
X014374Y015201D01*
X014659Y015300D02*
X010777Y015300D01*
X010792Y015399D02*
X014632Y015399D01*
X014632Y015485D02*
X014678Y015596D01*
X014844Y015103D02*
X021842Y015103D01*
X021697Y015004D02*
X014872Y015004D01*
X014868Y014906D02*
X021645Y014906D01*
X021632Y014807D02*
X014827Y014807D01*
X014712Y014709D02*
X021652Y014709D01*
X021713Y014610D02*
X014753Y014610D01*
X014758Y014315D02*
X014888Y014315D01*
X014768Y014216D02*
X014722Y014105D01*
X014722Y013986D01*
X015192Y014300D02*
X015276Y014216D01*
X008935Y019045D02*
X007111Y019045D01*
X007236Y019143D02*
X008902Y019143D01*
X008902Y019242D02*
X007334Y019242D01*
X007387Y019340D02*
X008916Y019340D01*
X008957Y019439D02*
X007428Y019439D01*
X007463Y019537D02*
X009033Y019537D01*
X005542Y015004D02*
X004998Y015004D01*
X005079Y014906D02*
X005550Y014906D01*
X005596Y014807D02*
X005112Y014807D01*
X005112Y014709D02*
X005727Y014709D01*
X013552Y003770D02*
X014146Y003770D01*
X014255Y003672D02*
X013607Y003672D01*
D15*
X030732Y001216D02*
X031142Y001216D01*
X031552Y001626D01*
X031942Y001626D01*
X032042Y001526D01*
X032232Y001526D01*
X031732Y001216D02*
X033282Y001216D01*
X033282Y002216D02*
X031832Y002216D01*
X031732Y003216D02*
X033282Y003216D01*
X033282Y004216D02*
X031832Y004216D01*
X031732Y005216D02*
X033282Y005216D01*
X033282Y006216D02*
X031832Y006216D01*
X031732Y007216D02*
X033282Y007216D01*
X033282Y008216D02*
X031832Y008216D01*
X031732Y009216D02*
X033282Y009216D01*
X033282Y010216D02*
X031832Y010216D01*
X031732Y011216D02*
X033282Y011216D01*
X033282Y012216D02*
X031832Y012216D01*
X031732Y013216D02*
X033282Y013216D01*
X033282Y014216D02*
X031832Y014216D01*
X031732Y015216D02*
X033282Y015216D01*
X033282Y016216D02*
X031832Y016216D01*
X031732Y017216D02*
X033282Y017216D01*
X033282Y018216D02*
X031832Y018216D01*
X031732Y019216D02*
X033282Y019216D01*
M02*
