%
M48
M72
T01C0.0120
T02C0.0400
T03C0.1100
%
T01
X1352Y1926
X1892Y3206
X2572Y4226
X3232Y5076
X2462Y5686
X2902Y6316
X3502Y6306
X4262Y6306
X4192Y5776
X5922Y4986
X6372Y5646
X7332Y6146
X8942Y6146
X8512Y5066
X10462Y4946
X10752Y5426
X10432Y5756
X12032Y6306
X12797Y5926
X12247Y5396
X13902Y5046
X14402Y3936
X13322Y3576
X11812Y3836
X15182Y2966
X16372Y3276
X17342Y3956
X16272Y5076
X16772Y5316
X16792Y5886
X18762Y7486
X16292Y8606
X14237Y8386
X14237Y7886
X14237Y7386
X13887Y7036
X13397Y6546
X12032Y7666
X11912Y8656
X11292Y10166
X11402Y11666
X11912Y12656
X14502Y11816
X15822Y11396
X16692Y12386
X18272Y12476
X18972Y10966
X20142Y11006
X20932Y10126
X21542Y10296
X22132Y9776
X20142Y9246
X18662Y10126
X17372Y10966
X17202Y10476
X14237Y8886
X9122Y8796
X7812Y8746
X7502Y9306
X7532Y9746
X4572Y10246
X4492Y8866
X5422Y7596
X7352Y7906
X3852Y4226
X5822Y3866
X7312Y2736
X7412Y1936
X1332Y5886
X1472Y7776
X6152Y12846
X4812Y14766
X5242Y15416
X5842Y14986
X6782Y16826
X8412Y18496
X10472Y16666
X10482Y16156
X10492Y15396
X12442Y16426
X11942Y16956
X13102Y16966
X14952Y17336
X16692Y16276
X17042Y16576
X17452Y16856
X16512Y15796
X15532Y15966
X15252Y15626
X14932Y15426
X14572Y14976
X14492Y14456
X15022Y14046
X18032Y15496
X19892Y15406
X20132Y15726
X21202Y15706
X21932Y14816
X22762Y15466
X22522Y16016
X23522Y16456
X24302Y16266
X24882Y16326
X25342Y15636
X26002Y15776
X26092Y14926
X25482Y13756
X25052Y13866
X25452Y12596
X25652Y12126
X26142Y12286
X27172Y12566
X25142Y11756
X24472Y11526
X23582Y11806
X22932Y11806
X22522Y11976
X21482Y12316
X22132Y13156
X21532Y13286
X21212Y14036
X24082Y12416
X25672Y10336
X26292Y10216
X27922Y9896
X22132Y8146
X20112Y4826
X17652Y2376
X32232Y1526
X24352Y15106
X26522Y16906
X25022Y17486
X22132Y17786
X22122Y19456
X24062Y19766
X19532Y17416
X16352Y19116
X5122Y18496
X3982Y19966
X2422Y18356
X832Y19936
X832Y16526
X2372Y14796
X882Y13386
T02
X9362Y19216
X10362Y19116
X11362Y19216
X12362Y19116
X13362Y19216
X14362Y19116
X17472Y19556
X18472Y19456
X19472Y19556
X20472Y19456
X30732Y19216
X31732Y19216
X31832Y20216
X30832Y20216
X30832Y18216
X31832Y18216
X31732Y17216
X30732Y17216
X30832Y16216
X31832Y16216
X31732Y15216
X30732Y15216
X30832Y14216
X31832Y14216
X31732Y13216
X30732Y13216
X30832Y12216
X31832Y12216
X31732Y11216
X30732Y11216
X30832Y10216
X31832Y10216
X31732Y9216
X30732Y9216
X30832Y8216
X31832Y8216
X31732Y7216
X30732Y7216
X30832Y6216
X31832Y6216
X31732Y5216
X30732Y5216
X30832Y4216
X31832Y4216
X31732Y3216
X30732Y3216
X30832Y2216
X31832Y2216
X31732Y1216
X30732Y1216
X27712Y2216
X26712Y2316
X25712Y2216
X24712Y2316
X23712Y2216
X23702Y3326
X24702Y3226
X25702Y3326
X26702Y3226
X27702Y3326
T03
X27662Y4996
X9992Y1936
X6752Y19666
M30
