G75*
G70*
%OFA0B0*%
%FSLAX24Y24*%
%IPPOS*%
%LPD*%
%AMOC8*
5,1,8,0,0,1.08239X$1,22.5*
%
%ADD10C,0.0000*%
D10*
X000282Y000716D02*
X000282Y020716D01*
X034284Y020716D01*
X034284Y000716D01*
X000282Y000716D01*
X009441Y001936D02*
X009443Y001983D01*
X009449Y002029D01*
X009459Y002075D01*
X009472Y002120D01*
X009490Y002163D01*
X009511Y002205D01*
X009535Y002245D01*
X009563Y002282D01*
X009594Y002317D01*
X009628Y002350D01*
X009664Y002379D01*
X009703Y002405D01*
X009744Y002428D01*
X009787Y002447D01*
X009831Y002463D01*
X009876Y002475D01*
X009922Y002483D01*
X009969Y002487D01*
X010015Y002487D01*
X010062Y002483D01*
X010108Y002475D01*
X010153Y002463D01*
X010197Y002447D01*
X010240Y002428D01*
X010281Y002405D01*
X010320Y002379D01*
X010356Y002350D01*
X010390Y002317D01*
X010421Y002282D01*
X010449Y002245D01*
X010473Y002205D01*
X010494Y002163D01*
X010512Y002120D01*
X010525Y002075D01*
X010535Y002029D01*
X010541Y001983D01*
X010543Y001936D01*
X010541Y001889D01*
X010535Y001843D01*
X010525Y001797D01*
X010512Y001752D01*
X010494Y001709D01*
X010473Y001667D01*
X010449Y001627D01*
X010421Y001590D01*
X010390Y001555D01*
X010356Y001522D01*
X010320Y001493D01*
X010281Y001467D01*
X010240Y001444D01*
X010197Y001425D01*
X010153Y001409D01*
X010108Y001397D01*
X010062Y001389D01*
X010015Y001385D01*
X009969Y001385D01*
X009922Y001389D01*
X009876Y001397D01*
X009831Y001409D01*
X009787Y001425D01*
X009744Y001444D01*
X009703Y001467D01*
X009664Y001493D01*
X009628Y001522D01*
X009594Y001555D01*
X009563Y001590D01*
X009535Y001627D01*
X009511Y001667D01*
X009490Y001709D01*
X009472Y001752D01*
X009459Y001797D01*
X009449Y001843D01*
X009443Y001889D01*
X009441Y001936D01*
X027111Y004996D02*
X027113Y005043D01*
X027119Y005089D01*
X027129Y005135D01*
X027142Y005180D01*
X027160Y005223D01*
X027181Y005265D01*
X027205Y005305D01*
X027233Y005342D01*
X027264Y005377D01*
X027298Y005410D01*
X027334Y005439D01*
X027373Y005465D01*
X027414Y005488D01*
X027457Y005507D01*
X027501Y005523D01*
X027546Y005535D01*
X027592Y005543D01*
X027639Y005547D01*
X027685Y005547D01*
X027732Y005543D01*
X027778Y005535D01*
X027823Y005523D01*
X027867Y005507D01*
X027910Y005488D01*
X027951Y005465D01*
X027990Y005439D01*
X028026Y005410D01*
X028060Y005377D01*
X028091Y005342D01*
X028119Y005305D01*
X028143Y005265D01*
X028164Y005223D01*
X028182Y005180D01*
X028195Y005135D01*
X028205Y005089D01*
X028211Y005043D01*
X028213Y004996D01*
X028211Y004949D01*
X028205Y004903D01*
X028195Y004857D01*
X028182Y004812D01*
X028164Y004769D01*
X028143Y004727D01*
X028119Y004687D01*
X028091Y004650D01*
X028060Y004615D01*
X028026Y004582D01*
X027990Y004553D01*
X027951Y004527D01*
X027910Y004504D01*
X027867Y004485D01*
X027823Y004469D01*
X027778Y004457D01*
X027732Y004449D01*
X027685Y004445D01*
X027639Y004445D01*
X027592Y004449D01*
X027546Y004457D01*
X027501Y004469D01*
X027457Y004485D01*
X027414Y004504D01*
X027373Y004527D01*
X027334Y004553D01*
X027298Y004582D01*
X027264Y004615D01*
X027233Y004650D01*
X027205Y004687D01*
X027181Y004727D01*
X027160Y004769D01*
X027142Y004812D01*
X027129Y004857D01*
X027119Y004903D01*
X027113Y004949D01*
X027111Y004996D01*
X006201Y019666D02*
X006203Y019713D01*
X006209Y019759D01*
X006219Y019805D01*
X006232Y019850D01*
X006250Y019893D01*
X006271Y019935D01*
X006295Y019975D01*
X006323Y020012D01*
X006354Y020047D01*
X006388Y020080D01*
X006424Y020109D01*
X006463Y020135D01*
X006504Y020158D01*
X006547Y020177D01*
X006591Y020193D01*
X006636Y020205D01*
X006682Y020213D01*
X006729Y020217D01*
X006775Y020217D01*
X006822Y020213D01*
X006868Y020205D01*
X006913Y020193D01*
X006957Y020177D01*
X007000Y020158D01*
X007041Y020135D01*
X007080Y020109D01*
X007116Y020080D01*
X007150Y020047D01*
X007181Y020012D01*
X007209Y019975D01*
X007233Y019935D01*
X007254Y019893D01*
X007272Y019850D01*
X007285Y019805D01*
X007295Y019759D01*
X007301Y019713D01*
X007303Y019666D01*
X007301Y019619D01*
X007295Y019573D01*
X007285Y019527D01*
X007272Y019482D01*
X007254Y019439D01*
X007233Y019397D01*
X007209Y019357D01*
X007181Y019320D01*
X007150Y019285D01*
X007116Y019252D01*
X007080Y019223D01*
X007041Y019197D01*
X007000Y019174D01*
X006957Y019155D01*
X006913Y019139D01*
X006868Y019127D01*
X006822Y019119D01*
X006775Y019115D01*
X006729Y019115D01*
X006682Y019119D01*
X006636Y019127D01*
X006591Y019139D01*
X006547Y019155D01*
X006504Y019174D01*
X006463Y019197D01*
X006424Y019223D01*
X006388Y019252D01*
X006354Y019285D01*
X006323Y019320D01*
X006295Y019357D01*
X006271Y019397D01*
X006250Y019439D01*
X006232Y019482D01*
X006219Y019527D01*
X006209Y019573D01*
X006203Y019619D01*
X006201Y019666D01*
M02*
