G75*
G70*
%OFA0B0*%
%FSLAX24Y24*%
%IPPOS*%
%LPD*%
%AMOC8*
5,1,8,0,0,1.08239X$1,22.5*
%
%ADD10C,0.0600*%
%ADD11C,0.0280*%
%ADD12C,0.0320*%
%ADD13C,0.0160*%
%ADD14C,0.0100*%
D10*
X023712Y002216D03*
X024712Y002316D03*
X025712Y002216D03*
X026712Y002316D03*
X027712Y002216D03*
X027702Y003326D03*
X026702Y003226D03*
X025702Y003326D03*
X024702Y003226D03*
X023702Y003326D03*
X030732Y003216D03*
X031732Y003216D03*
X031832Y004216D03*
X030832Y004216D03*
X030732Y005216D03*
X031732Y005216D03*
X031832Y006216D03*
X030832Y006216D03*
X030732Y007216D03*
X031732Y007216D03*
X031832Y008216D03*
X030832Y008216D03*
X030732Y009216D03*
X031732Y009216D03*
X031832Y010216D03*
X030832Y010216D03*
X030732Y011216D03*
X031732Y011216D03*
X031832Y012216D03*
X030832Y012216D03*
X030732Y013216D03*
X031732Y013216D03*
X031832Y014216D03*
X030832Y014216D03*
X030732Y015216D03*
X031732Y015216D03*
X031832Y016216D03*
X030832Y016216D03*
X030732Y017216D03*
X031732Y017216D03*
X031832Y018216D03*
X030832Y018216D03*
X030732Y019216D03*
X031732Y019216D03*
X031832Y020216D03*
X030832Y020216D03*
X020472Y019456D03*
X019472Y019556D03*
X018472Y019456D03*
X017472Y019556D03*
X014362Y019116D03*
X013362Y019216D03*
X012362Y019116D03*
X011362Y019216D03*
X010362Y019116D03*
X009362Y019216D03*
X030832Y002216D03*
X031832Y002216D03*
X031732Y001216D03*
X030732Y001216D03*
D11*
X032232Y001526D03*
X022132Y008146D03*
X020142Y009246D03*
X020932Y010126D03*
X021542Y010296D03*
X022132Y009776D03*
X020142Y011006D03*
X018972Y010966D03*
X018662Y010126D03*
X017372Y010966D03*
X017202Y010476D03*
X015822Y011396D03*
X014502Y011816D03*
X016692Y012386D03*
X018272Y012476D03*
X021212Y014036D03*
X021532Y013286D03*
X022132Y013156D03*
X021482Y012316D03*
X022522Y011976D03*
X022932Y011806D03*
X023582Y011806D03*
X024082Y012416D03*
X025142Y011756D03*
X025652Y012126D03*
X026142Y012286D03*
X025452Y012596D03*
X024472Y011526D03*
X025672Y010336D03*
X026292Y010216D03*
X027922Y009896D03*
X027172Y012566D03*
X025482Y013756D03*
X025052Y013866D03*
X026092Y014926D03*
X025342Y015636D03*
X026002Y015776D03*
X024882Y016326D03*
X024302Y016266D03*
X023522Y016456D03*
X022522Y016016D03*
X022762Y015466D03*
X021932Y014816D03*
X021202Y015706D03*
X020132Y015726D03*
X019892Y015406D03*
X018032Y015496D03*
X016692Y016276D03*
X017042Y016576D03*
X017452Y016856D03*
X016512Y015796D03*
X015532Y015966D03*
X015252Y015626D03*
X014932Y015426D03*
X014572Y014976D03*
X014492Y014456D03*
X015022Y014046D03*
X011912Y012656D03*
X011402Y011666D03*
X011292Y010166D03*
X011912Y008656D03*
X012032Y007666D03*
X013397Y006546D03*
X013887Y007036D03*
X014237Y007386D03*
X014237Y007886D03*
X014237Y008386D03*
X014237Y008886D03*
X016292Y008606D03*
X018762Y007486D03*
X016792Y005886D03*
X016772Y005316D03*
X016272Y005076D03*
X017342Y003956D03*
X016372Y003276D03*
X015182Y002966D03*
X014402Y003936D03*
X013322Y003576D03*
X011812Y003836D03*
X010462Y004946D03*
X010752Y005426D03*
X010432Y005756D03*
X012032Y006306D03*
X012797Y005926D03*
X012247Y005396D03*
X013902Y005046D03*
X017652Y002376D03*
X020112Y004826D03*
X009122Y008796D03*
X007812Y008746D03*
X007502Y009306D03*
X007532Y009746D03*
X004572Y010246D03*
X004492Y008866D03*
X005422Y007596D03*
X007352Y007906D03*
X007332Y006146D03*
X006372Y005646D03*
X005922Y004986D03*
X005822Y003866D03*
X007312Y002736D03*
X007412Y001936D03*
X003852Y004226D03*
X003232Y005076D03*
X002462Y005686D03*
X002902Y006316D03*
X003502Y006306D03*
X004262Y006306D03*
X004192Y005776D03*
X002572Y004226D03*
X001892Y003206D03*
X001352Y001926D03*
X001332Y005886D03*
X001472Y007776D03*
X008512Y005066D03*
X008942Y006146D03*
X006152Y012846D03*
X004812Y014766D03*
X005242Y015416D03*
X005842Y014986D03*
X006782Y016826D03*
X008412Y018496D03*
X010472Y016666D03*
X010482Y016156D03*
X010492Y015396D03*
X012442Y016426D03*
X011942Y016956D03*
X013102Y016966D03*
X014952Y017336D03*
X016352Y019116D03*
X019532Y017416D03*
X022132Y017786D03*
X022122Y019456D03*
X024062Y019766D03*
X025022Y017486D03*
X026522Y016906D03*
X024352Y015106D03*
X005122Y018496D03*
X003982Y019966D03*
X002422Y018356D03*
X000832Y019936D03*
X000832Y016526D03*
X002372Y014796D03*
X000882Y013386D03*
D12*
X000892Y007206D01*
X001752Y006316D01*
X002902Y006316D01*
X002462Y005686D02*
X003502Y005686D01*
X004122Y005066D01*
X004362Y005066D01*
X004622Y005326D01*
X004645Y005328D01*
X004668Y005333D01*
X004690Y005342D01*
X004710Y005355D01*
X004728Y005370D01*
X004743Y005388D01*
X004756Y005408D01*
X004765Y005430D01*
X004770Y005453D01*
X004772Y005476D01*
X004772Y007286D01*
X005082Y007596D01*
X005422Y007596D01*
X006372Y005646D02*
X009092Y005646D01*
X010402Y004336D01*
X014552Y004336D01*
X016112Y005896D01*
X016782Y005896D01*
X016792Y005886D01*
X016782Y005896D02*
X016782Y006906D01*
X020212Y010336D01*
X019062Y011496D01*
X019062Y012376D01*
X018562Y012876D01*
X015342Y012876D01*
X014122Y014096D01*
X010492Y014096D01*
X009362Y015226D01*
X009362Y019216D01*
X018742Y020276D02*
X030772Y020276D01*
X030832Y020216D01*
X025062Y014846D02*
X024614Y014844D01*
X024562Y014792D01*
X024426Y014736D01*
X024279Y014736D01*
X024143Y014792D01*
X024092Y014842D01*
X021912Y014836D01*
X021912Y012336D01*
X022425Y012336D01*
X022449Y012346D01*
X022454Y012346D01*
X022587Y012478D01*
X022701Y012526D01*
X022824Y012526D01*
X023774Y012526D01*
X023888Y012478D01*
X023975Y012391D01*
X024031Y012336D01*
X024314Y012336D01*
X024837Y012858D01*
X024951Y012906D01*
X025062Y012906D01*
X025062Y014846D01*
X025062Y014731D02*
X021912Y014731D01*
X021912Y014413D02*
X025062Y014413D01*
X025062Y014094D02*
X021912Y014094D01*
X021912Y013776D02*
X025062Y013776D01*
X025062Y013457D02*
X021912Y013457D01*
X021912Y013139D02*
X025062Y013139D01*
X024798Y012820D02*
X021912Y012820D01*
X021912Y012502D02*
X022643Y012502D01*
X022302Y012426D02*
X020212Y010336D01*
X017372Y010966D02*
X011912Y010966D01*
X011912Y012656D01*
X011912Y010966D02*
X011912Y008656D01*
X011602Y008346D01*
X002042Y008346D01*
X001472Y007776D01*
X020132Y015726D02*
X020132Y017886D01*
X020142Y017896D01*
X023831Y012502D02*
X024480Y012502D01*
D13*
X024422Y012006D02*
X025012Y012596D01*
X025452Y012596D01*
X026552Y013696D01*
X028802Y013696D01*
X024422Y012006D02*
X023922Y012006D01*
X023712Y012216D01*
X022762Y012216D01*
X022522Y011976D01*
X004302Y008036D02*
X004302Y006596D01*
X004204Y006596D01*
X004098Y006551D01*
X004016Y006470D01*
X003972Y006363D01*
X003972Y006248D01*
X004016Y006141D01*
X004098Y006060D01*
X004204Y006016D01*
X004302Y006016D01*
X004302Y005444D01*
X004242Y005384D01*
X003678Y005948D01*
X003564Y005996D01*
X003441Y005996D01*
X002401Y005996D01*
X002287Y005948D01*
X002199Y005861D01*
X002152Y005747D01*
X002152Y005624D01*
X002199Y005510D01*
X002287Y005423D01*
X002401Y005376D01*
X003374Y005376D01*
X003604Y005146D01*
X003517Y005146D01*
X003478Y005240D01*
X003396Y005321D01*
X003290Y005366D01*
X003174Y005366D01*
X003068Y005321D01*
X002986Y005240D01*
X002947Y005146D01*
X000782Y005146D01*
X000782Y008266D01*
X000802Y008256D01*
X001514Y008256D01*
X001209Y007951D01*
X001162Y007837D01*
X001162Y007714D01*
X001209Y007600D01*
X001297Y007513D01*
X001411Y007466D01*
X001534Y007466D01*
X001648Y007513D01*
X002171Y008036D01*
X004302Y008036D01*
X004302Y008009D02*
X002144Y008009D01*
X001985Y007850D02*
X004302Y007850D01*
X004302Y007691D02*
X001826Y007691D01*
X001668Y007533D02*
X004302Y007533D01*
X004302Y007374D02*
X000782Y007374D01*
X000782Y007216D02*
X004302Y007216D01*
X004302Y007057D02*
X000782Y007057D01*
X000782Y006899D02*
X004302Y006899D01*
X004302Y006740D02*
X000782Y006740D01*
X000782Y006582D02*
X003411Y006582D01*
X003444Y006596D02*
X003338Y006551D01*
X003256Y006470D01*
X003212Y006363D01*
X003212Y006248D01*
X003256Y006141D01*
X003338Y006060D01*
X003444Y006016D01*
X003560Y006016D01*
X003666Y006060D01*
X003748Y006141D01*
X003792Y006248D01*
X003792Y006363D01*
X003748Y006470D01*
X003666Y006551D01*
X003560Y006596D01*
X003444Y006596D01*
X003593Y006582D02*
X004171Y006582D01*
X003997Y006423D02*
X003767Y006423D01*
X003792Y006265D02*
X003972Y006265D01*
X004052Y006106D02*
X003713Y006106D01*
X003679Y005948D02*
X004302Y005948D01*
X004302Y005789D02*
X003837Y005789D01*
X003996Y005630D02*
X004302Y005630D01*
X004302Y005472D02*
X004154Y005472D01*
X003595Y005155D02*
X003513Y005155D01*
X003436Y005313D02*
X003405Y005313D01*
X003060Y005313D02*
X000782Y005313D01*
X000782Y005155D02*
X002951Y005155D01*
X002237Y005472D02*
X000782Y005472D01*
X000782Y005630D02*
X002152Y005630D01*
X002170Y005789D02*
X000782Y005789D01*
X000782Y005948D02*
X002286Y005948D01*
X003212Y006265D02*
X000782Y006265D01*
X000782Y006423D02*
X003237Y006423D01*
X003292Y006106D02*
X000782Y006106D01*
X000782Y007533D02*
X001276Y007533D01*
X001171Y007691D02*
X000782Y007691D01*
X000782Y007850D02*
X001168Y007850D01*
X001267Y008009D02*
X000782Y008009D01*
X000782Y008167D02*
X001425Y008167D01*
D14*
X000751Y004896D02*
X000762Y001176D01*
X005422Y001176D01*
X005422Y001267D01*
X005423Y001267D01*
X005432Y004360D01*
X005415Y004412D01*
X005432Y004448D01*
X005432Y004487D01*
X005472Y004526D01*
X005496Y004575D01*
X005534Y004588D01*
X005562Y004616D01*
X005581Y004616D01*
X005591Y004626D01*
X005647Y004626D01*
X005699Y004643D01*
X005734Y004626D01*
X008451Y004626D01*
X008541Y004627D01*
X008542Y004626D01*
X008543Y004626D01*
X008607Y004562D01*
X008671Y004499D01*
X008671Y004498D01*
X008672Y004497D01*
X008672Y004407D01*
X008690Y002895D01*
X014882Y002881D01*
X014872Y002904D01*
X014872Y003027D01*
X014919Y003141D01*
X015007Y003228D01*
X015121Y003276D01*
X015244Y003276D01*
X015358Y003228D01*
X015445Y003141D01*
X015492Y003027D01*
X015492Y002904D01*
X015482Y002879D01*
X017208Y002876D01*
X017293Y002876D01*
X017294Y002875D01*
X017294Y002875D01*
X017358Y002811D01*
X017422Y002747D01*
X017422Y002746D01*
X017422Y002746D01*
X017422Y002655D01*
X017422Y002065D01*
X023268Y002060D01*
X023242Y002122D01*
X023242Y002309D01*
X023314Y002482D01*
X023446Y002614D01*
X023619Y002686D01*
X023806Y002686D01*
X023978Y002614D01*
X024111Y002482D01*
X024182Y002309D01*
X024182Y002122D01*
X024156Y002059D01*
X024310Y002059D01*
X024242Y002222D01*
X024242Y002409D01*
X024314Y002582D01*
X024446Y002714D01*
X024578Y002769D01*
X024436Y002827D01*
X024304Y002959D01*
X024232Y003132D01*
X024232Y003319D01*
X024304Y003492D01*
X024436Y003624D01*
X024609Y003696D01*
X024796Y003696D01*
X024968Y003624D01*
X025101Y003492D01*
X025172Y003319D01*
X025172Y003132D01*
X025101Y002959D01*
X024968Y002827D01*
X024837Y002773D01*
X024978Y002714D01*
X025111Y002582D01*
X025182Y002409D01*
X025182Y002222D01*
X025114Y002059D01*
X025269Y002058D01*
X025242Y002122D01*
X025242Y002309D01*
X025314Y002482D01*
X025446Y002614D01*
X025619Y002686D01*
X025806Y002686D01*
X025978Y002614D01*
X026111Y002482D01*
X026182Y002309D01*
X026182Y002122D01*
X026155Y002058D01*
X026310Y002058D01*
X026242Y002222D01*
X026242Y002409D01*
X026314Y002582D01*
X026446Y002714D01*
X026578Y002769D01*
X026436Y002827D01*
X026304Y002959D01*
X026232Y003132D01*
X026232Y003319D01*
X026304Y003492D01*
X026436Y003624D01*
X026609Y003696D01*
X026796Y003696D01*
X026968Y003624D01*
X027101Y003492D01*
X027172Y003319D01*
X027172Y003132D01*
X027101Y002959D01*
X026968Y002827D01*
X026837Y002773D01*
X026978Y002714D01*
X027111Y002582D01*
X027182Y002409D01*
X027182Y002222D01*
X027114Y002057D01*
X027269Y002057D01*
X027242Y002122D01*
X027242Y002309D01*
X027314Y002482D01*
X027446Y002614D01*
X027619Y002686D01*
X027806Y002686D01*
X027978Y002614D01*
X028111Y002482D01*
X028182Y002309D01*
X028182Y002122D01*
X028155Y002056D01*
X028342Y002056D01*
X028342Y004753D01*
X028274Y004587D01*
X028071Y004384D01*
X027806Y004274D01*
X027519Y004274D01*
X027254Y004384D01*
X027051Y004587D01*
X026941Y004852D01*
X026941Y005139D01*
X027051Y005404D01*
X027254Y005607D01*
X027519Y005717D01*
X027806Y005717D01*
X028071Y005607D01*
X028274Y005404D01*
X028342Y005238D01*
X028342Y013446D01*
X026656Y013446D01*
X025762Y012552D01*
X025762Y012534D01*
X025720Y012433D01*
X025828Y012388D01*
X025843Y012373D01*
X025879Y012461D01*
X025967Y012548D01*
X026081Y012596D01*
X026204Y012596D01*
X026318Y012548D01*
X026405Y012461D01*
X026452Y012347D01*
X026452Y012224D01*
X026405Y012110D01*
X026318Y012023D01*
X026204Y011976D01*
X026081Y011976D01*
X025967Y012023D01*
X025951Y012038D01*
X025915Y011950D01*
X025828Y011863D01*
X025714Y011816D01*
X025591Y011816D01*
X025477Y011863D01*
X025389Y011950D01*
X025342Y012064D01*
X025342Y012149D01*
X025342Y012149D01*
X025249Y012056D01*
X025128Y012006D01*
X024776Y012006D01*
X024634Y011864D01*
X024585Y011815D01*
X024648Y011788D01*
X024735Y011701D01*
X024782Y011587D01*
X024782Y011464D01*
X024735Y011350D01*
X024648Y011263D01*
X024534Y011216D01*
X024411Y011216D01*
X024297Y011263D01*
X024209Y011350D01*
X024162Y011464D01*
X024162Y011587D01*
X024209Y011701D01*
X024264Y011756D01*
X023972Y011756D01*
X023892Y011756D01*
X023892Y011744D01*
X023845Y011630D01*
X023758Y011543D01*
X023644Y011496D01*
X023521Y011496D01*
X023407Y011543D01*
X023319Y011630D01*
X023272Y011744D01*
X023272Y011867D01*
X023313Y011966D01*
X023201Y011966D01*
X023242Y011867D01*
X023242Y011744D01*
X023195Y011630D01*
X023108Y011543D01*
X022994Y011496D01*
X022871Y011496D01*
X022757Y011543D01*
X022669Y011630D01*
X022644Y011691D01*
X022584Y011666D01*
X022461Y011666D01*
X022347Y011713D01*
X022259Y011800D01*
X022225Y011882D01*
X020491Y010148D01*
X020491Y010147D01*
X020442Y010099D01*
X020399Y010056D01*
X017112Y006769D01*
X017112Y005975D01*
X017122Y005951D01*
X017122Y005820D01*
X017072Y005699D01*
X016979Y005606D01*
X016930Y005586D01*
X016948Y005578D01*
X017035Y005491D01*
X017082Y005377D01*
X017082Y005254D01*
X017035Y005140D01*
X016948Y005053D01*
X016834Y005006D01*
X016711Y005006D01*
X016597Y005053D01*
X016582Y005067D01*
X016582Y005014D01*
X016535Y004900D01*
X016448Y004813D01*
X016334Y004766D01*
X016211Y004766D01*
X016097Y004813D01*
X016009Y004900D01*
X015962Y005014D01*
X015962Y005137D01*
X016009Y005251D01*
X016097Y005338D01*
X016211Y005386D01*
X016334Y005386D01*
X016448Y005338D01*
X016462Y005324D01*
X016462Y005377D01*
X016509Y005491D01*
X016584Y005566D01*
X016249Y005566D01*
X014739Y004056D01*
X014618Y004006D01*
X014487Y004006D01*
X012077Y004006D01*
X012122Y003897D01*
X012122Y003774D01*
X012075Y003660D01*
X011988Y003573D01*
X011874Y003526D01*
X011751Y003526D01*
X011637Y003573D01*
X011549Y003660D01*
X011502Y003774D01*
X011502Y003897D01*
X011547Y004006D01*
X010337Y004006D01*
X010215Y004056D01*
X010122Y004149D01*
X008956Y005316D01*
X008701Y005316D01*
X008775Y005241D01*
X008822Y005127D01*
X008822Y005004D01*
X008775Y004890D01*
X008688Y004803D01*
X008574Y004756D01*
X008451Y004756D01*
X008337Y004803D01*
X008249Y004890D01*
X008202Y005004D01*
X008202Y005127D01*
X008249Y005241D01*
X008324Y005316D01*
X006307Y005316D01*
X006185Y005366D01*
X006092Y005459D01*
X006042Y005580D01*
X006042Y005711D01*
X006092Y005832D01*
X006185Y005925D01*
X006307Y005976D01*
X007067Y005976D01*
X007022Y006084D01*
X007022Y006207D01*
X007069Y006321D01*
X007157Y006408D01*
X007271Y006456D01*
X007394Y006456D01*
X007508Y006408D01*
X007595Y006321D01*
X007642Y006207D01*
X007642Y006084D01*
X007597Y005976D01*
X009027Y005976D01*
X009158Y005976D01*
X009279Y005925D01*
X010165Y005039D01*
X010199Y005121D01*
X010287Y005208D01*
X010401Y005256D01*
X010487Y005256D01*
X010442Y005364D01*
X010442Y005446D01*
X010371Y005446D01*
X010257Y005493D01*
X010169Y005580D01*
X010122Y005694D01*
X010122Y005817D01*
X010169Y005931D01*
X010257Y006018D01*
X010371Y006066D01*
X010494Y006066D01*
X010608Y006018D01*
X010695Y005931D01*
X010742Y005817D01*
X010742Y005736D01*
X010814Y005736D01*
X010928Y005688D01*
X011015Y005601D01*
X011062Y005487D01*
X011062Y005364D01*
X011015Y005250D01*
X010928Y005163D01*
X010814Y005116D01*
X010727Y005116D01*
X010772Y005007D01*
X010772Y004884D01*
X010725Y004770D01*
X010638Y004683D01*
X010596Y004666D01*
X014416Y004666D01*
X015832Y006082D01*
X015925Y006175D01*
X016047Y006226D01*
X016452Y006226D01*
X016452Y006840D01*
X016452Y006971D01*
X016502Y007092D01*
X019747Y010337D01*
X019253Y010834D01*
X019235Y010790D01*
X019148Y010703D01*
X019034Y010656D01*
X018911Y010656D01*
X018797Y010703D01*
X018709Y010790D01*
X018662Y010904D01*
X018662Y011027D01*
X018709Y011141D01*
X018797Y011228D01*
X018843Y011248D01*
X018820Y011271D01*
X018782Y011309D01*
X018782Y011309D01*
X018782Y011310D01*
X018755Y011376D01*
X018732Y011430D01*
X018732Y011431D01*
X018732Y011431D01*
X018732Y011500D01*
X018732Y012239D01*
X018426Y012546D01*
X016961Y012546D01*
X017002Y012447D01*
X017002Y012324D01*
X016955Y012210D01*
X016868Y012123D01*
X016754Y012076D01*
X016631Y012076D01*
X016517Y012123D01*
X016429Y012210D01*
X016382Y012324D01*
X016382Y012447D01*
X016423Y012546D01*
X015408Y012546D01*
X015277Y012546D01*
X015155Y012596D01*
X013986Y013766D01*
X010558Y013766D01*
X010427Y013766D01*
X010305Y013816D01*
X009082Y015039D01*
X009032Y015160D01*
X009032Y015291D01*
X009032Y018881D01*
X008964Y018949D01*
X008892Y019122D01*
X008892Y019309D01*
X008964Y019482D01*
X009096Y019614D01*
X009269Y019686D01*
X009456Y019686D01*
X009628Y019614D01*
X009761Y019482D01*
X009832Y019309D01*
X009832Y019122D01*
X009761Y018949D01*
X009692Y018881D01*
X009692Y015362D01*
X010629Y014426D01*
X014182Y014426D01*
X014182Y014517D01*
X014229Y014631D01*
X014317Y014718D01*
X014369Y014740D01*
X014309Y014800D01*
X014262Y014914D01*
X014262Y015037D01*
X014309Y015151D01*
X014397Y015238D01*
X014511Y015286D01*
X014634Y015286D01*
X014659Y015275D01*
X014622Y015364D01*
X014622Y015487D01*
X014669Y015601D01*
X014757Y015688D01*
X014871Y015736D01*
X014962Y015736D01*
X014989Y015801D01*
X015077Y015888D01*
X015191Y015936D01*
X015222Y015936D01*
X015222Y016027D01*
X015269Y016141D01*
X015357Y016228D01*
X015471Y016276D01*
X015594Y016276D01*
X015708Y016228D01*
X015795Y016141D01*
X015842Y016027D01*
X015842Y015904D01*
X015795Y015790D01*
X015708Y015703D01*
X015594Y015656D01*
X015562Y015656D01*
X015562Y015564D01*
X015515Y015450D01*
X015428Y015363D01*
X015314Y015316D01*
X015222Y015316D01*
X015195Y015250D01*
X015108Y015163D01*
X014994Y015116D01*
X014871Y015116D01*
X014845Y015126D01*
X014882Y015037D01*
X014882Y014914D01*
X014835Y014800D01*
X014748Y014713D01*
X014695Y014691D01*
X014755Y014631D01*
X014802Y014517D01*
X014802Y014394D01*
X014755Y014280D01*
X014668Y014193D01*
X014554Y014146D01*
X014539Y014146D01*
X014721Y013964D01*
X014712Y013984D01*
X014712Y014107D01*
X014759Y014221D01*
X014847Y014308D01*
X014961Y014356D01*
X015084Y014356D01*
X015198Y014308D01*
X015285Y014221D01*
X015332Y014107D01*
X015332Y013984D01*
X015285Y013870D01*
X015198Y013783D01*
X015084Y013736D01*
X014961Y013736D01*
X014940Y013744D01*
X015479Y013206D01*
X018628Y013206D01*
X018749Y013155D01*
X018842Y013062D01*
X018842Y013062D01*
X019342Y012562D01*
X019392Y012441D01*
X019392Y012310D01*
X019392Y011631D01*
X019867Y011152D01*
X019879Y011181D01*
X019967Y011268D01*
X020081Y011316D01*
X020204Y011316D01*
X020318Y011268D01*
X020405Y011181D01*
X020452Y011067D01*
X020452Y011042D01*
X021417Y012007D01*
X021307Y012053D01*
X021219Y012140D01*
X021172Y012254D01*
X021172Y012377D01*
X021219Y012491D01*
X021307Y012578D01*
X021421Y012626D01*
X021544Y012626D01*
X021582Y012610D01*
X021582Y012976D01*
X021471Y012976D01*
X021357Y013023D01*
X021269Y013110D01*
X021222Y013224D01*
X021222Y013347D01*
X021269Y013461D01*
X021357Y013548D01*
X021471Y013596D01*
X021582Y013596D01*
X021582Y014835D01*
X021582Y014900D01*
X021582Y014901D01*
X021582Y014901D01*
X021608Y014963D01*
X021632Y015022D01*
X021632Y015022D01*
X021632Y015022D01*
X021675Y015065D01*
X021724Y015115D01*
X021725Y015115D01*
X021725Y015115D01*
X021782Y015139D01*
X021845Y015165D01*
X021846Y015165D01*
X021847Y015166D01*
X021908Y015166D01*
X024044Y015172D01*
X024089Y015281D01*
X024177Y015368D01*
X024291Y015416D01*
X024414Y015416D01*
X024528Y015368D01*
X024615Y015281D01*
X024659Y015174D01*
X024996Y015175D01*
X024997Y015176D01*
X025065Y015176D01*
X025127Y015176D01*
X025127Y015176D01*
X025128Y015176D01*
X025189Y015150D01*
X025248Y015126D01*
X025249Y015126D01*
X025249Y015125D01*
X025292Y015083D01*
X025341Y015033D01*
X025342Y015033D01*
X025342Y015032D01*
X025365Y014976D01*
X025392Y014912D01*
X025392Y014912D01*
X025392Y014911D01*
X025392Y014846D01*
X025392Y014781D01*
X025392Y014781D01*
X025392Y014054D01*
X025421Y014066D01*
X025544Y014066D01*
X025658Y014018D01*
X025745Y013931D01*
X025792Y013817D01*
X025792Y013694D01*
X025745Y013580D01*
X025658Y013493D01*
X025544Y013446D01*
X025421Y013446D01*
X025392Y013457D01*
X025392Y012906D01*
X025409Y012906D01*
X026340Y013837D01*
X026411Y013907D01*
X026502Y013946D01*
X028342Y013946D01*
X028342Y017395D01*
X025318Y017389D01*
X025285Y017310D01*
X025198Y017223D01*
X025084Y017176D01*
X024961Y017176D01*
X024847Y017223D01*
X024759Y017310D01*
X024727Y017387D01*
X020462Y017378D01*
X020462Y015660D01*
X020412Y015539D01*
X020319Y015446D01*
X020198Y015396D01*
X020067Y015396D01*
X019945Y015446D01*
X019852Y015539D01*
X019802Y015660D01*
X019802Y017258D01*
X019795Y017240D01*
X019708Y017153D01*
X019594Y017106D01*
X019471Y017106D01*
X019357Y017153D01*
X019269Y017240D01*
X019222Y017354D01*
X019222Y017376D01*
X019142Y017375D01*
X019141Y017376D01*
X019141Y017376D01*
X019077Y017440D01*
X019012Y017504D01*
X019012Y017504D01*
X019012Y017504D01*
X019012Y017595D01*
X019012Y017686D01*
X019012Y017686D01*
X019012Y019438D01*
X019002Y019462D01*
X019002Y019649D01*
X019012Y019673D01*
X019012Y020426D01*
X000702Y020426D01*
X000723Y013677D01*
X000816Y013715D01*
X000947Y013716D01*
X001069Y013666D01*
X001162Y013573D01*
X001212Y013452D01*
X001220Y008506D01*
X001736Y008506D01*
X001762Y008532D01*
X001855Y008625D01*
X001977Y008676D01*
X004244Y008676D01*
X004229Y008690D01*
X004182Y008804D01*
X004182Y008927D01*
X004229Y009041D01*
X004317Y009128D01*
X004431Y009176D01*
X004554Y009176D01*
X004668Y009128D01*
X004755Y009041D01*
X004802Y008927D01*
X004802Y008804D01*
X004755Y008690D01*
X004741Y008676D01*
X007506Y008676D01*
X007502Y008684D01*
X007502Y008807D01*
X007549Y008921D01*
X007637Y009008D01*
X007751Y009056D01*
X007874Y009056D01*
X007988Y009008D01*
X008075Y008921D01*
X008122Y008807D01*
X008122Y008684D01*
X008119Y008676D01*
X008836Y008676D01*
X008812Y008734D01*
X008812Y008857D01*
X008859Y008971D01*
X008947Y009058D01*
X009061Y009106D01*
X009184Y009106D01*
X009298Y009058D01*
X009385Y008971D01*
X009432Y008857D01*
X009432Y008734D01*
X009408Y008676D01*
X011466Y008676D01*
X011582Y008792D01*
X011582Y010900D01*
X011582Y011031D01*
X011582Y011407D01*
X011578Y011403D01*
X011464Y011356D01*
X011341Y011356D01*
X011227Y011403D01*
X011139Y011490D01*
X011092Y011604D01*
X011092Y011727D01*
X011139Y011841D01*
X011227Y011928D01*
X011341Y011976D01*
X011464Y011976D01*
X011578Y011928D01*
X011582Y011924D01*
X011582Y012721D01*
X011632Y012842D01*
X011725Y012935D01*
X006451Y012935D01*
X006462Y012907D02*
X006415Y013021D01*
X006328Y013108D01*
X006214Y013156D01*
X006091Y013156D01*
X005977Y013108D01*
X005889Y013021D01*
X005842Y012907D01*
X005842Y012784D01*
X005889Y012670D01*
X005977Y012583D01*
X006091Y012536D01*
X006214Y012536D01*
X006328Y012583D01*
X006415Y012670D01*
X006462Y012784D01*
X006462Y012907D01*
X006462Y012836D02*
X011630Y012836D01*
X011589Y012738D02*
X006443Y012738D01*
X006384Y012639D02*
X011582Y012639D01*
X011582Y012541D02*
X006226Y012541D01*
X006078Y012541D02*
X001214Y012541D01*
X001213Y012639D02*
X005920Y012639D01*
X005861Y012738D02*
X001213Y012738D01*
X001213Y012836D02*
X005842Y012836D01*
X005854Y012935D02*
X001213Y012935D01*
X001213Y013034D02*
X005902Y013034D01*
X006034Y013132D02*
X001213Y013132D01*
X001212Y013231D02*
X014521Y013231D01*
X014619Y013132D02*
X006271Y013132D01*
X006403Y013034D02*
X014718Y013034D01*
X014816Y012935D02*
X012099Y012935D01*
X011978Y012986D01*
X011847Y012986D01*
X011725Y012935D01*
X012099Y012935D02*
X012192Y012842D01*
X012242Y012721D01*
X012242Y011296D01*
X015528Y011296D01*
X015512Y011334D01*
X015512Y011457D01*
X012242Y011457D01*
X012242Y011555D02*
X015553Y011555D01*
X015559Y011571D02*
X015512Y011457D01*
X015512Y011358D02*
X012242Y011358D01*
X012242Y011654D02*
X015642Y011654D01*
X015647Y011658D02*
X015559Y011571D01*
X015647Y011658D02*
X015761Y011706D01*
X015884Y011706D01*
X015998Y011658D01*
X016085Y011571D01*
X016132Y011457D01*
X018732Y011457D01*
X018732Y011555D02*
X016092Y011555D01*
X016132Y011457D02*
X016132Y011334D01*
X016116Y011296D01*
X017438Y011296D01*
X017559Y011245D01*
X017652Y011152D01*
X017702Y011031D01*
X017702Y010900D01*
X017652Y010779D01*
X017559Y010686D01*
X017466Y010647D01*
X017512Y010537D01*
X017512Y010414D01*
X017465Y010300D01*
X017378Y010213D01*
X017264Y010166D01*
X017141Y010166D01*
X017027Y010213D01*
X016939Y010300D01*
X016892Y010414D01*
X016892Y010537D01*
X016933Y010636D01*
X012242Y010636D01*
X012242Y008721D01*
X012242Y008590D01*
X012192Y008469D01*
X011789Y008066D01*
X011668Y008016D01*
X011537Y008016D01*
X007642Y008016D01*
X007662Y007967D01*
X007662Y007844D01*
X007615Y007730D01*
X007528Y007643D01*
X007414Y007596D01*
X007291Y007596D01*
X007177Y007643D01*
X007089Y007730D01*
X007042Y007844D01*
X007042Y007967D01*
X007062Y008016D01*
X004552Y008016D01*
X004552Y007532D01*
X004802Y007782D01*
X004895Y007875D01*
X005017Y007926D01*
X005488Y007926D01*
X005609Y007875D01*
X005702Y007782D01*
X005752Y007661D01*
X005752Y007530D01*
X005702Y007409D01*
X005609Y007316D01*
X005488Y007266D01*
X005219Y007266D01*
X005102Y007149D01*
X005102Y005410D01*
X005102Y005410D01*
X005102Y005380D01*
X005102Y005380D01*
X005029Y005204D01*
X005029Y005204D01*
X004894Y005069D01*
X004894Y005069D01*
X004788Y005025D01*
X004549Y004786D01*
X004428Y004736D01*
X004297Y004736D01*
X004057Y004736D01*
X003935Y004786D01*
X003842Y004879D01*
X003826Y004896D01*
X003491Y004896D01*
X003408Y004813D01*
X003294Y004766D01*
X003171Y004766D01*
X003057Y004813D01*
X002974Y004896D01*
X000832Y004896D01*
X000751Y004896D01*
X000751Y004854D02*
X003015Y004854D01*
X003449Y004854D02*
X003867Y004854D01*
X004008Y004756D02*
X000751Y004756D01*
X000751Y004657D02*
X009614Y004657D01*
X009712Y004559D02*
X008610Y004559D01*
X008672Y004460D02*
X009811Y004460D01*
X009909Y004362D02*
X008673Y004362D01*
X008674Y004263D02*
X010008Y004263D01*
X010106Y004165D02*
X008675Y004165D01*
X008676Y004066D02*
X010205Y004066D01*
X010711Y004756D02*
X013792Y004756D01*
X013841Y004736D02*
X013964Y004736D01*
X014078Y004783D01*
X014165Y004870D01*
X014212Y004984D01*
X014212Y005107D01*
X014165Y005221D01*
X014078Y005308D01*
X013964Y005356D01*
X013841Y005356D01*
X013727Y005308D01*
X013639Y005221D01*
X013592Y005107D01*
X013592Y004984D01*
X013639Y004870D01*
X013727Y004783D01*
X013841Y004736D01*
X014013Y004756D02*
X014506Y004756D01*
X014604Y004854D02*
X014149Y004854D01*
X014199Y004953D02*
X014703Y004953D01*
X014801Y005051D02*
X014212Y005051D01*
X014194Y005150D02*
X014900Y005150D01*
X014999Y005249D02*
X014138Y005249D01*
X013984Y005347D02*
X015097Y005347D01*
X015196Y005446D02*
X012557Y005446D01*
X012557Y005457D02*
X012510Y005571D01*
X012423Y005658D01*
X012309Y005706D01*
X012186Y005706D01*
X012072Y005658D01*
X011984Y005571D01*
X011937Y005457D01*
X011937Y005334D01*
X011984Y005220D01*
X012072Y005133D01*
X012186Y005086D01*
X012309Y005086D01*
X012423Y005133D01*
X012510Y005220D01*
X012557Y005334D01*
X012557Y005457D01*
X012521Y005544D02*
X015294Y005544D01*
X015393Y005643D02*
X012924Y005643D01*
X012973Y005663D02*
X013060Y005750D01*
X013107Y005864D01*
X013107Y005987D01*
X013060Y006101D01*
X012973Y006188D01*
X012859Y006236D01*
X012736Y006236D01*
X012622Y006188D01*
X012534Y006101D01*
X012487Y005987D01*
X012487Y005864D01*
X012534Y005750D01*
X012622Y005663D01*
X012736Y005616D01*
X012859Y005616D01*
X012973Y005663D01*
X013051Y005741D02*
X015491Y005741D01*
X015590Y005840D02*
X013097Y005840D01*
X013107Y005938D02*
X015688Y005938D01*
X015787Y006037D02*
X013087Y006037D01*
X013026Y006135D02*
X015885Y006135D01*
X016452Y006234D02*
X012863Y006234D01*
X012732Y006234D02*
X012338Y006234D01*
X012342Y006244D02*
X012295Y006130D01*
X012208Y006043D01*
X012094Y005996D01*
X011971Y005996D01*
X011857Y006043D01*
X011769Y006130D01*
X011722Y006244D01*
X011722Y006367D01*
X011769Y006481D01*
X011857Y006568D01*
X011971Y006616D01*
X012094Y006616D01*
X012208Y006568D01*
X012295Y006481D01*
X012342Y006367D01*
X012342Y006244D01*
X012342Y006333D02*
X013172Y006333D01*
X013134Y006370D02*
X013222Y006283D01*
X013336Y006236D01*
X013459Y006236D01*
X013573Y006283D01*
X013660Y006370D01*
X013707Y006484D01*
X013707Y006607D01*
X013660Y006721D01*
X013573Y006808D01*
X013459Y006856D01*
X013336Y006856D01*
X013222Y006808D01*
X013134Y006721D01*
X013087Y006607D01*
X013087Y006484D01*
X013134Y006370D01*
X013109Y006431D02*
X012316Y006431D01*
X012246Y006530D02*
X013087Y006530D01*
X013096Y006628D02*
X005102Y006628D01*
X005102Y006530D02*
X011818Y006530D01*
X011749Y006431D02*
X007453Y006431D01*
X007584Y006333D02*
X011722Y006333D01*
X011726Y006234D02*
X007631Y006234D01*
X007642Y006135D02*
X011767Y006135D01*
X011871Y006037D02*
X010563Y006037D01*
X010688Y005938D02*
X012487Y005938D01*
X012497Y005840D02*
X010733Y005840D01*
X010742Y005741D02*
X012543Y005741D01*
X012438Y005643D02*
X012670Y005643D01*
X012557Y005347D02*
X013820Y005347D01*
X013667Y005249D02*
X012522Y005249D01*
X012440Y005150D02*
X013610Y005150D01*
X013592Y005051D02*
X010754Y005051D01*
X010772Y004953D02*
X013605Y004953D01*
X013655Y004854D02*
X010760Y004854D01*
X010897Y005150D02*
X012054Y005150D01*
X011973Y005249D02*
X011014Y005249D01*
X011055Y005347D02*
X011937Y005347D01*
X011937Y005446D02*
X011062Y005446D01*
X011039Y005544D02*
X011973Y005544D01*
X012056Y005643D02*
X010973Y005643D01*
X010449Y005347D02*
X009857Y005347D01*
X009759Y005446D02*
X010370Y005446D01*
X010205Y005544D02*
X009660Y005544D01*
X009562Y005643D02*
X010143Y005643D01*
X010122Y005741D02*
X009463Y005741D01*
X009365Y005840D02*
X010132Y005840D01*
X010177Y005938D02*
X009248Y005938D01*
X010301Y006037D02*
X007623Y006037D01*
X007212Y006431D02*
X005102Y006431D01*
X005102Y006333D02*
X007081Y006333D01*
X007033Y006234D02*
X005102Y006234D01*
X005102Y006135D02*
X007022Y006135D01*
X007042Y006037D02*
X005102Y006037D01*
X005102Y005938D02*
X006217Y005938D01*
X006100Y005840D02*
X005102Y005840D01*
X005102Y005741D02*
X006055Y005741D01*
X006042Y005643D02*
X005102Y005643D01*
X005102Y005544D02*
X006057Y005544D01*
X006105Y005446D02*
X005102Y005446D01*
X005088Y005347D02*
X006230Y005347D01*
X006098Y005248D02*
X005984Y005296D01*
X005861Y005296D01*
X005747Y005248D01*
X005659Y005161D01*
X005612Y005047D01*
X005612Y004924D01*
X005659Y004810D01*
X005747Y004723D01*
X005861Y004676D01*
X005984Y004676D01*
X006098Y004723D01*
X006185Y004810D01*
X006232Y004924D01*
X006232Y005047D01*
X006185Y005161D01*
X006098Y005248D01*
X006097Y005249D02*
X008257Y005249D01*
X008212Y005150D02*
X006190Y005150D01*
X006230Y005051D02*
X008202Y005051D01*
X008223Y004953D02*
X006232Y004953D01*
X006203Y004854D02*
X008285Y004854D01*
X008450Y004756D02*
X006131Y004756D01*
X005714Y004756D02*
X004477Y004756D01*
X004618Y004854D02*
X005641Y004854D01*
X005612Y004953D02*
X004716Y004953D01*
X004852Y005051D02*
X005614Y005051D01*
X005655Y005150D02*
X004975Y005150D01*
X005048Y005249D02*
X005747Y005249D01*
X005488Y004559D02*
X000752Y004559D01*
X000752Y004460D02*
X002368Y004460D01*
X002397Y004488D02*
X002309Y004401D01*
X002262Y004287D01*
X002262Y004164D01*
X002309Y004050D01*
X002397Y003963D01*
X002511Y003916D01*
X002634Y003916D01*
X002748Y003963D01*
X002835Y004050D01*
X002882Y004164D01*
X002882Y004287D01*
X002835Y004401D01*
X002748Y004488D01*
X002634Y004536D01*
X002511Y004536D01*
X002397Y004488D01*
X002293Y004362D02*
X000752Y004362D01*
X000753Y004263D02*
X002262Y004263D01*
X002262Y004165D02*
X000753Y004165D01*
X000753Y004066D02*
X002303Y004066D01*
X002392Y003968D02*
X000754Y003968D01*
X000754Y003869D02*
X005431Y003869D01*
X005431Y003968D02*
X004033Y003968D01*
X004028Y003963D02*
X004115Y004050D01*
X004162Y004164D01*
X004162Y004287D01*
X004115Y004401D01*
X004028Y004488D01*
X003914Y004536D01*
X003791Y004536D01*
X003677Y004488D01*
X003589Y004401D01*
X003542Y004287D01*
X003542Y004164D01*
X003589Y004050D01*
X003677Y003963D01*
X003791Y003916D01*
X003914Y003916D01*
X004028Y003963D01*
X004122Y004066D02*
X005431Y004066D01*
X005431Y004165D02*
X004162Y004165D01*
X004162Y004263D02*
X005432Y004263D01*
X005432Y004362D02*
X004131Y004362D01*
X004056Y004460D02*
X005432Y004460D01*
X005652Y004396D02*
X005682Y004406D01*
X008452Y004406D01*
X008472Y002676D01*
X017202Y002656D01*
X017202Y001846D01*
X023521Y001840D01*
X023629Y001796D01*
X023796Y001796D01*
X023902Y001840D01*
X025526Y001838D01*
X025629Y001796D01*
X025796Y001796D01*
X025898Y001838D01*
X027530Y001836D01*
X027629Y001796D01*
X027796Y001796D01*
X027894Y001836D01*
X028562Y001836D01*
X028562Y017616D01*
X022316Y017602D01*
X022353Y017638D01*
X022392Y017734D01*
X022392Y017837D01*
X022353Y017933D01*
X022279Y018006D01*
X022184Y018046D01*
X022080Y018046D01*
X021985Y018006D01*
X021912Y017933D01*
X021872Y017837D01*
X021872Y017734D01*
X021912Y017638D01*
X021949Y017601D01*
X019719Y017597D01*
X019679Y017636D01*
X019584Y017676D01*
X019480Y017676D01*
X019385Y017636D01*
X019345Y017596D01*
X019232Y017596D01*
X019232Y019202D01*
X019234Y019200D01*
X019389Y019136D01*
X019556Y019136D01*
X019710Y019200D01*
X019828Y019318D01*
X019892Y019472D01*
X019892Y019639D01*
X019828Y019793D01*
X019710Y019912D01*
X019556Y019976D01*
X019389Y019976D01*
X019234Y019912D01*
X019232Y019909D01*
X019232Y019996D01*
X023938Y019996D01*
X023915Y019986D01*
X023842Y019913D01*
X023802Y019817D01*
X023802Y019714D01*
X023842Y019618D01*
X023915Y019545D01*
X024010Y019506D01*
X024114Y019506D01*
X024209Y019545D01*
X024283Y019618D01*
X024322Y019714D01*
X024322Y019817D01*
X024283Y019913D01*
X024209Y019986D01*
X024186Y019996D01*
X030469Y019996D01*
X030476Y019978D01*
X030594Y019860D01*
X030749Y019796D01*
X030916Y019796D01*
X031070Y019860D01*
X031188Y019978D01*
X031252Y020132D01*
X031252Y020299D01*
X031200Y020426D01*
X031465Y020426D01*
X031412Y020299D01*
X031412Y020132D01*
X031476Y019978D01*
X031594Y019860D01*
X031749Y019796D01*
X031916Y019796D01*
X032070Y019860D01*
X032188Y019978D01*
X032252Y020132D01*
X032252Y020299D01*
X032200Y020426D01*
X033832Y020426D01*
X033832Y001176D01*
X032152Y001176D01*
X032152Y001277D01*
X032180Y001266D01*
X032284Y001266D01*
X032379Y001305D01*
X032453Y001378D01*
X032492Y001474D01*
X032492Y001577D01*
X032453Y001673D01*
X032379Y001746D01*
X032284Y001786D01*
X032180Y001786D01*
X032085Y001746D01*
X032012Y001673D01*
X031972Y001577D01*
X031972Y001569D01*
X031970Y001572D01*
X031816Y001636D01*
X031649Y001636D01*
X031494Y001572D01*
X031376Y001453D01*
X031312Y001299D01*
X031312Y001176D01*
X031152Y001176D01*
X031152Y001299D01*
X031088Y001453D01*
X030970Y001572D01*
X030816Y001636D01*
X030649Y001636D01*
X030494Y001572D01*
X030376Y001453D01*
X030312Y001299D01*
X030312Y001176D01*
X005642Y001176D01*
X005652Y004396D01*
X005652Y004362D02*
X008453Y004362D01*
X008454Y004263D02*
X005652Y004263D01*
X005651Y004165D02*
X008455Y004165D01*
X008456Y004066D02*
X005651Y004066D01*
X005651Y003968D02*
X008457Y003968D01*
X008458Y003869D02*
X005651Y003869D01*
X005650Y003770D02*
X008460Y003770D01*
X008461Y003672D02*
X005650Y003672D01*
X005650Y003573D02*
X008462Y003573D01*
X008463Y003475D02*
X005649Y003475D01*
X005649Y003376D02*
X008464Y003376D01*
X008465Y003278D02*
X005649Y003278D01*
X005648Y003179D02*
X008466Y003179D01*
X008468Y003081D02*
X005648Y003081D01*
X005648Y002982D02*
X007228Y002982D01*
X007260Y002996D02*
X007165Y002956D01*
X007092Y002883D01*
X007052Y002787D01*
X007052Y002684D01*
X007092Y002588D01*
X005647Y002588D01*
X005647Y002686D02*
X007052Y002686D01*
X007052Y002785D02*
X005647Y002785D01*
X005647Y002884D02*
X007092Y002884D01*
X007260Y002996D02*
X007364Y002996D01*
X007459Y002956D01*
X007533Y002883D01*
X007572Y002787D01*
X007572Y002684D01*
X007533Y002588D01*
X007459Y002515D01*
X007364Y002476D01*
X007260Y002476D01*
X007165Y002515D01*
X007092Y002588D01*
X007227Y002489D02*
X005646Y002489D01*
X005646Y002391D02*
X009456Y002391D01*
X009398Y002333D02*
X009291Y002075D01*
X009291Y001796D01*
X009398Y001538D01*
X009595Y001341D01*
X009853Y001234D01*
X010132Y001234D01*
X010389Y001341D01*
X010587Y001538D01*
X010693Y001796D01*
X010693Y002075D01*
X010587Y002333D01*
X010389Y002530D01*
X010132Y002637D01*
X009853Y002637D01*
X009595Y002530D01*
X009398Y002333D01*
X009381Y002292D02*
X005646Y002292D01*
X005645Y002194D02*
X007356Y002194D01*
X007360Y002196D02*
X007265Y002156D01*
X007192Y002083D01*
X007152Y001987D01*
X007152Y001884D01*
X007192Y001788D01*
X007265Y001715D01*
X007360Y001676D01*
X007464Y001676D01*
X007559Y001715D01*
X007633Y001788D01*
X007672Y001884D01*
X007672Y001987D01*
X007633Y002083D01*
X007559Y002156D01*
X007464Y002196D01*
X007360Y002196D01*
X007468Y002194D02*
X009340Y002194D01*
X009299Y002095D02*
X007620Y002095D01*
X007668Y001997D02*
X009291Y001997D01*
X009291Y001898D02*
X007672Y001898D01*
X007637Y001800D02*
X009291Y001800D01*
X009330Y001701D02*
X007525Y001701D01*
X007299Y001701D02*
X005644Y001701D01*
X005644Y001602D02*
X009371Y001602D01*
X009432Y001504D02*
X005643Y001504D01*
X005643Y001405D02*
X009531Y001405D01*
X009678Y001307D02*
X005643Y001307D01*
X005642Y001208D02*
X030312Y001208D01*
X030315Y001307D02*
X010307Y001307D01*
X010454Y001405D02*
X030356Y001405D01*
X030427Y001504D02*
X010552Y001504D01*
X010613Y001602D02*
X030569Y001602D01*
X030594Y001860D02*
X030749Y001796D01*
X030916Y001796D01*
X031070Y001860D01*
X031188Y001978D01*
X031252Y002132D01*
X031252Y002299D01*
X031188Y002453D01*
X031070Y002572D01*
X030916Y002636D01*
X030749Y002636D01*
X030594Y002572D01*
X030476Y002453D01*
X030412Y002299D01*
X030412Y002132D01*
X030476Y001978D01*
X030594Y001860D01*
X030556Y001898D02*
X028562Y001898D01*
X028562Y001997D02*
X030468Y001997D01*
X030427Y002095D02*
X028562Y002095D01*
X028562Y002194D02*
X030412Y002194D01*
X030412Y002292D02*
X028562Y002292D01*
X028562Y002391D02*
X030450Y002391D01*
X030512Y002489D02*
X028562Y002489D01*
X028562Y002588D02*
X030634Y002588D01*
X030649Y002796D02*
X030494Y002860D01*
X030376Y002978D01*
X030312Y003132D01*
X030312Y003299D01*
X030376Y003453D01*
X030494Y003572D01*
X030649Y003636D01*
X030816Y003636D01*
X030970Y003572D01*
X031088Y003453D01*
X031152Y003299D01*
X031152Y003132D01*
X031088Y002978D01*
X030970Y002860D01*
X030816Y002796D01*
X030649Y002796D01*
X030470Y002884D02*
X028562Y002884D01*
X028562Y002982D02*
X030374Y002982D01*
X030333Y003081D02*
X028562Y003081D01*
X028562Y003179D02*
X030312Y003179D01*
X030312Y003278D02*
X028562Y003278D01*
X028562Y003376D02*
X030344Y003376D01*
X030397Y003475D02*
X028562Y003475D01*
X028562Y003573D02*
X030499Y003573D01*
X030966Y003573D02*
X031499Y003573D01*
X031494Y003572D02*
X031376Y003453D01*
X031312Y003299D01*
X031312Y003132D01*
X031376Y002978D01*
X031494Y002860D01*
X031649Y002796D01*
X031816Y002796D01*
X031970Y002860D01*
X032088Y002978D01*
X032152Y003132D01*
X032152Y003299D01*
X032088Y003453D01*
X031970Y003572D01*
X031816Y003636D01*
X031649Y003636D01*
X031494Y003572D01*
X031397Y003475D02*
X031067Y003475D01*
X031120Y003376D02*
X031344Y003376D01*
X031312Y003278D02*
X031152Y003278D01*
X031152Y003179D02*
X031312Y003179D01*
X031333Y003081D02*
X031131Y003081D01*
X031090Y002982D02*
X031374Y002982D01*
X031470Y002884D02*
X030994Y002884D01*
X031031Y002588D02*
X031634Y002588D01*
X031594Y002572D02*
X031476Y002453D01*
X031412Y002299D01*
X031412Y002132D01*
X031476Y001978D01*
X031594Y001860D01*
X031749Y001796D01*
X031916Y001796D01*
X032070Y001860D01*
X032188Y001978D01*
X032252Y002132D01*
X032252Y002299D01*
X032188Y002453D01*
X032070Y002572D01*
X031916Y002636D01*
X031749Y002636D01*
X031594Y002572D01*
X031512Y002489D02*
X031152Y002489D01*
X031214Y002391D02*
X031450Y002391D01*
X031412Y002292D02*
X031252Y002292D01*
X031252Y002194D02*
X031412Y002194D01*
X031427Y002095D02*
X031237Y002095D01*
X031196Y001997D02*
X031468Y001997D01*
X031556Y001898D02*
X031109Y001898D01*
X030925Y001800D02*
X031739Y001800D01*
X031925Y001800D02*
X033832Y001800D01*
X033832Y001898D02*
X032109Y001898D01*
X032196Y001997D02*
X033832Y001997D01*
X033832Y002095D02*
X032237Y002095D01*
X032252Y002194D02*
X033832Y002194D01*
X033832Y002292D02*
X032252Y002292D01*
X032214Y002391D02*
X033832Y002391D01*
X033832Y002489D02*
X032152Y002489D01*
X032031Y002588D02*
X033832Y002588D01*
X033832Y002686D02*
X028562Y002686D01*
X028562Y002785D02*
X033832Y002785D01*
X033832Y002884D02*
X031994Y002884D01*
X032090Y002982D02*
X033832Y002982D01*
X033832Y003081D02*
X032131Y003081D01*
X032152Y003179D02*
X033832Y003179D01*
X033832Y003278D02*
X032152Y003278D01*
X032120Y003376D02*
X033832Y003376D01*
X033832Y003475D02*
X032067Y003475D01*
X031966Y003573D02*
X033832Y003573D01*
X033832Y003672D02*
X028562Y003672D01*
X028562Y003770D02*
X033832Y003770D01*
X033832Y003869D02*
X032080Y003869D01*
X032070Y003860D02*
X032188Y003978D01*
X032252Y004132D01*
X032252Y004299D01*
X032188Y004453D01*
X032070Y004572D01*
X031916Y004636D01*
X031749Y004636D01*
X031594Y004572D01*
X031476Y004453D01*
X031412Y004299D01*
X031412Y004132D01*
X031476Y003978D01*
X031594Y003860D01*
X031749Y003796D01*
X031916Y003796D01*
X032070Y003860D01*
X032178Y003968D02*
X033832Y003968D01*
X033832Y004066D02*
X032225Y004066D01*
X032252Y004165D02*
X033832Y004165D01*
X033832Y004263D02*
X032252Y004263D01*
X032226Y004362D02*
X033832Y004362D01*
X033832Y004460D02*
X032181Y004460D01*
X032083Y004559D02*
X033832Y004559D01*
X033832Y004657D02*
X028562Y004657D01*
X028562Y004559D02*
X030581Y004559D01*
X030594Y004572D02*
X030476Y004453D01*
X030412Y004299D01*
X030412Y004132D01*
X030476Y003978D01*
X030594Y003860D01*
X030749Y003796D01*
X030916Y003796D01*
X031070Y003860D01*
X031188Y003978D01*
X031252Y004132D01*
X031252Y004299D01*
X031188Y004453D01*
X031070Y004572D01*
X030916Y004636D01*
X030749Y004636D01*
X030594Y004572D01*
X030483Y004460D02*
X028562Y004460D01*
X028562Y004362D02*
X030438Y004362D01*
X030412Y004263D02*
X028562Y004263D01*
X028562Y004165D02*
X030412Y004165D01*
X030439Y004066D02*
X028562Y004066D01*
X028562Y003968D02*
X030486Y003968D01*
X030585Y003869D02*
X028562Y003869D01*
X028342Y003869D02*
X017642Y003869D01*
X017652Y003894D02*
X017605Y003780D01*
X017518Y003693D01*
X017404Y003646D01*
X017281Y003646D01*
X017167Y003693D01*
X017079Y003780D01*
X017032Y003894D01*
X017032Y004017D01*
X017079Y004131D01*
X017167Y004218D01*
X017281Y004266D01*
X017404Y004266D01*
X017518Y004218D01*
X017605Y004131D01*
X017652Y004017D01*
X017652Y003894D01*
X017652Y003968D02*
X028342Y003968D01*
X028342Y004066D02*
X017632Y004066D01*
X017572Y004165D02*
X028342Y004165D01*
X028342Y004263D02*
X017410Y004263D01*
X017275Y004263D02*
X014946Y004263D01*
X014848Y004165D02*
X017113Y004165D01*
X017052Y004066D02*
X014749Y004066D01*
X015045Y004362D02*
X027308Y004362D01*
X027178Y004460D02*
X015144Y004460D01*
X015242Y004559D02*
X019946Y004559D01*
X019937Y004563D02*
X020051Y004516D01*
X020174Y004516D01*
X020288Y004563D01*
X020375Y004650D01*
X020422Y004764D01*
X020422Y004887D01*
X020375Y005001D01*
X020288Y005088D01*
X020174Y005136D01*
X020051Y005136D01*
X019937Y005088D01*
X019849Y005001D01*
X019802Y004887D01*
X019802Y004764D01*
X019849Y004650D01*
X019937Y004563D01*
X019846Y004657D02*
X015341Y004657D01*
X015439Y004756D02*
X019806Y004756D01*
X019802Y004854D02*
X016489Y004854D01*
X016557Y004953D02*
X019829Y004953D01*
X019900Y005051D02*
X016945Y005051D01*
X017039Y005150D02*
X026946Y005150D01*
X026941Y005051D02*
X020325Y005051D01*
X020395Y004953D02*
X026941Y004953D01*
X026941Y004854D02*
X020422Y004854D01*
X020419Y004756D02*
X026981Y004756D01*
X027022Y004657D02*
X020378Y004657D01*
X020278Y004559D02*
X027079Y004559D01*
X026986Y005249D02*
X017080Y005249D01*
X017082Y005347D02*
X027027Y005347D01*
X027092Y005446D02*
X017054Y005446D01*
X016982Y005544D02*
X027191Y005544D01*
X027340Y005643D02*
X017016Y005643D01*
X017090Y005741D02*
X028342Y005741D01*
X028342Y005643D02*
X027984Y005643D01*
X028133Y005544D02*
X028342Y005544D01*
X028342Y005446D02*
X028232Y005446D01*
X028297Y005347D02*
X028342Y005347D01*
X028338Y005249D02*
X028342Y005249D01*
X028562Y005249D02*
X030312Y005249D01*
X030312Y005299D02*
X030312Y005132D01*
X030376Y004978D01*
X030494Y004860D01*
X030649Y004796D01*
X030816Y004796D01*
X030970Y004860D01*
X031088Y004978D01*
X031152Y005132D01*
X031152Y005299D01*
X031088Y005453D01*
X030970Y005572D01*
X030816Y005636D01*
X030649Y005636D01*
X030494Y005572D01*
X030376Y005453D01*
X030312Y005299D01*
X030332Y005347D02*
X028562Y005347D01*
X028562Y005446D02*
X030373Y005446D01*
X030467Y005544D02*
X028562Y005544D01*
X028562Y005643D02*
X033832Y005643D01*
X033832Y005741D02*
X028562Y005741D01*
X028562Y005840D02*
X030642Y005840D01*
X030594Y005860D02*
X030749Y005796D01*
X030916Y005796D01*
X031070Y005860D01*
X031188Y005978D01*
X031252Y006132D01*
X031252Y006299D01*
X031188Y006453D01*
X031070Y006572D01*
X030916Y006636D01*
X030749Y006636D01*
X030594Y006572D01*
X030476Y006453D01*
X030412Y006299D01*
X030412Y006132D01*
X030476Y005978D01*
X030594Y005860D01*
X030515Y005938D02*
X028562Y005938D01*
X028562Y006037D02*
X030452Y006037D01*
X030412Y006135D02*
X028562Y006135D01*
X028562Y006234D02*
X030412Y006234D01*
X030426Y006333D02*
X028562Y006333D01*
X028562Y006431D02*
X030467Y006431D01*
X030552Y006530D02*
X028562Y006530D01*
X028562Y006628D02*
X030731Y006628D01*
X030649Y006796D02*
X030494Y006860D01*
X030376Y006978D01*
X030312Y007132D01*
X030312Y007299D01*
X030376Y007453D01*
X030494Y007572D01*
X030649Y007636D01*
X030816Y007636D01*
X030970Y007572D01*
X031088Y007453D01*
X031152Y007299D01*
X031152Y007132D01*
X031088Y006978D01*
X030970Y006860D01*
X030816Y006796D01*
X030649Y006796D01*
X030577Y006825D02*
X028562Y006825D01*
X028562Y006727D02*
X033832Y006727D01*
X033832Y006825D02*
X031887Y006825D01*
X031816Y006796D02*
X031970Y006860D01*
X032088Y006978D01*
X032152Y007132D01*
X032152Y007299D01*
X032088Y007453D01*
X031970Y007572D01*
X031816Y007636D01*
X031649Y007636D01*
X031494Y007572D01*
X031376Y007453D01*
X031312Y007299D01*
X031312Y007132D01*
X031376Y006978D01*
X031494Y006860D01*
X031649Y006796D01*
X031816Y006796D01*
X031749Y006636D02*
X031594Y006572D01*
X031476Y006453D01*
X031412Y006299D01*
X031412Y006132D01*
X031476Y005978D01*
X031594Y005860D01*
X031749Y005796D01*
X031916Y005796D01*
X032070Y005860D01*
X032188Y005978D01*
X032252Y006132D01*
X032252Y006299D01*
X032188Y006453D01*
X032070Y006572D01*
X031916Y006636D01*
X031749Y006636D01*
X031731Y006628D02*
X030934Y006628D01*
X030887Y006825D02*
X031577Y006825D01*
X031430Y006924D02*
X031034Y006924D01*
X031107Y007022D02*
X031358Y007022D01*
X031317Y007121D02*
X031148Y007121D01*
X031152Y007219D02*
X031312Y007219D01*
X031320Y007318D02*
X031144Y007318D01*
X031104Y007417D02*
X031361Y007417D01*
X031438Y007515D02*
X031027Y007515D01*
X030869Y007614D02*
X031596Y007614D01*
X031712Y007811D02*
X030952Y007811D01*
X030916Y007796D02*
X031070Y007860D01*
X031188Y007978D01*
X031252Y008132D01*
X031252Y008299D01*
X031188Y008453D01*
X031070Y008572D01*
X030916Y008636D01*
X030749Y008636D01*
X030594Y008572D01*
X030476Y008453D01*
X030412Y008299D01*
X030412Y008132D01*
X030476Y007978D01*
X030594Y007860D01*
X030749Y007796D01*
X030916Y007796D01*
X030712Y007811D02*
X028562Y007811D01*
X028562Y007909D02*
X030545Y007909D01*
X030464Y008008D02*
X028562Y008008D01*
X028562Y008106D02*
X030423Y008106D01*
X030412Y008205D02*
X028562Y008205D01*
X028562Y008303D02*
X030414Y008303D01*
X030455Y008402D02*
X028562Y008402D01*
X028562Y008501D02*
X030523Y008501D01*
X030661Y008599D02*
X028562Y008599D01*
X028562Y008698D02*
X033832Y008698D01*
X033832Y008796D02*
X031817Y008796D01*
X031816Y008796D02*
X031970Y008860D01*
X032088Y008978D01*
X032152Y009132D01*
X032152Y009299D01*
X032088Y009453D01*
X031970Y009572D01*
X031816Y009636D01*
X031649Y009636D01*
X031494Y009572D01*
X031376Y009453D01*
X031312Y009299D01*
X031312Y009132D01*
X031376Y008978D01*
X031494Y008860D01*
X031649Y008796D01*
X031816Y008796D01*
X031647Y008796D02*
X030817Y008796D01*
X030816Y008796D02*
X030970Y008860D01*
X031088Y008978D01*
X031152Y009132D01*
X031152Y009299D01*
X031088Y009453D01*
X030970Y009572D01*
X030816Y009636D01*
X030649Y009636D01*
X030494Y009572D01*
X030376Y009453D01*
X030312Y009299D01*
X030312Y009132D01*
X030376Y008978D01*
X030494Y008860D01*
X030649Y008796D01*
X030816Y008796D01*
X030647Y008796D02*
X028562Y008796D01*
X028562Y008895D02*
X030459Y008895D01*
X030370Y008993D02*
X028562Y008993D01*
X028562Y009092D02*
X030329Y009092D01*
X030312Y009190D02*
X028562Y009190D01*
X028562Y009289D02*
X030312Y009289D01*
X030349Y009387D02*
X028562Y009387D01*
X028562Y009486D02*
X030409Y009486D01*
X030525Y009584D02*
X028562Y009584D01*
X028562Y009683D02*
X033832Y009683D01*
X033832Y009584D02*
X031939Y009584D01*
X032056Y009486D02*
X033832Y009486D01*
X033832Y009387D02*
X032116Y009387D01*
X032152Y009289D02*
X033832Y009289D01*
X033832Y009190D02*
X032152Y009190D01*
X032135Y009092D02*
X033832Y009092D01*
X033832Y008993D02*
X032095Y008993D01*
X032005Y008895D02*
X033832Y008895D01*
X033832Y008599D02*
X032004Y008599D01*
X032070Y008572D02*
X031916Y008636D01*
X031749Y008636D01*
X031594Y008572D01*
X031476Y008453D01*
X031412Y008299D01*
X031412Y008132D01*
X031476Y007978D01*
X031594Y007860D01*
X031749Y007796D01*
X031916Y007796D01*
X032070Y007860D01*
X032188Y007978D01*
X032252Y008132D01*
X032252Y008299D01*
X032188Y008453D01*
X032070Y008572D01*
X032141Y008501D02*
X033832Y008501D01*
X033832Y008402D02*
X032210Y008402D01*
X032250Y008303D02*
X033832Y008303D01*
X033832Y008205D02*
X032252Y008205D01*
X032241Y008106D02*
X033832Y008106D01*
X033832Y008008D02*
X032201Y008008D01*
X032120Y007909D02*
X033832Y007909D01*
X033832Y007811D02*
X031952Y007811D01*
X031869Y007614D02*
X033832Y007614D01*
X033832Y007712D02*
X028562Y007712D01*
X028562Y007614D02*
X030596Y007614D01*
X030438Y007515D02*
X028562Y007515D01*
X028562Y007417D02*
X030361Y007417D01*
X030320Y007318D02*
X028562Y007318D01*
X028562Y007219D02*
X030312Y007219D01*
X030317Y007121D02*
X028562Y007121D01*
X028562Y007022D02*
X030358Y007022D01*
X030430Y006924D02*
X028562Y006924D01*
X028342Y006924D02*
X017267Y006924D01*
X017366Y007022D02*
X028342Y007022D01*
X028342Y007121D02*
X017464Y007121D01*
X017563Y007219D02*
X018595Y007219D01*
X018587Y007223D02*
X018701Y007176D01*
X018824Y007176D01*
X018938Y007223D01*
X019025Y007310D01*
X019072Y007424D01*
X019072Y007547D01*
X019025Y007661D01*
X018938Y007748D01*
X018824Y007796D01*
X018701Y007796D01*
X018587Y007748D01*
X018499Y007661D01*
X018452Y007547D01*
X018452Y007424D01*
X018499Y007310D01*
X018587Y007223D01*
X018496Y007318D02*
X017661Y007318D01*
X017760Y007417D02*
X018455Y007417D01*
X018452Y007515D02*
X017858Y007515D01*
X017957Y007614D02*
X018480Y007614D01*
X018550Y007712D02*
X018055Y007712D01*
X018154Y007811D02*
X028342Y007811D01*
X028342Y007909D02*
X022334Y007909D01*
X022308Y007883D02*
X022395Y007970D01*
X022442Y008084D01*
X022442Y008207D01*
X022395Y008321D01*
X022308Y008408D01*
X022194Y008456D01*
X022071Y008456D01*
X021957Y008408D01*
X021869Y008321D01*
X021822Y008207D01*
X021822Y008084D01*
X021869Y007970D01*
X021957Y007883D01*
X022071Y007836D01*
X022194Y007836D01*
X022308Y007883D01*
X022411Y008008D02*
X028342Y008008D01*
X028342Y008106D02*
X022442Y008106D01*
X022442Y008205D02*
X028342Y008205D01*
X028342Y008303D02*
X022402Y008303D01*
X022314Y008402D02*
X028342Y008402D01*
X028342Y008501D02*
X018844Y008501D01*
X018942Y008599D02*
X028342Y008599D01*
X028342Y008698D02*
X019041Y008698D01*
X019139Y008796D02*
X028342Y008796D01*
X028342Y008895D02*
X019238Y008895D01*
X019336Y008993D02*
X019956Y008993D01*
X019967Y008983D02*
X019879Y009070D01*
X019832Y009184D01*
X019832Y009307D01*
X019879Y009421D01*
X019967Y009508D01*
X020081Y009556D01*
X020204Y009556D01*
X020318Y009508D01*
X020405Y009421D01*
X020452Y009307D01*
X020452Y009184D01*
X020405Y009070D01*
X020318Y008983D01*
X020204Y008936D01*
X020081Y008936D01*
X019967Y008983D01*
X019870Y009092D02*
X019435Y009092D01*
X019534Y009190D02*
X019832Y009190D01*
X019832Y009289D02*
X019632Y009289D01*
X019731Y009387D02*
X019865Y009387D01*
X019829Y009486D02*
X019944Y009486D01*
X019928Y009584D02*
X028342Y009584D01*
X028342Y009486D02*
X020340Y009486D01*
X020419Y009387D02*
X028342Y009387D01*
X028342Y009289D02*
X020452Y009289D01*
X020452Y009190D02*
X028342Y009190D01*
X028342Y009092D02*
X020414Y009092D01*
X020328Y008993D02*
X028342Y008993D01*
X028098Y009633D02*
X028185Y009720D01*
X028232Y009834D01*
X028232Y009957D01*
X028185Y010071D01*
X028098Y010158D01*
X027984Y010206D01*
X027861Y010206D01*
X027747Y010158D01*
X027659Y010071D01*
X027612Y009957D01*
X027612Y009834D01*
X027659Y009720D01*
X027747Y009633D01*
X027861Y009586D01*
X027984Y009586D01*
X028098Y009633D01*
X028148Y009683D02*
X028342Y009683D01*
X028342Y009782D02*
X028210Y009782D01*
X028232Y009880D02*
X028342Y009880D01*
X028342Y009979D02*
X028223Y009979D01*
X028179Y010077D02*
X028342Y010077D01*
X028342Y010176D02*
X028056Y010176D01*
X027789Y010176D02*
X026602Y010176D01*
X026602Y010154D02*
X026555Y010040D01*
X026468Y009953D01*
X026354Y009906D01*
X026231Y009906D01*
X026117Y009953D01*
X026029Y010040D01*
X025982Y010154D01*
X025982Y010277D01*
X026029Y010391D01*
X026117Y010478D01*
X026231Y010526D01*
X026354Y010526D01*
X026468Y010478D01*
X026555Y010391D01*
X026602Y010277D01*
X026602Y010154D01*
X026570Y010077D02*
X027665Y010077D01*
X027621Y009979D02*
X026494Y009979D01*
X026602Y010274D02*
X028342Y010274D01*
X028342Y010373D02*
X026563Y010373D01*
X026475Y010471D02*
X028342Y010471D01*
X028342Y010570D02*
X021690Y010570D01*
X021718Y010558D02*
X021604Y010606D01*
X021481Y010606D01*
X021367Y010558D01*
X021279Y010471D01*
X021232Y010357D01*
X021232Y010234D01*
X021279Y010120D01*
X021367Y010033D01*
X021481Y009986D01*
X021604Y009986D01*
X021718Y010033D01*
X021805Y010120D01*
X021852Y010234D01*
X021852Y010357D01*
X021805Y010471D01*
X021718Y010558D01*
X021805Y010471D02*
X026110Y010471D01*
X026022Y010373D02*
X021846Y010373D01*
X021852Y010274D02*
X025982Y010274D01*
X025982Y010176D02*
X021828Y010176D01*
X021762Y010077D02*
X026014Y010077D01*
X026091Y009979D02*
X021207Y009979D01*
X021195Y009950D02*
X021242Y010064D01*
X021242Y010187D01*
X021195Y010301D01*
X021108Y010388D01*
X020994Y010436D01*
X020871Y010436D01*
X020757Y010388D01*
X020669Y010301D01*
X020622Y010187D01*
X020622Y010064D01*
X020669Y009950D01*
X020757Y009863D01*
X020871Y009816D01*
X020994Y009816D01*
X021108Y009863D01*
X021195Y009950D01*
X021125Y009880D02*
X027612Y009880D01*
X027634Y009782D02*
X020125Y009782D01*
X020223Y009880D02*
X020739Y009880D01*
X020657Y009979D02*
X020322Y009979D01*
X020420Y010077D02*
X020622Y010077D01*
X020622Y010176D02*
X020519Y010176D01*
X020618Y010274D02*
X020658Y010274D01*
X020716Y010373D02*
X020741Y010373D01*
X020815Y010471D02*
X021280Y010471D01*
X021239Y010373D02*
X021123Y010373D01*
X021206Y010274D02*
X021232Y010274D01*
X021242Y010176D02*
X021256Y010176D01*
X021242Y010077D02*
X021322Y010077D01*
X021395Y010570D02*
X020913Y010570D01*
X021012Y010668D02*
X028342Y010668D01*
X028342Y010767D02*
X021110Y010767D01*
X021209Y010866D02*
X028342Y010866D01*
X028342Y010964D02*
X021307Y010964D01*
X021406Y011063D02*
X028342Y011063D01*
X028342Y011161D02*
X021504Y011161D01*
X021603Y011260D02*
X024304Y011260D01*
X024206Y011358D02*
X021701Y011358D01*
X021800Y011457D02*
X024165Y011457D01*
X024162Y011555D02*
X023770Y011555D01*
X023855Y011654D02*
X024190Y011654D01*
X024261Y011752D02*
X023892Y011752D01*
X023394Y011555D02*
X023120Y011555D01*
X023205Y011654D02*
X023309Y011654D01*
X023272Y011752D02*
X023242Y011752D01*
X023242Y011851D02*
X023272Y011851D01*
X023306Y011950D02*
X023208Y011950D01*
X022744Y011555D02*
X021899Y011555D01*
X021997Y011654D02*
X022659Y011654D01*
X022307Y011752D02*
X022096Y011752D01*
X022194Y011851D02*
X022238Y011851D01*
X021360Y011950D02*
X019392Y011950D01*
X019392Y012048D02*
X021318Y012048D01*
X021217Y012147D02*
X019392Y012147D01*
X019392Y012245D02*
X021176Y012245D01*
X021172Y012344D02*
X019392Y012344D01*
X019392Y012442D02*
X021199Y012442D01*
X021269Y012541D02*
X019351Y012541D01*
X019265Y012639D02*
X021582Y012639D01*
X021582Y012738D02*
X019167Y012738D01*
X019068Y012836D02*
X021582Y012836D01*
X021582Y012935D02*
X018969Y012935D01*
X018871Y013034D02*
X021346Y013034D01*
X021260Y013132D02*
X018772Y013132D01*
X018430Y012541D02*
X016963Y012541D01*
X017002Y012442D02*
X018529Y012442D01*
X018627Y012344D02*
X017002Y012344D01*
X016970Y012245D02*
X018726Y012245D01*
X018732Y012147D02*
X016892Y012147D01*
X016493Y012147D02*
X012242Y012147D01*
X012242Y012245D02*
X016415Y012245D01*
X016382Y012344D02*
X012242Y012344D01*
X012242Y012442D02*
X016382Y012442D01*
X016421Y012541D02*
X012242Y012541D01*
X012242Y012639D02*
X015112Y012639D01*
X015013Y012738D02*
X012235Y012738D01*
X012194Y012836D02*
X014915Y012836D01*
X015454Y013231D02*
X021222Y013231D01*
X021222Y013329D02*
X015355Y013329D01*
X015257Y013428D02*
X021256Y013428D01*
X021334Y013526D02*
X015158Y013526D01*
X015060Y013625D02*
X021582Y013625D01*
X021582Y013723D02*
X014961Y013723D01*
X015237Y013822D02*
X020988Y013822D01*
X020949Y013860D02*
X021037Y013773D01*
X021151Y013726D01*
X021274Y013726D01*
X021388Y013773D01*
X021475Y013860D01*
X021522Y013974D01*
X021522Y014097D01*
X021475Y014211D01*
X021388Y014298D01*
X021274Y014346D01*
X021151Y014346D01*
X021037Y014298D01*
X020949Y014211D01*
X020902Y014097D01*
X020902Y013974D01*
X020949Y013860D01*
X020924Y013920D02*
X015306Y013920D01*
X015332Y014019D02*
X020902Y014019D01*
X020911Y014117D02*
X015328Y014117D01*
X015287Y014216D02*
X020954Y014216D01*
X021076Y014315D02*
X015183Y014315D01*
X014862Y014315D02*
X014769Y014315D01*
X014757Y014216D02*
X014691Y014216D01*
X014716Y014117D02*
X014567Y014117D01*
X014665Y014019D02*
X014712Y014019D01*
X014802Y014413D02*
X021582Y014413D01*
X021582Y014315D02*
X021349Y014315D01*
X021470Y014216D02*
X021582Y014216D01*
X021582Y014117D02*
X021514Y014117D01*
X021522Y014019D02*
X021582Y014019D01*
X021582Y013920D02*
X021500Y013920D01*
X021437Y013822D02*
X021582Y013822D01*
X021582Y014512D02*
X014802Y014512D01*
X014764Y014610D02*
X021582Y014610D01*
X021582Y014709D02*
X014738Y014709D01*
X014838Y014807D02*
X021582Y014807D01*
X021584Y014906D02*
X014879Y014906D01*
X014882Y015004D02*
X021625Y015004D01*
X021713Y015103D02*
X014855Y015103D01*
X014649Y015300D02*
X009754Y015300D01*
X009692Y015399D02*
X014622Y015399D01*
X014626Y015497D02*
X009692Y015497D01*
X009692Y015596D02*
X014667Y015596D01*
X014771Y015694D02*
X009692Y015694D01*
X009692Y015793D02*
X014986Y015793D01*
X015084Y015891D02*
X010654Y015891D01*
X010658Y015893D02*
X010745Y015980D01*
X010792Y016094D01*
X010792Y016217D01*
X010745Y016331D01*
X010661Y016416D01*
X010735Y016490D01*
X010782Y016604D01*
X010782Y016727D01*
X010735Y016841D01*
X010648Y016928D01*
X010534Y016976D01*
X010411Y016976D01*
X010297Y016928D01*
X010209Y016841D01*
X010162Y016727D01*
X010162Y016604D01*
X010209Y016490D01*
X010294Y016406D01*
X010219Y016331D01*
X010172Y016217D01*
X010172Y016094D01*
X010219Y015980D01*
X010307Y015893D01*
X010421Y015846D01*
X010544Y015846D01*
X010658Y015893D01*
X010749Y015990D02*
X015222Y015990D01*
X015248Y016088D02*
X010790Y016088D01*
X010792Y016187D02*
X012242Y016187D01*
X012267Y016163D02*
X012381Y016116D01*
X012504Y016116D01*
X012618Y016163D01*
X012705Y016250D01*
X012752Y016364D01*
X012752Y016487D01*
X012705Y016601D01*
X012618Y016688D01*
X012504Y016736D01*
X012381Y016736D01*
X012267Y016688D01*
X012179Y016601D01*
X012132Y016487D01*
X012132Y016364D01*
X012179Y016250D01*
X012267Y016163D01*
X012165Y016285D02*
X010764Y016285D01*
X010692Y016384D02*
X012132Y016384D01*
X012132Y016483D02*
X010728Y016483D01*
X010773Y016581D02*
X012171Y016581D01*
X012118Y016693D02*
X012004Y016646D01*
X011881Y016646D01*
X011767Y016693D01*
X011679Y016780D01*
X011632Y016894D01*
X011632Y017017D01*
X011679Y017131D01*
X011767Y017218D01*
X011881Y017266D01*
X012004Y017266D01*
X012118Y017218D01*
X012205Y017131D01*
X012252Y017017D01*
X012252Y016894D01*
X012205Y016780D01*
X012118Y016693D01*
X012086Y016680D02*
X012258Y016680D01*
X012203Y016778D02*
X012851Y016778D01*
X012839Y016790D02*
X012927Y016703D01*
X013041Y016656D01*
X013164Y016656D01*
X013278Y016703D01*
X013365Y016790D01*
X013412Y016904D01*
X013412Y017027D01*
X013365Y017141D01*
X013278Y017228D01*
X013164Y017276D01*
X013041Y017276D01*
X012927Y017228D01*
X012839Y017141D01*
X012792Y017027D01*
X012792Y016904D01*
X012839Y016790D01*
X012803Y016877D02*
X012245Y016877D01*
X012252Y016975D02*
X012792Y016975D01*
X012811Y017074D02*
X012229Y017074D01*
X012164Y017172D02*
X012871Y017172D01*
X013029Y017271D02*
X009692Y017271D01*
X009692Y017369D02*
X014642Y017369D01*
X014642Y017397D02*
X014642Y017274D01*
X014689Y017160D01*
X014777Y017073D01*
X014891Y017026D01*
X015014Y017026D01*
X015128Y017073D01*
X015215Y017160D01*
X015262Y017274D01*
X015262Y017397D01*
X015215Y017511D01*
X015128Y017598D01*
X015014Y017646D01*
X014891Y017646D01*
X014777Y017598D01*
X014689Y017511D01*
X014642Y017397D01*
X014672Y017468D02*
X009692Y017468D01*
X009692Y017566D02*
X014745Y017566D01*
X014643Y017271D02*
X013175Y017271D01*
X013334Y017172D02*
X014684Y017172D01*
X014776Y017074D02*
X013393Y017074D01*
X013412Y016975D02*
X017166Y016975D01*
X017189Y017031D02*
X017142Y016917D01*
X017142Y016870D01*
X017104Y016886D01*
X016981Y016886D01*
X016867Y016838D01*
X016779Y016751D01*
X016732Y016637D01*
X016732Y016586D01*
X016631Y016586D01*
X016517Y016538D01*
X016429Y016451D01*
X016382Y016337D01*
X016382Y016214D01*
X016429Y016100D01*
X016432Y016098D01*
X016337Y016058D01*
X016249Y015971D01*
X016202Y015857D01*
X016202Y015734D01*
X016249Y015620D01*
X016337Y015533D01*
X016451Y015486D01*
X016574Y015486D01*
X016688Y015533D01*
X016775Y015620D01*
X016822Y015734D01*
X016822Y015857D01*
X016775Y015971D01*
X016773Y015973D01*
X016868Y016013D01*
X016955Y016100D01*
X017002Y016214D01*
X017002Y016266D01*
X017104Y016266D01*
X017218Y016313D01*
X017305Y016400D01*
X017352Y016514D01*
X017352Y016561D01*
X017391Y016546D01*
X017514Y016546D01*
X017628Y016593D01*
X017715Y016680D01*
X017762Y016794D01*
X017762Y016917D01*
X017715Y017031D01*
X017628Y017118D01*
X017514Y017166D01*
X017391Y017166D01*
X017277Y017118D01*
X017189Y017031D01*
X017232Y017074D02*
X015129Y017074D01*
X015220Y017172D02*
X019337Y017172D01*
X019257Y017271D02*
X015261Y017271D01*
X015262Y017369D02*
X019222Y017369D01*
X019049Y017468D02*
X015233Y017468D01*
X015160Y017566D02*
X019012Y017566D01*
X019012Y017665D02*
X009692Y017665D01*
X009692Y017764D02*
X019012Y017764D01*
X019012Y017862D02*
X009692Y017862D01*
X009692Y017961D02*
X019012Y017961D01*
X019012Y018059D02*
X009692Y018059D01*
X009692Y018158D02*
X019012Y018158D01*
X019012Y018256D02*
X009692Y018256D01*
X009692Y018355D02*
X019012Y018355D01*
X019012Y018453D02*
X009692Y018453D01*
X009692Y018552D02*
X019012Y018552D01*
X019012Y018650D02*
X014467Y018650D01*
X014456Y018646D02*
X014628Y018717D01*
X014761Y018849D01*
X014832Y019022D01*
X014832Y019209D01*
X014761Y019382D01*
X014628Y019514D01*
X014456Y019586D01*
X014269Y019586D01*
X014096Y019514D01*
X013964Y019382D01*
X013892Y019209D01*
X013892Y019022D01*
X013964Y018849D01*
X014096Y018717D01*
X014269Y018646D01*
X014456Y018646D01*
X014257Y018650D02*
X012467Y018650D01*
X012456Y018646D02*
X012628Y018717D01*
X012761Y018849D01*
X012832Y019022D01*
X012832Y019209D01*
X012761Y019382D01*
X012628Y019514D01*
X012456Y019586D01*
X012269Y019586D01*
X012096Y019514D01*
X011964Y019382D01*
X011892Y019209D01*
X011892Y019022D01*
X011964Y018849D01*
X012096Y018717D01*
X012269Y018646D01*
X012456Y018646D01*
X012257Y018650D02*
X010467Y018650D01*
X010456Y018646D02*
X010628Y018717D01*
X010761Y018849D01*
X010832Y019022D01*
X010832Y019209D01*
X010761Y019382D01*
X010628Y019514D01*
X010456Y019586D01*
X010269Y019586D01*
X010096Y019514D01*
X009964Y019382D01*
X009892Y019209D01*
X009892Y019022D01*
X009964Y018849D01*
X010096Y018717D01*
X010269Y018646D01*
X010456Y018646D01*
X010257Y018650D02*
X009692Y018650D01*
X009692Y018749D02*
X010064Y018749D01*
X009966Y018848D02*
X009692Y018848D01*
X009757Y018946D02*
X009924Y018946D01*
X009892Y019045D02*
X009800Y019045D01*
X009832Y019143D02*
X009892Y019143D01*
X009906Y019242D02*
X009832Y019242D01*
X009819Y019340D02*
X009947Y019340D01*
X010021Y019439D02*
X009778Y019439D01*
X009705Y019537D02*
X010152Y019537D01*
X010572Y019537D02*
X011019Y019537D01*
X010964Y019482D02*
X010892Y019309D01*
X010892Y019122D01*
X010964Y018949D01*
X011096Y018817D01*
X011269Y018746D01*
X011456Y018746D01*
X011628Y018817D01*
X011761Y018949D01*
X011832Y019122D01*
X011832Y019309D01*
X011761Y019482D01*
X011628Y019614D01*
X011456Y019686D01*
X011269Y019686D01*
X011096Y019614D01*
X010964Y019482D01*
X010946Y019439D02*
X010704Y019439D01*
X010778Y019340D02*
X010905Y019340D01*
X010892Y019242D02*
X010819Y019242D01*
X010832Y019143D02*
X010892Y019143D01*
X010924Y019045D02*
X010832Y019045D01*
X010801Y018946D02*
X010967Y018946D01*
X011066Y018848D02*
X010759Y018848D01*
X010660Y018749D02*
X011260Y018749D01*
X011464Y018749D02*
X012064Y018749D01*
X011966Y018848D02*
X011659Y018848D01*
X011757Y018946D02*
X011924Y018946D01*
X011892Y019045D02*
X011800Y019045D01*
X011832Y019143D02*
X011892Y019143D01*
X011906Y019242D02*
X011832Y019242D01*
X011819Y019340D02*
X011947Y019340D01*
X012021Y019439D02*
X011778Y019439D01*
X011705Y019537D02*
X012152Y019537D01*
X012572Y019537D02*
X013019Y019537D01*
X012964Y019482D02*
X012892Y019309D01*
X012892Y019122D01*
X012964Y018949D01*
X013096Y018817D01*
X013269Y018746D01*
X013456Y018746D01*
X013628Y018817D01*
X013761Y018949D01*
X013832Y019122D01*
X013832Y019309D01*
X013761Y019482D01*
X013628Y019614D01*
X013456Y019686D01*
X013269Y019686D01*
X013096Y019614D01*
X012964Y019482D01*
X012946Y019439D02*
X012704Y019439D01*
X012778Y019340D02*
X012905Y019340D01*
X012892Y019242D02*
X012819Y019242D01*
X012832Y019143D02*
X012892Y019143D01*
X012924Y019045D02*
X012832Y019045D01*
X012801Y018946D02*
X012967Y018946D01*
X013066Y018848D02*
X012759Y018848D01*
X012660Y018749D02*
X013260Y018749D01*
X013464Y018749D02*
X014064Y018749D01*
X013966Y018848D02*
X013659Y018848D01*
X013757Y018946D02*
X013924Y018946D01*
X013892Y019045D02*
X013800Y019045D01*
X013832Y019143D02*
X013892Y019143D01*
X013906Y019242D02*
X013832Y019242D01*
X013819Y019340D02*
X013947Y019340D01*
X014021Y019439D02*
X013778Y019439D01*
X013705Y019537D02*
X014152Y019537D01*
X014572Y019537D02*
X017002Y019537D01*
X017002Y019462D02*
X017074Y019289D01*
X017206Y019157D01*
X017379Y019086D01*
X017566Y019086D01*
X017738Y019157D01*
X017871Y019289D01*
X017942Y019462D01*
X017942Y019649D01*
X017871Y019822D01*
X017738Y019954D01*
X017566Y020026D01*
X017379Y020026D01*
X017206Y019954D01*
X017074Y019822D01*
X017002Y019649D01*
X017002Y019462D01*
X017012Y019439D02*
X014704Y019439D01*
X014778Y019340D02*
X016139Y019340D01*
X016177Y019378D02*
X016089Y019291D01*
X016042Y019177D01*
X016042Y019054D01*
X016089Y018940D01*
X016177Y018853D01*
X016291Y018806D01*
X016414Y018806D01*
X016528Y018853D01*
X016615Y018940D01*
X016662Y019054D01*
X016662Y019177D01*
X016615Y019291D01*
X016528Y019378D01*
X016414Y019426D01*
X016291Y019426D01*
X016177Y019378D01*
X016069Y019242D02*
X014819Y019242D01*
X014832Y019143D02*
X016042Y019143D01*
X016046Y019045D02*
X014832Y019045D01*
X014801Y018946D02*
X016087Y018946D01*
X016189Y018848D02*
X014759Y018848D01*
X014660Y018749D02*
X019012Y018749D01*
X019012Y018848D02*
X016515Y018848D01*
X016617Y018946D02*
X019012Y018946D01*
X019012Y019045D02*
X018708Y019045D01*
X018738Y019057D02*
X018871Y019189D01*
X018942Y019362D01*
X018942Y019549D01*
X018871Y019722D01*
X018738Y019854D01*
X018566Y019926D01*
X018379Y019926D01*
X018206Y019854D01*
X018074Y019722D01*
X018002Y019549D01*
X018002Y019362D01*
X018074Y019189D01*
X018206Y019057D01*
X018379Y018986D01*
X018566Y018986D01*
X018738Y019057D01*
X018824Y019143D02*
X019012Y019143D01*
X019012Y019242D02*
X018892Y019242D01*
X018933Y019340D02*
X019012Y019340D01*
X019012Y019439D02*
X018942Y019439D01*
X018942Y019537D02*
X019002Y019537D01*
X019002Y019636D02*
X018906Y019636D01*
X018858Y019734D02*
X019012Y019734D01*
X019012Y019833D02*
X018759Y019833D01*
X019012Y019932D02*
X017761Y019932D01*
X017859Y019833D02*
X018185Y019833D01*
X018086Y019734D02*
X017907Y019734D01*
X017942Y019636D02*
X018038Y019636D01*
X018002Y019537D02*
X017942Y019537D01*
X017933Y019439D02*
X018002Y019439D01*
X018011Y019340D02*
X017892Y019340D01*
X017823Y019242D02*
X018052Y019242D01*
X018120Y019143D02*
X017705Y019143D01*
X017240Y019143D02*
X016662Y019143D01*
X016658Y019045D02*
X018236Y019045D01*
X019232Y019045D02*
X020367Y019045D01*
X020389Y019036D02*
X020556Y019036D01*
X020710Y019100D01*
X020828Y019218D01*
X020892Y019372D01*
X020892Y019539D01*
X020828Y019693D01*
X020710Y019812D01*
X020556Y019876D01*
X020389Y019876D01*
X020234Y019812D01*
X020116Y019693D01*
X020052Y019539D01*
X020052Y019372D01*
X020116Y019218D01*
X020234Y019100D01*
X020389Y019036D01*
X020578Y019045D02*
X030348Y019045D01*
X030376Y018978D02*
X030494Y018860D01*
X030649Y018796D01*
X030816Y018796D01*
X030970Y018860D01*
X031088Y018978D01*
X031152Y019132D01*
X031152Y019299D01*
X031088Y019453D01*
X030970Y019572D01*
X030816Y019636D01*
X030649Y019636D01*
X030494Y019572D01*
X030376Y019453D01*
X030312Y019299D01*
X030312Y019132D01*
X030376Y018978D01*
X030408Y018946D02*
X019232Y018946D01*
X019232Y018848D02*
X030523Y018848D01*
X030594Y018572D02*
X030476Y018453D01*
X019232Y018453D01*
X019232Y018355D02*
X030435Y018355D01*
X030412Y018299D02*
X030412Y018132D01*
X030476Y017978D01*
X030594Y017860D01*
X030749Y017796D01*
X030916Y017796D01*
X031070Y017860D01*
X031188Y017978D01*
X031252Y018132D01*
X031252Y018299D01*
X031188Y018453D01*
X031476Y018453D01*
X031412Y018299D01*
X031412Y018132D01*
X031476Y017978D01*
X031594Y017860D01*
X031749Y017796D01*
X031916Y017796D01*
X032070Y017860D01*
X032188Y017978D01*
X032252Y018132D01*
X032252Y018299D01*
X032188Y018453D01*
X033832Y018453D01*
X033832Y018355D02*
X032229Y018355D01*
X032252Y018256D02*
X033832Y018256D01*
X033832Y018158D02*
X032252Y018158D01*
X032222Y018059D02*
X033832Y018059D01*
X033832Y017961D02*
X032171Y017961D01*
X032073Y017862D02*
X033832Y017862D01*
X033832Y017764D02*
X022392Y017764D01*
X022382Y017862D02*
X030592Y017862D01*
X030493Y017961D02*
X022325Y017961D01*
X022364Y017665D02*
X033832Y017665D01*
X033832Y017566D02*
X031975Y017566D01*
X031970Y017572D02*
X031816Y017636D01*
X031649Y017636D01*
X031494Y017572D01*
X031376Y017453D01*
X031312Y017299D01*
X031312Y017132D01*
X031376Y016978D01*
X031494Y016860D01*
X031649Y016796D01*
X031816Y016796D01*
X031970Y016860D01*
X032088Y016978D01*
X032152Y017132D01*
X032152Y017299D01*
X032088Y017453D01*
X031970Y017572D01*
X032074Y017468D02*
X033832Y017468D01*
X033832Y017369D02*
X032123Y017369D01*
X032152Y017271D02*
X033832Y017271D01*
X033832Y017172D02*
X032152Y017172D01*
X032128Y017074D02*
X033832Y017074D01*
X033832Y016975D02*
X032086Y016975D01*
X031987Y016877D02*
X033832Y016877D01*
X033832Y016778D02*
X028562Y016778D01*
X028562Y016680D02*
X033832Y016680D01*
X033832Y016581D02*
X032047Y016581D01*
X032070Y016572D02*
X031916Y016636D01*
X031749Y016636D01*
X031594Y016572D01*
X031476Y016453D01*
X031412Y016299D01*
X031412Y016132D01*
X031476Y015978D01*
X031594Y015860D01*
X031749Y015796D01*
X031916Y015796D01*
X032070Y015860D01*
X032188Y015978D01*
X032252Y016132D01*
X032252Y016299D01*
X032188Y016453D01*
X032070Y016572D01*
X032159Y016483D02*
X033832Y016483D01*
X033832Y016384D02*
X032217Y016384D01*
X032252Y016285D02*
X033832Y016285D01*
X033832Y016187D02*
X032252Y016187D01*
X032234Y016088D02*
X033832Y016088D01*
X033832Y015990D02*
X032193Y015990D01*
X032102Y015891D02*
X033832Y015891D01*
X033832Y015793D02*
X028562Y015793D01*
X028562Y015891D02*
X030563Y015891D01*
X030594Y015860D02*
X030749Y015796D01*
X030916Y015796D01*
X031070Y015860D01*
X031188Y015978D01*
X031252Y016132D01*
X031252Y016299D01*
X031188Y016453D01*
X031070Y016572D01*
X030916Y016636D01*
X030749Y016636D01*
X030594Y016572D01*
X030476Y016453D01*
X030412Y016299D01*
X030412Y016132D01*
X030476Y015978D01*
X030594Y015860D01*
X030471Y015990D02*
X028562Y015990D01*
X028562Y016088D02*
X030430Y016088D01*
X030412Y016187D02*
X028562Y016187D01*
X028562Y016285D02*
X030412Y016285D01*
X030447Y016384D02*
X028562Y016384D01*
X028562Y016483D02*
X030505Y016483D01*
X030617Y016581D02*
X028562Y016581D01*
X028342Y016581D02*
X025065Y016581D01*
X025058Y016588D02*
X024944Y016636D01*
X024821Y016636D01*
X024707Y016588D01*
X024619Y016501D01*
X024572Y016387D01*
X024572Y016264D01*
X024619Y016150D01*
X024707Y016063D01*
X024821Y016016D01*
X024944Y016016D01*
X025058Y016063D01*
X025145Y016150D01*
X025192Y016264D01*
X025192Y016387D01*
X025145Y016501D01*
X025058Y016588D01*
X025153Y016483D02*
X028342Y016483D01*
X028342Y016384D02*
X025192Y016384D01*
X025192Y016285D02*
X028342Y016285D01*
X028342Y016187D02*
X025160Y016187D01*
X025083Y016088D02*
X028342Y016088D01*
X028342Y015990D02*
X022832Y015990D01*
X022832Y015954D02*
X022832Y016077D01*
X022785Y016191D01*
X022698Y016278D01*
X022584Y016326D01*
X022461Y016326D01*
X022347Y016278D01*
X022259Y016191D01*
X022212Y016077D01*
X022212Y015954D01*
X022259Y015840D01*
X022347Y015753D01*
X022461Y015706D01*
X022584Y015706D01*
X022698Y015753D01*
X022785Y015840D01*
X022832Y015954D01*
X022806Y015891D02*
X025159Y015891D01*
X025167Y015898D02*
X025079Y015811D01*
X025032Y015697D01*
X025032Y015574D01*
X025079Y015460D01*
X025167Y015373D01*
X025281Y015326D01*
X025404Y015326D01*
X025518Y015373D01*
X025605Y015460D01*
X025652Y015574D01*
X025652Y015697D01*
X025605Y015811D01*
X025518Y015898D01*
X025404Y015946D01*
X025281Y015946D01*
X025167Y015898D01*
X025072Y015793D02*
X022738Y015793D01*
X022828Y016088D02*
X024681Y016088D01*
X024604Y016187D02*
X023684Y016187D01*
X023698Y016193D02*
X023584Y016146D01*
X023461Y016146D01*
X023347Y016193D01*
X023259Y016280D01*
X023212Y016394D01*
X023212Y016517D01*
X023259Y016631D01*
X023347Y016718D01*
X023461Y016766D01*
X023584Y016766D01*
X023698Y016718D01*
X023785Y016631D01*
X023832Y016517D01*
X023832Y016394D01*
X023785Y016280D01*
X023698Y016193D01*
X023787Y016285D02*
X024572Y016285D01*
X024572Y016384D02*
X023828Y016384D01*
X023832Y016483D02*
X024612Y016483D01*
X024699Y016581D02*
X023806Y016581D01*
X023737Y016680D02*
X026310Y016680D01*
X026347Y016643D02*
X026461Y016596D01*
X026584Y016596D01*
X026698Y016643D01*
X026785Y016730D01*
X026832Y016844D01*
X026832Y016967D01*
X026785Y017081D01*
X026698Y017168D01*
X026584Y017216D01*
X026461Y017216D01*
X026347Y017168D01*
X026259Y017081D01*
X026212Y016967D01*
X026212Y016844D01*
X026259Y016730D01*
X026347Y016643D01*
X026239Y016778D02*
X020462Y016778D01*
X020462Y016680D02*
X023308Y016680D01*
X023239Y016581D02*
X020462Y016581D01*
X020462Y016483D02*
X023212Y016483D01*
X023216Y016384D02*
X020462Y016384D01*
X020462Y016285D02*
X022364Y016285D01*
X022258Y016187D02*
X020462Y016187D01*
X020462Y016088D02*
X022217Y016088D01*
X022212Y015990D02*
X021326Y015990D01*
X021378Y015968D02*
X021264Y016016D01*
X021141Y016016D01*
X021027Y015968D01*
X020939Y015881D01*
X020892Y015767D01*
X020892Y015644D01*
X020939Y015530D01*
X021027Y015443D01*
X021141Y015396D01*
X021264Y015396D01*
X021378Y015443D01*
X021465Y015530D01*
X021512Y015644D01*
X021512Y015767D01*
X021465Y015881D01*
X021378Y015968D01*
X021455Y015891D02*
X022238Y015891D01*
X022307Y015793D02*
X021502Y015793D01*
X021512Y015694D02*
X025032Y015694D01*
X025032Y015596D02*
X021492Y015596D01*
X021432Y015497D02*
X025064Y015497D01*
X025141Y015399D02*
X024455Y015399D01*
X024596Y015300D02*
X028342Y015300D01*
X028342Y015201D02*
X026236Y015201D01*
X026268Y015188D02*
X026154Y015236D01*
X026031Y015236D01*
X025917Y015188D01*
X025829Y015101D01*
X025782Y014987D01*
X025782Y014864D01*
X025829Y014750D01*
X025917Y014663D01*
X026031Y014616D01*
X026154Y014616D01*
X026268Y014663D01*
X026355Y014750D01*
X026402Y014864D01*
X026402Y014987D01*
X026355Y015101D01*
X026268Y015188D01*
X026353Y015103D02*
X028342Y015103D01*
X028342Y015004D02*
X026395Y015004D01*
X026402Y014906D02*
X028342Y014906D01*
X028342Y014807D02*
X026379Y014807D01*
X026314Y014709D02*
X028342Y014709D01*
X028342Y014610D02*
X025392Y014610D01*
X025392Y014512D02*
X028342Y014512D01*
X028342Y014413D02*
X025392Y014413D01*
X025392Y014315D02*
X028342Y014315D01*
X028342Y014216D02*
X025392Y014216D01*
X025392Y014117D02*
X028342Y014117D01*
X028342Y014019D02*
X025656Y014019D01*
X025749Y013920D02*
X026442Y013920D01*
X026325Y013822D02*
X025790Y013822D01*
X025792Y013723D02*
X026226Y013723D01*
X026128Y013625D02*
X025764Y013625D01*
X025691Y013526D02*
X026029Y013526D01*
X025931Y013428D02*
X025392Y013428D01*
X025392Y013329D02*
X025832Y013329D01*
X025734Y013231D02*
X025392Y013231D01*
X025392Y013132D02*
X025635Y013132D01*
X025537Y013034D02*
X025392Y013034D01*
X025392Y012935D02*
X025438Y012935D01*
X025849Y012639D02*
X026867Y012639D01*
X026862Y012627D02*
X026862Y012504D01*
X026909Y012390D01*
X026997Y012303D01*
X027111Y012256D01*
X027234Y012256D01*
X027348Y012303D01*
X027435Y012390D01*
X027482Y012504D01*
X027482Y012627D01*
X027435Y012741D01*
X027348Y012828D01*
X027234Y012876D01*
X027111Y012876D01*
X026997Y012828D01*
X026909Y012741D01*
X026862Y012627D01*
X026862Y012541D02*
X026325Y012541D01*
X026413Y012442D02*
X026888Y012442D01*
X026956Y012344D02*
X026452Y012344D01*
X026452Y012245D02*
X028342Y012245D01*
X028342Y012147D02*
X026420Y012147D01*
X026343Y012048D02*
X028342Y012048D01*
X028342Y011950D02*
X025915Y011950D01*
X025799Y011851D02*
X028342Y011851D01*
X028342Y011752D02*
X024684Y011752D01*
X024621Y011851D02*
X025505Y011851D01*
X025390Y011950D02*
X024720Y011950D01*
X024755Y011654D02*
X028342Y011654D01*
X028342Y011555D02*
X024782Y011555D01*
X024779Y011457D02*
X028342Y011457D01*
X028342Y011358D02*
X024738Y011358D01*
X024640Y011260D02*
X028342Y011260D01*
X028562Y011260D02*
X030312Y011260D01*
X030312Y011299D02*
X030312Y011132D01*
X030376Y010978D01*
X030494Y010860D01*
X030649Y010796D01*
X030816Y010796D01*
X030970Y010860D01*
X031088Y010978D01*
X031152Y011132D01*
X031152Y011299D01*
X031088Y011453D01*
X030970Y011572D01*
X030816Y011636D01*
X030649Y011636D01*
X030494Y011572D01*
X030376Y011453D01*
X030312Y011299D01*
X030337Y011358D02*
X028562Y011358D01*
X028562Y011457D02*
X030379Y011457D01*
X030478Y011555D02*
X028562Y011555D01*
X028562Y011654D02*
X033832Y011654D01*
X033832Y011752D02*
X028562Y011752D01*
X028562Y011851D02*
X030615Y011851D01*
X030594Y011860D02*
X030749Y011796D01*
X030916Y011796D01*
X031070Y011860D01*
X031188Y011978D01*
X031252Y012132D01*
X031252Y012299D01*
X031188Y012453D01*
X031070Y012572D01*
X030916Y012636D01*
X030749Y012636D01*
X030594Y012572D01*
X030476Y012453D01*
X030412Y012299D01*
X030412Y012132D01*
X030476Y011978D01*
X030594Y011860D01*
X030504Y011950D02*
X028562Y011950D01*
X028562Y012048D02*
X030447Y012048D01*
X030412Y012147D02*
X028562Y012147D01*
X028562Y012245D02*
X030412Y012245D01*
X030431Y012344D02*
X028562Y012344D01*
X028562Y012442D02*
X030471Y012442D01*
X030563Y012541D02*
X028562Y012541D01*
X028562Y012639D02*
X033832Y012639D01*
X033832Y012541D02*
X032101Y012541D01*
X032070Y012572D02*
X031916Y012636D01*
X031749Y012636D01*
X031594Y012572D01*
X031476Y012453D01*
X031412Y012299D01*
X031412Y012132D01*
X031476Y011978D01*
X031594Y011860D01*
X031749Y011796D01*
X031916Y011796D01*
X032070Y011860D01*
X032188Y011978D01*
X032252Y012132D01*
X032252Y012299D01*
X032188Y012453D01*
X032070Y012572D01*
X032193Y012442D02*
X033832Y012442D01*
X033832Y012344D02*
X032234Y012344D01*
X032252Y012245D02*
X033832Y012245D01*
X033832Y012147D02*
X032252Y012147D01*
X032217Y012048D02*
X033832Y012048D01*
X033832Y011950D02*
X032160Y011950D01*
X032049Y011851D02*
X033832Y011851D01*
X033832Y011555D02*
X031986Y011555D01*
X031970Y011572D02*
X031816Y011636D01*
X031649Y011636D01*
X031494Y011572D01*
X031376Y011453D01*
X031312Y011299D01*
X031312Y011132D01*
X031376Y010978D01*
X031494Y010860D01*
X031649Y010796D01*
X031816Y010796D01*
X031970Y010860D01*
X032088Y010978D01*
X032152Y011132D01*
X032152Y011299D01*
X032088Y011453D01*
X031970Y011572D01*
X032085Y011457D02*
X033832Y011457D01*
X033832Y011358D02*
X032128Y011358D01*
X032152Y011260D02*
X033832Y011260D01*
X033832Y011161D02*
X032152Y011161D01*
X032123Y011063D02*
X033832Y011063D01*
X033832Y010964D02*
X032075Y010964D01*
X031976Y010866D02*
X033832Y010866D01*
X033832Y010767D02*
X028562Y010767D01*
X028562Y010866D02*
X030488Y010866D01*
X030390Y010964D02*
X028562Y010964D01*
X028562Y011063D02*
X030341Y011063D01*
X030312Y011161D02*
X028562Y011161D01*
X028562Y010668D02*
X033832Y010668D01*
X033832Y010570D02*
X032072Y010570D01*
X032070Y010572D02*
X031916Y010636D01*
X031749Y010636D01*
X031594Y010572D01*
X031476Y010453D01*
X031412Y010299D01*
X031412Y010132D01*
X031476Y009978D01*
X031594Y009860D01*
X031749Y009796D01*
X031916Y009796D01*
X032070Y009860D01*
X032188Y009978D01*
X032252Y010132D01*
X032252Y010299D01*
X032188Y010453D01*
X032070Y010572D01*
X032170Y010471D02*
X033832Y010471D01*
X033832Y010373D02*
X032222Y010373D01*
X032252Y010274D02*
X033832Y010274D01*
X033832Y010176D02*
X032252Y010176D01*
X032229Y010077D02*
X033832Y010077D01*
X033832Y009979D02*
X032189Y009979D01*
X032091Y009880D02*
X033832Y009880D01*
X033832Y009782D02*
X028562Y009782D01*
X028562Y009880D02*
X030574Y009880D01*
X030594Y009860D02*
X030749Y009796D01*
X030916Y009796D01*
X031070Y009860D01*
X031188Y009978D01*
X031252Y010132D01*
X031252Y010299D01*
X031188Y010453D01*
X031070Y010572D01*
X030916Y010636D01*
X030749Y010636D01*
X030594Y010572D01*
X030476Y010453D01*
X030412Y010299D01*
X030412Y010132D01*
X030476Y009978D01*
X030594Y009860D01*
X030476Y009979D02*
X028562Y009979D01*
X028562Y010077D02*
X030435Y010077D01*
X030412Y010176D02*
X028562Y010176D01*
X028562Y010274D02*
X030412Y010274D01*
X030443Y010373D02*
X028562Y010373D01*
X028562Y010471D02*
X030494Y010471D01*
X030593Y010570D02*
X028562Y010570D01*
X027696Y009683D02*
X020026Y009683D01*
X019586Y010176D02*
X018972Y010176D01*
X018972Y010187D02*
X018925Y010301D01*
X018838Y010388D01*
X018724Y010436D01*
X018601Y010436D01*
X018487Y010388D01*
X018399Y010301D01*
X018352Y010187D01*
X018352Y010064D01*
X018399Y009950D01*
X018487Y009863D01*
X018601Y009816D01*
X018724Y009816D01*
X018838Y009863D01*
X018925Y009950D01*
X018972Y010064D01*
X018972Y010187D01*
X018936Y010274D02*
X019684Y010274D01*
X019711Y010373D02*
X018853Y010373D01*
X018879Y010668D02*
X017517Y010668D01*
X017499Y010570D02*
X019515Y010570D01*
X019417Y010668D02*
X019065Y010668D01*
X019212Y010767D02*
X019320Y010767D01*
X019613Y010471D02*
X017512Y010471D01*
X017495Y010373D02*
X018471Y010373D01*
X018388Y010274D02*
X017439Y010274D01*
X017288Y010176D02*
X018352Y010176D01*
X018352Y010077D02*
X012242Y010077D01*
X012242Y009979D02*
X018387Y009979D01*
X018469Y009880D02*
X012242Y009880D01*
X012242Y009782D02*
X019192Y009782D01*
X019290Y009880D02*
X018855Y009880D01*
X018937Y009979D02*
X019389Y009979D01*
X019487Y010077D02*
X018972Y010077D01*
X019093Y009683D02*
X012242Y009683D01*
X012242Y009584D02*
X018994Y009584D01*
X018896Y009486D02*
X012242Y009486D01*
X012242Y009387D02*
X018797Y009387D01*
X018699Y009289D02*
X012242Y009289D01*
X012242Y009190D02*
X014163Y009190D01*
X014176Y009196D02*
X014062Y009148D01*
X013974Y009061D01*
X013927Y008947D01*
X013927Y008824D01*
X013974Y008710D01*
X014049Y008636D01*
X013974Y008561D01*
X013927Y008447D01*
X013927Y008324D01*
X013974Y008210D01*
X014049Y008136D01*
X013974Y008061D01*
X013927Y007947D01*
X013927Y007824D01*
X013974Y007710D01*
X014049Y007636D01*
X013974Y007561D01*
X013927Y007447D01*
X013927Y007346D01*
X013826Y007346D01*
X013712Y007298D01*
X013624Y007211D01*
X013577Y007097D01*
X013577Y006974D01*
X013624Y006860D01*
X013712Y006773D01*
X013826Y006726D01*
X013949Y006726D01*
X014063Y006773D01*
X014150Y006860D01*
X014197Y006974D01*
X014197Y007076D01*
X014299Y007076D01*
X014413Y007123D01*
X014500Y007210D01*
X014547Y007324D01*
X014547Y007447D01*
X014500Y007561D01*
X014426Y007636D01*
X014500Y007710D01*
X014547Y007824D01*
X014547Y007947D01*
X014500Y008061D01*
X014426Y008136D01*
X014500Y008210D01*
X014547Y008324D01*
X014547Y008447D01*
X014500Y008561D01*
X014426Y008636D01*
X014500Y008710D01*
X014547Y008824D01*
X014547Y008947D01*
X014500Y009061D01*
X014413Y009148D01*
X014299Y009196D01*
X014176Y009196D01*
X014312Y009190D02*
X018600Y009190D01*
X018502Y009092D02*
X014469Y009092D01*
X014528Y008993D02*
X018403Y008993D01*
X018305Y008895D02*
X016404Y008895D01*
X016354Y008916D02*
X016231Y008916D01*
X016117Y008868D01*
X016029Y008781D01*
X015982Y008667D01*
X015982Y008544D01*
X016029Y008430D01*
X016117Y008343D01*
X016231Y008296D01*
X016354Y008296D01*
X016468Y008343D01*
X016555Y008430D01*
X016602Y008544D01*
X016602Y008667D01*
X016555Y008781D01*
X016468Y008868D01*
X016354Y008916D01*
X016180Y008895D02*
X014547Y008895D01*
X014536Y008796D02*
X016044Y008796D01*
X015995Y008698D02*
X014488Y008698D01*
X014462Y008599D02*
X015982Y008599D01*
X016000Y008501D02*
X014525Y008501D01*
X014547Y008402D02*
X016057Y008402D01*
X016212Y008303D02*
X014539Y008303D01*
X014495Y008205D02*
X017615Y008205D01*
X017713Y008303D02*
X016373Y008303D01*
X016527Y008402D02*
X017812Y008402D01*
X017911Y008501D02*
X016584Y008501D01*
X016602Y008599D02*
X018009Y008599D01*
X018108Y008698D02*
X016590Y008698D01*
X016540Y008796D02*
X018206Y008796D01*
X018647Y008303D02*
X021862Y008303D01*
X021822Y008205D02*
X018548Y008205D01*
X018450Y008106D02*
X021822Y008106D01*
X021854Y008008D02*
X018351Y008008D01*
X018253Y007909D02*
X021930Y007909D01*
X021950Y008402D02*
X018745Y008402D01*
X018974Y007712D02*
X028342Y007712D01*
X028342Y007614D02*
X019045Y007614D01*
X019072Y007515D02*
X028342Y007515D01*
X028342Y007417D02*
X019069Y007417D01*
X019028Y007318D02*
X028342Y007318D01*
X028342Y007219D02*
X018930Y007219D01*
X017516Y008106D02*
X014455Y008106D01*
X014522Y008008D02*
X017418Y008008D01*
X017319Y007909D02*
X014547Y007909D01*
X014542Y007811D02*
X017221Y007811D01*
X017122Y007712D02*
X014501Y007712D01*
X014448Y007614D02*
X017024Y007614D01*
X016925Y007515D02*
X014519Y007515D01*
X014547Y007417D02*
X016827Y007417D01*
X016728Y007318D02*
X014545Y007318D01*
X014504Y007219D02*
X016629Y007219D01*
X016531Y007121D02*
X014408Y007121D01*
X014197Y007022D02*
X016473Y007022D01*
X016452Y006924D02*
X014176Y006924D01*
X014115Y006825D02*
X016452Y006825D01*
X016452Y006727D02*
X013952Y006727D01*
X013823Y006727D02*
X013654Y006727D01*
X013659Y006825D02*
X013532Y006825D01*
X013598Y006924D02*
X005102Y006924D01*
X005102Y007022D02*
X013577Y007022D01*
X013587Y007121D02*
X005102Y007121D01*
X005173Y007219D02*
X013633Y007219D01*
X013759Y007318D02*
X005611Y007318D01*
X005705Y007417D02*
X011843Y007417D01*
X011857Y007403D02*
X011971Y007356D01*
X012094Y007356D01*
X012208Y007403D01*
X012295Y007490D01*
X012342Y007604D01*
X012342Y007727D01*
X012295Y007841D01*
X012208Y007928D01*
X012094Y007976D01*
X011971Y007976D01*
X011857Y007928D01*
X011769Y007841D01*
X011722Y007727D01*
X011722Y007604D01*
X011769Y007490D01*
X011857Y007403D01*
X011759Y007515D02*
X005746Y007515D01*
X005752Y007614D02*
X007247Y007614D01*
X007107Y007712D02*
X005731Y007712D01*
X005674Y007811D02*
X007056Y007811D01*
X007042Y007909D02*
X005527Y007909D01*
X004977Y007909D02*
X004552Y007909D01*
X004552Y007811D02*
X004831Y007811D01*
X004732Y007712D02*
X004552Y007712D01*
X004552Y007614D02*
X004634Y007614D01*
X004552Y008008D02*
X007059Y008008D01*
X007457Y007614D02*
X011722Y007614D01*
X011722Y007712D02*
X007597Y007712D01*
X007648Y007811D02*
X011757Y007811D01*
X011837Y007909D02*
X007662Y007909D01*
X007645Y008008D02*
X013952Y008008D01*
X013927Y007909D02*
X012227Y007909D01*
X012308Y007811D02*
X013933Y007811D01*
X013973Y007712D02*
X012342Y007712D01*
X012342Y007614D02*
X014027Y007614D01*
X013955Y007515D02*
X012305Y007515D01*
X012222Y007417D02*
X013927Y007417D01*
X014020Y008106D02*
X011830Y008106D01*
X011928Y008205D02*
X013979Y008205D01*
X013936Y008303D02*
X012027Y008303D01*
X012125Y008402D02*
X013927Y008402D01*
X013949Y008501D02*
X012205Y008501D01*
X012242Y008599D02*
X014012Y008599D01*
X013987Y008698D02*
X012242Y008698D01*
X012242Y008796D02*
X013939Y008796D01*
X013927Y008895D02*
X012242Y008895D01*
X012242Y008993D02*
X013946Y008993D01*
X014005Y009092D02*
X012242Y009092D01*
X011582Y009092D02*
X009217Y009092D01*
X009363Y008993D02*
X011582Y008993D01*
X011582Y008895D02*
X009417Y008895D01*
X009432Y008796D02*
X011582Y008796D01*
X011488Y008698D02*
X009417Y008698D01*
X009027Y009092D02*
X004704Y009092D01*
X004775Y008993D02*
X007621Y008993D01*
X007538Y008895D02*
X004802Y008895D01*
X004799Y008796D02*
X007502Y008796D01*
X007502Y008698D02*
X004758Y008698D01*
X004226Y008698D02*
X001220Y008698D01*
X001220Y008796D02*
X004185Y008796D01*
X004182Y008895D02*
X001219Y008895D01*
X001219Y008993D02*
X004210Y008993D01*
X004280Y009092D02*
X001219Y009092D01*
X001219Y009190D02*
X011582Y009190D01*
X011582Y009289D02*
X001219Y009289D01*
X001219Y009387D02*
X011582Y009387D01*
X011582Y009486D02*
X007711Y009486D01*
X007708Y009483D02*
X007795Y009570D01*
X007842Y009684D01*
X007842Y009807D01*
X007795Y009921D01*
X007708Y010008D01*
X007594Y010056D01*
X007471Y010056D01*
X007357Y010008D01*
X007269Y009921D01*
X007222Y009807D01*
X007222Y009684D01*
X007269Y009570D01*
X007357Y009483D01*
X007471Y009436D01*
X007594Y009436D01*
X007708Y009483D01*
X007801Y009584D02*
X011582Y009584D01*
X011582Y009683D02*
X007842Y009683D01*
X007842Y009782D02*
X011582Y009782D01*
X011582Y009880D02*
X007812Y009880D01*
X007737Y009979D02*
X011582Y009979D01*
X011582Y010077D02*
X004838Y010077D01*
X004835Y010070D02*
X004882Y010184D01*
X004882Y010307D01*
X004835Y010421D01*
X004748Y010508D01*
X004634Y010556D01*
X004511Y010556D01*
X004397Y010508D01*
X004309Y010421D01*
X004262Y010307D01*
X004262Y010184D01*
X004309Y010070D01*
X004397Y009983D01*
X004511Y009936D01*
X004634Y009936D01*
X004748Y009983D01*
X004835Y010070D01*
X004879Y010176D02*
X011582Y010176D01*
X011582Y010274D02*
X004882Y010274D01*
X004855Y010373D02*
X011582Y010373D01*
X011582Y010471D02*
X004785Y010471D01*
X004360Y010471D02*
X001217Y010471D01*
X001217Y010373D02*
X004289Y010373D01*
X004262Y010274D02*
X001217Y010274D01*
X001217Y010176D02*
X004266Y010176D01*
X004306Y010077D02*
X001218Y010077D01*
X001218Y009979D02*
X004407Y009979D01*
X004738Y009979D02*
X007327Y009979D01*
X007252Y009880D02*
X001218Y009880D01*
X001218Y009782D02*
X007222Y009782D01*
X007223Y009683D02*
X001218Y009683D01*
X001218Y009584D02*
X007263Y009584D01*
X007353Y009486D02*
X001218Y009486D01*
X001220Y008599D02*
X001829Y008599D01*
X005102Y006825D02*
X013262Y006825D01*
X013140Y006727D02*
X005102Y006727D01*
X003648Y004460D02*
X002776Y004460D01*
X002851Y004362D02*
X003573Y004362D01*
X003542Y004263D02*
X002882Y004263D01*
X002882Y004165D02*
X003542Y004165D01*
X003583Y004066D02*
X002842Y004066D01*
X002753Y003968D02*
X003672Y003968D01*
X005430Y003770D02*
X000754Y003770D01*
X000754Y003672D02*
X005430Y003672D01*
X005430Y003573D02*
X000755Y003573D01*
X000755Y003475D02*
X005429Y003475D01*
X005429Y003376D02*
X000755Y003376D01*
X000756Y003278D02*
X005429Y003278D01*
X005428Y003179D02*
X000756Y003179D01*
X000756Y003081D02*
X005428Y003081D01*
X005428Y002982D02*
X000757Y002982D01*
X000757Y002884D02*
X005428Y002884D01*
X005427Y002785D02*
X000757Y002785D01*
X000758Y002686D02*
X005427Y002686D01*
X005427Y002588D02*
X000758Y002588D01*
X000758Y002489D02*
X005426Y002489D01*
X005426Y002391D02*
X000758Y002391D01*
X000759Y002292D02*
X005426Y002292D01*
X005425Y002194D02*
X001515Y002194D01*
X001528Y002188D02*
X001414Y002236D01*
X001291Y002236D01*
X001177Y002188D01*
X001089Y002101D01*
X001042Y001987D01*
X001042Y001864D01*
X001089Y001750D01*
X001177Y001663D01*
X001291Y001616D01*
X001414Y001616D01*
X001528Y001663D01*
X001615Y001750D01*
X001662Y001864D01*
X001662Y001987D01*
X001615Y002101D01*
X001528Y002188D01*
X001617Y002095D02*
X005425Y002095D01*
X005425Y001997D02*
X001658Y001997D01*
X001662Y001898D02*
X005424Y001898D01*
X005424Y001800D02*
X001636Y001800D01*
X001566Y001701D02*
X005424Y001701D01*
X005424Y001602D02*
X000761Y001602D01*
X000761Y001504D02*
X005423Y001504D01*
X005423Y001405D02*
X000761Y001405D01*
X000762Y001307D02*
X005423Y001307D01*
X005422Y001208D02*
X000762Y001208D01*
X000761Y001701D02*
X001138Y001701D01*
X001069Y001800D02*
X000760Y001800D01*
X000760Y001898D02*
X001042Y001898D01*
X001046Y001997D02*
X000760Y001997D01*
X000759Y002095D02*
X001087Y002095D01*
X001190Y002194D02*
X000759Y002194D01*
X005645Y002095D02*
X007204Y002095D01*
X007156Y001997D02*
X005645Y001997D01*
X005644Y001898D02*
X007152Y001898D01*
X007187Y001800D02*
X005644Y001800D01*
X007397Y002489D02*
X009554Y002489D01*
X009735Y002588D02*
X007532Y002588D01*
X007572Y002686D02*
X008472Y002686D01*
X008471Y002785D02*
X007572Y002785D01*
X007532Y002884D02*
X008470Y002884D01*
X008469Y002982D02*
X007396Y002982D01*
X008689Y002982D02*
X014872Y002982D01*
X014881Y002884D02*
X013712Y002884D01*
X013498Y003313D02*
X013384Y003266D01*
X013261Y003266D01*
X013147Y003313D01*
X013059Y003400D01*
X013012Y003514D01*
X013012Y003637D01*
X013059Y003751D01*
X013147Y003838D01*
X013261Y003886D01*
X013384Y003886D01*
X013498Y003838D01*
X013585Y003751D01*
X013632Y003637D01*
X013632Y003514D01*
X013585Y003400D01*
X013498Y003313D01*
X013561Y003376D02*
X023255Y003376D01*
X023254Y003376D02*
X023652Y003376D01*
X023652Y003773D01*
X023597Y003764D01*
X023529Y003743D01*
X023466Y003710D01*
X023409Y003669D01*
X023359Y003619D01*
X023317Y003561D01*
X023285Y003498D01*
X023263Y003431D01*
X023254Y003376D01*
X023254Y003276D02*
X023263Y003220D01*
X023285Y003153D01*
X023317Y003090D01*
X023359Y003032D01*
X023409Y002982D01*
X023466Y002941D01*
X023529Y002909D01*
X023597Y002887D01*
X023652Y002878D01*
X023652Y003275D01*
X023752Y003275D01*
X023752Y002878D01*
X023808Y002887D01*
X023875Y002909D01*
X023938Y002941D01*
X023995Y002982D01*
X024294Y002982D01*
X024254Y003081D02*
X024080Y003081D01*
X024087Y003090D02*
X024119Y003153D01*
X024141Y003220D01*
X024150Y003276D01*
X023752Y003276D01*
X023752Y003376D01*
X023652Y003376D01*
X023752Y003376D01*
X023752Y003773D01*
X023808Y003764D01*
X023875Y003743D01*
X023938Y003710D01*
X023995Y003669D01*
X024045Y003619D01*
X024087Y003561D01*
X024119Y003498D01*
X024141Y003431D01*
X024150Y003376D01*
X024256Y003376D01*
X024232Y003278D02*
X023752Y003278D01*
X023752Y003376D02*
X024150Y003376D01*
X024127Y003475D02*
X024297Y003475D01*
X024385Y003573D02*
X024078Y003573D01*
X023991Y003672D02*
X024552Y003672D01*
X024853Y003672D02*
X025384Y003672D01*
X025436Y003724D02*
X025304Y003592D01*
X025232Y003419D01*
X025232Y003232D01*
X025304Y003059D01*
X025436Y002927D01*
X025609Y002856D01*
X025796Y002856D01*
X025968Y002927D01*
X026101Y003059D01*
X026172Y003232D01*
X026172Y003419D01*
X026101Y003592D01*
X025968Y003724D01*
X025796Y003796D01*
X025609Y003796D01*
X025436Y003724D01*
X025548Y003770D02*
X023770Y003770D01*
X023752Y003770D02*
X023652Y003770D01*
X023635Y003770D02*
X017595Y003770D01*
X017467Y003672D02*
X023413Y003672D01*
X023326Y003573D02*
X013632Y003573D01*
X013616Y003475D02*
X023278Y003475D01*
X023254Y003276D02*
X023652Y003276D01*
X023652Y003376D01*
X023652Y003278D02*
X013413Y003278D01*
X013231Y003278D02*
X008685Y003278D01*
X008684Y003376D02*
X013083Y003376D01*
X013028Y003475D02*
X008683Y003475D01*
X008682Y003573D02*
X011636Y003573D01*
X011544Y003672D02*
X008681Y003672D01*
X008680Y003770D02*
X011504Y003770D01*
X011502Y003869D02*
X008678Y003869D01*
X008677Y003968D02*
X011531Y003968D01*
X012093Y003968D02*
X017032Y003968D01*
X017043Y003869D02*
X013424Y003869D01*
X013566Y003770D02*
X017089Y003770D01*
X017217Y003672D02*
X013618Y003672D01*
X013221Y003869D02*
X012122Y003869D01*
X012121Y003770D02*
X013079Y003770D01*
X013027Y003672D02*
X012080Y003672D01*
X011988Y003573D02*
X013012Y003573D01*
X014894Y003081D02*
X008687Y003081D01*
X008686Y003179D02*
X014957Y003179D01*
X015407Y003179D02*
X023277Y003179D01*
X023324Y003081D02*
X015470Y003081D01*
X015492Y002982D02*
X023409Y002982D01*
X023616Y002884D02*
X015484Y002884D01*
X017202Y002588D02*
X010250Y002588D01*
X010430Y002489D02*
X017202Y002489D01*
X017202Y002391D02*
X010529Y002391D01*
X010603Y002292D02*
X017202Y002292D01*
X017202Y002194D02*
X010644Y002194D01*
X010685Y002095D02*
X017202Y002095D01*
X017202Y001997D02*
X010693Y001997D01*
X010693Y001898D02*
X017202Y001898D01*
X017422Y002095D02*
X023253Y002095D01*
X023242Y002194D02*
X017422Y002194D01*
X017422Y002292D02*
X023242Y002292D01*
X023276Y002391D02*
X017422Y002391D01*
X017422Y002489D02*
X023321Y002489D01*
X023420Y002588D02*
X017422Y002588D01*
X017422Y002686D02*
X024418Y002686D01*
X024320Y002588D02*
X024005Y002588D01*
X024103Y002489D02*
X024275Y002489D01*
X024242Y002391D02*
X024148Y002391D01*
X024182Y002292D02*
X024242Y002292D01*
X024254Y002194D02*
X024182Y002194D01*
X024171Y002095D02*
X024295Y002095D01*
X023805Y001800D02*
X025619Y001800D01*
X025805Y001800D02*
X027619Y001800D01*
X027805Y001800D02*
X030739Y001800D01*
X030896Y001602D02*
X031569Y001602D01*
X031427Y001504D02*
X031038Y001504D01*
X031108Y001405D02*
X031356Y001405D01*
X031315Y001307D02*
X031149Y001307D01*
X031152Y001208D02*
X031312Y001208D01*
X031896Y001602D02*
X031983Y001602D01*
X032040Y001701D02*
X010654Y001701D01*
X010693Y001800D02*
X023619Y001800D01*
X025006Y002686D02*
X026418Y002686D01*
X026320Y002588D02*
X026005Y002588D01*
X026103Y002489D02*
X026275Y002489D01*
X026242Y002391D02*
X026148Y002391D01*
X026182Y002292D02*
X026242Y002292D01*
X026254Y002194D02*
X026182Y002194D01*
X026171Y002095D02*
X026295Y002095D01*
X027130Y002095D02*
X027253Y002095D01*
X027242Y002194D02*
X027170Y002194D01*
X027182Y002292D02*
X027242Y002292D01*
X027276Y002391D02*
X027182Y002391D01*
X027149Y002489D02*
X027321Y002489D01*
X027420Y002588D02*
X027105Y002588D01*
X027006Y002686D02*
X028342Y002686D01*
X028342Y002588D02*
X028005Y002588D01*
X028103Y002489D02*
X028342Y002489D01*
X028342Y002391D02*
X028148Y002391D01*
X028182Y002292D02*
X028342Y002292D01*
X028342Y002194D02*
X028182Y002194D01*
X028171Y002095D02*
X028342Y002095D01*
X028342Y002785D02*
X026867Y002785D01*
X027025Y002884D02*
X027541Y002884D01*
X027609Y002856D02*
X027796Y002856D01*
X027968Y002927D01*
X028101Y003059D01*
X028172Y003232D01*
X028172Y003419D01*
X028101Y003592D01*
X027968Y003724D01*
X027796Y003796D01*
X027609Y003796D01*
X027436Y003724D01*
X027304Y003592D01*
X027232Y003419D01*
X027232Y003232D01*
X027304Y003059D01*
X027436Y002927D01*
X027609Y002856D01*
X027863Y002884D02*
X028342Y002884D01*
X028342Y002982D02*
X028023Y002982D01*
X028109Y003081D02*
X028342Y003081D01*
X028342Y003179D02*
X028150Y003179D01*
X028172Y003278D02*
X028342Y003278D01*
X028342Y003376D02*
X028172Y003376D01*
X028149Y003475D02*
X028342Y003475D01*
X028342Y003573D02*
X028108Y003573D01*
X028021Y003672D02*
X028342Y003672D01*
X028342Y003770D02*
X027856Y003770D01*
X027548Y003770D02*
X025856Y003770D01*
X026021Y003672D02*
X026552Y003672D01*
X026385Y003573D02*
X026108Y003573D01*
X026149Y003475D02*
X026297Y003475D01*
X026256Y003376D02*
X026172Y003376D01*
X026172Y003278D02*
X026232Y003278D01*
X026232Y003179D02*
X026150Y003179D01*
X026109Y003081D02*
X026254Y003081D01*
X026294Y002982D02*
X026023Y002982D01*
X025863Y002884D02*
X026380Y002884D01*
X026538Y002785D02*
X024867Y002785D01*
X025025Y002884D02*
X025541Y002884D01*
X025381Y002982D02*
X025110Y002982D01*
X025151Y003081D02*
X025295Y003081D01*
X025254Y003179D02*
X025172Y003179D01*
X025172Y003278D02*
X025232Y003278D01*
X025232Y003376D02*
X025149Y003376D01*
X025108Y003475D02*
X025255Y003475D01*
X025296Y003573D02*
X025019Y003573D01*
X024232Y003179D02*
X024128Y003179D01*
X024087Y003090D02*
X024045Y003032D01*
X023995Y002982D01*
X023788Y002884D02*
X024380Y002884D01*
X024538Y002785D02*
X017384Y002785D01*
X016055Y004854D02*
X015538Y004854D01*
X015636Y004953D02*
X015987Y004953D01*
X015962Y005051D02*
X015735Y005051D01*
X015833Y005150D02*
X015968Y005150D01*
X015932Y005249D02*
X016008Y005249D01*
X016030Y005347D02*
X016118Y005347D01*
X016129Y005446D02*
X016491Y005446D01*
X016462Y005347D02*
X016427Y005347D01*
X016562Y005544D02*
X016227Y005544D01*
X016582Y005051D02*
X016600Y005051D01*
X017122Y005840D02*
X028342Y005840D01*
X028342Y005938D02*
X017122Y005938D01*
X017112Y006037D02*
X028342Y006037D01*
X028342Y006135D02*
X017112Y006135D01*
X017112Y006234D02*
X028342Y006234D01*
X028342Y006333D02*
X017112Y006333D01*
X017112Y006431D02*
X028342Y006431D01*
X028342Y006530D02*
X017112Y006530D01*
X017112Y006628D02*
X028342Y006628D01*
X028342Y006727D02*
X017112Y006727D01*
X017169Y006825D02*
X028342Y006825D01*
X028562Y005150D02*
X030312Y005150D01*
X030346Y005051D02*
X028562Y005051D01*
X028562Y004953D02*
X030401Y004953D01*
X030507Y004854D02*
X028562Y004854D01*
X028562Y004756D02*
X033832Y004756D01*
X033832Y004854D02*
X031958Y004854D01*
X031970Y004860D02*
X032088Y004978D01*
X032152Y005132D01*
X032152Y005299D01*
X032088Y005453D01*
X031970Y005572D01*
X031816Y005636D01*
X031649Y005636D01*
X031494Y005572D01*
X031376Y005453D01*
X031312Y005299D01*
X031312Y005132D01*
X031376Y004978D01*
X031494Y004860D01*
X031649Y004796D01*
X031816Y004796D01*
X031970Y004860D01*
X032064Y004953D02*
X033832Y004953D01*
X033832Y005051D02*
X032119Y005051D01*
X032152Y005150D02*
X033832Y005150D01*
X033832Y005249D02*
X032152Y005249D01*
X032132Y005347D02*
X033832Y005347D01*
X033832Y005446D02*
X032091Y005446D01*
X031997Y005544D02*
X033832Y005544D01*
X033832Y005840D02*
X032023Y005840D01*
X032149Y005938D02*
X033832Y005938D01*
X033832Y006037D02*
X032213Y006037D01*
X032252Y006135D02*
X033832Y006135D01*
X033832Y006234D02*
X032252Y006234D01*
X032238Y006333D02*
X033832Y006333D01*
X033832Y006431D02*
X032198Y006431D01*
X032112Y006530D02*
X033832Y006530D01*
X033832Y006628D02*
X031934Y006628D01*
X032034Y006924D02*
X033832Y006924D01*
X033832Y007022D02*
X032107Y007022D01*
X032148Y007121D02*
X033832Y007121D01*
X033832Y007219D02*
X032152Y007219D01*
X032144Y007318D02*
X033832Y007318D01*
X033832Y007417D02*
X032104Y007417D01*
X032027Y007515D02*
X033832Y007515D01*
X031545Y007909D02*
X031120Y007909D01*
X031201Y008008D02*
X031464Y008008D01*
X031423Y008106D02*
X031241Y008106D01*
X031252Y008205D02*
X031412Y008205D01*
X031414Y008303D02*
X031250Y008303D01*
X031210Y008402D02*
X031455Y008402D01*
X031523Y008501D02*
X031141Y008501D01*
X031004Y008599D02*
X031661Y008599D01*
X031459Y008895D02*
X031005Y008895D01*
X031095Y008993D02*
X031370Y008993D01*
X031329Y009092D02*
X031135Y009092D01*
X031152Y009190D02*
X031312Y009190D01*
X031312Y009289D02*
X031152Y009289D01*
X031116Y009387D02*
X031349Y009387D01*
X031409Y009486D02*
X031056Y009486D01*
X030939Y009584D02*
X031525Y009584D01*
X031574Y009880D02*
X031091Y009880D01*
X031189Y009979D02*
X031476Y009979D01*
X031435Y010077D02*
X031229Y010077D01*
X031252Y010176D02*
X031412Y010176D01*
X031412Y010274D02*
X031252Y010274D01*
X031222Y010373D02*
X031443Y010373D01*
X031494Y010471D02*
X031170Y010471D01*
X031072Y010570D02*
X031593Y010570D01*
X031488Y010866D02*
X030976Y010866D01*
X031075Y010964D02*
X031390Y010964D01*
X031341Y011063D02*
X031123Y011063D01*
X031152Y011161D02*
X031312Y011161D01*
X031312Y011260D02*
X031152Y011260D01*
X031128Y011358D02*
X031337Y011358D01*
X031379Y011457D02*
X031085Y011457D01*
X030986Y011555D02*
X031478Y011555D01*
X031615Y011851D02*
X031049Y011851D01*
X031160Y011950D02*
X031504Y011950D01*
X031447Y012048D02*
X031217Y012048D01*
X031252Y012147D02*
X031412Y012147D01*
X031412Y012245D02*
X031252Y012245D01*
X031234Y012344D02*
X031431Y012344D01*
X031471Y012442D02*
X031193Y012442D01*
X031101Y012541D02*
X031563Y012541D01*
X031649Y012796D02*
X031816Y012796D01*
X031970Y012860D01*
X032088Y012978D01*
X032152Y013132D01*
X033832Y013132D01*
X033832Y013034D02*
X032111Y013034D01*
X032152Y013132D02*
X032152Y013299D01*
X032088Y013453D01*
X031970Y013572D01*
X031816Y013636D01*
X031649Y013636D01*
X031494Y013572D01*
X031376Y013453D01*
X031312Y013299D01*
X031312Y013132D01*
X031152Y013132D01*
X031088Y012978D01*
X030970Y012860D01*
X030816Y012796D01*
X030649Y012796D01*
X030494Y012860D01*
X030376Y012978D01*
X030312Y013132D01*
X028562Y013132D01*
X028562Y013034D02*
X030353Y013034D01*
X030312Y013132D02*
X030312Y013299D01*
X030376Y013453D01*
X030494Y013572D01*
X030649Y013636D01*
X030816Y013636D01*
X030970Y013572D01*
X031088Y013453D01*
X031152Y013299D01*
X031152Y013132D01*
X031152Y013231D02*
X031312Y013231D01*
X031325Y013329D02*
X031140Y013329D01*
X031099Y013428D02*
X031365Y013428D01*
X031449Y013526D02*
X031015Y013526D01*
X030842Y013625D02*
X031623Y013625D01*
X031685Y013822D02*
X030979Y013822D01*
X030916Y013796D02*
X031070Y013860D01*
X031188Y013978D01*
X031252Y014132D01*
X031252Y014299D01*
X031188Y014453D01*
X031070Y014572D01*
X030916Y014636D01*
X030749Y014636D01*
X030594Y014572D01*
X030476Y014453D01*
X030412Y014299D01*
X030412Y014132D01*
X030476Y013978D01*
X030594Y013860D01*
X030749Y013796D01*
X030916Y013796D01*
X030685Y013822D02*
X028562Y013822D01*
X028562Y013920D02*
X030533Y013920D01*
X030459Y014019D02*
X028562Y014019D01*
X028562Y014117D02*
X030418Y014117D01*
X030412Y014216D02*
X028562Y014216D01*
X028562Y014315D02*
X030419Y014315D01*
X030459Y014413D02*
X028562Y014413D01*
X028562Y014512D02*
X030534Y014512D01*
X030687Y014610D02*
X028562Y014610D01*
X028562Y014709D02*
X033832Y014709D01*
X033832Y014807D02*
X031844Y014807D01*
X031816Y014796D02*
X031970Y014860D01*
X032088Y014978D01*
X032152Y015132D01*
X032152Y015299D01*
X032088Y015453D01*
X031970Y015572D01*
X031816Y015636D01*
X031649Y015636D01*
X031494Y015572D01*
X031376Y015453D01*
X031312Y015299D01*
X031312Y015132D01*
X031376Y014978D01*
X031494Y014860D01*
X031649Y014796D01*
X031816Y014796D01*
X031749Y014636D02*
X031594Y014572D01*
X031476Y014453D01*
X031412Y014299D01*
X031412Y014132D01*
X031476Y013978D01*
X031594Y013860D01*
X031749Y013796D01*
X031916Y013796D01*
X032070Y013860D01*
X032188Y013978D01*
X032252Y014132D01*
X032252Y014299D01*
X032188Y014453D01*
X032070Y014572D01*
X031916Y014636D01*
X031749Y014636D01*
X031687Y014610D02*
X030977Y014610D01*
X031130Y014512D02*
X031534Y014512D01*
X031459Y014413D02*
X031205Y014413D01*
X031246Y014315D02*
X031419Y014315D01*
X031412Y014216D02*
X031252Y014216D01*
X031246Y014117D02*
X031418Y014117D01*
X031459Y014019D02*
X031205Y014019D01*
X031131Y013920D02*
X031533Y013920D01*
X031979Y013822D02*
X033832Y013822D01*
X033832Y013920D02*
X032131Y013920D01*
X032205Y014019D02*
X033832Y014019D01*
X033832Y014117D02*
X032246Y014117D01*
X032252Y014216D02*
X033832Y014216D01*
X033832Y014315D02*
X032246Y014315D01*
X032205Y014413D02*
X033832Y014413D01*
X033832Y014512D02*
X032130Y014512D01*
X031977Y014610D02*
X033832Y014610D01*
X033832Y014906D02*
X032016Y014906D01*
X032099Y015004D02*
X033832Y015004D01*
X033832Y015103D02*
X032140Y015103D01*
X032152Y015201D02*
X033832Y015201D01*
X033832Y015300D02*
X032152Y015300D01*
X032111Y015399D02*
X033832Y015399D01*
X033832Y015497D02*
X032045Y015497D01*
X031912Y015596D02*
X033832Y015596D01*
X033832Y015694D02*
X028562Y015694D01*
X028562Y015596D02*
X030552Y015596D01*
X030494Y015572D02*
X030376Y015453D01*
X030312Y015299D01*
X030312Y015132D01*
X030376Y014978D01*
X030494Y014860D01*
X030649Y014796D01*
X030816Y014796D01*
X030970Y014860D01*
X031088Y014978D01*
X031152Y015132D01*
X031152Y015299D01*
X031088Y015453D01*
X030970Y015572D01*
X030816Y015636D01*
X030649Y015636D01*
X030494Y015572D01*
X030420Y015497D02*
X028562Y015497D01*
X028562Y015399D02*
X030353Y015399D01*
X030313Y015300D02*
X028562Y015300D01*
X028562Y015201D02*
X030312Y015201D01*
X030324Y015103D02*
X028562Y015103D01*
X028562Y015004D02*
X030365Y015004D01*
X030448Y014906D02*
X028562Y014906D01*
X028562Y014807D02*
X030620Y014807D01*
X030844Y014807D02*
X031620Y014807D01*
X031448Y014906D02*
X031016Y014906D01*
X031099Y015004D02*
X031365Y015004D01*
X031324Y015103D02*
X031140Y015103D01*
X031152Y015201D02*
X031312Y015201D01*
X031313Y015300D02*
X031152Y015300D01*
X031111Y015399D02*
X031353Y015399D01*
X031420Y015497D02*
X031045Y015497D01*
X030912Y015596D02*
X031552Y015596D01*
X031563Y015891D02*
X031102Y015891D01*
X031193Y015990D02*
X031471Y015990D01*
X031430Y016088D02*
X031234Y016088D01*
X031252Y016187D02*
X031412Y016187D01*
X031412Y016285D02*
X031252Y016285D01*
X031217Y016384D02*
X031447Y016384D01*
X031505Y016483D02*
X031159Y016483D01*
X031047Y016581D02*
X031617Y016581D01*
X031477Y016877D02*
X030987Y016877D01*
X030970Y016860D02*
X031088Y016978D01*
X031152Y017132D01*
X031152Y017299D01*
X031088Y017453D01*
X030970Y017572D01*
X030816Y017636D01*
X030649Y017636D01*
X030494Y017572D01*
X030376Y017453D01*
X030312Y017299D01*
X030312Y017132D01*
X030376Y016978D01*
X030494Y016860D01*
X030649Y016796D01*
X030816Y016796D01*
X030970Y016860D01*
X031086Y016975D02*
X031379Y016975D01*
X031336Y017074D02*
X031128Y017074D01*
X031152Y017172D02*
X031312Y017172D01*
X031312Y017271D02*
X031152Y017271D01*
X031123Y017369D02*
X031341Y017369D01*
X031391Y017468D02*
X031074Y017468D01*
X030975Y017566D02*
X031489Y017566D01*
X031592Y017862D02*
X031073Y017862D01*
X031171Y017961D02*
X031493Y017961D01*
X031442Y018059D02*
X031222Y018059D01*
X031252Y018158D02*
X031412Y018158D01*
X031412Y018256D02*
X031252Y018256D01*
X031229Y018355D02*
X031435Y018355D01*
X031476Y018453D02*
X031594Y018572D01*
X031749Y018636D01*
X031916Y018636D01*
X032070Y018572D01*
X032188Y018453D01*
X032090Y018552D02*
X033832Y018552D01*
X033832Y018650D02*
X019232Y018650D01*
X019232Y018552D02*
X030575Y018552D01*
X030594Y018572D02*
X030749Y018636D01*
X030916Y018636D01*
X031070Y018572D01*
X031188Y018453D01*
X031090Y018552D02*
X031575Y018552D01*
X031649Y018796D02*
X031816Y018796D01*
X031970Y018860D01*
X032088Y018978D01*
X032152Y019132D01*
X032152Y019299D01*
X032088Y019453D01*
X031970Y019572D01*
X031816Y019636D01*
X031649Y019636D01*
X031494Y019572D01*
X031376Y019453D01*
X031312Y019299D01*
X031312Y019132D01*
X031376Y018978D01*
X031494Y018860D01*
X031649Y018796D01*
X031523Y018848D02*
X030941Y018848D01*
X031057Y018946D02*
X031408Y018946D01*
X031348Y019045D02*
X031116Y019045D01*
X031152Y019143D02*
X031312Y019143D01*
X031312Y019242D02*
X031152Y019242D01*
X031135Y019340D02*
X031329Y019340D01*
X031370Y019439D02*
X031094Y019439D01*
X031004Y019537D02*
X031460Y019537D01*
X032004Y019537D02*
X033832Y019537D01*
X033832Y019439D02*
X032094Y019439D01*
X032135Y019340D02*
X033832Y019340D01*
X033832Y019242D02*
X032152Y019242D01*
X032152Y019143D02*
X033832Y019143D01*
X033832Y019045D02*
X032116Y019045D01*
X032057Y018946D02*
X033832Y018946D01*
X033832Y018848D02*
X031941Y018848D01*
X030476Y018453D02*
X030412Y018299D01*
X030412Y018256D02*
X019232Y018256D01*
X019232Y018158D02*
X030412Y018158D01*
X030442Y018059D02*
X019232Y018059D01*
X019232Y017961D02*
X021940Y017961D01*
X021883Y017862D02*
X019232Y017862D01*
X019232Y017764D02*
X021872Y017764D01*
X021901Y017665D02*
X019609Y017665D01*
X019455Y017665D02*
X019232Y017665D01*
X019727Y017172D02*
X019802Y017172D01*
X019802Y017074D02*
X017672Y017074D01*
X017738Y016975D02*
X019802Y016975D01*
X019802Y016877D02*
X017762Y016877D01*
X017756Y016778D02*
X019802Y016778D01*
X019802Y016680D02*
X017715Y016680D01*
X017599Y016581D02*
X019802Y016581D01*
X019802Y016483D02*
X017339Y016483D01*
X017289Y016384D02*
X019802Y016384D01*
X019802Y016285D02*
X017152Y016285D01*
X016991Y016187D02*
X019802Y016187D01*
X019802Y016088D02*
X016943Y016088D01*
X016812Y015990D02*
X019802Y015990D01*
X019802Y015891D02*
X016808Y015891D01*
X016822Y015793D02*
X017940Y015793D01*
X017971Y015806D02*
X017857Y015758D01*
X017769Y015671D01*
X017722Y015557D01*
X017722Y015434D01*
X017769Y015320D01*
X017857Y015233D01*
X017971Y015186D01*
X018094Y015186D01*
X018208Y015233D01*
X018295Y015320D01*
X018342Y015434D01*
X018342Y015557D01*
X018295Y015671D01*
X018208Y015758D01*
X018094Y015806D01*
X017971Y015806D01*
X018125Y015793D02*
X019802Y015793D01*
X019802Y015694D02*
X018272Y015694D01*
X018326Y015596D02*
X019829Y015596D01*
X019894Y015497D02*
X018342Y015497D01*
X018327Y015399D02*
X020059Y015399D01*
X020205Y015399D02*
X021133Y015399D01*
X021271Y015399D02*
X024249Y015399D01*
X024108Y015300D02*
X018275Y015300D01*
X018132Y015201D02*
X024056Y015201D01*
X024648Y015201D02*
X025948Y015201D01*
X025831Y015103D02*
X025271Y015103D01*
X025354Y015004D02*
X025789Y015004D01*
X025782Y014906D02*
X025392Y014906D01*
X025392Y014807D02*
X025806Y014807D01*
X025871Y014709D02*
X025392Y014709D01*
X025544Y015399D02*
X028342Y015399D01*
X028342Y015497D02*
X025620Y015497D01*
X025652Y015596D02*
X028342Y015596D01*
X028342Y015694D02*
X025652Y015694D01*
X025613Y015793D02*
X028342Y015793D01*
X028342Y015891D02*
X025525Y015891D01*
X026735Y016680D02*
X028342Y016680D01*
X028342Y016778D02*
X026805Y016778D01*
X026832Y016877D02*
X028342Y016877D01*
X028342Y016975D02*
X026829Y016975D01*
X026788Y017074D02*
X028342Y017074D01*
X028342Y017172D02*
X026688Y017172D01*
X026356Y017172D02*
X020462Y017172D01*
X020462Y017074D02*
X026256Y017074D01*
X026216Y016975D02*
X020462Y016975D01*
X020462Y016877D02*
X026212Y016877D01*
X025310Y017369D02*
X028342Y017369D01*
X028342Y017271D02*
X025246Y017271D01*
X024799Y017271D02*
X020462Y017271D01*
X020462Y017369D02*
X024735Y017369D01*
X023257Y016285D02*
X022681Y016285D01*
X022787Y016187D02*
X023361Y016187D01*
X021078Y015990D02*
X020462Y015990D01*
X020462Y015891D02*
X020949Y015891D01*
X020903Y015793D02*
X020462Y015793D01*
X020462Y015694D02*
X020892Y015694D01*
X020912Y015596D02*
X020436Y015596D01*
X020370Y015497D02*
X020972Y015497D01*
X017932Y015201D02*
X015146Y015201D01*
X015216Y015300D02*
X017789Y015300D01*
X017737Y015399D02*
X015464Y015399D01*
X015534Y015497D02*
X016423Y015497D01*
X016602Y015497D02*
X017722Y015497D01*
X017738Y015596D02*
X016751Y015596D01*
X016806Y015694D02*
X017792Y015694D01*
X016409Y016088D02*
X015817Y016088D01*
X015842Y015990D02*
X016268Y015990D01*
X016216Y015891D02*
X015837Y015891D01*
X015796Y015793D02*
X016202Y015793D01*
X016219Y015694D02*
X015687Y015694D01*
X015562Y015596D02*
X016274Y015596D01*
X016393Y016187D02*
X015749Y016187D01*
X015315Y016187D02*
X012642Y016187D01*
X012720Y016285D02*
X016382Y016285D01*
X016402Y016384D02*
X012752Y016384D01*
X012752Y016483D02*
X016461Y016483D01*
X016620Y016581D02*
X012713Y016581D01*
X012627Y016680D02*
X012983Y016680D01*
X013222Y016680D02*
X016750Y016680D01*
X016806Y016778D02*
X013353Y016778D01*
X013401Y016877D02*
X016959Y016877D01*
X017125Y016877D02*
X017142Y016877D01*
X014360Y015201D02*
X009853Y015201D01*
X009951Y015103D02*
X014289Y015103D01*
X014262Y015004D02*
X010050Y015004D01*
X010149Y014906D02*
X014266Y014906D01*
X014306Y014807D02*
X010247Y014807D01*
X010346Y014709D02*
X014307Y014709D01*
X014221Y014610D02*
X010444Y014610D01*
X010543Y014512D02*
X014182Y014512D01*
X014028Y013723D02*
X000723Y013723D01*
X000723Y013822D02*
X010299Y013822D01*
X010201Y013920D02*
X000722Y013920D01*
X000722Y014019D02*
X010102Y014019D01*
X010004Y014117D02*
X000722Y014117D01*
X000722Y014216D02*
X009905Y014216D01*
X009807Y014315D02*
X000721Y014315D01*
X000721Y014413D02*
X009708Y014413D01*
X009609Y014512D02*
X004997Y014512D01*
X004988Y014503D02*
X005075Y014590D01*
X005122Y014704D01*
X005122Y014827D01*
X005075Y014941D01*
X004988Y015028D01*
X004874Y015076D01*
X004751Y015076D01*
X004637Y015028D01*
X004549Y014941D01*
X004502Y014827D01*
X004502Y014704D01*
X004549Y014590D01*
X004637Y014503D01*
X004751Y014456D01*
X004874Y014456D01*
X004988Y014503D01*
X005083Y014610D02*
X009511Y014610D01*
X009412Y014709D02*
X005984Y014709D01*
X006018Y014723D02*
X005904Y014676D01*
X005781Y014676D01*
X005667Y014723D01*
X005579Y014810D01*
X005532Y014924D01*
X005532Y015047D01*
X005579Y015161D01*
X005667Y015248D01*
X005781Y015296D01*
X005904Y015296D01*
X006018Y015248D01*
X006105Y015161D01*
X006152Y015047D01*
X006152Y014924D01*
X006105Y014810D01*
X006018Y014723D01*
X006102Y014807D02*
X009314Y014807D01*
X009215Y014906D02*
X006145Y014906D01*
X006152Y015004D02*
X009117Y015004D01*
X009056Y015103D02*
X006129Y015103D01*
X006065Y015201D02*
X009032Y015201D01*
X009032Y015300D02*
X005530Y015300D01*
X005552Y015354D02*
X005505Y015240D01*
X005418Y015153D01*
X005304Y015106D01*
X005181Y015106D01*
X005067Y015153D01*
X004979Y015240D01*
X004932Y015354D01*
X004932Y015477D01*
X004979Y015591D01*
X005067Y015678D01*
X005181Y015726D01*
X005304Y015726D01*
X005418Y015678D01*
X005505Y015591D01*
X005552Y015477D01*
X005552Y015354D01*
X005552Y015399D02*
X009032Y015399D01*
X009032Y015497D02*
X005544Y015497D01*
X005501Y015596D02*
X009032Y015596D01*
X009032Y015694D02*
X005380Y015694D01*
X005105Y015694D02*
X000717Y015694D01*
X000717Y015596D02*
X004984Y015596D01*
X004940Y015497D02*
X000718Y015497D01*
X000718Y015399D02*
X004932Y015399D01*
X004955Y015300D02*
X000718Y015300D01*
X000719Y015201D02*
X005018Y015201D01*
X005012Y015004D02*
X005532Y015004D01*
X005540Y014906D02*
X005090Y014906D01*
X005122Y014807D02*
X005582Y014807D01*
X005700Y014709D02*
X005122Y014709D01*
X004628Y014512D02*
X002497Y014512D01*
X002548Y014533D02*
X002635Y014620D01*
X002682Y014734D01*
X002682Y014857D01*
X002635Y014971D01*
X002548Y015058D01*
X002434Y015106D01*
X002311Y015106D01*
X002197Y015058D01*
X002109Y014971D01*
X002062Y014857D01*
X002062Y014734D01*
X002109Y014620D01*
X002197Y014533D01*
X002311Y014486D01*
X002434Y014486D01*
X002548Y014533D01*
X002625Y014610D02*
X004541Y014610D01*
X004502Y014709D02*
X002672Y014709D01*
X002682Y014807D02*
X004502Y014807D01*
X004535Y014906D02*
X002662Y014906D01*
X002602Y015004D02*
X004613Y015004D01*
X005466Y015201D02*
X005620Y015201D01*
X005555Y015103D02*
X002440Y015103D01*
X002304Y015103D02*
X000719Y015103D01*
X000719Y015004D02*
X002143Y015004D01*
X002082Y014906D02*
X000719Y014906D01*
X000720Y014807D02*
X002062Y014807D01*
X002073Y014709D02*
X000720Y014709D01*
X000720Y014610D02*
X002119Y014610D01*
X002248Y014512D02*
X000721Y014512D01*
X001110Y013625D02*
X014126Y013625D01*
X014225Y013526D02*
X001181Y013526D01*
X001212Y013428D02*
X014323Y013428D01*
X014422Y013329D02*
X001212Y013329D01*
X001214Y012442D02*
X011582Y012442D01*
X011582Y012344D02*
X001214Y012344D01*
X001214Y012245D02*
X011582Y012245D01*
X011582Y012147D02*
X001214Y012147D01*
X001214Y012048D02*
X011582Y012048D01*
X011582Y011950D02*
X011527Y011950D01*
X011278Y011950D02*
X001214Y011950D01*
X001215Y011851D02*
X011149Y011851D01*
X011103Y011752D02*
X001215Y011752D01*
X001215Y011654D02*
X011092Y011654D01*
X011112Y011555D02*
X001215Y011555D01*
X001215Y011457D02*
X011173Y011457D01*
X011334Y011358D02*
X001215Y011358D01*
X001216Y011260D02*
X011582Y011260D01*
X011582Y011358D02*
X011470Y011358D01*
X011582Y011161D02*
X001216Y011161D01*
X001216Y011063D02*
X011582Y011063D01*
X011582Y010964D02*
X001216Y010964D01*
X001216Y010866D02*
X011582Y010866D01*
X011582Y010767D02*
X001216Y010767D01*
X001217Y010668D02*
X011582Y010668D01*
X011582Y010570D02*
X001217Y010570D01*
X008003Y008993D02*
X008881Y008993D01*
X008828Y008895D02*
X008086Y008895D01*
X008122Y008796D02*
X008812Y008796D01*
X008827Y008698D02*
X008122Y008698D01*
X012242Y010176D02*
X017116Y010176D01*
X016965Y010274D02*
X012242Y010274D01*
X012242Y010373D02*
X016909Y010373D01*
X016892Y010471D02*
X012242Y010471D01*
X012242Y010570D02*
X016906Y010570D01*
X017640Y010767D02*
X018732Y010767D01*
X018678Y010866D02*
X017688Y010866D01*
X017702Y010964D02*
X018662Y010964D01*
X018677Y011063D02*
X017689Y011063D01*
X017643Y011161D02*
X018729Y011161D01*
X018831Y011260D02*
X017524Y011260D01*
X018762Y011358D02*
X016132Y011358D01*
X016002Y011654D02*
X018732Y011654D01*
X018732Y011752D02*
X012242Y011752D01*
X012242Y011851D02*
X018732Y011851D01*
X018732Y011950D02*
X012242Y011950D01*
X012242Y012048D02*
X018732Y012048D01*
X019392Y011851D02*
X021261Y011851D01*
X021162Y011752D02*
X019392Y011752D01*
X019392Y011654D02*
X021064Y011654D01*
X020965Y011555D02*
X019468Y011555D01*
X019565Y011457D02*
X020867Y011457D01*
X020768Y011358D02*
X019663Y011358D01*
X019761Y011260D02*
X019958Y011260D01*
X019871Y011161D02*
X019858Y011161D01*
X020326Y011260D02*
X020670Y011260D01*
X020571Y011161D02*
X020413Y011161D01*
X020452Y011063D02*
X020473Y011063D01*
X025230Y012048D02*
X025349Y012048D01*
X025340Y012147D02*
X025342Y012147D01*
X025724Y012442D02*
X025872Y012442D01*
X025959Y012541D02*
X025762Y012541D01*
X025948Y012738D02*
X026908Y012738D01*
X027016Y012836D02*
X026047Y012836D01*
X026145Y012935D02*
X028342Y012935D01*
X028342Y013034D02*
X026244Y013034D01*
X026342Y013132D02*
X028342Y013132D01*
X028342Y013231D02*
X026441Y013231D01*
X026539Y013329D02*
X028342Y013329D01*
X028342Y013428D02*
X026638Y013428D01*
X027328Y012836D02*
X028342Y012836D01*
X028342Y012738D02*
X027436Y012738D01*
X027477Y012639D02*
X028342Y012639D01*
X028342Y012541D02*
X027482Y012541D01*
X027457Y012442D02*
X028342Y012442D01*
X028342Y012344D02*
X027389Y012344D01*
X028562Y012738D02*
X033832Y012738D01*
X033832Y012836D02*
X031914Y012836D01*
X032046Y012935D02*
X033832Y012935D01*
X033832Y013231D02*
X032152Y013231D01*
X032140Y013329D02*
X033832Y013329D01*
X033832Y013428D02*
X032099Y013428D01*
X032015Y013526D02*
X033832Y013526D01*
X033832Y013625D02*
X031842Y013625D01*
X031312Y013132D02*
X031376Y012978D01*
X031494Y012860D01*
X031649Y012796D01*
X031550Y012836D02*
X030914Y012836D01*
X031046Y012935D02*
X031419Y012935D01*
X031353Y013034D02*
X031111Y013034D01*
X030550Y012836D02*
X028562Y012836D01*
X028562Y012935D02*
X030419Y012935D01*
X030312Y013231D02*
X028562Y013231D01*
X028562Y013329D02*
X030325Y013329D01*
X030365Y013428D02*
X028562Y013428D01*
X028562Y013526D02*
X030449Y013526D01*
X030623Y013625D02*
X028562Y013625D01*
X028562Y013723D02*
X033832Y013723D01*
X030477Y016877D02*
X028562Y016877D01*
X028562Y016975D02*
X030379Y016975D01*
X030336Y017074D02*
X028562Y017074D01*
X028562Y017172D02*
X030312Y017172D01*
X030312Y017271D02*
X028562Y017271D01*
X028562Y017369D02*
X030341Y017369D01*
X030391Y017468D02*
X028562Y017468D01*
X028562Y017566D02*
X030489Y017566D01*
X030312Y019143D02*
X020754Y019143D01*
X020838Y019242D02*
X021968Y019242D01*
X021975Y019235D02*
X022070Y019196D01*
X022174Y019196D01*
X022269Y019235D01*
X022343Y019308D01*
X022382Y019404D01*
X022382Y019507D01*
X022343Y019603D01*
X022269Y019676D01*
X022174Y019716D01*
X022070Y019716D01*
X021975Y019676D01*
X021902Y019603D01*
X021862Y019507D01*
X021862Y019404D01*
X021902Y019308D01*
X021975Y019235D01*
X021889Y019340D02*
X020879Y019340D01*
X020892Y019439D02*
X021862Y019439D01*
X021875Y019537D02*
X020892Y019537D01*
X020852Y019636D02*
X021935Y019636D01*
X022310Y019636D02*
X023834Y019636D01*
X023802Y019734D02*
X020787Y019734D01*
X020659Y019833D02*
X023809Y019833D01*
X023860Y019932D02*
X019662Y019932D01*
X019789Y019833D02*
X020286Y019833D01*
X020157Y019734D02*
X019853Y019734D01*
X019892Y019636D02*
X020092Y019636D01*
X020052Y019537D02*
X019892Y019537D01*
X019878Y019439D02*
X020052Y019439D01*
X020065Y019340D02*
X019838Y019340D01*
X019752Y019242D02*
X020106Y019242D01*
X020191Y019143D02*
X019574Y019143D01*
X019370Y019143D02*
X019232Y019143D01*
X019232Y018749D02*
X033832Y018749D01*
X033832Y019636D02*
X024290Y019636D01*
X024322Y019734D02*
X033832Y019734D01*
X033832Y019833D02*
X032006Y019833D01*
X032142Y019932D02*
X033832Y019932D01*
X033832Y020030D02*
X032210Y020030D01*
X032251Y020129D02*
X033832Y020129D01*
X033832Y020227D02*
X032252Y020227D01*
X032241Y020326D02*
X033832Y020326D01*
X033832Y020424D02*
X032200Y020424D01*
X031464Y020424D02*
X031200Y020424D01*
X031241Y020326D02*
X031423Y020326D01*
X031412Y020227D02*
X031252Y020227D01*
X031251Y020129D02*
X031414Y020129D01*
X031454Y020030D02*
X031210Y020030D01*
X031142Y019932D02*
X031522Y019932D01*
X031658Y019833D02*
X031006Y019833D01*
X030658Y019833D02*
X024316Y019833D01*
X024264Y019932D02*
X030522Y019932D01*
X030460Y019537D02*
X024191Y019537D01*
X023934Y019537D02*
X022370Y019537D01*
X022382Y019439D02*
X030370Y019439D01*
X030329Y019340D02*
X022356Y019340D01*
X022276Y019242D02*
X030312Y019242D01*
X019282Y019932D02*
X019232Y019932D01*
X019012Y020030D02*
X007382Y020030D01*
X007364Y020074D02*
X007161Y020277D01*
X006896Y020387D01*
X006609Y020387D01*
X006344Y020277D01*
X006141Y020074D01*
X006031Y019809D01*
X006031Y019522D01*
X006141Y019257D01*
X006344Y019054D01*
X006609Y018944D01*
X006896Y018944D01*
X007161Y019054D01*
X007364Y019257D01*
X007473Y019522D01*
X007473Y019809D01*
X007364Y020074D01*
X007309Y020129D02*
X019012Y020129D01*
X019012Y020227D02*
X007210Y020227D01*
X007043Y020326D02*
X019012Y020326D01*
X019012Y020424D02*
X000702Y020424D01*
X000703Y020326D02*
X006461Y020326D01*
X006294Y020227D02*
X004159Y020227D01*
X004158Y020228D02*
X004044Y020276D01*
X003921Y020276D01*
X003807Y020228D01*
X003719Y020141D01*
X003672Y020027D01*
X003672Y019904D01*
X003719Y019790D01*
X003807Y019703D01*
X003921Y019656D01*
X004044Y019656D01*
X004158Y019703D01*
X004245Y019790D01*
X004292Y019904D01*
X004292Y020027D01*
X004245Y020141D01*
X004158Y020228D01*
X004250Y020129D02*
X006195Y020129D01*
X006123Y020030D02*
X004291Y020030D01*
X004292Y019932D02*
X006082Y019932D01*
X006041Y019833D02*
X004263Y019833D01*
X004189Y019734D02*
X006031Y019734D01*
X006031Y019636D02*
X000705Y019636D01*
X000704Y019734D02*
X003775Y019734D01*
X003702Y019833D02*
X000704Y019833D01*
X000704Y019932D02*
X003672Y019932D01*
X003673Y020030D02*
X000703Y020030D01*
X000703Y020129D02*
X003714Y020129D01*
X003805Y020227D02*
X000703Y020227D01*
X000705Y019537D02*
X006031Y019537D01*
X006066Y019439D02*
X000705Y019439D01*
X000706Y019340D02*
X006106Y019340D01*
X006156Y019242D02*
X000706Y019242D01*
X000706Y019143D02*
X006255Y019143D01*
X006367Y019045D02*
X000707Y019045D01*
X000707Y018946D02*
X006605Y018946D01*
X006900Y018946D02*
X008967Y018946D01*
X008924Y019045D02*
X007138Y019045D01*
X007250Y019143D02*
X008892Y019143D01*
X008892Y019242D02*
X007348Y019242D01*
X007398Y019340D02*
X008905Y019340D01*
X008946Y019439D02*
X007439Y019439D01*
X007473Y019537D02*
X009019Y019537D01*
X009149Y019636D02*
X007473Y019636D01*
X007473Y019734D02*
X017038Y019734D01*
X017002Y019636D02*
X013576Y019636D01*
X013149Y019636D02*
X011576Y019636D01*
X011149Y019636D02*
X009576Y019636D01*
X009032Y018848D02*
X000707Y018848D01*
X000707Y018749D02*
X008227Y018749D01*
X008237Y018758D02*
X008149Y018671D01*
X008102Y018557D01*
X008102Y018434D01*
X008149Y018320D01*
X008237Y018233D01*
X008351Y018186D01*
X008474Y018186D01*
X008588Y018233D01*
X008675Y018320D01*
X008722Y018434D01*
X008722Y018557D01*
X008675Y018671D01*
X008588Y018758D01*
X008474Y018806D01*
X008351Y018806D01*
X008237Y018758D01*
X008141Y018650D02*
X002520Y018650D01*
X002484Y018666D02*
X002361Y018666D01*
X002247Y018618D01*
X002159Y018531D01*
X002112Y018417D01*
X002112Y018294D01*
X002159Y018180D01*
X002247Y018093D01*
X002361Y018046D01*
X002484Y018046D01*
X002598Y018093D01*
X002685Y018180D01*
X002732Y018294D01*
X002732Y018417D01*
X002685Y018531D01*
X002598Y018618D01*
X002484Y018666D01*
X002324Y018650D02*
X000708Y018650D01*
X000708Y018552D02*
X002180Y018552D01*
X002127Y018453D02*
X000708Y018453D01*
X000709Y018355D02*
X002112Y018355D01*
X002128Y018256D02*
X000709Y018256D01*
X000709Y018158D02*
X002182Y018158D01*
X002328Y018059D02*
X000710Y018059D01*
X000710Y017961D02*
X009032Y017961D01*
X009032Y018059D02*
X002517Y018059D01*
X002663Y018158D02*
X009032Y018158D01*
X009032Y018256D02*
X008611Y018256D01*
X008689Y018355D02*
X009032Y018355D01*
X009032Y018453D02*
X008722Y018453D01*
X008722Y018552D02*
X009032Y018552D01*
X009032Y018650D02*
X008684Y018650D01*
X008597Y018749D02*
X009032Y018749D01*
X008102Y018552D02*
X002664Y018552D01*
X002717Y018453D02*
X008102Y018453D01*
X008135Y018355D02*
X002732Y018355D01*
X002717Y018256D02*
X008213Y018256D01*
X009032Y017862D02*
X000710Y017862D01*
X000711Y017764D02*
X009032Y017764D01*
X009032Y017665D02*
X000711Y017665D01*
X000711Y017566D02*
X009032Y017566D01*
X009032Y017468D02*
X000711Y017468D01*
X000712Y017369D02*
X009032Y017369D01*
X009032Y017271D02*
X000712Y017271D01*
X000712Y017172D02*
X009032Y017172D01*
X009032Y017074D02*
X006972Y017074D01*
X006958Y017088D02*
X006844Y017136D01*
X006721Y017136D01*
X006607Y017088D01*
X006519Y017001D01*
X006472Y016887D01*
X006472Y016764D01*
X006519Y016650D01*
X006607Y016563D01*
X006721Y016516D01*
X006844Y016516D01*
X006958Y016563D01*
X007045Y016650D01*
X007092Y016764D01*
X007092Y016887D01*
X007045Y017001D01*
X006958Y017088D01*
X007056Y016975D02*
X009032Y016975D01*
X009032Y016877D02*
X007092Y016877D01*
X007092Y016778D02*
X009032Y016778D01*
X009032Y016680D02*
X007057Y016680D01*
X006976Y016581D02*
X009032Y016581D01*
X009032Y016483D02*
X000714Y016483D01*
X000714Y016581D02*
X006588Y016581D01*
X006507Y016680D02*
X000714Y016680D01*
X000714Y016778D02*
X006472Y016778D01*
X006472Y016877D02*
X000713Y016877D01*
X000713Y016975D02*
X006509Y016975D01*
X006592Y017074D02*
X000713Y017074D01*
X000715Y016384D02*
X009032Y016384D01*
X009032Y016285D02*
X000715Y016285D01*
X000715Y016187D02*
X009032Y016187D01*
X009032Y016088D02*
X000716Y016088D01*
X000716Y015990D02*
X009032Y015990D01*
X009032Y015891D02*
X000716Y015891D01*
X000717Y015793D02*
X009032Y015793D01*
X009692Y015891D02*
X010310Y015891D01*
X010215Y015990D02*
X009692Y015990D01*
X009692Y016088D02*
X010174Y016088D01*
X010172Y016187D02*
X009692Y016187D01*
X009692Y016285D02*
X010200Y016285D01*
X010272Y016384D02*
X009692Y016384D01*
X009692Y016483D02*
X010217Y016483D01*
X010172Y016581D02*
X009692Y016581D01*
X009692Y016680D02*
X010162Y016680D01*
X010183Y016778D02*
X009692Y016778D01*
X009692Y016877D02*
X010245Y016877D01*
X010410Y016975D02*
X009692Y016975D01*
X009692Y017074D02*
X011656Y017074D01*
X011632Y016975D02*
X010535Y016975D01*
X010699Y016877D02*
X011639Y016877D01*
X011681Y016778D02*
X010761Y016778D01*
X010782Y016680D02*
X011798Y016680D01*
X011721Y017172D02*
X009692Y017172D01*
X007463Y019833D02*
X017085Y019833D01*
X017183Y019932D02*
X007423Y019932D01*
X016566Y019340D02*
X017053Y019340D01*
X017121Y019242D02*
X016635Y019242D01*
X016452Y006628D02*
X013699Y006628D01*
X013707Y006530D02*
X016452Y006530D01*
X016452Y006431D02*
X013685Y006431D01*
X013623Y006333D02*
X016452Y006333D01*
X012569Y006135D02*
X012297Y006135D01*
X012194Y006037D02*
X012508Y006037D01*
X010384Y005249D02*
X009956Y005249D01*
X010054Y005150D02*
X010228Y005150D01*
X010171Y005051D02*
X010153Y005051D01*
X009515Y004756D02*
X008574Y004756D01*
X008739Y004854D02*
X009417Y004854D01*
X009318Y004953D02*
X008801Y004953D01*
X008822Y005051D02*
X009220Y005051D01*
X009121Y005150D02*
X008813Y005150D01*
X008768Y005249D02*
X009023Y005249D01*
X023652Y003672D02*
X023752Y003672D01*
X023752Y003573D02*
X023652Y003573D01*
X023652Y003475D02*
X023752Y003475D01*
X023752Y003179D02*
X023652Y003179D01*
X023652Y003081D02*
X023752Y003081D01*
X023752Y002982D02*
X023652Y002982D01*
X023652Y002884D02*
X023752Y002884D01*
X025105Y002588D02*
X025420Y002588D01*
X025321Y002489D02*
X025149Y002489D01*
X025182Y002391D02*
X025276Y002391D01*
X025242Y002292D02*
X025182Y002292D01*
X025170Y002194D02*
X025242Y002194D01*
X025253Y002095D02*
X025130Y002095D01*
X027110Y002982D02*
X027381Y002982D01*
X027295Y003081D02*
X027151Y003081D01*
X027172Y003179D02*
X027254Y003179D01*
X027232Y003278D02*
X027172Y003278D01*
X027149Y003376D02*
X027232Y003376D01*
X027255Y003475D02*
X027108Y003475D01*
X027019Y003573D02*
X027296Y003573D01*
X027384Y003672D02*
X026853Y003672D01*
X028016Y004362D02*
X028342Y004362D01*
X028342Y004460D02*
X028147Y004460D01*
X028245Y004559D02*
X028342Y004559D01*
X028342Y004657D02*
X028303Y004657D01*
X030958Y004854D02*
X031507Y004854D01*
X031401Y004953D02*
X031064Y004953D01*
X031119Y005051D02*
X031346Y005051D01*
X031312Y005150D02*
X031152Y005150D01*
X031152Y005249D02*
X031312Y005249D01*
X031332Y005347D02*
X031132Y005347D01*
X031091Y005446D02*
X031373Y005446D01*
X031467Y005544D02*
X030997Y005544D01*
X031023Y005840D02*
X031642Y005840D01*
X031515Y005938D02*
X031149Y005938D01*
X031213Y006037D02*
X031452Y006037D01*
X031412Y006135D02*
X031252Y006135D01*
X031252Y006234D02*
X031412Y006234D01*
X031426Y006333D02*
X031238Y006333D01*
X031198Y006431D02*
X031467Y006431D01*
X031552Y006530D02*
X031112Y006530D01*
X031083Y004559D02*
X031581Y004559D01*
X031483Y004460D02*
X031181Y004460D01*
X031226Y004362D02*
X031438Y004362D01*
X031412Y004263D02*
X031252Y004263D01*
X031252Y004165D02*
X031412Y004165D01*
X031439Y004066D02*
X031225Y004066D01*
X031178Y003968D02*
X031486Y003968D01*
X031585Y003869D02*
X031080Y003869D01*
X032424Y001701D02*
X033832Y001701D01*
X033832Y001602D02*
X032482Y001602D01*
X032492Y001504D02*
X033832Y001504D01*
X033832Y001405D02*
X032464Y001405D01*
X032381Y001307D02*
X033832Y001307D01*
X033832Y001208D02*
X032152Y001208D01*
M02*
