G75*
G70*
%OFA0B0*%
%FSLAX24Y24*%
%IPPOS*%
%LPD*%
%AMOC8*
5,1,8,0,0,1.08239X$1,22.5*
%
%ADD10C,0.1182*%
%ADD11C,0.0680*%
%ADD12R,0.1180X0.0330*%
%ADD13R,0.0680X0.0680*%
%ADD14C,0.0360*%
D10*
X009992Y001936D03*
X027662Y004996D03*
X006752Y019666D03*
D11*
X009362Y019216D03*
X010362Y019116D03*
X011362Y019216D03*
X012362Y019116D03*
X013362Y019216D03*
X014362Y019116D03*
X017472Y019556D03*
X018472Y019456D03*
X019472Y019556D03*
X030732Y019216D03*
X031732Y019216D03*
X031832Y020216D03*
X031832Y018216D03*
X030832Y018216D03*
X030732Y017216D03*
X031732Y017216D03*
X031832Y016216D03*
X030832Y016216D03*
X030732Y015216D03*
X031732Y015216D03*
X031832Y014216D03*
X030832Y014216D03*
X030732Y013216D03*
X031732Y013216D03*
X031832Y012216D03*
X030832Y012216D03*
X030732Y011216D03*
X031732Y011216D03*
X031832Y010216D03*
X030832Y010216D03*
X030732Y009216D03*
X031732Y009216D03*
X031832Y008216D03*
X030832Y008216D03*
X030732Y007216D03*
X031732Y007216D03*
X031832Y006216D03*
X030832Y006216D03*
X030732Y005216D03*
X031732Y005216D03*
X031832Y004216D03*
X030832Y004216D03*
X030732Y003216D03*
X031732Y003216D03*
X031832Y002216D03*
X030832Y002216D03*
X030732Y001216D03*
X031732Y001216D03*
X027712Y002216D03*
X026712Y002316D03*
X025712Y002216D03*
X024712Y002316D03*
X023712Y002216D03*
X023702Y003326D03*
X024702Y003226D03*
X025702Y003326D03*
X026702Y003226D03*
X027702Y003326D03*
D12*
X033282Y003216D03*
X033282Y004216D03*
X033282Y005216D03*
X033282Y006216D03*
X033282Y007216D03*
X033282Y008216D03*
X033282Y009216D03*
X033282Y010216D03*
X033282Y011216D03*
X033282Y012216D03*
X033282Y013216D03*
X033282Y014216D03*
X033282Y015216D03*
X033282Y016216D03*
X033282Y017216D03*
X033282Y018216D03*
X033282Y019216D03*
X033282Y020216D03*
X033282Y002216D03*
X033282Y001216D03*
D13*
X020472Y019456D03*
X030832Y020216D03*
D14*
X001352Y001926D03*
X001892Y003206D03*
X002572Y004226D03*
X003232Y005076D03*
X002462Y005686D03*
X002902Y006316D03*
X003502Y006306D03*
X004262Y006306D03*
X004192Y005776D03*
X005922Y004986D03*
X006372Y005646D03*
X007332Y006146D03*
X008942Y006146D03*
X008512Y005066D03*
X010462Y004946D03*
X010752Y005426D03*
X010432Y005756D03*
X012032Y006306D03*
X012797Y005926D03*
X012247Y005396D03*
X013902Y005046D03*
X014402Y003936D03*
X013322Y003576D03*
X011812Y003836D03*
X015182Y002966D03*
X016372Y003276D03*
X017342Y003956D03*
X016272Y005076D03*
X016772Y005316D03*
X016792Y005886D03*
X018762Y007486D03*
X016292Y008606D03*
X014237Y008386D03*
X014237Y007886D03*
X014237Y007386D03*
X013887Y007036D03*
X013397Y006546D03*
X012032Y007666D03*
X011912Y008656D03*
X011292Y010166D03*
X011402Y011666D03*
X011912Y012656D03*
X014502Y011816D03*
X015822Y011396D03*
X016692Y012386D03*
X018272Y012476D03*
X018972Y010966D03*
X020142Y011006D03*
X020932Y010126D03*
X021542Y010296D03*
X022132Y009776D03*
X020142Y009246D03*
X018662Y010126D03*
X017372Y010966D03*
X017202Y010476D03*
X014237Y008886D03*
X009122Y008796D03*
X007812Y008746D03*
X007502Y009306D03*
X007532Y009746D03*
X004572Y010246D03*
X004492Y008866D03*
X005422Y007596D03*
X007352Y007906D03*
X003852Y004226D03*
X005822Y003866D03*
X007312Y002736D03*
X007412Y001936D03*
X001332Y005886D03*
X001472Y007776D03*
X006152Y012846D03*
X004812Y014766D03*
X005242Y015416D03*
X005842Y014986D03*
X006782Y016826D03*
X008412Y018496D03*
X010472Y016666D03*
X010482Y016156D03*
X010492Y015396D03*
X012442Y016426D03*
X011942Y016956D03*
X013102Y016966D03*
X014952Y017336D03*
X016692Y016276D03*
X017042Y016576D03*
X017452Y016856D03*
X016512Y015796D03*
X015532Y015966D03*
X015252Y015626D03*
X014932Y015426D03*
X014572Y014976D03*
X014492Y014456D03*
X015022Y014046D03*
X018032Y015496D03*
X019892Y015406D03*
X020132Y015726D03*
X021202Y015706D03*
X021932Y014816D03*
X022762Y015466D03*
X022522Y016016D03*
X023522Y016456D03*
X024302Y016266D03*
X024882Y016326D03*
X025342Y015636D03*
X026002Y015776D03*
X026092Y014926D03*
X025482Y013756D03*
X025052Y013866D03*
X025452Y012596D03*
X025652Y012126D03*
X026142Y012286D03*
X027172Y012566D03*
X025142Y011756D03*
X024472Y011526D03*
X023582Y011806D03*
X022932Y011806D03*
X022522Y011976D03*
X021482Y012316D03*
X022132Y013156D03*
X021532Y013286D03*
X021212Y014036D03*
X024082Y012416D03*
X025672Y010336D03*
X026292Y010216D03*
X027922Y009896D03*
X022132Y008146D03*
X020112Y004826D03*
X017652Y002376D03*
X032232Y001526D03*
X024352Y015106D03*
X026522Y016906D03*
X025022Y017486D03*
X022132Y017786D03*
X022122Y019456D03*
X024062Y019766D03*
X019532Y017416D03*
X016352Y019116D03*
X005122Y018496D03*
X003982Y019966D03*
X002422Y018356D03*
X000832Y019936D03*
X000832Y016526D03*
X002372Y014796D03*
X000882Y013386D03*
M02*
