G75*
G70*
%OFA0B0*%
%FSLAX24Y24*%
%IPPOS*%
%LPD*%
%AMOC8*
5,1,8,0,0,1.08239X$1,22.5*
%
%ADD10R,0.0550X0.0137*%
%ADD11R,0.0295X0.0118*%
%ADD12R,0.0118X0.0295*%
%ADD13R,0.0354X0.0276*%
%ADD14R,0.0591X0.0512*%
%ADD15R,0.0710X0.0790*%
%ADD16R,0.0240X0.0120*%
%ADD17C,0.0060*%
%ADD18R,0.0276X0.0354*%
%ADD19R,0.0098X0.0276*%
%ADD20R,0.0276X0.0098*%
%ADD21R,0.0571X0.0571*%
%ADD22R,0.3307X0.0394*%
%ADD23C,0.0600*%
%ADD24R,0.0866X0.0984*%
%ADD25R,0.0787X0.0197*%
%ADD26R,0.0315X0.0315*%
%ADD27R,0.0472X0.0256*%
%ADD28R,0.2000X0.1900*%
%ADD29R,0.0300X0.0140*%
%ADD30R,0.1100X0.0250*%
%ADD31R,0.0600X0.0600*%
%ADD32R,0.1004X0.1063*%
%ADD33C,0.0100*%
%ADD34C,0.0080*%
%ADD35C,0.0280*%
%ADD36C,0.0240*%
%ADD37C,0.0320*%
%ADD38C,0.0160*%
D10*
X006753Y007262D03*
X006753Y007518D03*
X006753Y007774D03*
X006753Y008030D03*
X006753Y008286D03*
X006753Y008542D03*
X006753Y008798D03*
X006753Y009054D03*
X006753Y009309D03*
X006753Y009565D03*
X006753Y009821D03*
X006753Y010077D03*
X006753Y010333D03*
X006753Y010589D03*
X009632Y010589D03*
X009632Y010333D03*
X009632Y010077D03*
X009632Y009821D03*
X009632Y009565D03*
X009632Y009309D03*
X009632Y009054D03*
X009632Y008798D03*
X009632Y008542D03*
X009632Y008286D03*
X009632Y008030D03*
X009632Y007774D03*
X009632Y007518D03*
X009632Y007262D03*
D11*
X011307Y007269D03*
X011307Y007466D03*
X011307Y007662D03*
X011307Y007859D03*
X011307Y008056D03*
X011307Y008253D03*
X011307Y008450D03*
X011307Y008647D03*
X011307Y008844D03*
X011307Y009040D03*
X011307Y009237D03*
X011307Y009434D03*
X011307Y009631D03*
X011307Y009828D03*
X011307Y007072D03*
X011307Y006875D03*
X011307Y006678D03*
X011307Y006481D03*
X011307Y006284D03*
X011307Y006088D03*
X011307Y005891D03*
X011307Y005694D03*
X011307Y005497D03*
X011307Y005300D03*
X011307Y005103D03*
X017508Y005103D03*
X017508Y005300D03*
X017508Y005497D03*
X017508Y005694D03*
X017508Y005891D03*
X017508Y006088D03*
X017508Y006284D03*
X017508Y006481D03*
X017508Y006678D03*
X017508Y006875D03*
X017508Y007072D03*
X017508Y007269D03*
X017508Y007466D03*
X017508Y007662D03*
X017508Y007859D03*
X017508Y008056D03*
X017508Y008253D03*
X017508Y008450D03*
X017508Y008647D03*
X017508Y008844D03*
X017508Y009040D03*
X017508Y009237D03*
X017508Y009434D03*
X017508Y009631D03*
X017508Y009828D03*
X020607Y011578D03*
X020607Y011775D03*
X020607Y011972D03*
X020607Y012169D03*
X020607Y012366D03*
X020607Y012563D03*
X020607Y012759D03*
X020607Y012956D03*
X020607Y013153D03*
X020607Y013350D03*
X020607Y013547D03*
X020607Y013744D03*
X020607Y013941D03*
X020607Y014137D03*
X020607Y014334D03*
X020607Y014531D03*
X020607Y014728D03*
X020607Y014925D03*
X020607Y015122D03*
X020607Y015319D03*
X020607Y015515D03*
X020607Y015712D03*
X020607Y015909D03*
X020607Y016106D03*
X020607Y016303D03*
X026808Y016303D03*
X026808Y016106D03*
X026808Y015909D03*
X026808Y015712D03*
X026808Y015515D03*
X026808Y015319D03*
X026808Y015122D03*
X026808Y014925D03*
X026808Y014728D03*
X026808Y014531D03*
X026808Y014334D03*
X026808Y014137D03*
X026808Y013941D03*
X026808Y013744D03*
X026808Y013547D03*
X026808Y013350D03*
X026808Y013153D03*
X026808Y012956D03*
X026808Y012759D03*
X026808Y012563D03*
X026808Y012366D03*
X026808Y012169D03*
X026808Y011972D03*
X026808Y011775D03*
X026808Y011578D03*
D12*
X026069Y010840D03*
X025873Y010840D03*
X025676Y010840D03*
X025479Y010840D03*
X025282Y010840D03*
X025085Y010840D03*
X024888Y010840D03*
X024691Y010840D03*
X024495Y010840D03*
X024298Y010840D03*
X024101Y010840D03*
X023904Y010840D03*
X023707Y010840D03*
X023510Y010840D03*
X023314Y010840D03*
X023117Y010840D03*
X022920Y010840D03*
X022723Y010840D03*
X022526Y010840D03*
X022329Y010840D03*
X022132Y010840D03*
X021936Y010840D03*
X021739Y010840D03*
X021542Y010840D03*
X021345Y010840D03*
X016769Y010566D03*
X016573Y010566D03*
X016376Y010566D03*
X016179Y010566D03*
X015982Y010566D03*
X015785Y010566D03*
X015588Y010566D03*
X015391Y010566D03*
X015195Y010566D03*
X014998Y010566D03*
X014801Y010566D03*
X014604Y010566D03*
X014407Y010566D03*
X014210Y010566D03*
X014014Y010566D03*
X013817Y010566D03*
X013620Y010566D03*
X013423Y010566D03*
X013226Y010566D03*
X013029Y010566D03*
X012832Y010566D03*
X012636Y010566D03*
X012439Y010566D03*
X012242Y010566D03*
X012045Y010566D03*
X012045Y004365D03*
X012242Y004365D03*
X012439Y004365D03*
X012636Y004365D03*
X012832Y004365D03*
X013029Y004365D03*
X013226Y004365D03*
X013423Y004365D03*
X013620Y004365D03*
X013817Y004365D03*
X014014Y004365D03*
X014210Y004365D03*
X014407Y004365D03*
X014604Y004365D03*
X014801Y004365D03*
X014998Y004365D03*
X015195Y004365D03*
X015391Y004365D03*
X015588Y004365D03*
X015785Y004365D03*
X015982Y004365D03*
X016179Y004365D03*
X016376Y004365D03*
X016573Y004365D03*
X016769Y004365D03*
X021345Y017041D03*
X021542Y017041D03*
X021739Y017041D03*
X021936Y017041D03*
X022132Y017041D03*
X022329Y017041D03*
X022526Y017041D03*
X022723Y017041D03*
X022920Y017041D03*
X023117Y017041D03*
X023314Y017041D03*
X023510Y017041D03*
X023707Y017041D03*
X023904Y017041D03*
X024101Y017041D03*
X024298Y017041D03*
X024495Y017041D03*
X024691Y017041D03*
X024888Y017041D03*
X025085Y017041D03*
X025282Y017041D03*
X025479Y017041D03*
X025676Y017041D03*
X025873Y017041D03*
X026069Y017041D03*
D13*
X022129Y018294D03*
X022129Y018806D03*
X011392Y012661D03*
X011392Y012150D03*
X006547Y012376D03*
X006547Y011865D03*
X005702Y011860D03*
X005702Y012371D03*
X005702Y013265D03*
X005702Y013776D03*
X006627Y013776D03*
X006627Y013265D03*
X005422Y009101D03*
X005422Y008590D03*
X004482Y007771D03*
X003972Y007771D03*
X003972Y007260D03*
X004482Y007260D03*
X004622Y002431D03*
X004622Y001920D03*
X003972Y001920D03*
X003972Y002431D03*
X003062Y002431D03*
X003062Y001920D03*
X001892Y001920D03*
X001892Y002431D03*
X018042Y003570D03*
X018642Y003570D03*
X019242Y003570D03*
X019842Y003570D03*
X020442Y003550D03*
X021042Y003570D03*
X021642Y003560D03*
X022242Y003540D03*
X022242Y004051D03*
X021642Y004071D03*
X021042Y004081D03*
X020442Y004061D03*
X019842Y004081D03*
X019242Y004081D03*
X018642Y004081D03*
X018042Y004081D03*
X022132Y008710D03*
X022132Y009221D03*
D14*
X004802Y011782D03*
X004802Y012530D03*
D15*
X007782Y005066D03*
X007782Y003578D03*
X009790Y003611D03*
D16*
X009745Y005066D03*
D17*
X009438Y004872D02*
X010120Y004872D01*
X010120Y004814D02*
X009497Y004814D01*
X009555Y004755D02*
X010120Y004755D01*
X010120Y004697D02*
X009614Y004697D01*
X009620Y004691D02*
X010120Y004691D01*
X010120Y005441D01*
X009370Y005441D01*
X009370Y004941D01*
X009620Y004691D01*
X009380Y004931D02*
X010120Y004931D01*
X010120Y004989D02*
X009370Y004989D01*
X009370Y005048D02*
X010120Y005048D01*
X010120Y005106D02*
X009370Y005106D01*
X009370Y005165D02*
X010120Y005165D01*
X010120Y005223D02*
X009370Y005223D01*
X009370Y005282D02*
X010120Y005282D01*
X010120Y005341D02*
X009370Y005341D01*
X009370Y005399D02*
X010120Y005399D01*
D18*
X008368Y006146D03*
X007856Y006146D03*
X005418Y006276D03*
X004906Y006276D03*
X004956Y005366D03*
X005468Y005366D03*
X003188Y006956D03*
X002676Y006956D03*
X002676Y007776D03*
X003188Y007776D03*
X001928Y005326D03*
X001416Y005326D03*
X002536Y003206D03*
X003048Y003206D03*
X003856Y003196D03*
X004368Y003196D03*
X006116Y001926D03*
X006628Y001926D03*
X014666Y003516D03*
X015178Y003516D03*
G36*
X019435Y005285D02*
X019240Y005480D01*
X019489Y005729D01*
X019684Y005534D01*
X019435Y005285D01*
G37*
G36*
X019797Y004923D02*
X019602Y005118D01*
X019851Y005367D01*
X020046Y005172D01*
X019797Y004923D01*
G37*
X027413Y010708D03*
X027925Y010708D03*
X027909Y011279D03*
X027397Y011279D03*
X019118Y015496D03*
X018606Y015496D03*
X017478Y015796D03*
X016966Y015796D03*
X017166Y012386D03*
X017678Y012386D03*
X017936Y010966D03*
X018448Y010966D03*
X008638Y011716D03*
X008126Y011716D03*
X003428Y016546D03*
X002916Y016546D03*
X001798Y016526D03*
X001286Y016526D03*
X005686Y018496D03*
X006198Y018496D03*
X007326Y018496D03*
X007838Y018496D03*
X003508Y019946D03*
X002996Y019946D03*
X001838Y019936D03*
X001326Y019936D03*
G36*
X023384Y019021D02*
X023189Y018826D01*
X022940Y019075D01*
X023135Y019270D01*
X023384Y019021D01*
G37*
G36*
X023746Y019382D02*
X023551Y019187D01*
X023302Y019436D01*
X023497Y019631D01*
X023746Y019382D01*
G37*
D19*
X003527Y005627D03*
X003331Y005627D03*
X003134Y005627D03*
X002937Y005627D03*
X002937Y004524D03*
X003134Y004524D03*
X003331Y004524D03*
X003527Y004524D03*
D20*
X003783Y004780D03*
X003783Y004977D03*
X003783Y005174D03*
X003783Y005371D03*
X002681Y005371D03*
X002681Y005174D03*
X002681Y004977D03*
X002681Y004780D03*
D21*
X003232Y005076D03*
D22*
X002363Y014074D03*
X002367Y015677D03*
X002418Y017602D03*
X002422Y019204D03*
X006774Y017664D03*
X006770Y016061D03*
D23*
X010362Y019116D03*
X009362Y019216D03*
X011362Y019216D03*
X012362Y019116D03*
X013362Y019216D03*
X014362Y019116D03*
X017472Y019556D03*
X018472Y019456D03*
X019472Y019556D03*
X030732Y019216D03*
X031732Y019216D03*
X031832Y020216D03*
X031832Y018216D03*
X030832Y018216D03*
X030732Y017216D03*
X031732Y017216D03*
X031832Y016216D03*
X030832Y016216D03*
X030732Y015216D03*
X031732Y015216D03*
X031832Y014216D03*
X030832Y014216D03*
X030732Y013216D03*
X031732Y013216D03*
X031832Y012216D03*
X030832Y012216D03*
X030732Y011216D03*
X031732Y011216D03*
X031832Y010216D03*
X030832Y010216D03*
X030732Y009216D03*
X031732Y009216D03*
X031832Y008216D03*
X030832Y008216D03*
X030732Y007216D03*
X031732Y007216D03*
X031832Y006216D03*
X030832Y006216D03*
X030732Y005216D03*
X031732Y005216D03*
X031832Y004216D03*
X030832Y004216D03*
X030732Y003216D03*
X031732Y003216D03*
X031832Y002216D03*
X030832Y002216D03*
X030732Y001216D03*
X031732Y001216D03*
X027712Y002216D03*
X026712Y002316D03*
X025712Y002216D03*
X024712Y002316D03*
X023712Y002216D03*
X023702Y003326D03*
X024702Y003226D03*
X025702Y003326D03*
X026702Y003226D03*
X027702Y003326D03*
D24*
X003600Y009062D03*
X001513Y009062D03*
X001513Y012369D03*
X003600Y012369D03*
D25*
X003698Y011346D03*
X003698Y011031D03*
X003698Y010716D03*
X003698Y010401D03*
X003698Y010086D03*
D26*
X018042Y002961D03*
X018642Y002961D03*
X019242Y002961D03*
X019842Y002961D03*
X020442Y002961D03*
X021042Y002961D03*
X021642Y002951D03*
X022242Y002951D03*
X022242Y002360D03*
X021642Y002360D03*
X021042Y002370D03*
X020442Y002370D03*
X019842Y002370D03*
X019242Y002370D03*
X018642Y002370D03*
X018042Y002370D03*
D27*
X005422Y006924D03*
X005422Y008007D03*
X001472Y007377D03*
X001472Y006294D03*
X001302Y004297D03*
X001302Y003214D03*
X005142Y003584D03*
X005142Y004667D03*
D28*
X012442Y016406D03*
D29*
X013942Y016656D03*
X013942Y017156D03*
X013942Y016156D03*
X013942Y015656D03*
X010942Y015656D03*
X010942Y016156D03*
X010942Y016656D03*
X010942Y017156D03*
D30*
X033282Y017216D03*
X033282Y016216D03*
X033282Y015216D03*
X033282Y014216D03*
X033282Y013216D03*
X033282Y012216D03*
X033282Y011216D03*
X033282Y010216D03*
X033282Y009216D03*
X033282Y008216D03*
X033282Y007216D03*
X033282Y006216D03*
X033282Y005216D03*
X033282Y004216D03*
X033282Y003216D03*
X033282Y002216D03*
X033282Y001216D03*
X033282Y018216D03*
X033282Y019216D03*
X033282Y020216D03*
D31*
X030832Y020216D03*
X020472Y019456D03*
D32*
X025992Y009016D03*
X028492Y009016D03*
D33*
X026292Y010216D02*
X026069Y010438D01*
X026069Y010840D01*
X026805Y011576D02*
X026808Y011578D01*
X026808Y012956D02*
X026807Y012956D01*
X026808Y013744D02*
X026808Y013756D01*
X025482Y013756D01*
X025052Y013866D02*
X025412Y014226D01*
X025412Y014256D01*
X025632Y014476D01*
X025632Y014906D01*
X026032Y015306D01*
X026222Y015306D01*
X026432Y015515D01*
X026808Y015515D01*
X026808Y014926D02*
X026092Y014926D01*
X026808Y014926D02*
X026808Y014925D01*
X025992Y016286D02*
X025342Y015636D01*
X024882Y016326D02*
X024888Y016332D01*
X024888Y017041D01*
X024691Y017041D02*
X024691Y016655D01*
X024302Y016266D01*
X024302Y016256D01*
X023522Y016456D02*
X023510Y016467D01*
X023510Y017041D01*
X022526Y017041D02*
X022526Y016459D01*
X022522Y016016D01*
X022132Y016616D02*
X021792Y016276D01*
X021792Y014956D01*
X021932Y014816D01*
X021212Y014036D02*
X021100Y014137D01*
X020607Y014137D01*
X020607Y013941D02*
X015127Y013941D01*
X015022Y014046D01*
X014882Y013746D02*
X020605Y013746D01*
X020607Y013744D01*
X020607Y013547D02*
X020606Y013546D01*
X015052Y013546D01*
X013817Y012310D01*
X013817Y010566D01*
X014014Y010566D02*
X014014Y012187D01*
X015172Y013346D01*
X020602Y013346D01*
X020607Y013350D01*
X020604Y013156D02*
X020607Y013153D01*
X020604Y013156D02*
X015312Y013156D01*
X014210Y012054D01*
X014210Y010566D01*
X014407Y010566D02*
X014407Y011721D01*
X014502Y011816D01*
X014801Y012104D02*
X015652Y012956D01*
X020606Y012956D01*
X020607Y012956D01*
X020601Y012766D02*
X020607Y012759D01*
X020611Y012756D01*
X021022Y012756D01*
X021532Y013266D01*
X021532Y013286D01*
X021722Y012746D02*
X022132Y013156D01*
X021722Y012746D02*
X021402Y012746D01*
X021022Y012366D01*
X020607Y012366D01*
X018662Y012366D01*
X018512Y012216D01*
X017848Y012216D01*
X017678Y012386D01*
X017166Y012386D02*
X016692Y012386D01*
X016462Y011596D02*
X015982Y011116D01*
X015982Y010566D01*
X015982Y010566D01*
X015785Y010566D02*
X015785Y011359D01*
X015822Y011396D01*
X015802Y011816D02*
X015392Y011406D01*
X015392Y010567D01*
X015391Y010566D01*
X015195Y010566D02*
X015192Y010568D01*
X015192Y011586D01*
X015622Y012016D01*
X018612Y012016D01*
X018766Y012169D01*
X020607Y012169D01*
X020607Y011972D02*
X018909Y011972D01*
X018752Y011816D01*
X015802Y011816D01*
X016462Y011596D02*
X018862Y011596D01*
X019042Y011775D01*
X020607Y011775D01*
X020607Y011578D02*
X020610Y011576D01*
X020982Y011576D01*
X021122Y011716D01*
X021122Y011796D01*
X021482Y012156D01*
X021482Y012316D01*
X022329Y011783D02*
X022522Y011976D01*
X022329Y011783D02*
X022329Y010840D01*
X022132Y010840D02*
X022132Y009996D01*
X022132Y009776D01*
X022132Y009221D01*
X022132Y008710D02*
X022142Y008261D01*
X022132Y008146D01*
X020142Y009246D02*
X019937Y009040D01*
X017508Y009040D01*
X017509Y009236D02*
X017822Y009236D01*
X017922Y009336D01*
X017509Y009236D02*
X017508Y009237D01*
X017499Y009246D01*
X016402Y009246D01*
X016482Y009716D02*
X016852Y009716D01*
X017272Y010136D01*
X018652Y010136D01*
X018662Y010126D01*
X018768Y009631D02*
X020142Y011006D01*
X020607Y011578D02*
X019215Y011578D01*
X018992Y011356D01*
X016852Y011356D01*
X016572Y011076D01*
X016572Y010566D01*
X016572Y010036D01*
X016642Y009966D01*
X016852Y009966D01*
X017042Y010156D01*
X017042Y010316D01*
X017202Y010476D01*
X016769Y010566D02*
X016769Y010773D01*
X016962Y010966D01*
X017372Y010966D01*
X017936Y010966D01*
X018448Y010966D02*
X018972Y010966D01*
X020932Y010126D02*
X021345Y010538D01*
X021345Y010840D01*
X021542Y010840D02*
X021542Y010296D01*
X021542Y010296D01*
X022920Y010840D02*
X022932Y010853D01*
X022932Y011806D01*
X023582Y011806D02*
X023904Y011484D01*
X023904Y010840D01*
X020607Y012563D02*
X018389Y012563D01*
X018272Y012476D01*
X020601Y012766D02*
X015802Y012766D01*
X014998Y011961D01*
X014998Y010566D01*
X014801Y010566D02*
X014801Y012104D01*
X013620Y012483D02*
X014882Y013746D01*
X014614Y014334D02*
X020607Y014334D01*
X020607Y014531D02*
X015017Y014531D01*
X014572Y014976D01*
X014192Y015106D02*
X015362Y016276D01*
X016692Y016276D01*
X017892Y016276D01*
X018062Y016106D01*
X020606Y016106D01*
X020607Y016106D01*
X020607Y016303D02*
X020604Y016306D01*
X018262Y016306D01*
X017992Y016576D01*
X017042Y016576D01*
X017452Y016856D02*
X018512Y016856D01*
X018762Y017106D01*
X021280Y017106D01*
X021345Y017041D01*
X021340Y017046D01*
X021542Y017041D02*
X021542Y017041D01*
X021542Y017436D01*
X021312Y017666D01*
X019782Y017666D01*
X019532Y017416D01*
X019522Y017426D01*
X015602Y017426D01*
X014742Y016566D01*
X014742Y016026D01*
X014372Y015656D01*
X013942Y015656D01*
X013942Y016156D02*
X014302Y016156D01*
X014532Y016386D01*
X014532Y016916D01*
X014952Y017336D01*
X013942Y017156D02*
X013102Y017156D01*
X013102Y016966D01*
X015252Y015626D02*
X015953Y014925D01*
X020607Y014925D01*
X020601Y015116D02*
X016382Y015116D01*
X015532Y015966D01*
X014932Y015426D02*
X015630Y014728D01*
X020607Y014728D01*
X020601Y015116D02*
X020607Y015122D01*
X020607Y015319D02*
X019989Y015319D01*
X019892Y015406D01*
X019802Y015496D01*
X019118Y015496D01*
X019472Y015796D02*
X019542Y015726D01*
X020132Y015726D01*
X020316Y015909D01*
X020607Y015909D01*
X020607Y015712D02*
X020613Y015706D01*
X021202Y015706D01*
X022132Y016616D02*
X022132Y017041D01*
X022132Y017535D01*
X022132Y017786D01*
X022132Y018213D01*
X022129Y018294D01*
X022132Y018213D02*
X022132Y018212D01*
X022129Y018806D02*
X022129Y019449D01*
X022122Y019456D01*
X025022Y017486D02*
X025085Y017403D01*
X025085Y017041D01*
X025707Y016461D02*
X024352Y015106D01*
X025992Y016286D02*
X026800Y016296D01*
X026808Y016303D01*
X026817Y016116D02*
X026808Y016106D01*
X026808Y016106D01*
X026522Y016906D02*
X026522Y017036D01*
X026432Y017126D01*
X026154Y017126D01*
X026069Y017041D01*
X019472Y015796D02*
X017478Y015796D01*
X016966Y015796D02*
X016512Y015796D01*
X018032Y015496D02*
X018606Y015496D01*
X014614Y014334D02*
X014492Y014456D01*
X014192Y015106D02*
X010342Y015106D01*
X010012Y015436D01*
X010012Y016906D01*
X010261Y017155D01*
X010261Y017156D01*
X010942Y017156D01*
X010942Y016656D02*
X010472Y016656D01*
X010472Y016666D01*
X010483Y016655D01*
X010482Y016156D02*
X010942Y016156D01*
X010942Y015656D02*
X010492Y015656D01*
X010492Y015396D01*
X010512Y015396D01*
X009742Y014716D02*
X009742Y017406D01*
X010712Y018376D01*
X013102Y018376D01*
X013362Y018636D01*
X013362Y019216D01*
X014352Y019126D02*
X014362Y019116D01*
X016352Y019116D01*
X014352Y019126D02*
X014352Y019726D01*
X014042Y020036D01*
X012182Y020036D01*
X011872Y019726D01*
X011872Y018926D01*
X011582Y018636D01*
X010572Y018636D01*
X009512Y017576D01*
X009512Y014546D01*
X010682Y013376D01*
X012162Y013376D01*
X012636Y012902D01*
X012636Y010566D01*
X012439Y010566D02*
X012439Y012679D01*
X011992Y013126D01*
X010512Y013126D01*
X009262Y014376D01*
X009262Y018136D01*
X009842Y018716D01*
X009842Y019506D01*
X010132Y019796D01*
X011172Y019796D01*
X011362Y019606D01*
X011362Y019216D01*
X006774Y017664D02*
X005000Y017664D01*
X004782Y017446D01*
X004782Y015876D01*
X005242Y015416D01*
X005122Y014976D02*
X005832Y014976D01*
X005842Y014986D01*
X005122Y014976D02*
X004382Y015716D01*
X004382Y019016D01*
X004194Y019204D01*
X002422Y019204D01*
X002422Y018356D02*
X002418Y018351D01*
X002418Y017602D01*
X002367Y015677D02*
X003901Y015677D01*
X004812Y014766D01*
X004752Y013776D02*
X004752Y013386D01*
X004752Y013776D02*
X005702Y013776D01*
X006627Y013776D01*
X006822Y013346D02*
X005532Y013346D01*
X005532Y012316D01*
X006822Y012316D01*
X006822Y013346D01*
X006822Y013329D02*
X005532Y013329D01*
X005532Y013231D02*
X006822Y013231D01*
X006822Y013132D02*
X005532Y013132D01*
X005532Y013034D02*
X006822Y013034D01*
X006822Y012935D02*
X005532Y012935D01*
X005532Y012836D02*
X006822Y012836D01*
X006822Y012738D02*
X005532Y012738D01*
X005532Y012639D02*
X006822Y012639D01*
X006822Y012541D02*
X005532Y012541D01*
X005532Y012442D02*
X006822Y012442D01*
X006822Y012344D02*
X005532Y012344D01*
X005702Y011860D02*
X004880Y011860D01*
X004802Y011782D01*
X003812Y011396D02*
X003798Y011396D01*
X003698Y011346D01*
X003698Y011031D02*
X003758Y011021D01*
X007027Y011021D01*
X007262Y010786D01*
X007262Y010476D01*
X007122Y010336D01*
X006755Y010336D01*
X006753Y010333D01*
X006749Y010586D02*
X006382Y010586D01*
X006262Y010706D01*
X003758Y010706D01*
X003698Y010716D01*
X003698Y010401D02*
X004417Y010401D01*
X004572Y010246D01*
X004412Y010086D01*
X003698Y010086D01*
X004497Y009100D02*
X004492Y008866D01*
X004482Y007771D01*
X003972Y007771D01*
X003968Y007776D02*
X003188Y007776D01*
X002676Y007776D02*
X002676Y006956D01*
X003188Y006956D02*
X003972Y006956D01*
X003972Y007260D01*
X003972Y006306D01*
X003527Y005861D01*
X003527Y005627D01*
X003331Y005627D02*
X003331Y006134D01*
X003502Y006306D01*
X003134Y006084D02*
X002902Y006316D01*
X003134Y006084D02*
X003134Y005627D01*
X002937Y005627D02*
X002269Y006294D01*
X001472Y006294D01*
X001332Y005886D02*
X001332Y005326D01*
X001416Y005326D01*
X001416Y004977D01*
X002681Y004977D01*
X002681Y004780D02*
X001892Y004780D01*
X001892Y004576D01*
X001892Y004297D01*
X001302Y004297D01*
X002572Y004226D02*
X002572Y004524D01*
X002937Y004524D01*
X003134Y004524D02*
X003134Y003727D01*
X003052Y003646D01*
X003052Y003210D01*
X003048Y003206D01*
X003062Y003206D01*
X003062Y002431D01*
X003062Y001920D02*
X003972Y001920D01*
X004622Y001920D01*
X006116Y001920D01*
X006116Y001926D01*
X006628Y001926D02*
X007402Y001926D01*
X007412Y001936D01*
X007312Y002736D02*
X007052Y002996D01*
X007052Y006506D01*
X006892Y006666D01*
X006662Y006666D01*
X006232Y007096D01*
X006232Y009486D01*
X006312Y009565D01*
X006753Y009565D01*
X006753Y009309D02*
X007498Y009309D01*
X007502Y009306D01*
X007254Y009054D02*
X007362Y008946D01*
X007612Y008946D01*
X007812Y008746D01*
X007230Y008798D02*
X009342Y006686D01*
X011299Y006686D01*
X011307Y006678D01*
X011303Y006486D02*
X011307Y006481D01*
X011303Y006486D02*
X009212Y006486D01*
X007156Y008542D01*
X006753Y008542D01*
X006753Y008798D02*
X007230Y008798D01*
X007254Y009054D02*
X006753Y009054D01*
X006753Y009821D02*
X007532Y009821D01*
X007532Y009746D01*
X007294Y010077D02*
X006753Y010077D01*
X007294Y010077D02*
X007542Y010326D01*
X007542Y011136D01*
X006813Y011865D01*
X006547Y011865D01*
X006753Y010589D02*
X006749Y010586D01*
X005422Y009101D02*
X004497Y009100D01*
X005422Y008590D02*
X005777Y008581D01*
X005972Y008386D01*
X005972Y007076D01*
X005822Y006926D01*
X005424Y006926D01*
X005422Y006924D02*
X005422Y006280D01*
X005418Y006276D02*
X006372Y006276D01*
X006372Y005646D01*
X005922Y004986D02*
X005914Y004977D01*
X005472Y004977D01*
X005472Y005466D01*
X005468Y005366D01*
X005452Y005466D01*
X004956Y005366D02*
X004956Y005174D01*
X003783Y005174D01*
X003783Y004977D02*
X003232Y004977D01*
X003232Y005076D01*
X003134Y005174D01*
X002681Y005174D01*
X002334Y005174D01*
X002182Y005326D01*
X001928Y005326D01*
X002462Y005371D02*
X002462Y005686D01*
X002462Y005371D02*
X002681Y005371D01*
X003783Y005371D02*
X004192Y005371D01*
X004951Y005371D01*
X004956Y005366D01*
X005472Y004977D02*
X003783Y004977D01*
X003783Y004780D02*
X004337Y004780D01*
X004452Y004666D01*
X005142Y004666D01*
X005142Y004667D01*
X004192Y005371D02*
X004192Y005776D01*
X004262Y006306D02*
X004798Y006306D01*
X004906Y006276D01*
X004792Y006390D01*
X004912Y006281D02*
X004912Y006676D01*
X004482Y007106D01*
X005422Y007596D02*
X005422Y008007D01*
X006753Y008030D02*
X007228Y008030D01*
X007352Y007906D01*
X007251Y007774D01*
X006753Y007774D01*
X008702Y008126D02*
X008792Y008036D01*
X009632Y008036D01*
X009632Y008030D01*
X009632Y008286D02*
X010532Y008286D01*
X010692Y008446D01*
X011303Y008446D01*
X011307Y008450D01*
X011307Y008647D02*
X011903Y008647D01*
X011908Y008648D01*
X011911Y008652D01*
X011912Y008656D01*
X011307Y008844D02*
X011305Y008846D01*
X010752Y008846D01*
X010448Y008542D01*
X009632Y008542D01*
X009632Y008798D02*
X009124Y008798D01*
X009122Y008796D01*
X009632Y009309D02*
X010448Y009309D01*
X010712Y009046D01*
X011302Y009046D01*
X011307Y009040D01*
X011307Y009434D02*
X010684Y009434D01*
X010552Y009566D01*
X009632Y009566D01*
X009632Y009565D01*
X009637Y009816D02*
X009632Y009821D01*
X009637Y009816D02*
X010582Y009816D01*
X010767Y009631D01*
X011307Y009631D01*
X011307Y009828D02*
X011307Y010151D01*
X011292Y010166D01*
X011152Y010536D02*
X010694Y010077D01*
X009632Y010077D01*
X009042Y010077D01*
X009042Y010086D01*
X009632Y010333D02*
X010570Y010333D01*
X011082Y010846D01*
X011765Y010846D01*
X012045Y010566D01*
X012242Y010566D02*
X012242Y010566D01*
X012242Y010816D01*
X011922Y011136D01*
X010812Y011136D01*
X010266Y010589D01*
X009632Y010589D01*
X011152Y010536D02*
X011402Y010536D01*
X012112Y009826D01*
X013102Y009826D01*
X013422Y010146D01*
X013422Y010565D01*
X013423Y010566D01*
X013620Y010566D02*
X013620Y012483D01*
X013029Y013029D02*
X012352Y013706D01*
X010752Y013706D01*
X009742Y014716D01*
X011392Y012661D02*
X011398Y012656D01*
X011912Y012656D01*
X011392Y012150D02*
X011392Y011676D01*
X011402Y011666D01*
X013029Y010566D02*
X013029Y013029D01*
X016376Y010566D02*
X016376Y009822D01*
X016482Y009716D01*
X017508Y009631D02*
X018768Y009631D01*
X017508Y009237D02*
X017506Y009236D01*
X016292Y008606D02*
X016292Y007436D01*
X016852Y006876D01*
X017507Y006876D01*
X017508Y006875D01*
X017508Y006678D02*
X020390Y006678D01*
X022242Y004826D01*
X022242Y004051D01*
X021642Y004071D02*
X021642Y004916D01*
X020076Y006481D01*
X017508Y006481D01*
X017508Y006284D02*
X019793Y006284D01*
X021042Y005036D01*
X021042Y004081D01*
X020442Y004061D02*
X020442Y005136D01*
X019490Y006088D01*
X017508Y006088D01*
X017508Y005891D02*
X016797Y005891D01*
X016792Y005886D01*
X016772Y005316D02*
X016769Y005313D01*
X016769Y004365D01*
X016573Y004365D02*
X016573Y003975D01*
X016782Y003766D01*
X017152Y003766D01*
X017342Y003956D01*
X018042Y004081D02*
X018042Y004826D01*
X017764Y005103D01*
X017508Y005103D01*
X017508Y005300D02*
X017958Y005300D01*
X018642Y004616D01*
X018642Y004081D01*
X019242Y004081D02*
X019242Y004506D01*
X018251Y005497D01*
X017508Y005497D01*
X017508Y005694D02*
X018644Y005694D01*
X019842Y004496D01*
X019842Y004081D01*
X019842Y003570D02*
X019842Y002961D01*
X019242Y002961D02*
X019242Y003570D01*
X018642Y003570D02*
X018642Y002961D01*
X018042Y002961D02*
X018042Y003570D01*
X018042Y002370D02*
X017657Y002370D01*
X017652Y002376D01*
X018042Y002370D02*
X018642Y002370D01*
X019242Y002370D01*
X019842Y002370D01*
X020442Y002370D01*
X021042Y002370D01*
X021632Y002370D01*
X021642Y002360D01*
X022242Y002360D01*
X022242Y002951D02*
X022242Y003540D01*
X021642Y003560D02*
X021642Y002951D01*
X021042Y002961D02*
X021042Y003570D01*
X020442Y003550D02*
X020442Y002961D01*
X020112Y004826D02*
X019824Y005114D01*
X019824Y005145D01*
X019462Y005507D02*
X019078Y005891D01*
X017508Y005891D01*
X016272Y005076D02*
X016162Y004966D01*
X015802Y004966D01*
X015588Y004752D01*
X015588Y004365D01*
X015195Y004365D02*
X015195Y007928D01*
X014237Y008886D01*
X014237Y008386D02*
X014998Y007625D01*
X014998Y004365D01*
X014801Y004365D02*
X014801Y007322D01*
X014237Y007886D01*
X014237Y007386D02*
X014604Y007019D01*
X014604Y004365D01*
X014407Y004365D02*
X014407Y003941D01*
X014402Y003936D01*
X014402Y003780D01*
X014666Y003516D01*
X015178Y003516D02*
X015178Y002970D01*
X015182Y002966D01*
X016372Y003276D02*
X016376Y003279D01*
X016376Y004365D01*
X014407Y004365D02*
X014402Y004360D01*
X013620Y004365D02*
X013620Y004763D01*
X013902Y005046D01*
X013882Y005736D02*
X013882Y007031D01*
X013887Y007036D01*
X013397Y006546D02*
X013402Y006541D01*
X013402Y005776D01*
X012636Y005009D01*
X012636Y004365D01*
X012439Y004365D02*
X012439Y005132D01*
X012792Y005486D01*
X012792Y005921D01*
X012797Y005926D01*
X012247Y005396D02*
X012242Y005390D01*
X012242Y004365D01*
X012045Y004365D02*
X012045Y004068D01*
X011812Y003836D01*
X013029Y004365D02*
X013029Y004883D01*
X013882Y005736D01*
X012032Y006306D02*
X012011Y006284D01*
X011307Y006284D01*
X011307Y006088D02*
X010652Y006096D01*
X010892Y005896D02*
X010752Y005756D01*
X010432Y005756D01*
X010892Y005896D02*
X011302Y005896D01*
X011307Y005891D01*
X011305Y005696D02*
X011307Y005694D01*
X011041Y005694D01*
X010772Y005426D01*
X010752Y005426D01*
X011072Y005296D02*
X011302Y005296D01*
X011307Y005300D01*
X011072Y005296D02*
X010722Y004946D01*
X010462Y004946D01*
X013272Y003886D02*
X013272Y003626D01*
X013322Y003576D01*
X013272Y003886D02*
X013423Y004036D01*
X013423Y004365D01*
X011300Y007262D02*
X009632Y007262D01*
X009632Y007518D02*
X010545Y007518D01*
X010882Y007856D01*
X011303Y007856D01*
X011307Y007859D01*
X011306Y008056D02*
X010782Y008056D01*
X010501Y007774D01*
X009632Y007774D01*
X011307Y007662D02*
X012029Y007662D01*
X012032Y007666D01*
X011307Y008056D02*
X011306Y008056D01*
X011307Y007269D02*
X011300Y007262D01*
X007352Y006146D02*
X007332Y006146D01*
X003852Y004524D02*
X003852Y004226D01*
X003852Y004524D02*
X003527Y004524D01*
X003331Y004524D02*
X003331Y004217D01*
X003772Y003776D01*
X003772Y003201D01*
X003772Y002806D01*
X003972Y002606D01*
X003972Y002431D01*
X004622Y002431D02*
X005324Y002430D01*
X005324Y003086D01*
X005312Y003097D01*
X005324Y003086D02*
X005324Y003176D01*
X005312Y003187D01*
X005324Y003176D02*
X005324Y003206D01*
X005324Y003584D01*
X005142Y003584D01*
X005822Y003584D01*
X005822Y003866D01*
X005324Y003206D02*
X004447Y003206D01*
X004368Y003196D01*
X004452Y003190D01*
X003856Y003196D02*
X003772Y003201D01*
X002536Y003206D02*
X001892Y003206D01*
X001892Y002431D01*
X001892Y001920D02*
X001387Y001921D01*
X001892Y001920D02*
X003062Y001920D01*
X001884Y003214D02*
X001302Y003214D01*
X001472Y007377D02*
X001472Y007776D01*
X002676Y007776D01*
X002363Y014074D02*
X002363Y014787D01*
X002372Y014796D01*
X006770Y016061D02*
X006770Y016813D01*
X006782Y016826D01*
X016572Y010566D02*
X016573Y010566D01*
X017508Y007662D02*
X017501Y007656D01*
X018592Y007656D01*
X018762Y007486D01*
D34*
X018632Y007196D02*
X018892Y007196D01*
X019122Y007426D01*
X020822Y007426D01*
X024452Y003796D01*
X024902Y003796D01*
X025232Y003466D01*
X025232Y002696D01*
X025712Y002216D01*
X026192Y002836D02*
X026712Y002316D01*
X027212Y002716D02*
X027712Y002216D01*
X027212Y002716D02*
X027212Y003516D01*
X026122Y004606D01*
X024712Y004606D01*
X020868Y008450D01*
X017508Y008450D01*
X017508Y008647D02*
X020961Y008647D01*
X024812Y004796D01*
X026232Y004796D01*
X027702Y003326D01*
X026702Y003226D02*
X026702Y003566D01*
X025902Y004366D01*
X024652Y004366D01*
X020765Y008253D01*
X017508Y008253D01*
X017508Y008056D02*
X020722Y008056D01*
X024612Y004166D01*
X025562Y004166D01*
X026192Y003536D01*
X026192Y002836D01*
X025702Y003326D02*
X025062Y003966D01*
X024552Y003966D01*
X020659Y007859D01*
X017508Y007859D01*
X017508Y007466D02*
X018362Y007466D01*
X018632Y007196D01*
X018512Y007026D02*
X019062Y007026D01*
X019272Y007246D01*
X020682Y007246D01*
X024702Y003226D01*
X024212Y003436D02*
X024212Y002816D01*
X024712Y002316D01*
X024212Y003436D02*
X020782Y006866D01*
X018402Y006866D01*
X018196Y007072D01*
X017508Y007072D01*
X017508Y007269D02*
X017518Y007279D01*
X018269Y007279D01*
X018512Y007026D01*
X022723Y008245D02*
X022723Y010840D01*
X023117Y010840D02*
X023117Y008121D01*
X025202Y006036D01*
X028722Y006036D01*
X029032Y005726D01*
X029032Y003596D01*
X030402Y002226D01*
X030402Y002056D01*
X030732Y001726D01*
X031222Y001726D01*
X031732Y001216D01*
X032232Y001526D02*
X032542Y001216D01*
X033282Y001216D01*
X032462Y002206D02*
X032052Y001796D01*
X031652Y001796D01*
X031232Y002216D01*
X030832Y002216D01*
X029202Y003846D01*
X029202Y005836D01*
X028782Y006256D01*
X025252Y006256D01*
X023314Y008194D01*
X023314Y010840D01*
X023510Y010840D02*
X023510Y008237D01*
X025282Y006456D01*
X028812Y006456D01*
X029362Y005906D01*
X029362Y004196D01*
X030292Y003266D01*
X030292Y003046D01*
X030612Y002726D01*
X031322Y002726D01*
X031832Y002216D01*
X032462Y002206D02*
X033272Y002206D01*
X033282Y002216D01*
X032362Y003216D02*
X031922Y002776D01*
X031582Y002776D01*
X031142Y003216D01*
X030732Y003216D01*
X029542Y004406D01*
X029542Y005966D01*
X028822Y006686D01*
X025302Y006686D01*
X023707Y008281D01*
X023707Y010840D01*
X024101Y010840D02*
X024101Y008127D01*
X025312Y006916D01*
X028842Y006916D01*
X029732Y006026D01*
X029732Y004926D01*
X030392Y004266D01*
X030392Y004036D01*
X030652Y003776D01*
X031172Y003776D01*
X031732Y003216D01*
X031662Y003776D02*
X031972Y003776D01*
X032412Y004216D01*
X033282Y004216D01*
X033282Y005216D02*
X032392Y005216D01*
X031952Y004776D01*
X031572Y004776D01*
X031132Y005216D01*
X030732Y005216D01*
X030252Y005696D01*
X030252Y006266D01*
X029002Y007516D01*
X025452Y007516D01*
X024691Y008276D01*
X024691Y010840D01*
X024495Y010840D02*
X024495Y008213D01*
X025362Y007346D01*
X028922Y007346D01*
X030092Y006176D01*
X030092Y005266D01*
X030632Y004726D01*
X031322Y004726D01*
X031832Y004216D01*
X031662Y003776D02*
X031222Y004216D01*
X030832Y004216D01*
X029912Y005136D01*
X029912Y006086D01*
X028852Y007146D01*
X025332Y007146D01*
X024298Y008180D01*
X024298Y010840D01*
X024888Y010840D02*
X024888Y008319D01*
X025482Y007726D01*
X029032Y007726D01*
X030402Y006356D01*
X030402Y006046D01*
X030752Y005696D01*
X031252Y005696D01*
X031732Y005216D01*
X031642Y005786D02*
X032042Y005786D01*
X032462Y006206D01*
X033272Y006206D01*
X033282Y006216D01*
X032342Y007216D02*
X031902Y006776D01*
X031562Y006776D01*
X031122Y007216D01*
X030732Y007216D01*
X029172Y008776D01*
X029172Y010676D01*
X027866Y011982D01*
X027866Y011972D01*
X026808Y011972D01*
X026808Y011775D02*
X026533Y011775D01*
X026312Y011996D01*
X026312Y012116D01*
X026142Y012286D01*
X026032Y012036D02*
X025742Y012036D01*
X025652Y012126D01*
X025492Y011856D02*
X025962Y011856D01*
X026532Y011286D01*
X027390Y011286D01*
X027397Y011279D01*
X027909Y011279D02*
X027925Y011263D01*
X027925Y010708D01*
X027925Y009896D01*
X027922Y009896D01*
X027413Y010708D02*
X026829Y010708D01*
X025852Y011686D01*
X025212Y011686D01*
X025142Y011756D01*
X024962Y011936D01*
X024962Y012536D01*
X025272Y012846D01*
X025822Y012846D01*
X025908Y012759D01*
X026808Y012759D01*
X026808Y012563D02*
X027149Y012563D01*
X027172Y012566D01*
X026808Y012366D02*
X026452Y012366D01*
X026272Y012546D01*
X025992Y012546D01*
X025942Y012596D01*
X025452Y012596D01*
X025212Y012356D01*
X025212Y012136D01*
X025492Y011856D01*
X026032Y012036D02*
X026489Y011578D01*
X026808Y011578D01*
X026808Y012169D02*
X027969Y012169D01*
X029342Y010796D01*
X029352Y009326D01*
X030362Y008316D01*
X030362Y008086D01*
X030652Y007796D01*
X031152Y007796D01*
X031732Y007216D01*
X032342Y007216D02*
X033282Y007216D01*
X032452Y008206D02*
X032032Y007786D01*
X031632Y007786D01*
X031202Y008216D01*
X030832Y008216D01*
X029522Y009526D01*
X029532Y010836D01*
X027232Y013136D01*
X026825Y013136D01*
X026808Y013153D01*
X026812Y013346D02*
X027282Y013346D01*
X029692Y010936D01*
X029682Y009666D01*
X030542Y008806D01*
X031242Y008806D01*
X031832Y008216D01*
X031902Y008786D02*
X031572Y008786D01*
X031142Y009216D01*
X030732Y009216D01*
X029862Y010086D01*
X029862Y011016D01*
X027332Y013546D01*
X026809Y013546D01*
X026808Y013547D01*
X026808Y013350D02*
X026812Y013346D01*
X026501Y012956D02*
X026282Y013186D01*
X025292Y013186D01*
X025062Y012956D01*
X024082Y012416D02*
X024082Y012326D01*
X024962Y011446D01*
X025642Y011446D01*
X025873Y011215D01*
X025873Y010840D01*
X025676Y010840D02*
X025676Y010492D01*
X025672Y010336D01*
X025479Y010840D02*
X025479Y011199D01*
X025402Y011276D01*
X024722Y011276D01*
X024472Y011526D01*
X025085Y010840D02*
X025085Y008373D01*
X025502Y007956D01*
X029092Y007956D01*
X030832Y006216D01*
X031212Y006216D01*
X031642Y005786D01*
X031832Y006216D02*
X031282Y006766D01*
X030592Y006766D01*
X029212Y008146D01*
X025552Y008146D01*
X025282Y008416D01*
X025282Y010840D01*
X026501Y012956D02*
X026808Y012956D01*
X026808Y013941D02*
X026813Y013946D01*
X027202Y013946D01*
X030022Y011126D01*
X030022Y010266D01*
X030602Y009686D01*
X031052Y009686D01*
X031522Y009216D01*
X031732Y009216D01*
X031902Y008786D02*
X032312Y009196D01*
X033262Y009196D01*
X033282Y009216D01*
X032512Y010206D02*
X032102Y009796D01*
X031632Y009796D01*
X031212Y010216D01*
X030832Y010216D01*
X030412Y010616D01*
X030172Y010856D01*
X030172Y011236D01*
X027270Y014137D01*
X026808Y014137D01*
X026808Y014334D02*
X027344Y014334D01*
X030322Y011346D01*
X030322Y011036D01*
X030602Y010766D01*
X031282Y010766D01*
X031832Y010216D01*
X032512Y010206D02*
X033272Y010206D01*
X033282Y010216D01*
X032452Y011216D02*
X032012Y010776D01*
X031552Y010776D01*
X031112Y011216D01*
X030732Y011216D01*
X027417Y014531D01*
X026808Y014531D01*
X026808Y014728D02*
X027580Y014728D01*
X030582Y011726D01*
X031222Y011726D01*
X031732Y011216D01*
X031682Y011736D02*
X032042Y011736D01*
X032522Y012216D01*
X033282Y012216D01*
X033282Y013216D02*
X032512Y013216D01*
X032002Y012706D01*
X031632Y012706D01*
X031122Y013216D01*
X030732Y013216D01*
X030012Y013216D01*
X027319Y015909D01*
X026808Y015909D01*
X026808Y016106D02*
X027052Y016106D01*
X027112Y016166D01*
X027112Y016446D01*
X027072Y016486D01*
X025732Y016486D01*
X025707Y016461D01*
X025676Y017041D02*
X025676Y017349D01*
X025902Y017576D01*
X026642Y017576D01*
X030032Y014186D01*
X030802Y014186D01*
X030832Y014216D01*
X031132Y014216D01*
X031652Y013696D01*
X032092Y013696D01*
X032612Y014216D01*
X033282Y014216D01*
X032352Y015216D02*
X031882Y014746D01*
X031592Y014746D01*
X031122Y015216D01*
X030732Y015216D01*
X030722Y015206D01*
X029762Y015206D01*
X027052Y017916D01*
X025702Y017916D01*
X025292Y017506D01*
X025292Y017366D01*
X025282Y017355D01*
X025282Y017041D01*
X025479Y017041D02*
X025479Y017442D01*
X025792Y017756D01*
X026912Y017756D01*
X030012Y014656D01*
X031392Y014656D01*
X031832Y014216D01*
X031222Y013726D02*
X031732Y013216D01*
X031382Y012666D02*
X031832Y012216D01*
X031682Y011736D02*
X031202Y012216D01*
X030832Y012216D01*
X030392Y012216D01*
X027486Y015122D01*
X026808Y015122D01*
X026808Y015319D02*
X027569Y015319D01*
X030222Y012666D01*
X031382Y012666D01*
X031222Y013726D02*
X030142Y013726D01*
X026462Y017406D01*
X026032Y017406D01*
X025873Y017246D01*
X025873Y017041D01*
X025182Y018096D02*
X024492Y017406D01*
X024492Y017041D01*
X024495Y017041D01*
X024298Y017041D02*
X024298Y017541D01*
X025032Y018276D01*
X027362Y018276D01*
X029422Y016216D01*
X030832Y016216D01*
X031212Y016216D01*
X031652Y015776D01*
X032062Y015776D01*
X032502Y016216D01*
X033282Y016216D01*
X033282Y017216D02*
X032412Y017216D01*
X031942Y016746D01*
X031592Y016746D01*
X031122Y017216D01*
X030732Y017216D01*
X029082Y017216D01*
X027672Y018626D01*
X024802Y018626D01*
X023904Y017727D01*
X023904Y017041D01*
X023707Y017041D02*
X023707Y017791D01*
X024692Y018776D01*
X027812Y018776D01*
X028902Y017686D01*
X031262Y017686D01*
X031732Y017216D01*
X031372Y016676D02*
X031832Y016216D01*
X031372Y016676D02*
X029352Y016676D01*
X027572Y018456D01*
X024912Y018456D01*
X024101Y017644D01*
X024101Y017041D01*
X023314Y017041D02*
X023314Y017677D01*
X024602Y018966D01*
X028062Y018966D01*
X028822Y018206D01*
X030822Y018206D01*
X030832Y018216D01*
X031232Y018216D01*
X031692Y017756D01*
X032112Y017756D01*
X032572Y018216D01*
X033282Y018216D01*
X032322Y019216D02*
X031892Y018786D01*
X031572Y018786D01*
X031142Y019216D01*
X030732Y019216D01*
X031412Y018636D02*
X031832Y018216D01*
X031412Y018636D02*
X028742Y018636D01*
X028222Y019156D01*
X024502Y019156D01*
X023117Y017770D01*
X023117Y017041D01*
X022920Y017041D02*
X022920Y017893D01*
X024642Y019616D01*
X024642Y020026D01*
X024292Y020376D01*
X022372Y020376D01*
X021442Y019446D01*
X020482Y019446D01*
X020472Y019456D01*
X019472Y019556D02*
X019472Y018926D01*
X019842Y018556D01*
X021332Y018556D01*
X021682Y018906D01*
X021682Y019386D01*
X022392Y020096D01*
X024242Y020096D01*
X024432Y019906D01*
X024432Y019696D01*
X022723Y017986D01*
X022723Y017041D01*
X022329Y017041D02*
X022329Y016393D01*
X022092Y016156D01*
X022092Y015776D01*
X022402Y015466D01*
X022762Y015466D01*
X022329Y017041D02*
X022329Y017433D01*
X022502Y017606D01*
X022502Y018387D01*
X023162Y019048D01*
X023524Y019409D02*
X023880Y019766D01*
X024062Y019766D01*
X025182Y018096D02*
X027202Y018096D01*
X029562Y015736D01*
X031212Y015736D01*
X031732Y015216D01*
X032352Y015216D02*
X033282Y015216D01*
X033282Y019216D02*
X032322Y019216D01*
X032002Y019796D02*
X031622Y019796D01*
X031202Y020216D01*
X030832Y020216D01*
X032002Y019796D02*
X032422Y020216D01*
X033282Y020216D01*
X026066Y015712D02*
X026002Y015776D01*
X026066Y015712D02*
X026808Y015712D01*
X021936Y017041D02*
X021936Y017542D01*
X021352Y018126D01*
X018792Y018126D01*
X018492Y018426D01*
X018492Y019436D01*
X018472Y019456D01*
X017482Y019546D02*
X017472Y019556D01*
X017482Y019546D02*
X017482Y018386D01*
X017962Y017906D01*
X021322Y017906D01*
X021739Y017489D01*
X021739Y017041D01*
X032452Y011216D02*
X033282Y011216D01*
X033282Y008216D02*
X033272Y008206D01*
X032452Y008206D01*
X028862Y005546D02*
X028572Y005836D01*
X025132Y005836D01*
X022723Y008245D01*
X028862Y005546D02*
X028862Y003086D01*
X030732Y001216D01*
X032362Y003216D02*
X033282Y003216D01*
D35*
X001352Y001926D03*
X001892Y003206D03*
X002572Y004226D03*
X003232Y005076D03*
X002462Y005686D03*
X002902Y006316D03*
X003502Y006306D03*
X004262Y006306D03*
X004192Y005776D03*
X005922Y004986D03*
X006372Y005646D03*
X007332Y006146D03*
X008942Y006146D03*
X008512Y005066D03*
X010462Y004946D03*
X010752Y005426D03*
X010432Y005756D03*
X012032Y006306D03*
X012797Y005926D03*
X012247Y005396D03*
X013902Y005046D03*
X014402Y003936D03*
X013322Y003576D03*
X011812Y003836D03*
X015182Y002966D03*
X016372Y003276D03*
X017342Y003956D03*
X016272Y005076D03*
X016772Y005316D03*
X016792Y005886D03*
X018762Y007486D03*
X016292Y008606D03*
X014237Y008386D03*
X014237Y007886D03*
X014237Y007386D03*
X013887Y007036D03*
X013397Y006546D03*
X012032Y007666D03*
X011912Y008656D03*
X011292Y010166D03*
X011402Y011666D03*
X011912Y012656D03*
X014502Y011816D03*
X015822Y011396D03*
X016692Y012386D03*
X018272Y012476D03*
X018972Y010966D03*
X020142Y011006D03*
X020932Y010126D03*
X021542Y010296D03*
X022132Y009776D03*
X020142Y009246D03*
X018662Y010126D03*
X017372Y010966D03*
X017202Y010476D03*
X014237Y008886D03*
X009122Y008796D03*
X007812Y008746D03*
X007502Y009306D03*
X007532Y009746D03*
X004572Y010246D03*
X004492Y008866D03*
X005422Y007596D03*
X007352Y007906D03*
X003852Y004226D03*
X005822Y003866D03*
X007312Y002736D03*
X007412Y001936D03*
X001332Y005886D03*
X001472Y007776D03*
X006152Y012846D03*
X004812Y014766D03*
X005242Y015416D03*
X005842Y014986D03*
X006782Y016826D03*
X008412Y018496D03*
X010472Y016666D03*
X010482Y016156D03*
X010492Y015396D03*
X012442Y016426D03*
X011942Y016956D03*
X013102Y016966D03*
X014952Y017336D03*
X016692Y016276D03*
X017042Y016576D03*
X017452Y016856D03*
X016512Y015796D03*
X015532Y015966D03*
X015252Y015626D03*
X014932Y015426D03*
X014572Y014976D03*
X014492Y014456D03*
X015022Y014046D03*
X018032Y015496D03*
X019892Y015406D03*
X020132Y015726D03*
X021202Y015706D03*
X021932Y014816D03*
X022762Y015466D03*
X022522Y016016D03*
X023522Y016456D03*
X024302Y016266D03*
X024882Y016326D03*
X025342Y015636D03*
X026002Y015776D03*
X026092Y014926D03*
X025482Y013756D03*
X025052Y013866D03*
X025452Y012596D03*
X025652Y012126D03*
X026142Y012286D03*
X027172Y012566D03*
X025142Y011756D03*
X024472Y011526D03*
X023582Y011806D03*
X022932Y011806D03*
X022522Y011976D03*
X021482Y012316D03*
X022132Y013156D03*
X021532Y013286D03*
X021212Y014036D03*
X024082Y012416D03*
X025672Y010336D03*
X026292Y010216D03*
X027922Y009896D03*
X022132Y008146D03*
X020112Y004826D03*
X017652Y002376D03*
X032232Y001526D03*
X024352Y015106D03*
X026522Y016906D03*
X025022Y017486D03*
X022132Y017786D03*
X022122Y019456D03*
X024062Y019766D03*
X019532Y017416D03*
X016352Y019116D03*
X005122Y018496D03*
X003982Y019966D03*
X002422Y018356D03*
X000832Y019936D03*
X000832Y016526D03*
X002372Y014796D03*
X000882Y013386D03*
D36*
X003812Y011396D02*
X004802Y011396D01*
X004802Y011782D01*
X004803Y011781D01*
X004802Y011396D02*
X004802Y011396D01*
X003968Y007776D02*
X003972Y007771D01*
X004482Y007260D02*
X004482Y007106D01*
X005422Y006924D02*
X005424Y006926D01*
X005422Y006280D02*
X005418Y006276D01*
X004912Y006281D02*
X004906Y006276D01*
X001892Y003206D02*
X001884Y003214D01*
X001387Y001921D02*
X001352Y001926D01*
X009745Y005066D02*
X009745Y005638D01*
X010202Y006096D01*
X010652Y006096D01*
D37*
X009002Y006086D02*
X009002Y003606D01*
X009008Y003611D01*
X009790Y003611D01*
X008512Y005066D02*
X007782Y005066D01*
X008942Y006146D02*
X009002Y006086D01*
X008942Y006146D02*
X008368Y006146D01*
X007856Y006146D02*
X007352Y006146D01*
X008702Y008126D02*
X008702Y009306D01*
X007962Y009306D01*
X007502Y009306D01*
X007962Y009306D02*
X008128Y009301D01*
X008126Y011716D01*
X008638Y011716D02*
X008637Y010086D01*
X009042Y010086D01*
X004802Y011782D02*
X004796Y011776D01*
X004802Y012530D02*
X004802Y013376D01*
X004792Y013386D01*
X004752Y013386D01*
X000882Y013386D01*
X002367Y015677D02*
X002367Y016546D01*
X001798Y016546D01*
X001798Y016526D01*
X002367Y016546D02*
X002916Y016546D01*
X003428Y016546D02*
X003428Y017602D01*
X002418Y017602D01*
X001286Y016526D02*
X000832Y016526D01*
X005122Y018496D02*
X005686Y018496D01*
X006198Y018496D02*
X006774Y018496D01*
X007326Y018496D01*
X007838Y018496D02*
X008412Y018496D01*
X006774Y018496D02*
X006774Y017664D01*
X006198Y018466D02*
X006198Y018496D01*
X003982Y019966D02*
X003508Y019966D01*
X003508Y019946D01*
X002996Y019946D02*
X002422Y019946D01*
X001838Y019946D01*
X001838Y019936D01*
X001326Y019936D02*
X000832Y019936D01*
X002422Y019946D02*
X002422Y019204D01*
D38*
X017922Y009336D02*
X019082Y009336D01*
X022702Y012956D01*
X025062Y012956D01*
X025672Y010336D02*
X025672Y009016D01*
X025992Y009016D01*
X027922Y009016D02*
X027922Y009896D01*
X027922Y009016D02*
X028492Y009016D01*
X016402Y009246D02*
X012562Y009246D01*
X012432Y009116D01*
X012432Y006116D01*
X012172Y005856D01*
X012062Y005856D01*
X011842Y005636D01*
X011842Y004926D01*
X010732Y003816D01*
X010732Y003326D01*
X010332Y002926D01*
X009022Y002926D01*
X008370Y003578D01*
X007782Y003578D01*
M02*
