G75*
G70*
%OFA0B0*%
%FSLAX24Y24*%
%IPPOS*%
%LPD*%
%AMOC8*
5,1,8,0,0,1.08239X$1,22.5*
%
%ADD10C,0.1182*%
%ADD11R,0.0630X0.0217*%
%ADD12R,0.0375X0.0198*%
%ADD13R,0.0198X0.0375*%
%ADD14R,0.0434X0.0356*%
%ADD15R,0.0671X0.0592*%
%ADD16R,0.0790X0.0870*%
%ADD17R,0.0320X0.0200*%
%ADD18C,0.0050*%
%ADD19R,0.0356X0.0434*%
%ADD20R,0.0178X0.0356*%
%ADD21R,0.0356X0.0178*%
%ADD22R,0.0651X0.0651*%
%ADD23R,0.3387X0.0474*%
%ADD24C,0.0680*%
%ADD25R,0.0946X0.1064*%
%ADD26R,0.0867X0.0277*%
%ADD27R,0.0395X0.0395*%
%ADD28R,0.0552X0.0336*%
%ADD29R,0.2080X0.1980*%
%ADD30R,0.0380X0.0220*%
%ADD31R,0.1180X0.0330*%
%ADD32R,0.0680X0.0680*%
%ADD33R,0.1084X0.1143*%
%ADD34C,0.0360*%
D10*
X009992Y001936D03*
X027662Y004996D03*
X006752Y019666D03*
D11*
X006753Y010589D03*
X006753Y010333D03*
X006753Y010077D03*
X006753Y009821D03*
X006753Y009565D03*
X006753Y009309D03*
X006753Y009054D03*
X006753Y008798D03*
X006753Y008542D03*
X006753Y008286D03*
X006753Y008030D03*
X006753Y007774D03*
X006753Y007518D03*
X006753Y007262D03*
X009632Y007262D03*
X009632Y007518D03*
X009632Y007774D03*
X009632Y008030D03*
X009632Y008286D03*
X009632Y008542D03*
X009632Y008798D03*
X009632Y009054D03*
X009632Y009309D03*
X009632Y009565D03*
X009632Y009821D03*
X009632Y010077D03*
X009632Y010333D03*
X009632Y010589D03*
D12*
X011307Y009828D03*
X011307Y009631D03*
X011307Y009434D03*
X011307Y009237D03*
X011307Y009040D03*
X011307Y008844D03*
X011307Y008647D03*
X011307Y008450D03*
X011307Y008253D03*
X011307Y008056D03*
X011307Y007859D03*
X011307Y007662D03*
X011307Y007466D03*
X011307Y007269D03*
X011307Y007072D03*
X011307Y006875D03*
X011307Y006678D03*
X011307Y006481D03*
X011307Y006284D03*
X011307Y006088D03*
X011307Y005891D03*
X011307Y005694D03*
X011307Y005497D03*
X011307Y005300D03*
X011307Y005103D03*
X017508Y005103D03*
X017508Y005300D03*
X017508Y005497D03*
X017508Y005694D03*
X017508Y005891D03*
X017508Y006088D03*
X017508Y006284D03*
X017508Y006481D03*
X017508Y006678D03*
X017508Y006875D03*
X017508Y007072D03*
X017508Y007269D03*
X017508Y007466D03*
X017508Y007662D03*
X017508Y007859D03*
X017508Y008056D03*
X017508Y008253D03*
X017508Y008450D03*
X017508Y008647D03*
X017508Y008844D03*
X017508Y009040D03*
X017508Y009237D03*
X017508Y009434D03*
X017508Y009631D03*
X017508Y009828D03*
X020607Y011578D03*
X020607Y011775D03*
X020607Y011972D03*
X020607Y012169D03*
X020607Y012366D03*
X020607Y012563D03*
X020607Y012759D03*
X020607Y012956D03*
X020607Y013153D03*
X020607Y013350D03*
X020607Y013547D03*
X020607Y013744D03*
X020607Y013941D03*
X020607Y014137D03*
X020607Y014334D03*
X020607Y014531D03*
X020607Y014728D03*
X020607Y014925D03*
X020607Y015122D03*
X020607Y015319D03*
X020607Y015515D03*
X020607Y015712D03*
X020607Y015909D03*
X020607Y016106D03*
X020607Y016303D03*
X026808Y016303D03*
X026808Y016106D03*
X026808Y015909D03*
X026808Y015712D03*
X026808Y015515D03*
X026808Y015319D03*
X026808Y015122D03*
X026808Y014925D03*
X026808Y014728D03*
X026808Y014531D03*
X026808Y014334D03*
X026808Y014137D03*
X026808Y013941D03*
X026808Y013744D03*
X026808Y013547D03*
X026808Y013350D03*
X026808Y013153D03*
X026808Y012956D03*
X026808Y012759D03*
X026808Y012563D03*
X026808Y012366D03*
X026808Y012169D03*
X026808Y011972D03*
X026808Y011775D03*
X026808Y011578D03*
D13*
X026069Y010840D03*
X025873Y010840D03*
X025676Y010840D03*
X025479Y010840D03*
X025282Y010840D03*
X025085Y010840D03*
X024888Y010840D03*
X024691Y010840D03*
X024495Y010840D03*
X024298Y010840D03*
X024101Y010840D03*
X023904Y010840D03*
X023707Y010840D03*
X023510Y010840D03*
X023314Y010840D03*
X023117Y010840D03*
X022920Y010840D03*
X022723Y010840D03*
X022526Y010840D03*
X022329Y010840D03*
X022132Y010840D03*
X021936Y010840D03*
X021739Y010840D03*
X021542Y010840D03*
X021345Y010840D03*
X016769Y010566D03*
X016573Y010566D03*
X016376Y010566D03*
X016179Y010566D03*
X015982Y010566D03*
X015785Y010566D03*
X015588Y010566D03*
X015391Y010566D03*
X015195Y010566D03*
X014998Y010566D03*
X014801Y010566D03*
X014604Y010566D03*
X014407Y010566D03*
X014210Y010566D03*
X014014Y010566D03*
X013817Y010566D03*
X013620Y010566D03*
X013423Y010566D03*
X013226Y010566D03*
X013029Y010566D03*
X012832Y010566D03*
X012636Y010566D03*
X012439Y010566D03*
X012242Y010566D03*
X012045Y010566D03*
X012045Y004365D03*
X012242Y004365D03*
X012439Y004365D03*
X012636Y004365D03*
X012832Y004365D03*
X013029Y004365D03*
X013226Y004365D03*
X013423Y004365D03*
X013620Y004365D03*
X013817Y004365D03*
X014014Y004365D03*
X014210Y004365D03*
X014407Y004365D03*
X014604Y004365D03*
X014801Y004365D03*
X014998Y004365D03*
X015195Y004365D03*
X015391Y004365D03*
X015588Y004365D03*
X015785Y004365D03*
X015982Y004365D03*
X016179Y004365D03*
X016376Y004365D03*
X016573Y004365D03*
X016769Y004365D03*
X021345Y017041D03*
X021542Y017041D03*
X021739Y017041D03*
X021936Y017041D03*
X022132Y017041D03*
X022329Y017041D03*
X022526Y017041D03*
X022723Y017041D03*
X022920Y017041D03*
X023117Y017041D03*
X023314Y017041D03*
X023510Y017041D03*
X023707Y017041D03*
X023904Y017041D03*
X024101Y017041D03*
X024298Y017041D03*
X024495Y017041D03*
X024691Y017041D03*
X024888Y017041D03*
X025085Y017041D03*
X025282Y017041D03*
X025479Y017041D03*
X025676Y017041D03*
X025873Y017041D03*
X026069Y017041D03*
D14*
X022129Y018294D03*
X022129Y018806D03*
X011392Y012661D03*
X011392Y012150D03*
X006547Y012376D03*
X006547Y011865D03*
X005702Y011860D03*
X005702Y012371D03*
X005702Y013265D03*
X005702Y013776D03*
X006627Y013776D03*
X006627Y013265D03*
X005422Y009101D03*
X005422Y008590D03*
X004482Y007771D03*
X003972Y007771D03*
X003972Y007260D03*
X004482Y007260D03*
X004622Y002431D03*
X004622Y001920D03*
X003972Y001920D03*
X003972Y002431D03*
X003062Y002431D03*
X003062Y001920D03*
X001892Y001920D03*
X001892Y002431D03*
X018042Y003570D03*
X018642Y003570D03*
X019242Y003570D03*
X019842Y003570D03*
X020442Y003550D03*
X021042Y003570D03*
X021642Y003560D03*
X022242Y003540D03*
X022242Y004051D03*
X021642Y004071D03*
X021042Y004081D03*
X020442Y004061D03*
X019842Y004081D03*
X019242Y004081D03*
X018642Y004081D03*
X018042Y004081D03*
X022132Y008710D03*
X022132Y009221D03*
D15*
X004802Y011782D03*
X004802Y012530D03*
D16*
X007782Y005066D03*
X007782Y003578D03*
X009790Y003611D03*
D17*
X009745Y005066D03*
D18*
X009307Y005084D02*
X010207Y005084D01*
X010207Y005036D02*
X009307Y005036D01*
X009307Y004987D02*
X010207Y004987D01*
X010207Y004939D02*
X009307Y004939D01*
X009307Y004890D02*
X010207Y004890D01*
X010207Y004842D02*
X009344Y004842D01*
X009307Y004878D02*
X009570Y004616D01*
X010207Y004616D01*
X010207Y005503D01*
X009307Y005503D01*
X009307Y004878D01*
X009392Y004793D02*
X010207Y004793D01*
X010207Y004745D02*
X009441Y004745D01*
X009489Y004696D02*
X010207Y004696D01*
X010207Y004648D02*
X009538Y004648D01*
X009307Y005133D02*
X010207Y005133D01*
X010207Y005182D02*
X009307Y005182D01*
X009307Y005230D02*
X010207Y005230D01*
X010207Y005279D02*
X009307Y005279D01*
X009307Y005327D02*
X010207Y005327D01*
X010207Y005376D02*
X009307Y005376D01*
X009307Y005424D02*
X010207Y005424D01*
X010207Y005473D02*
X009307Y005473D01*
D19*
X008368Y006146D03*
X007856Y006146D03*
X005418Y006276D03*
X004906Y006276D03*
X004956Y005366D03*
X005468Y005366D03*
X003188Y006956D03*
X002676Y006956D03*
X002676Y007776D03*
X003188Y007776D03*
X001928Y005326D03*
X001416Y005326D03*
X002536Y003206D03*
X003048Y003206D03*
X003856Y003196D03*
X004368Y003196D03*
X006116Y001926D03*
X006628Y001926D03*
X014666Y003516D03*
X015178Y003516D03*
G36*
X019435Y005228D02*
X019183Y005480D01*
X019489Y005786D01*
X019741Y005534D01*
X019435Y005228D01*
G37*
G36*
X019797Y004866D02*
X019545Y005118D01*
X019851Y005424D01*
X020103Y005172D01*
X019797Y004866D01*
G37*
X027413Y010708D03*
X027925Y010708D03*
X027909Y011279D03*
X027397Y011279D03*
X019118Y015496D03*
X018606Y015496D03*
X017478Y015796D03*
X016966Y015796D03*
X017166Y012386D03*
X017678Y012386D03*
X017936Y010966D03*
X018448Y010966D03*
X008638Y011716D03*
X008126Y011716D03*
X003428Y016546D03*
X002916Y016546D03*
X001798Y016526D03*
X001286Y016526D03*
X005686Y018496D03*
X006198Y018496D03*
X007326Y018496D03*
X007838Y018496D03*
X003508Y019946D03*
X002996Y019946D03*
X001838Y019936D03*
X001326Y019936D03*
G36*
X023441Y019021D02*
X023189Y018769D01*
X022883Y019075D01*
X023135Y019327D01*
X023441Y019021D01*
G37*
G36*
X023803Y019382D02*
X023551Y019130D01*
X023245Y019436D01*
X023497Y019688D01*
X023803Y019382D01*
G37*
D20*
X003527Y005627D03*
X003331Y005627D03*
X003134Y005627D03*
X002937Y005627D03*
X002937Y004524D03*
X003134Y004524D03*
X003331Y004524D03*
X003527Y004524D03*
D21*
X003783Y004780D03*
X003783Y004977D03*
X003783Y005174D03*
X003783Y005371D03*
X002681Y005371D03*
X002681Y005174D03*
X002681Y004977D03*
X002681Y004780D03*
D22*
X003232Y005076D03*
D23*
X002363Y014074D03*
X002367Y015677D03*
X002418Y017602D03*
X002422Y019204D03*
X006774Y017664D03*
X006770Y016061D03*
D24*
X010362Y019116D03*
X009362Y019216D03*
X011362Y019216D03*
X012362Y019116D03*
X013362Y019216D03*
X014362Y019116D03*
X017472Y019556D03*
X018472Y019456D03*
X019472Y019556D03*
X030732Y019216D03*
X031732Y019216D03*
X031832Y020216D03*
X031832Y018216D03*
X030832Y018216D03*
X030732Y017216D03*
X031732Y017216D03*
X031832Y016216D03*
X030832Y016216D03*
X030732Y015216D03*
X031732Y015216D03*
X031832Y014216D03*
X030832Y014216D03*
X030732Y013216D03*
X031732Y013216D03*
X031832Y012216D03*
X030832Y012216D03*
X030732Y011216D03*
X031732Y011216D03*
X031832Y010216D03*
X030832Y010216D03*
X030732Y009216D03*
X031732Y009216D03*
X031832Y008216D03*
X030832Y008216D03*
X030732Y007216D03*
X031732Y007216D03*
X031832Y006216D03*
X030832Y006216D03*
X030732Y005216D03*
X031732Y005216D03*
X031832Y004216D03*
X030832Y004216D03*
X030732Y003216D03*
X031732Y003216D03*
X031832Y002216D03*
X030832Y002216D03*
X030732Y001216D03*
X031732Y001216D03*
X027712Y002216D03*
X026712Y002316D03*
X025712Y002216D03*
X024712Y002316D03*
X023712Y002216D03*
X023702Y003326D03*
X024702Y003226D03*
X025702Y003326D03*
X026702Y003226D03*
X027702Y003326D03*
D25*
X003600Y009062D03*
X001513Y009062D03*
X001513Y012369D03*
X003600Y012369D03*
D26*
X003698Y011346D03*
X003698Y011031D03*
X003698Y010716D03*
X003698Y010401D03*
X003698Y010086D03*
D27*
X018042Y002961D03*
X018642Y002961D03*
X019242Y002961D03*
X019842Y002961D03*
X020442Y002961D03*
X021042Y002961D03*
X021642Y002951D03*
X022242Y002951D03*
X022242Y002360D03*
X021642Y002360D03*
X021042Y002370D03*
X020442Y002370D03*
X019842Y002370D03*
X019242Y002370D03*
X018642Y002370D03*
X018042Y002370D03*
D28*
X005422Y006924D03*
X005422Y008007D03*
X001472Y007377D03*
X001472Y006294D03*
X001302Y004297D03*
X001302Y003214D03*
X005142Y003584D03*
X005142Y004667D03*
D29*
X012442Y016406D03*
D30*
X013942Y016656D03*
X013942Y017156D03*
X013942Y016156D03*
X013942Y015656D03*
X010942Y015656D03*
X010942Y016156D03*
X010942Y016656D03*
X010942Y017156D03*
D31*
X033282Y017216D03*
X033282Y016216D03*
X033282Y015216D03*
X033282Y014216D03*
X033282Y013216D03*
X033282Y012216D03*
X033282Y011216D03*
X033282Y010216D03*
X033282Y009216D03*
X033282Y008216D03*
X033282Y007216D03*
X033282Y006216D03*
X033282Y005216D03*
X033282Y004216D03*
X033282Y003216D03*
X033282Y002216D03*
X033282Y001216D03*
X033282Y018216D03*
X033282Y019216D03*
X033282Y020216D03*
D32*
X030832Y020216D03*
X020472Y019456D03*
D33*
X025992Y009016D03*
X028492Y009016D03*
D34*
X001352Y001926D03*
X001892Y003206D03*
X002572Y004226D03*
X003232Y005076D03*
X002462Y005686D03*
X002902Y006316D03*
X003502Y006306D03*
X004262Y006306D03*
X004192Y005776D03*
X005922Y004986D03*
X006372Y005646D03*
X007332Y006146D03*
X008942Y006146D03*
X008512Y005066D03*
X010462Y004946D03*
X010752Y005426D03*
X010432Y005756D03*
X012032Y006306D03*
X012797Y005926D03*
X012247Y005396D03*
X013902Y005046D03*
X014402Y003936D03*
X013322Y003576D03*
X011812Y003836D03*
X015182Y002966D03*
X016372Y003276D03*
X017342Y003956D03*
X016272Y005076D03*
X016772Y005316D03*
X016792Y005886D03*
X018762Y007486D03*
X016292Y008606D03*
X014237Y008386D03*
X014237Y007886D03*
X014237Y007386D03*
X013887Y007036D03*
X013397Y006546D03*
X012032Y007666D03*
X011912Y008656D03*
X011292Y010166D03*
X011402Y011666D03*
X011912Y012656D03*
X014502Y011816D03*
X015822Y011396D03*
X016692Y012386D03*
X018272Y012476D03*
X018972Y010966D03*
X020142Y011006D03*
X020932Y010126D03*
X021542Y010296D03*
X022132Y009776D03*
X020142Y009246D03*
X018662Y010126D03*
X017372Y010966D03*
X017202Y010476D03*
X014237Y008886D03*
X009122Y008796D03*
X007812Y008746D03*
X007502Y009306D03*
X007532Y009746D03*
X004572Y010246D03*
X004492Y008866D03*
X005422Y007596D03*
X007352Y007906D03*
X003852Y004226D03*
X005822Y003866D03*
X007312Y002736D03*
X007412Y001936D03*
X001332Y005886D03*
X001472Y007776D03*
X006152Y012846D03*
X004812Y014766D03*
X005242Y015416D03*
X005842Y014986D03*
X006782Y016826D03*
X008412Y018496D03*
X010472Y016666D03*
X010482Y016156D03*
X010492Y015396D03*
X012442Y016426D03*
X011942Y016956D03*
X013102Y016966D03*
X014952Y017336D03*
X016692Y016276D03*
X017042Y016576D03*
X017452Y016856D03*
X016512Y015796D03*
X015532Y015966D03*
X015252Y015626D03*
X014932Y015426D03*
X014572Y014976D03*
X014492Y014456D03*
X015022Y014046D03*
X018032Y015496D03*
X019892Y015406D03*
X020132Y015726D03*
X021202Y015706D03*
X021932Y014816D03*
X022762Y015466D03*
X022522Y016016D03*
X023522Y016456D03*
X024302Y016266D03*
X024882Y016326D03*
X025342Y015636D03*
X026002Y015776D03*
X026092Y014926D03*
X025482Y013756D03*
X025052Y013866D03*
X025452Y012596D03*
X025652Y012126D03*
X026142Y012286D03*
X027172Y012566D03*
X025142Y011756D03*
X024472Y011526D03*
X023582Y011806D03*
X022932Y011806D03*
X022522Y011976D03*
X021482Y012316D03*
X022132Y013156D03*
X021532Y013286D03*
X021212Y014036D03*
X024082Y012416D03*
X025672Y010336D03*
X026292Y010216D03*
X027922Y009896D03*
X022132Y008146D03*
X020112Y004826D03*
X017652Y002376D03*
X032232Y001526D03*
X024352Y015106D03*
X026522Y016906D03*
X025022Y017486D03*
X022132Y017786D03*
X022122Y019456D03*
X024062Y019766D03*
X019532Y017416D03*
X016352Y019116D03*
X005122Y018496D03*
X003982Y019966D03*
X002422Y018356D03*
X000832Y019936D03*
X000832Y016526D03*
X002372Y014796D03*
X000882Y013386D03*
M02*
